<svg height="148" viewBox="0 0 149 148" width="149" xmlns="http://www.w3.org/2000/svg"><g fill="none" fill-rule="evenodd" transform="translate(0 -2)"><g fill="#e2e8f0" transform="translate(0 10)"><path d="m12.819426 0h42.361148c4.4575937 0 6.0740249.46412806 7.7036545 1.33566352s2.9085725 2.15047833 3.780108 3.78010796c.8715354 1.62962963 1.3356635 3.24606082 1.3356635 7.70365452v42.361148c0 4.4575937-.4641281 6.0740249-1.3356635 7.7036545-.8715355 1.6296296-2.1504784 2.9085725-3.780108 3.780108-1.6296296.8715354-3.2460608 1.3356635-7.7036545 1.3356635h-42.361148c-4.4575937 0-6.07402489-.4641281-7.70365452-1.3356635-1.62962963-.8715355-2.9085725-2.1504784-3.78010796-3.780108s-1.33566352-3.2460608-1.33566352-7.7036545v-42.361148c0-4.4575937.46412806-6.07402489 1.33566352-7.70365452s2.15047833-2.9085725 3.78010796-3.78010796 3.24606082-1.33566352 7.70365452-1.33566352z"/><path d="m84.819426 0h42.361148c4.457594 0 6.074025.46412806 7.703655 1.33566352 1.629629.87153546 2.908572 2.15047833 3.780107 3.78010796.871536 1.62962963 1.335664 3.24606082 1.335664 7.70365452v42.361148c0 4.4575937-.464128 6.0740249-1.335664 7.7036545-.871535 1.6296296-2.150478 2.9085725-3.780107 3.780108-1.62963.8715354-3.246061 1.3356635-7.703655 1.3356635h-42.361148c-4.4575937 0-6.0740249-.4641281-7.7036545-1.3356635-1.6296296-.8715355-2.9085725-2.1504784-3.780108-3.780108-.8715354-1.6296296-1.3356635-3.2460608-1.3356635-7.7036545v-42.361148c0-4.4575937.4641281-6.07402489 1.3356635-7.70365452.8715355-1.62962963 2.1504784-2.9085725 3.780108-3.78010796s3.2460608-1.33566352 7.7036545-1.33566352z"/><path d="m84.819426 72h42.361148c4.457594 0 6.074025.4641281 7.703655 1.3356635 1.629629.8715355 2.908572 2.1504784 3.780107 3.780108.871536 1.6296296 1.335664 3.2460608 1.335664 7.7036545v42.361148c0 4.457594-.464128 6.074025-1.335664 7.703655-.871535 1.629629-2.150478 2.908572-3.780107 3.780107-1.62963.871536-3.246061 1.335664-7.703655 1.335664h-42.361148c-4.4575937 0-6.0740249-.464128-7.7036545-1.335664-1.6296296-.871535-2.9085725-2.150478-3.780108-3.780107-.8715354-1.62963-1.3356635-3.246061-1.3356635-7.703655v-42.361148c0-4.4575937.4641281-6.0740249 1.3356635-7.7036545.8715355-1.6296296 2.1504784-2.9085725 3.780108-3.780108 1.6296296-.8715354 3.2460608-1.3356635 7.7036545-1.3356635z"/><path d="m12.819426 72h42.361148c4.4575937 0 6.0740249.4641281 7.7036545 1.3356635 1.6296296.8715355 2.9085725 2.1504784 3.780108 3.780108.8715354 1.6296296 1.3356635 3.2460608 1.3356635 7.7036545v42.361148c0 4.457594-.4641281 6.074025-1.3356635 7.703655-.8715355 1.629629-2.1504784 2.908572-3.780108 3.780107-1.6296296.871536-3.2460608 1.335664-7.7036545 1.335664h-42.361148c-4.4575937 0-6.07402489-.464128-7.70365452-1.335664-1.62962963-.871535-2.9085725-2.150478-3.78010796-3.780107-.87153546-1.62963-1.33566352-3.246061-1.33566352-7.703655v-42.361148c0-4.4575937.46412806-6.0740249 1.33566352-7.7036545s2.15047833-2.9085725 3.78010796-3.780108c1.62962963-.8715354 3.24606082-1.3356635 7.70365452-1.3356635z"/></g><path d="m89.8219205 6.00170008 45.0373425-.00132081c5.522847-.00096805 10.000169 4.47601463 10.000379 9.99886213 0 .0002529 0 .0005058-.000759.0007586l-.00132 45.0232004c-.000782 4.4574001-.465073 6.0737429-1.336724 7.7033218s-2.150596 2.9085245-3.780175 3.7801751c-1.629579.8716505-3.245922 1.3359422-7.703322 1.3367236l-45.037342.0013208c-5.5228475.000968-10.0001698-4.4760147-10.0003792-9.9988622 0-.0002528 0-.0005057.0007585-.0007585l.0013207-45.0232005c.0007814-4.4574001.4650731-6.0737429 1.3367237-7.7033218.8716505-1.62957887 2.1505961-2.90852447 3.780175-3.78017501s3.2459217-1.33594223 7.7033218-1.33672361z" fill="#805ad5" transform="matrix(.98480775 .17364818 -.17364818 .98480775 8.61775 -18.656215)"/></g></svg>