<svg height="80" viewBox="0 0 80 80" width="80" xmlns="http://www.w3.org/2000/svg"><g fill="none" fill-rule="evenodd"><circle cx="40" cy="40" fill="#f6f5ff" r="40"/><g transform="translate(15 1)"><path d="m31 0h16c2.209139 0 4 1.790861 4 4v34c0 2.209139-1.790861 4-4 4h-16c-2.209139 0-4-1.790861-4-4v-34c0-2.209139 1.790861-4 4-4z" fill="#d6bcfa"/><path d="m4 0h16c2.209139 0 4 1.790861 4 4v34c0 2.209139-1.790861 4-4 4h-16c-2.209139 0-4-1.790861-4-4v-34c0-2.209139 1.790861-4 4-4z" fill="#d6bcfa"/><g fill="#fff" stroke="#805ad5" stroke-width="2"><rect height="10" rx="2" width="18" x="3" y="16"/><rect height="10" rx="2" width="18" x="3" y="3"/></g></g><g fill="#fff" stroke="#805ad5" stroke-width="2" transform="translate(27 34)"><rect height="10" rx="2" width="18" y="27"/><rect height="10" rx="2" width="18" x="4" y="23"/><rect height="10" rx="2" width="18" x="8" y="19"/><rect height="10" rx="2" transform="matrix(.96592583 .25881905 -.25881905 .96592583 2.990555 -6.715521)" width="18" x="18" y="3"/></g></g></svg>