<?xml version="1.0" encoding="utf-8"?>
<!-- Generator: Adobe Illustrator 24.3.0, SVG Export Plug-In . SVG Version: 6.00 Build 0)  -->
<svg version="1.1" id="Layer_1" xmlns="http://www.w3.org/2000/svg" xmlns:xlink="http://www.w3.org/1999/xlink" x="0px" y="0px"
	 viewBox="0 0 775 594" style="enable-background:new 0 0 775 594;" xml:space="preserve">
<style type="text/css">
	.st0{fill-rule:evenodd;clip-rule:evenodd;fill:#FFFFFF;}
	.st1{fill:#805AD5;}
	.st2{fill:#6C46C0;}
</style>
<g>
	<rect id="bg" class="st0" width="775" height="594"/>
	<image style="overflow:visible;enable-background:new    ;" width="775" height="594" xlink:href="ia-avatar.png" >
	</image>
	<path id="Shape" class="st1" d="M275.9,255.9c0.3-5,2.1-8.5,3.5-13c0.6-1.1,3.2-1.9,3.7-4.9c-1.4,0.9-2.3,1.5-3.3,2.1
		c-1.2,0.7-2.4,1.4-3.7,2c-1.2,0.4-2.4,0.7-3.7,1l-0.9-0.8c-2.2,1-4.6,1.5-6,4.1c-0.8-1.1-1.4-2-2.5-3.4v-5.6l3.2-2
		c2.9,1.5,5-0.8,7.5-1.6c0.7-0.2,1.5-0.5,2.2-0.7c1.6-0.3,3.3-0.4,4-2.4c0.2-0.5,1.3-0.7,1.9-1.1c2-1.3,4.4-2.1,5.6-4.5
		c0.6-0.8,1.3-1.5,2.1-2c0.6-0.5,1.6-0.7,1.9-1.3c1.2-2.4,3.4-3.7,5.3-5.2c2-1.5,2.9-4.1,5.6-4.6c0.3-2.9,3.5-3,4.9-4.9
		c1.2-1.8,2.7-3.3,4.5-4.6c0.7-0.5,0.8-1.7,1.5-2.3c1-1,1.7-2.5,3.6-2.2c0.4,0.1,1.2-0.6,1.5-1c2.5-3.3,6.2-5,9.8-6.6
		c2.2-1,4.2-2.3,5.9-4c0.9-0.9,2-1.9,3.1-2.1c4.7-0.6,8.1-5.2,13.2-4.3c1.7-1.8,3.9-1.7,6.2-2.1c3.6-0.6,7.3-0.4,10.8-1.7
		c1.3-0.5,3-0.1,4.4-0.2c1-0.2,1.9-0.4,2.9-0.7c0.1,0.1,0.4,0.4,0.8,0.7c6.4-2.4,11.6-2.6,20.3-1.1c2.1,0.4,4.3,0.1,6.8,0.1l1.5,2
		h5.3c1.1,1,2.1,2.7,3.4,2.9c3.1,0.6,4.1,3.4,6.1,5c0.5,0.5,1,0.9,1.6,1.2c3.9,1.9,5.4,5.8,7.5,9.3c0.2,0.3,0,0.7,0,1
		c2.4,1.4,3.3,2.4,4,4.8c0.8,2.6,1.5,5.3,2.4,8.5c3.7-3.5,8.5-3.1,12.2-5.6c0.2-0.2,0.6-0.1,1,0c5.3,0.8,10.3-1.5,15.6-1.1
		c1.3,0.1,2.6-0.4,3.9-0.4s2.9,0.4,4.3,0.5c2.5,0.1,5-0.3,7.5,0.1c2.1,0.3,3.8,2,6,2.3c1.1,0.2,2.3,0.5,3.4,0.8c3.3,1.5,6,4,7.7,7.2
		c0.4,0.8,0.2,1.9,0.3,3.4l2.5,2c1.8,6.1,3.3,11.3,5.1,17.4l1.4,1.4v4.9l1.9,1.9l-1,1.3c2.4,3.1,0.9,7.9,5.3,11.4
		c0.6,1.2-1,2.2-2.3,3.5v4.3h-3.4l-2.9-6.4l-2,5.5h-2.2l-1.4-2.7c-0.6-3,0.7-6.3-0.7-9.5c-1.3-2.9-1.8-6.2-3.9-8.9
		c-2-2.5-3.6-5.2-5.5-8l-0.1-1.3c-2.6-3-5-5.6-7.2-8.4c-2-2.5-4.5-4.7-7.3-6.3c-2.9-1.7-6-3.2-9.3-4.9c-1,0-2.3,0.1-3.6,0
		c-1.3-0.1-2.5,0.4-3.8-0.6c-0.6-0.5-2.1,1.6-3-0.2l-3.6,1.8c-2.1,0-4.6-0.1-7.1,0s-4.8,0.7-6.3,2.8c-0.6,0.8-0.6,1.9-1.2,4.1
		l4.3-2.9c1.4,0,3.3,0.1,5.1,0c1.8-0.1,3.4-0.6,5.4-1c2.6,3.3,6.9,3.5,10.6,5c2.9,1.1,3,0.8,6,3.5c0.4,0.2,0.8,0.4,1.2,0.6
		c1,0.4,1.9,1,2.8,1.6c0.7,0.6,0.9,2.1,1.5,2.3c1.3,0.3,2.3,0.9,2.4,2c0.1,1.6,1.7,0.8,2,1.6c0.7,1.9,1.8,3.7,2,5.7
		c0.3,2.6,1.3,4.8,2.2,7.4l-4.9,1.6V247c-2.1-2.3-4.6-4-5.3-7.1c-0.2-0.6-0.7-1.1-1.3-1.4c-2.4-1.2-3.2-3.8-5.3-5.2
		c-0.5-0.3-1.3,0-1.9,0l-3.4-3.4l-5.9-2.3c-1.5,0.2-3.5,1-4.8,0.5c-3.2-1.4-5.8-0.7-8.5,0.9c-1.1,0.6-2.2,1.1-3.6,1.7
		c-0.1,2.6-2.9,2.5-4.5,4.1l-2.6-3.1c-1.5-0.3-2.8-0.3-3-0.7c-1-2.1-3.4-1-4.6-2.4c-3.7,0.2-6.4-2.4-9.5-3.6
		c-1.9-0.7-3.7-1.5-5.5-2.5c-1.1-0.6-2.2,1.9-3.1-0.1c-1.4,0.4-2.4-0.6-3.6-1c-0.5-0.2-1.2,0.2-1.8,0.3c-1.2,0.4-2.5,0.5-3.7,0.5
		c-1.2-0.4-2.5-0.4-3.7,0c-1.3,0.5-2.8-0.4-4.2,0.9c-0.5,0.4-2-0.2-3.5-0.4l-2.2,1.2l-7.7-1.3c-1.6-0.3-2,2.1-4.1,1.8
		c-1.4-0.2-3,0.7-4.6,0.9c-1.5,0.1-3.1,0.1-4.6,0l-3.6,2l-3.7-1.3l-2.7,3.3h-4.4c-2.8,2.5-8.5,4.8-11.5,5l-6.1,4.3l-1.4-1.3
		c-2.2,2.5-5.2,1.9-7.6,2l-6.3,3.2l-3.5-1.5c0.1-0.2,0.2-0.6,0.4-0.7c4.4-2.4,9-4.3,12.8-7.7c1.7-1.6,4.1-2.5,4.6-5.1h4.7l1.9-3
		c3.5,0.1,6-4,10-3.1l1.8-1.9h6.1l2.2-2.2l3.3,1c1.7-0.7,3.4-1.3,5.1-1.8c1.8-0.5,4,0.7,5.7-1.1c2.5,2,4.6,1.1,6.7-0.8
		c1.7-0.5,3.7,0.6,5.1-1l1,0.9c3.6-1.8,7.6-0.1,11-1.2c3.6-1.2,6.8,0.5,10.2,0.3c3.4-0.1,7.1,1,10.8,1.6c-0.2-2.3-2.5-2.7-4-3.6
		s-2.3-2.5-4-3.3c-1.8-0.9-3.7-1.6-5.7-1.9c-1.9-0.3-3.6-0.8-5.7-1.4l-1.8-1.8l-4.5,1c-0.9-0.4-1.9-0.7-2.9-0.8
		c-3.7,0.2-7.5-0.8-11.1,0.9c-0.6,0.3-1.7-0.4-2.6-0.6l-1.8,1.8c-3.1-0.7-5.8,0.6-8.5,1.9c-3,1.3-6.1,2.3-9.2,3.1
		c-3.3,1-6.4,2.4-9.2,4.2c-2.4,1.5-5.1,2.3-7.3,4.1s-4.1,3.5-6.9,3.9c-2.3,3-6.9,3.3-8.5,7.3c-0.5,1.3-2.8,2-4.7,3.3H311
		c-4.2,2.4-6.8,6.1-10.8,8.4c-3.9,2.3-7.4,5.6-11.1,8.6c-0.1-0.4-0.4-1.1-0.3-1.3c3.3-3.8,6.5-7.8,10.2-11.2c2.4-2.2,5-4.1,7.3-6.5
		c1.9-1.8,3.6-3.7,5.1-5.9c1.4-2.2,3.4-3.9,5.8-5c0.7-0.2,1.4-0.6,2-1.1c3.5-4.1,8-7.1,12.3-10.2c1-0.5,2-0.9,3-1.1
		c0.1-0.4,0.2-0.9,0.4-1.7c0.7,0,1.7,0.3,2.2-0.1c4.5-2.8,9.6-4.3,14.3-6.4c3.1-1.4,6.3-1.8,9.5-2.5c4.4-1.1,9-1.9,13.5-2.4
		c0.2,0,0.5-0.4,0.4-0.4c1.1,0.3,2,0.9,2.9,0.7c5.1-1,5.1-1.1,10.7,0c0.7,0.1,1.3,0.1,2,0c3.8-0.3,7,1.6,10.1,3.4
		c1.5,0.8,2.9,2,4.5,2.4c1.6,0.2,3,1,4.1,2.2c0.3,0.3,1.3,0,2,0l1,2.1h1.6c1.2,1.4,2.4,2.8,3.7,4.2c1.4,1.3,3.2,2.2,4.4,3.6
		c1,1.3,2.3,2.4,3.8,3.3c0.2-3.2-0.4-5.9-2.5-8.1c-1.4-1.4-1.6-3.7-2.9-4.7s-2.4-2.4-3.9-3.4c-1.7-1-3-2.5-3.8-4.4
		c-0.4-1.1-2.3-1.6-3.8-2.5c-2.3,0.2-4.5-0.4-6.4-1.7c-1.5-0.9-3.2-1.4-4.9-1.4c-4.7-0.5-9.3-1.3-13.9-2.5c-1.5-0.4-3.3-0.1-4.6-0.8
		c-1.2-0.8-2.9-0.7-3.9,0.4c-0.5,0.2-1,0.2-1.5,0c-1.3-0.5-2.2-1.6-3.9-0.6c-0.9,0.5-2.5-0.4-3.8-0.4c-2.5,0.2-5.4,0-7.5,1.1
		c-1.8,1-3.5,0.4-5,1.3l-8.8,3l-0.4-0.7c-0.9,1.2-1.9,2.3-2.1,2.6c-3.6,1.5-6.2,2.4-8.7,3.7c-2.4,1.3-4.6,2.8-6.6,4.5
		c-2.2,1.8-4.8,2.7-7,4.4c-1.9,1.4-3.2,3.7-5.8,4.3c-0.8,1.5-1.3,3.1-3,4.3c-2.1,1.5-4.4,3.3-5.5,6.1c-0.5,1.3-1.5,2.2-2.8,2.7
		c-2.1,0.6-2.1,2.9-3.9,3.8c-1.5,0.8-2.4,2.6-3.2,4.2c-0.8,1.3-1.8,2.4-3,3.3c-4.1,3.5-6.9,8-10,12.4
		C281,249.8,278.7,252.3,275.9,255.9L275.9,255.9z M479,210c-1.2,0-2.8,0-4.5,0c-0.1,0-0.2,0.4-0.5,0.9l2.6,0.1
		c0.2,0.5,0.2,1.4,0.6,1.6c4.6,2.3,7.5,6.2,10.7,9.9c1.2,1.3,1.7,3.2,2.7,5.1c2,0.3,2.3,2.6,3.3,4.2c0.4,0.5,0.9,0.9,1.5,1.2
		c2.1-4.5-3.4-6.6-2.6-10.5c0.1-0.7-0.6-1.8-1.2-2.4C488,216.4,484.5,212.4,479,210z"/>
	<path id="Path" d="M397.9,129.2c0.1-2.8,0.1-5.5-0.1-8.3c-0.3-2.8,2.7-4.6,1.7-7.2c1.5-1.9,3.4-3.4,4.1-5.4c0.9-2.7,3.7-2.8,5-4.8
		c3.6-0.8,7-2.5,10.6-3.4c0.8-0.2,1.8,0.4,2.9,0.7l5-1.9c0-2.8-0.1-5.5,0.1-8.2c0.1-2,0.5-4,1.2-5.9c0.7-1.7,2.2-3.1,2.9-4
		c5.7-1.8,9.8-5.9,15.3-5.7l1.7-1.6c1.6,0,3.8,0.7,4.9-0.2c1.5-1.1,3.5,0.2,4.6-1.5c1.5,0.3,2.9-0.4,5.1-0.8l0.7-0.7l10.9-1.2v2.4
		c-2.7,0.4-4.9,1.6-8.9,3.6c-3.2,1.7-6.5,3.5-10,2.7c-3.3,1.6-6,3.2-9.4,3.5c-2,0.2-3.7,1.4-5.7,1.8c-1.9,0.3-3.7,1.5-5.4,2.5
		c-1.3,0.8-2.5,1.8-3.6,2.8c0,1,0.3,2-0.1,2.7c-0.6,1.1,1.6,1.4,0.4,2.5c-0.6,0.5,1.2,1.3-0.1,1.8l1,2.2l2.6,0.4
		c-0.9,0.6-1.4,1.1-2,1.5c0.5,1.1,1.1,2.1,1.8,3c0.7,0.7,1.8,1.1,3.2,2h10.6c2.4-1.3,4.9-2.6,7.9-2.5c0.4,0,1,0.2,1.3,0
		c3.3-2.2,7.4-1.4,10.9-2.8c1.4-0.6,2.7-0.4,4-0.6c1-0.2,2.1-0.4,3.4-0.7c1.5,0.9,3.2,1,4.8,0.4c2.5-0.7,4.9-1.7,7.7-1.4
		c-1.2,2.7-3.8,3.6-5.9,4.1c-3.1,0.5-5.9,2.1-8,4.4c-2.4,0.3-4.8,0.3-7,1c-3.2,1.1-6.6,0.7-9.7,2.3c-1.1-1.2-1.7,0.4-2.7,0.5
		c-0.9,0.2-1.8,0.5-2.6,0.9c-0.5,0.2-1,0.4-1.5,0.5c-3.2,0.3-6.5,0.9-9.6,1.7c-2.5,0.6-5.1-0.1-6.9-1.9c-2.5-2.1-5.2-4-6.3-7.4h-3.8
		c-2,1.5-4.3,2.8-6.1,4.6c-2,1.9-4.7,1.2-6,2.1c-1.2,1.2-1.8,2.3-2.7,2.6c-2.3,0.8-4.4,2.1-6,4v2.2c-3.4,5-3.3,7.3-0.4,10.3h3.6v0.5
		l-3.1,0.6c0,0.4-0.2,1,0,1.1c1.9,1.5,3.9,3,6.5,3c1.1,0,2.2-0.4,3.2,0.7c0.3,0.4,1.4,0.2,2,0.1c1.5-0.2,2.9-0.6,4.4-0.9
		c1.3-0.2,2.9,0.6,4-0.9c3.8,0.4,7.1-1.3,10.6-2.5c1.4-0.5,3.1-0.1,4.7-0.1c2.7-1.9,5.9-2.8,9.1-2.6l1.4-1.8c1.5,0.1,2.4,1.6,4,0.5
		c1.1-0.7,2.7-0.3,4-0.7c1.2-0.5,2.3-1,3.4-1.7l3.9,2.5l-1.2,1.9h-3.7l-1.3,1.7c-1.8,0.3-3.2-0.1-4.8,0.8c-1.2,0.6-3.1,0.1-4,1.7
		c-3.6-0.1-6.2,3-10.1,2.9c-2.5-0.1-5,1.7-7.5,2.6c-0.7,0.3-1.5,0.4-2.3,0.7c-0.6,0.3-1.1,0.6-1.6,1l-1.1-1.1l-1.5,1.5
		c-4.3,0.3-8.5,1.5-12.9,1.1c-0.4-0.1-0.8,0-1.2,0.2c-1.6,1.5-3,0.5-4.6-0.2c-1.1-0.5-2.2-0.9-3.6-1.3c-0.9-3-5.2-4-5.2-8
		c-3.8-0.7-5.1,3.4-8.1,4c-4.9,0.9-9.9,1.3-14.3,3.8l-1-0.9c-0.6,0.2-1.2,0.4-1.8,0.7c-0.5,0.4-0.9,0.8-1.2,1.2l-10.6,2.1l-3-1.5
		l-1,0.9l-1.7-1.2c-2.2-0.9-4.4-1-5.3-2.1c-1.3-1.6-4-0.3-4.5-3.1c-0.3-1.5-2.6-2.6-3.7-4.1c-1-1.4-1.8-2.9-2.4-4.6
		c-1.7-2-3.8-3.8-3.2-6.9c-1.4-1.5-3-2.8-3.6-5c-0.5-1.9-1.2-3.8-1.6-5c-1.4-1.2-2.8-1.9-3.2-2.8c-0.9-2.9-3.7-2.8-5.6-4.1
		c-0.4-0.3-1.3-0.1-1.5-0.4c-1.1-1.9-4-0.8-4.7-3.1c-1.6,0.7-3.4,1.1-5.2,1.1c-1.4-0.1-2.9,0.2-4.2-0.3c-1.3-0.4-2.4-1.5-3.6,0
		c-1.4-1.5-2.6-0.5-4,0c-0.9,0.3-2,0.1-2.8-0.5c-1-0.8-2.4-1-3.9-1.5v-5.6l3.6-2l0.8,0.8c0.2,0,0.4-0.1,0.6-0.2c1-0.7,1.9-1.9,3-2
		c4.6-0.9,7.5-4.3,10.9-6.8c1.7-1.3,2.8-3.4,4.2-5.2v-2.1c3.1-3.4,2.9-7.5,2.3-11.6c-0.1-0.4-0.5-0.7-0.6-1
		c-0.3-3.2-0.7-6.4-0.9-9.5c-0.1-3.2-0.1-6.3,0-9.5c0-1,0.6-2,0.8-3.1c0.1-1.1,0.1-2.2,0-3.3c1.7-1.8,3.4-3.4,4.4-5.6
		c0.6-1.4,2.2-2.3,3.4-3.4c0.6-0.6,1.3-1,1.9-1.5l10.1-1.3c1.3-2.5,2.9-5.4,4.2-8.5c0.3-0.7,0.6-1.5,1-2.2c0.8-1.4,2.3-0.9,3.3-1.5
		s1.9-1.5,3-2.2c0.9-0.6,1.9-1,3.3-1.7c1.7,0.1,3.3,0.1,5-0.1c1.5-0.2,2.8-1.1,4.3-1.2c1.8-0.2,2.6-2,4.6-2.2l1.1,0.9
		c0.1,0,0.3,0.1,0.4,0c3-2.9,7.7-0.4,10.8-3.5c1.7,0.5,3.9-1.1,5.3,1.1c0.9-0.4,1.5-1.1,2-1c3.3,0.6,6-2.7,9.4-1.5
		c0.1,2.1-1.9,2-2.6,2.2c-1.2,0.3-2.2,0.9-3,1.8H387c-4,1.6-6.7,3.9-10,5c-0.8,0.3-1.7,0-3.1,0l-7.9,1.6l-0.8,1l-6.7,0.9l-0.9-0.7
		c-0.3,0.2-0.7,0.3-1,0.5c-3.1,1.8-6.5,3.1-10,4c-0.1,0-0.2,0.2-0.4,0.4c0.6,1.7-1.1,3.9,1.2,5.3l-0.9,1.2c0.4,3.3,2.5,5.5,4.4,8
		l4.1,2c0.9-0.1,2.6,0.7,3.7-0.6l2.6,1.4c0.1-0.1,0.3-0.2,0.5-0.2c3.2-1.3,6.3-3.1,9.9-3c1.1,0,2.1-2,3.2-0.2c1-1,2.3-0.6,3.4-0.7
		c1.2-0.2,2-0.7,3.1-0.8c1.2-0.1,2.4-0.6,3.5-0.8c2.5-0.4,5.2-0.1,7.7-0.1c0.8-0.1,1.5-0.3,2.3-0.6l3.1,1l-1.4,2.2
		c-3.5-0.6-6.2,1.8-9.4,2.5l-1.2-0.7l-1.5,1.5c-2,0.7-4.3-0.9-6.1,0.9c-2-0.3-3.8,0.6-5.7,0.9c-2,0.4-4.1,0.5-6.1,0.9
		c-1.8,0.4-3.6,1.1-5.4,1.6l-1.3-0.9c-1,0.5-1.9,1.1-2.8,1.5c-0.5,0.2-1.3,0.5-1.6,0.3c-1.5-1.2-3.2-0.5-4.8-0.9
		c-1-0.2-2.6-0.5-2.8-1.2c-0.8-2-3.4-2.1-3.8-4.4c-0.2-1.3-1-2.4-1.5-3.7c-0.4-1.1-0.8-2.2-1.3-3.6c-2.7,0.6-5.2,1.8-7.9,2.5
		c-2.8,0.7-4.7,3.2-7.6,3.8c-1.1,1.7-2.4,3.6-4.1,6.1c-0.5,1.4-0.4,3.7-0.9,5.7c-0.5,1.8,0.5,3.3,0.3,4.9c-0.2,1.5-0.9,3.4,0.7,4.8
		c0.4,4.7,1.6,9.5,0.8,14.2c-0.4,1.9,0,4.2-0.9,5.6c-1.2,2-0.1,3.9-0.9,5.9l-2.1,1.7c-0.9,5.7-4.7,7.9-8,10.9c1.4-0.1,2.7-0.1,4.1,0
		c1.2,0.1,2.4,0.8,3.5,0.8c1.5,0,3,0.4,4.2,1.3c3.8,2.2,7.6,4.6,11.3,6.9v2.7c3.6,0.9,3,4.8,5.2,6.9v3.2c0.6,1.2,1.4,2.3,2.1,3.3
		c0.7,0.9,1.7,1.6,1.3,2.9c2.7,1.5,2.7,5,5.4,6.7c2.6,1.6,4.4,4.6,7.6,5.6c0.7,1.7,3,0.6,3.9,2c2.3-0.7,4.5-1.7,7-1.8s5.2-1,7.8-1.6
		c0.7-0.2,1.4-0.9,2.5-1.7c3.6,0.2,7.3-0.4,10.7-1.7l1.2,0.9C391.6,128.6,394.6,129.7,397.9,129.2L397.9,129.2z"/>
	<path id="Shape_1_" d="M117.7,250c4.1,1.8,7.9,0.6,12,1.1c0.4,0.5,1,1.3,1.5,2c4.5-2,9-1,13.3-1s8.7-0.3,13.1,0.8
		c4.2,1,8.8-0.5,12.9,0.8c2-0.2,4.2-1.1,5.7-0.5c2,0.8,3.3,1.2,5.3,0c1-0.6,2.8,0,4.3,0.3c1.2,0.2,2.4,0.6,4.1,1c0-1.7,0-2.9,0-4.2
		c-0.1-4.9,1.7-9.6,1-14.6c-0.2-1.6,1.9-3.2,0.9-4.5c-1.2-1.6,0.1-2.5,0.2-3.8c0.1-1.7,0.4-3.4,0.7-5c-2.9,0.6-5.8,0.3-8.5-0.8
		c-1.8-0.7-3.9-0.5-5.6,0.6c-0.8-2.4-2.6-0.2-4.2-0.9s-3.9-0.2-5.9-0.3c-1.7-0.1-3.6,0.6-5.2-0.8c-0.9,1.3-2,1-3.1-0.3
		c-2.7,1.2-5.4,2-7.6,0.5c-2.5,0.2-4.6,0.4-6.6,0.6c-0.9,0.1-1.8-1.8-2.7,0c-0.9-1.1-1.5-1.2-2.9-0.3c-0.7,0.5-2.2-0.5-3.4-0.6
		s-2.3-0.1-3.5,0c-1.2,0-2.3,0.1-3.5,0c-1.4-0.1-2.7-0.4-4.3-0.7c-1.1,0.2-2.8,1.1-3.8,0.6c-3.2-1.5-6.4-0.6-9.6-0.9
		c-1-0.1-2.3,0.4-2.9-0.1c-0.9-0.8-1.4-0.2-2.2-0.1c-0.8,0.1-1.8-0.5-2.6-0.8l-2.9-0.9c-1.3,1.4-3.3,0.9-5.3,0.9
		c-1.4-2.2-4.3,0.2-5.8-1.7c-1.9,0.8-3.6-0.7-5.6-0.3c-0.8,0.2-1.7-0.6-2.6-0.8c-0.5-0.1-0.8,1.2-1.8,0.3c-1-1-2.4-0.6-3.3,0.9
		l-3.9-2c-0.4,0.2-0.9,0.8-1.4,0.7c-3-0.2-6.2,0.7-9.1-0.9c-0.6-0.3-1.7,0.4-2.9,0.7c-1.2-0.2-2.7-0.5-4.2-0.8
		c-1.4-0.2-2.7-0.5-4.1-1c-1.5-0.7-2.6,1.4-4.3,0.3c-0.8-0.5-2.6,0.4-4.2,0.8c-0.8-3.8-3.4-7.3-1.4-11.9c-1.1-2.3-1.2-8.6,0.1-11.7
		l-1.7-1.7l2-5.5c-2.9-0.9-5.8-1.6-8.7-2.2c-2.7-0.4-5.4,0-8.1-1c-1.1-0.4-2.6,0.5-4.5,0.9c0.7-3.3-0.8-6.5,1.1-9.6
		c0.5-0.7,0-2,0.1-3c0.1-1.7-0.6-3.6,1-5.1c0.2-0.5,0.2-1,0-1.5c-2.2-4.2,0.8-8.4,0.1-12.7c-0.5-2.9,1.8-4.6,3.7-6.4
		c1.4,0.3,2.8,0.7,4.2,1.2c1.6,0.7,2.9,1.4,4.8,0.1c0.9-0.6,3,0.3,5,0.6l1.3-0.8l2.2,1.2l1.5-1c1,1.4,2.1,1.1,3.2-0.3
		c3,2.1,6.6,0.7,9.9,1.3c1,1.7,2.3-1.3,3.6,0.4c1.1,1.5,2.5-0.3,3.8-0.5c1,0,2,0.2,2.9,0.5c1.3,0.2,2.6,0.4,3.8,0.4
		c1.5,0.1,3-0.1,4.5,0.1c1,0.2,2,0.5,3,0.9l1.3-0.9c1.3,0.3,2.6,0.7,4,0.9s3-0.7,4,1.2c1.8-0.8,3.5-2.3,5.2-0.2
		c0.9-0.4,1.8-1.1,2.7-1c2.4,0.4,4.8,1.1,7.8,1.8c2-0.8,4.4-1.6,7.2-0.1c1,0.6,2.6,0.2,3.9,0.3c2.2,0.2,4.4-0.4,6.7,0.9
		c0.9,0.5,2.7-0.3,4.7-0.7c0.5,0.1,1.7,2,3-0.4c2.7,2,5.8,0.2,8.3,0.9c3.2,1,5.5-2.4,8.4-0.5c0.8,0.3,1.4,0.8,1.7,1.6
		s0.2,1.6-0.2,2.3c-1,1.8-0.7,3.4-0.9,5.2c-0.1,0.9-0.3,1.9-0.6,2.7c-0.7,1.6-0.5,3.4,0.5,4.8c-1.4,5.7-2.8,11.2-4.3,17.5
		c3.5-1.4,6.3-2.1,9.3-0.5c1,0.5,2.7-0.4,4.7-0.7c0,0,0.5,0.8,0.9,0.8c4-0.4,8.1,0.9,12.2-0.8c1.3-0.6,3.4,0.6,5.2,1v5.3
		c-1.8,3-2.8,6.5-2.9,10c-0.1,6-0.8,12-1.2,18.3c7.3,0.5,14.4,2,21.3,1.2c1.8,0.9,2.4,3.1,4.5,3.2c0.1,0.3,0.5,0.6,0.4,0.8
		c-1,2.2,2.5,4.1,0.3,6.3c-1.6,1.6-0.9,3.9-1.8,5.8c-0.3,0.6-0.5,1.2-0.5,1.8c-0.3,2.7-0.5,5.5-0.5,8.3c0.2,2.4-0.8,4.6-0.6,7
		c0.2,2.8,0.1,5.7,0.1,7.6l-1.9,3.3l-1.5-2.6c-2.6-1.4-5.6-1.4-8.7-1.3c-0.7,0-1.5-0.6-2.2-0.6c-1.2-0.2-2.5-0.1-3.7,0.2
		c-2,0.7-4.1,0.7-6.1,0c-0.4-0.2-1.1-0.6-1.2-0.5c-1.5,1.6-2.8-0.9-4.2,0c-0.3,0.2-0.6,0.5-0.9,0.8c-0.7-0.4-1.5-0.6-2.3-0.8
		c-3-0.1-6,0-9-0.1c-1.8,0-3.6-0.1-5.3-0.5c-1.3-0.3-2.6,1-4.1-0.4c-0.6-0.6-2.6,0.3-3.7,0.5l-8.5-1.3c-2.1,1.6-5,0.4-7.8,0
		c-1.6-0.3-3.1-0.8-4.2,0.4c-0.9-0.3-1.9-0.6-2.8-0.7c-7.7,0.1-15.3-1.7-23.1-1.1c-1-0.1-2-0.4-2.9-0.8c-2,0.9-4.2,1.8-6.3,0.1
		c-3,1.9-5.8-0.8-8.8-0.4c-2.7,0.4-5.7-0.5-8.9-0.9c0.4-3.5,0.3-7.1,1.3-10.4c0.3-1.4,0.6-2.8,0.7-4.2c0.2-1.9,0.6-3.7,1.1-5.6
		c0.5-1.5-1-2.4-0.5-3.9c0.3-1.2,0.5-2.5,0.4-3.8c0.1-1.5,0-3,0-4.3c1.2-2.6,3.5-1.5,5.4-1.8l1.9,3.6l-1.8,1.1
		c-0.6,2.3-0.9,3.8-1.3,5.6c0.2,0.7,0.9,1.8,0.8,2.8c-0.5,3.9-1,7.8-2.7,11.5c0.4,0.9,1,1.9,1.6,3l-1.9,2.1c2.2,0.5,4.4,1,6.6,1.3
		c2.3,0.1,4.7,0.1,7,0c4.2-0.1,8.3,1.4,12.6,1.1c4.3-0.4,8.7-0.1,13-0.1c0.8,0.1,1.5,0.4,2.2,0.7C114.8,251.5,116.6,251.1,117.7,250
		L117.7,250z M81.7,182.7c-2.2-0.5-3.8-3.2-6.1-0.7c-1.6-1.9-3.7-0.7-5.6-0.9c-1.8-0.1-3.7-0.1-5.5,0c-2,0-4,0.1-6,0
		c-1.7-0.1-3.6,0.6-5-0.9c-1.4,2-3.9,0-5.3,1.3c-0.1,0.9-0.2,1.7-0.5,2.5c-1.4,2.5-1.5,5.1-1.7,7.8c-0.4,5.4,1.7,10.6,1,15.9
		c1.2,0.5,2.2,1.3,3.2,1.4c2.1,0.2,4.3-0.1,6.5,0.1c2.2,0.2,4,0.7,6.1,0.9c3.2,0.3,6.4-0.4,9.6,0.9c1.6,0.6,3.6,0.1,5.4,0.1
		s3.4-0.3,5,0.7c1.7-2.1,3,0.9,4.8,0.4c2-0.4,4-0.5,6-0.1c1.7,0.4,3.5,0.7,5.3,0.8c1.2,0,2.1,1.4,3.3,0.5c1.3-0.9,2.3-0.3,3.5,0.6
		c0.8,0.6,2.1-1.7,3.1,0.1c4.4,0.3,8.7,0.7,13.1,1c1.3,0,2.5,0.3,3.7,0.8c1.8,0.8,3.8,0.5,5.3-0.6l7.5,1.8c0.6-0.4,1.2-0.7,1.9-0.8
		c1.3-0.2,3.1,0.5,3.9-0.2c1.6-1.4,2.5,0.3,3.8,0.2c3.2-0.2,6.5-0.5,9.6,0.8c0.9,0.4,2,0.4,2.9,0c2.5-1.8,5-0.8,8-0.2
		c-1.7-2.3-1.9-5.4-0.5-7.9c1.3-2.6,1.8-5.8,0.8-8.4c-1.3-3.3-0.4-6.5-0.6-9.7c0-1,1.4-2.1,0.4-3.7c-1.3,0-2.8,0-4.3,0
		c-2,0-4.1-0.3-5.9,0.2c-1.8,0.6-3.6-1.2-5.2-0.2c-1.8,1.1-3.4-0.5-5.2-0.1s-3.7-0.9-5.7-0.1s-4-0.8-6.1-0.9c-5-0.2-10.1,0.3-15.1-1
		c-1.3-0.3-2.7,0-4-0.1c-1-0.1-2.6-0.9-2.9-0.6c-1.5,1.7-2.3-0.4-3.4-0.4c-4.9-0.3-9.8-0.6-14.8-1c-1-0.2-1.9-0.4-2.8-0.7
		C89.8,185.3,85.5,180.2,81.7,182.7L81.7,182.7z M46.3,176c2.5,0.2,4.8-0.6,6.8,1.1c1.2-1.4,3.3-1.5,4.7-0.3
		c4.3-1.5,8.4-0.9,12.8,0.1c2.8,0.6,6,0.2,9,0.1c3-0.1,5.9,1.5,9.1,1.1c1.6-0.2,3.4-0.5,5.2,0.8c0.9,0.6,3-0.3,4.9-0.6
		c0.7,0.3,1.4,0.5,2.2,0.7c4,0.4,8.1,0.4,12,1.2c1.4,0.3,3-0.6,3.6,0c1.7,1.5,3.5,0.7,5.2,0.9s3.3,0.2,5,0c1.6-0.2,3.1,1.4,4.7,0
		c2.3,1.8,5,0.7,6.6,0.9c3.4-1,2.1-3.3,2.6-4.9c1.1-3.5,2-7.1,1.7-10.8c-1.7-1.3,1.1-3.5-1-4.7c2.3-2.7,0.6-5-0.4-7.5
		c-4,0-7.8,0.1-11.6,0s-8,0.4-11.8-0.5c-3.6-0.9-7.3,0.3-10.9-1.3c-1.8-0.8-4.3-0.1-6.4-0.1c-2,0-4,0-6,0s-3.7-0.7-5.7-0.1
		c-1.4,0.4-3-0.4-4.8-0.7l-1.1,0.9c-2-0.6-3.9-1.9-5.5-1.6c-1.9,0.4-3.5,0.8-4.8-0.6l-1.4,1c-1.8-0.3-3.1-0.6-4.5-0.8
		s-2.5,0.1-3.7-0.9c-0.5-0.4-2.1,0.6-3.3,0.4c-1.2-0.2-2.6-0.4-3.9-0.5c-1.5-0.1-3,0-4.5,0c-1.3,0-2.7-0.1-4,0s-3-0.7-4.1,1
		c-2.5-1.2-6.8-1.4-14.5-0.6c0,1.3-0.5,3,0.1,3.8c1.1,1.4-0.3,2.2-0.2,3.3c0.1,1.3,0.1,2.7,0,4c0,1.5-0.4,3.1,0.1,4.5
		c0.5,1.3-1.7,1.9-0.5,3.4c0.5,0.6-0.5,2.2-0.6,3.4s0,2.6,0,4.2l13.8,2.3c2.6-1.2,1.9-4.4,4.8-4.3L46.3,176z"/>
	<path id="Path_1_" class="st1" d="M458,431.9v1.3l6.9,8.3l-0.9,1c2.8,2.2,6.2,1.4,9.8,1.5c0.5,0.9,1,1.9,1.6,3l-2.5,2.8
		c0.5,0.8,0.9,1.5,1.3,2.3c-1.6,3-5.9,1.6-7.3,4.8h-4.3l-2,2c-3.1-2.3-7.1,0.6-10.2-1.8c-1.5,1.8-4,1.3-5.4,0.7
		c-1.8-0.7-3.3,1.1-4.6,0c-1.8-1.5-3.8-0.4-6.1-1c-0.2-0.3-0.7-0.9-1.3-1.8c-0.8-0.1-1.6-0.1-2.4,0c-1.4,0.2-2.8,1-4.1,0.8
		c-1.3-0.2-2.5-1.5-3.8-1.6s-2.5-1.5-3.7-0.7c-1.7,1.3-2.4-1.3-4-0.7c-1.6,0.7-3.4-0.3-4.5-1.1c-2.3-1.8-4.7-1.9-7.3-1.8
		c-3.9,0.2-7.5-0.9-11.4-1.9c-1.9,0.8-2.5,0.8-4.1,0c-1.8,0.6-3.3,1.7-4.9,1.7c-5.1,0.1-9.9,1.9-14.7,3.2c-4.8,1.3-9.1,3.7-13.2,5.5
		l-11.4,1.5l-1.7,1.7c-1.4-0.9-3.3-1.1-4.8-0.4c-1.4,0.5-3,0.2-4.3-0.6c-1.7-1.5-3.5-0.4-4.6-0.8l-4.5-3h-4.2l-3.2-4.6
		c-1.1-0.5-2.2-1-3.4-1.4c-1.2-0.2-2.5-0.5-3.7-0.8c-1.2-0.7-2.2-1.4-3.2-2.3l1.9-2.3l1.9,1c1.4-0.9,3.1-1,4.6-0.2
		c0.9,0.5,2.6,0.9,3.2,0.4c2.1-1.6,4.4-0.6,6.7-0.9c1.5-0.1,3.1,0.4,4.5-0.1c2.6-1,5.1-2.1,7.6-3.4c1.3-0.6,2.4-1.5,3.9-2.5h2.6
		c2-2.6,5.1-3.8,7.5-5.8c2.8-2.4,5.8-4.5,8.9-6.5c3.4-2.1,6.6-4.6,9.4-7.5c1.2-1.3,1.7-1.4,4.9-2.1c-1,3.6-2.5,7.1-5.6,8.6
		c-3.3,1.6-4.1,4.8-6.5,6.9c-1.4,5.1-5.6,7.4-10,9.5c-0.6,0.3-0.9,1-1.7,1.9c-2.5-0.1-5.1,0.6-7.3,4l-6.2,1.5
		c1.8,1.5,4.3-0.5,5.6,1.5c1.6-1.9,3.8-0.4,5.6-1.1c1.8-0.7,3.4-2.1,5.7-2c1.4,0,2.8-0.5,3.9-1.2c3.1-1.8,6.2-3,8.7-2.8
		c5.5-1.6,9.3-4.5,13.4-7c0.1,0.8,0.1,1.5,0.2,2.5c-0.9,0.9-2,2-3.1,3.1l0.4,0.6l6.9-3.2c1.9-0.4,5,1,7.7-0.9c0.6-0.3,1.3-0.3,2,0
		c2.7,1.7,5.7,0.6,7.5,0.9l9.4,4.1c2.7-2,6-0.5,9.1-1.3c-1.5-2.4-5.1-1.5-6-4.4c-0.9-3.8,3.7-3,4.3-5.5l24.1,10.2c2,0.2,5.2-0.8,8,1
		c0.2-0.2,0.4-0.3,0.4-0.4c0.1-0.6,0.1-1.3,0.2-2.1c-2.2-1.1-4.5-2.1-6.2-4.1c-0.7-0.8-2-1.1-2.7-1.8c-2-2-5-1.2-7.4-3
		c-1.8-1.3-4.6-1.8-7.3-1.6c-1.6,0.1-2.9-1.3-4.6-1c-1.6,0.1-3.2,0.1-4.8,0c-0.1-0.8-0.1-1.6-0.2-2.8c0.9-0.9,1.8-1.7,2.8-2.4
		c1.4-0.9,3-1.6,4.7-2c1.6-0.5,2.3,1.8,3.9,0.5c0.7-0.5,2.6,0.4,3.9,0.6c1.3,0.4,2.7,0.7,4.1,1c2.1,0.2,3.2,2.8,5.5,2.4
		c1,2.1,3.5,1.1,4.9,2.4c-0.3-2.6-2.2-3.9-4.7-5.2v-3.1l-14.5-9.4l-1,0.9l-2.3-1.9c-1.6,0.3-3.1,2.3-4.7,0.1h-9.8l-2.1-1.6
		c0.4-0.7,0.5-1.2,0.8-1.5c1.6-1,3.2-1.9,4.6-2.7l6.2-1c2.9,1.7,6.6,0.2,10,1.1l6,2.1l3.4,3.5h3c0.1,0.7,0.2,1.5,0.3,2.6
		c1.6,1.3,2.6,3.9,5.8,3.5c-0.4,2.7,1.5,3.9,3,5.3c1.8,1.5,3.2,3.5,4.1,5.7C455.5,430.1,456.8,430.8,458,431.9L458,431.9z"/>
	<path id="Shape_2_" d="M686.2,205.6l0.9,1.1l-1.5,3.3c-0.7,0-1.8,0.2-2.2-0.2c-2.9-3-6.5-4.1-10.5-4.9c-1.8-0.3-3.3-1.5-5.1-2.3
		c-4.3,5-4.8,11.1-7,16.9c1.1,1,2.4,1.8,3.7,2.5c1.3,0.5,2.9-0.3,4,1c1.9-2.2,2,1.1,3.3,1.2c1.3,0.1,2.4,1.4,3.7,1.8
		c2.6,0.8,5.1,1.6,6.9,3.9c0.3,0.4,1.5,0.2,2.3,0.3v4.5c-4-2-7.6-3.8-11.1-5.6c-1-0.5-1.8-1.9-2.7-1.9c-3.6,0.1-6.4-3.6-11-1.5
		c-2.3,2-3.7,4.7-4,7.7c-0.2,2.3-2.7,4.5-2.6,6.8c0,2.8-2.9,4-2.4,6.6c-1.8,1.4,0.2,4.5-2.5,5.5c-0.4,1.8-0.5,3.7-1.4,5.4
		c-0.9,1.8-1.8,3.6-2.5,5.5c-0.7,1.8-1.2,3.7,0.6,5.6c-3.8,0.4-3.2,3.8-4,6.1c-0.4,1.7-0.7,3.4-0.9,5.1c3.7,1.3,8,2.2,11.6,4.3
		c3.8,2.2,8.4,2.6,11.8,5.8h4.9c2.1-3.9,1.8-8.8,4.7-12.7h3.6c0.2,0.6,0.4,1.2,0.6,1.8l1-0.8c2,1.2,4.4,1.6,6.8,2
		c3.1,0.5,6.1,1.2,9,2.2c3.2,1.1,6.1,3,9.5,3.7c3.3,0.8,6.6,1.8,9.8,2.9c5,1.6,9.9,3.6,14.9,5.1c0.9,0.3,1.5,1.8,2.2,2.7l3.3-2.3
		v3.3l-2.8,1.8c-0.7,3.2-2.9,6.4-3.1,10.3c-0.1,1.9-1.6,3.2-2.1,5.1c-1.3,5.1-3.4,9.9-4.8,15c-0.6,2.3-1.8,4.4-3.6,5.9
		c-0.3-0.3-0.7-0.6-1.1-0.8c-1.7,1.7-4.2,1.4-5.6,0.7c-4.2-1.9-8.7-2.3-13-3.7c-2.3-0.8-4.3-2.5-7.1-2.3c-2.4,0.1-4.9-1-7.1-1.9
		c-5-2-10.3-2.6-15.3-4.1c-2.9-0.9-6.2-1.1-8.6-3.5c-0.6-0.6-1.8-0.5-2.8-0.7c0.1-2.1,2.2-2.8,2.9-4.3c2-6.8,4.4-13.4,7.3-19.9
		c-1.1-0.7-2.2-2-3.4-2.1c-3.1-0.3-5.5-2.2-8.2-3.3c-2.7-1.1-5.5-2.1-8.2-3.2c-0.7-0.4-1.4-0.7-2.1-0.8c-1.9-0.1-3.7-0.9-5.1-2.3
		c-0.6-0.6-1.7-0.7-2.9-1.1c-1.5-2.2,0.9-4.5,0.8-7c2.6-2.6,1.9-6,2-8.1c0.9-2.4,1.9-3.8,1.9-5.2c0.1-3.6,3-6.2,3.1-9.8
		c2.4-2.3,1.8-5.9,3.4-8.6c1.5-2.5,1.9-5.5,3.2-8.2c0.9-1.9,0.6-4.3,2.2-6.1c1.6-1.8,0.9-4.2,2-6.1c0.6-1,0.1-2.6,0.1-4.3l2.7-2.2
		l4.5-14.3c-1.4-2.8-4.5-3.5-7.1-4.8c-3.7-1.9-7.5-3.6-11.7-5.6l-2.7,0.7c-0.2-0.4-0.4-0.7-0.5-1.1c-0.5-3.6,1.7-6.6,2.5-10
		c0.5-1.6,1.2-3.2,2.2-4.6c0.8-1.5,1.4-3.1,2-4.6c1.1-2.5,2.1-5.1,3.4-8.1c1.3,0.4,2.3,0.7,3.3,1.1c4.3,1.7,8.5,3.6,12.9,5.1
		c0.9,0.3,1.7,0.7,2.5,1.2c1.9,1.1,3.9,1.8,5.8,2.9c1.9,1,4,1.8,6.1,2.1c1.9,0.4,4,0.6,5.5,2.4c0.7,0.8,2.3,0.9,3.3,1.5
		c1.6,1,3.1,2.2,4.9,3.4c-1,1.3-0.9,3-2.7,3.6c-0.5,0.2-0.5,1.7-0.8,2.5c-1.6,4-3.3,8-3.9,12.4C687.8,203.9,686.9,204.6,686.2,205.6
		L686.2,205.6z M701.5,289h-5.3l-1.6-2h-4.1l-1.9-2l-11.5-1.4l-1.4-1.6l-3.5,2.2l-1.4,9.2l-3.8,6.9v3.3c-1.9,2.2-4.5,10.4-4.7,14.1
		c4.7,1.6,9.6,2.8,14.5,3.5l1.8,1.8c1.9,0,3.8,0.3,5.6,0.9c3,1.2,6.1,2.1,9.2,2.9c2.9,0.7,5.3,2.8,8.5,2.5c3.9,2.6,8.3,3.1,13.3,2.5
		c1.2-3.5,2.1-7.5,4-11s3.2-7.3,4.8-11s2.7-7.5,4-11.3c-1.4-0.6-2.9-1.1-4.4-1.4c-3.5-0.5-7-1.5-10.2-3.2c-1.8-0.9-3.6-1.9-5.7-1.9
		C705.1,292.1,703.2,290.8,701.5,289L701.5,289z M645,190c2.4,0,4.4-0.3,6,1c3.8,3.2,8.6,4.2,12.9,6.3c3,1.5,6.2,2.7,9.5,3.5
		c2.3,0.5,4.5,1.2,6.6,2.2c1.6,0.8,3.2,1.4,5,0.6c-0.3-3.4,2.3-5.7,3-8.7c0.7-3.1,1.8-5.8,2.7-8.7c-1.2-1-2.5-1.9-3.8-2.7
		c-1.5-0.7-3.1-1.1-4.8-1.4c-1.6-0.3-2.1-2.8-4.2-2c-5.8-2.4-11.7-4.7-17.4-7.3c-2.9-1.4-6-1.4-8.9-2.9
		C648.6,176.3,644.5,182.2,645,190L645,190z"/>
	<path id="Shape_3_" d="M584,139.1l4-4c1.8,0.3,3.8,0.6,5.9,0.9c0.4,0.1,0.9,0.4,1.2,0.6c3.3,1.6,6.4,3.8,9.9,5
		c0.6,0.2,1,0.9,1.3,1.3c3.2-1.2,0.6-4.4,2.5-6.5c1.3-1.5,1.5-4,2.2-6c1.5-0.8,3-1.5,4.5-2.2c0.7,2.9,3.5,3.8,5.9,4.7
		c2.9,1.1,5.9,1.7,8.5,3.6c0.2,0.2,0.5,0.4,0.8,0.5c2.4,0.8,4.7,1.6,7.1,2.2c2.1,0.6,4.1,2.1,6.3,2.8c1,0.1,2,0.1,2.9,0l-0.8-1.3
		c0.7-4.6,4.8-7.7,5.9-12.1c-1.1-1-1.2,0.2-2.1,0.4c-3.1-1.2-6.2-4.2-10.4-2.9c-2.6-2.9-7.1-1.5-9.9-4.9c0.3-0.7,0.8-1.7,1.1-2.7
		c1.7-5,3.3-10,5.1-14.9c0.6-1.7,0.7-3.6,1.8-5.3c0.9-1.3,0.9-3.3,1.1-5c0.1-1.6,0.1-3.3,0-4.9l4.3-1.5c3.1,3.2,8.5,1,11.8,4.6
		c4.3,0.2,7.7,3.1,11.8,4c4.2,0.9,8,3.1,12.2,4.4c4.1,1.3,7.3,4.1,11.7,5.6c1.1,3.4-0.1,7.1-3,9.2c-1.4,3.8-2.2,6.7-3.5,9.3
		c-1.6,3.1-1.4,6.7-3.2,9.6c-0.1,0.1,0.6,0.7,1,1.2l-2.5,4.4l-7.1-1.2l-2.4-3h-3.5l-1.9-1.9l-3.4-0.1c-0.1-0.5-0.2-0.9-0.3-1.6
		l-5.4-1.6l-6.7,13.2c2.2,2.2,4.8,3,8.9,3.2c2.3,2.9,5.8,3.8,9,4.7c4.3,1,8.4,2.6,12.3,4.7v3.7c-1,2-1.9,3.6-2.8,5.3
		c0.1,0.1,0.3,0.3,0.5,0.6c-0.7,2.6-1.4,5.2-2.3,8.3c-1.2-1-2.3-1.9-3.4-2.8c-0.1-4.5,2.5-8.1,3.4-12.4c-1.9-0.6-3.8-2.7-6.7-2.2
		c-1.7-2.1-4.4-2.2-6.6-3.3c-1.5-0.8-2.9-2.1-4.8-1.7c-0.3,0.1-0.8,0-0.9-0.1c-2.5-3.3-6.9-2.7-10-4.9c-2.7,0.3-4.2-2.5-7.1-2.4
		c-2.1,0.1-4.1-2-6.3-2.5c-2.6-0.6-4.4-2.2-6.7-3.1c-2.5-0.9-4.9-2.1-7.7-2.1c-1.3,0-2.7-0.7-4.1-1.2c-1.2,3.3-2.3,6.3-3.5,9.8
		c2.2,0.2,3,3.1,5.7,2.5c1.6,1.6,3.3,3.1,6.1,2.9l2.7,3.3l6.5-1.4v4.7c-3,3.9-5.7,7.9-5.9,13.4c-0.1,3-2.2,5.7-3.1,8.7
		c-0.3,0.8-0.8,1.6-1.3,2.3c-0.4-0.8-0.9-1.5-1-1.8h-3.8c-4-4.6-9.3-5.2-14.4-5.1c-2.3-1.2-4.4-2-6.1-3.4c-1.9-1.5-3.7-3.3-6-3.5
		c-2.3-0.3-3.7-2.4-5.8-3.1c-2-0.7-4.2-1.1-6.1-1.7c-0.6-2.3-0.7-3.8,0.9-5.4c0.9-0.9,1.2-2.4,1.6-3.8c0.8-2.7,1.3-5.5,2.4-8
		C583.2,143.4,582.9,141.6,584,139.1L584,139.1z M666,127c3.8,1.6,6.7,4.3,10.4,5c2-2.2,3.6-4.8,4.6-7.6c2-4.8,2.2-10.4,5.6-14.7
		c0.4-0.5,0.3-1.5,0.3-2c-1.8-1-3.4-2.3-5.1-2.7c-3.9-0.9-7.8-2.2-11.4-3.9c-2-0.8-4-1.7-5.8-2.9c-1.6-1-3.5-1.5-5.4-1.2
		c-2.5,0.4-3-2.1-5.2-2.3c-3-0.3-5.9-1.6-8.7-2.4l-3,2.6c-0.4,1.8-0.9,3.5-1.5,5.2c-1,2.1-0.3,4.8-2.3,6.6c-2.2,1.9-1.3,4.8-2.1,7.1
		c-0.5,1-1,2-1.5,3l5,2.6c1.3-0.1,2.2-0.5,2.7-0.2c1.7,1.2,3.7,1.8,5.8,1.7c0.5-0.1,1.1,0.6,1.7,0.6c2.9,0,5,2.6,8.1,2.5
		c1.4-0.1,2.9,1.7,4.7,2.8L666,127z M625.2,156.1c-5-0.2-7-5.2-11.5-5.2c-3.2-2.8-7.2-4.2-11-6c-3.6-1.8-7.2-3.4-11-5.2
		c-1.7,2.5-3.6,0.5-5.7,0c-2.4,6.3-4.6,12.4-5.1,19.1l3,0.1c4.9,2.6,8,6.7,13.3,8.2c4.8,1.4,9.2,4,13.8,3.8c2.1,1.4,4.2,2.6,6.4,3.8
		c0.9,0.4,2.2,0.1,3.3,0.1C621.9,168.6,624.4,162.7,625.2,156.1L625.2,156.1z"/>
	<path id="Shape_4_" d="M152.4,284.9c0.4,1.9,2.4,2.1,3.4,3.4c0.3,2.9,0.1,5.8-0.8,8.5c-0.6,2.6-0.1,5.3-0.9,8.1
		c-0.9,3.2-0.3,6.9-0.2,10.4c0.1,2.6-0.4,4.8-2.6,6.6c-2.2-0.7-4.6-2.3-6.9,0c-3.3-1.4-7-1.4-10.3,0.1c-2.3-1.1-4.7-1.9-6.9-0.1
		c-1.2-0.4-2.5-0.7-3.7-0.9c-5.8-0.1-11.7,0-17.5-0.1c-2.1,0-4.3,0.7-6.2-0.6s-4.1,0.5-6.2-0.9c-0.5-0.4-2.3,1-3.4-0.3
		c-1,1.3-1.9,1-2.8-0.1c-1.6,1.6-3-0.5-4.7-0.1c-1.4,0.3-3.2,0.5-4.5-0.8c-1.6,1.1-3.1-0.6-4.7-0.2c-1.7,0.3-3.3,0.3-5,0
		c-1.3-0.2-2.7-0.5-4-0.8c-0.5,0.2-1.6,1.1-2.1,0.8c-2.4-1.3-5.1-0.4-7.4-1.3c-1.5-0.6-2.9,1.3-4.6-0.3c-1.6-1-3.7-0.7-4.9,0.7
		c-0.6-1.4-1.6,0-2.5-0.3c-3.6-1.2-7.2-0.9-10.9,0.1l-1.3-1.4c1.7-3.7,1.1-7.6,1.2-11.5c-0.1-2.4,0.2-4.8,0.9-7.1
		c0.8-2-0.2-4.4,1-6.6c0.6-1.1,0.2-2.9,0.1-4.4c-0.3-2.5,0.7-5,2.6-6.7l8.4,1.8c2.3-1.1,7.9-1.1,11.1,0.3c0.3-0.1,0.6-0.3,0.8-0.5
		c0.3-0.2,0.5-0.4,1-0.7l2.1,1.3c0.4-0.4,0.8-0.7,1.3-1c0.9,0.7,2,1.1,3.1,0.9c1.1,0,2.6-0.2,3.3,0.4c1.4,1.2,1.6-1,2.9-0.5
		c1.5,0.6,3.6-0.4,5,1.1c2.4-1.3,4.8,0.2,7.2,0.1c3-0.2,6.1-0.8,9.1,0.8c1.2,0.6,2.5-0.5,4.2-0.1c2.5,0.6,5.1,0.6,7.7,1.1
		c2,0.4,4.2,0.6,6.1-0.9c3.6,1.6,7.1,1.3,11,0.4c1.9,0.4,3.8,0.6,5.7,0.5c1.8-0.2,3.5,1.6,5.2,0.1c1.9,1.3,4,0.8,6.1,1
		c1.9,0.2,4-1,5.6,0.9C146.2,283.4,149.5,286.5,152.4,284.9L152.4,284.9z M39.5,282.8c-0.6,1.9-1.1,3.8-1.4,5.7
		c-0.2,2.1,0.6,4.6-0.3,6.4c-0.9,1.8-0.1,3.3-0.7,4.9c-0.6,2-0.1,4.3-0.2,6.5c0,1.9,0.5,3.8-0.8,5.5c4.4,1,9.1-0.9,13.4,1.1
		c2.8-2.3,5.1,0,7.4,0.8c1.4,0.6,2.9,0.5,4.2-0.3l14.3,1.1c0.6-0.1,2-0.9,2.6-0.5c1.8,1.4,3.8,0.7,5.7,0.9c1.9,0.3,3.7,0.7,5.6,1
		c1.4,0.2,3.1-0.1,4.3,0.5c1.6,0.7,2.5-0.5,3.8-0.6c5.6-0.1,11,1.8,16.6,1.3c0.8-0.1,1.8,0,2.7-0.1c1.5-0.1,3.3-0.8,4.4,0.7
		c2-1.3,4.2-0.6,6.3-0.7c2,0.1,4,0.1,6-0.1c1.9-0.3,3.8,1.4,5.7,0.1c0.5,0.4,1,0.7,1,0.7l8.1-1c0.5-1.9,1.5-3.9,1.6-6
		c0.5-6.7-0.8-13.5,1-20.1c0-0.5,0-1.1-0.2-1.6c-1.3,1.3-3.3,1.5-4.9,0.5c-1.4-1-3.3-0.7-4.4,0.5c-0.2-0.2-0.4-0.6-0.7-0.7
		c-4.8-1-9.7,0.6-14.4-1.2c-0.9,1.8-2.3-1.3-3.6,0.4c-1.3,1.7-2.8-0.6-4.3-0.6c-2.8,0.1-5.8-0.4-8.5,0.2s-5.1-2.8-7.7-0.3
		c-1.1-2.1-2.8,0.3-4.4-0.7c-1.3-0.8-3.6-0.1-5.4-0.2c-0.4,0-0.7-0.6-1.1-1c-1.3,1.4-3.4,1.7-5,0.8c-1.5-0.9-2.8-0.6-4.2-0.7
		c-4.2-0.4-8.4-0.6-12.6-1.1c-0.7-0.1-1.3-0.8-1.8-1.1c-2.4,1.2-2.4,1.2-5.5,0.1c-1,2.5-3.4-0.6-4.7,1c-2.1-1.9-4.7-0.7-7.1-1
		c-2.2-0.3-4.5,0.5-6.6-0.9c-0.5-0.3-1.7,0.4-2.7,0.6L39.5,282.8z"/>
	<path id="Path_2_" class="st1" d="M346.6,291.7l-2.1,2.3c-3,0.4-5.8,0.1-8.8,0.8c-2.5,0.6-5.2,1-7,1.4l-5.1,5.1
		c-1.2-1.9-2.9-1-4.4-1.4l-3.2-4.6v-3.9c3.2-5.5,6.4-11,12.5-14.1c3.3-0.4,6.7-0.9,10.2-1.2c1.4-0.3,2.9,0.1,4.1,1s2.6,1.2,4.1,1
		c1.7-0.1,3.5,0.2,5.1,0.9c2.2,0.7,4.4,1.2,6.7,1.5c3.7,2.5,9.4,2.7,12,8.5v3.7l-3.3,1.1c-1.6-0.6-3.7-0.8-5-1.9
		c-1.9-1.5-3.8-0.6-5.7-0.8c-1.6-0.1-3.5,0.9-4.8,0.3C349.9,290.4,348.6,293.4,346.6,291.7L346.6,291.7z"/>
	<path id="Path_3_" class="st1" d="M459.9,283.8c-0.2,1.8,1,3.6,1.3,5.7c0.3,1.6,2.8,2.9,2.8,5.8l-3-1.2c-1.6,1-3.7,1.9-5.9-0.2
		l-1.6,1c-1.2-0.3-2.5-0.6-3.9-0.9c-1.6-0.3-3.3,0.6-4.7-0.6c-1.4-1.3-2.6,0.6-3.7,0.2c-1.4-0.7-3.1-0.7-4.5,0.2
		c-1.1,0.6-2.9,0.5-4.3,0.3c-1.7-0.2-3.1,0.6-4.6,1c-1.3,0.4-2.7,0.6-4.5,0.9l-2.6-3.2c-2.4,0.9-3.4,3-5.1,4.1h-3.8
		c0.5-3,1-5.8,1.4-8.7c3.7-1.7,5.9-5.8,10.1-6.8c3-0.8,5.7-2.4,8.6-3.3c0.6-0.2,1.1-0.5,2.3-1.1c1.6-0.3,4.2,0.9,6.4-0.8
		c1.7,1.9,4,0.4,5.6,0.9l2.5-1.3l6.5,3.7l0.3-0.5C456.9,280.5,458.3,282.1,459.9,283.8L459.9,283.8z"/>
	<path id="Shape_5_" d="M731.5,227l2,2c1.7-0.6,3.3,0.6,5.3,0.4c1.7-0.2,3.5,1,5.3,1.6c1.7,0.6,3.7,1.6,5.8,2.6
		c0.6,2-0.1,4.1-1.2,6.4c-1,1.8-1.6,3.8-1.7,5.8c-0.1,1.2-0.5,2.4-1,3.6c-1.1,3-2.3,6-3.6,9.4l0.7,1.1c-1,1.9-2,3.8-3.1,6
		c0.3,4.7-1.4,9.3-3.3,14h-3.1l-4.1-2.9c-2.6,0-5.2-0.5-7.7-1.4c-2.6-1.1-5-2.4-7.5-3.6c-2.1-0.9-4.4-1.6-6.7-2
		c-3.9-0.5-7.6-1.8-10.9-3.8c-1.1-0.7-2.7-0.8-4-1.3c-1.9-0.7-3.8-1-5.6-2.2s-4.1-1.2-6.2-1.8c-0.3-0.1-0.6-0.3-0.8-0.5
		c0-0.5-0.2-1.2,0-1.4c3.4-3.9,3.4-9,4.9-13.5c2.5-7.3,4.1-14.9,7.7-21.8c0.2-0.8,0.3-1.6,0.4-2.4c0.3-1.2,0.6-2.4,0.9-3.7
		c-0.3-0.7-0.7-1.5-1.1-2.3c0.6-0.3,1-0.6,1.1-0.4c2.8,1.8,6.2,2,9.3,3c3.3,1,6.6,1.6,9.9,2.6c3.3,1,6.3,2.5,9.6,3.4
		C725.7,225.1,728.1,227.5,731.5,227L731.5,227z M745.7,236.4l-6.9-3.4l-1.5,1l-1.6-1.6c-2.1-0.3-4.2-0.2-5.9-1
		c-4.5-2-9.3-3.2-13.8-5.4c-1.3-0.6-2.4-1.8-3.7-1.9c-1.8,0-3-1-4.4-1.5c-1.5-0.5-3-0.8-4.4-1.4c-2.1-0.9-4.1-1.7-6.7-0.9
		c-0.8,0.9-1.4,1.9-2,3c-0.9,2.1-1.2,4.6-2.4,6.4c-1.5,2.1-1.4,4.4-2.3,6.6c-1.6,3.9-2.9,7.8-3.9,11.9c-0.8,3.1-1,6.4-2.5,9
		c2.5,2.3,5.3,3.1,8,4.3c1.6,0.6,3.2,1.2,4.8,1.5c1.7,0.4,3.4,0.6,5.1,1c1.7,0.4,3.5,1.1,5.3,1.7c3.6,1.2,7,3.4,10.7,4.2
		c1.7,0.3,2.5,1.3,3.6,2.1c4.4-0.5,8,2.1,12.3,3c1.4-4.4,3.2-8.6,4-12.9c0.9-4.6,4.1-8.7,3.2-12.8
		C742.8,244.5,744.3,240.4,745.7,236.4L745.7,236.4z"/>
	<path id="Path_4_" class="st1" d="M195,369.5c0-3.7,0-3.7-2-7v-7.9c-0.1-1.8-0.1-3.7,0.1-5.5c0.2-1.5,1.3-2.8,1.6-4.3
		c0.3-1.8,0.4-3.6,0.5-5.4l4.2-7l4.5-2.3h10.6c0.2,0.2,0.4,0.4,0.7,0.6c4.8,2.9,7,7.2,8,12.6c0.5,2.4,1.2,4.8,2.1,7.1
		c0.4,1.4,0.6,2.9,0.6,4.3l-1.5,2.4c-0.4-0.1-0.8-0.2-1.2-0.3c-3-2.3-3.3-6-4.1-9.3c-0.8-3.9-2.7-7.5-5.5-10.4h-9
		c-0.2,0.1-0.4,0.2-0.6,0.4c-4.6,3.5-5.5,8.7-6,14c-0.2,2.6-0.9,5.7,0.2,7.9c1.2,2.5,0.2,4.9,1,7.3c2.4,2.6,3.1,6.2,4.8,9.3
		c4.2,7.5,7.1,11.5,14.7,15c1.3,0.4,2.7,0.8,4.1,1.1c0.7,0.3,1.4,0.7,2.1,1.1v4.5l-1.2,1.2h-4.9l-3.4-1.8c-3.1-1.6-6.8-2.6-8.3-6.4
		c-2.7-1.2-2.6-4.2-4.2-6.1c-1.7-1.9-3.1-4-4.2-6.3C197.7,375.6,196.5,373.1,195,369.5L195,369.5z"/>
	<path id="Path_5_" class="st1" d="M551.5,357.8l-2.2-2c-0.9-2.3,0.1-4.4,0.7-6.5c1.1-4.2,2-8.4,4-12.3c1.2-2.3,2.2-4.5,4.9-5.4
		c0.6-0.2,1-0.9,1.5-1.5h10.9l4.5,2.3c1.2,2.1,2.7,4.6,4.3,7.2c-0.1,2.4,0.2,4.8,1,7c2.1,5,0.8,10.4,1,15.6c0,1.1-1.1,2.2-1.9,3.7
		c0.5,2.7-0.4,5.5-2,8.2c-1,1.9-1.5,4.1-2.5,5.9c-1.2,2.2-3.1,4-4.1,6.3c-1,2.1-2.4,4-4,5.7c-2,2.5-4.9,3.8-7.9,5
		c-1,0.4-1.9,1-3.8,1.9h-4.4l-1.4-1.3v-4.3c0.7-0.5,1.5-0.9,2.4-1.2c4.2-0.7,9-3.6,12.1-6.9c4-4.2,7.2-8.8,8.6-14.5
		c0.1-0.6,0.9-0.9,1.2-1.5c0.6-1.1,1.5-2.1,1.7-3.3c0.5-4.2,0.8-8.4,1.1-12.6c0.2-3.5-0.5-7-2-10.2c-0.1-0.5-0.1-1,0-1.5l-4.9-4.7
		h-8.6c-3,2.8-4.9,6.5-5.5,10.6c-0.5,2.4-1.2,4.8-2.2,7.1C553.1,355.8,552.3,356.8,551.5,357.8L551.5,357.8z"/>
	<path id="Path_6_" class="st1" d="M336.4,417.9c0.9-1.3,1.3-2.3,2-2.7c3.9-2.2,7.9-4.2,11.9-6.2c3.5-1.9,7.5-3,11.5-3l1.8-2.3
		l2.2,1.4c2.8-2.1,5.2-0.9,7.7,0.9l0.7-0.8c1.8,1,4.4,1.2,3.6,4.6c-3.5,0.5-6.9,1.5-10.1,2.9c-2.1,1-4.7,0.7-7.6-0.3l-15.2,7.3
		l-0.3,1.3l-2.1,0.1c-0.2,0.2-0.5,0.3-0.7,0.5c-0.3,0.5-0.4,1.5-0.8,1.6c-3.7,1.6-6.7,4.6-8.3,8.4c-3.3,0.5-3.2,4.2-5.5,5.6
		c-1,0.6-1.3,2.2-2.2,3s-2.3,0.8-3.3,1.5c-2,1.3-3.8,2.8-6.1,4.6l-2.2-4.6c5.4-3.1,7.9-8.4,12.2-12.1c1.6-1.4,2.6-3.5,3.6-5.5
		C330.6,421.2,333.2,418.9,336.4,417.9L336.4,417.9z"/>
	<path id="Path_7_" class="st1" d="M459,328.6c-0.9,0.9-1.9,1.7-3,2.4c-1.7,1-3.6,1.5-4.5,3.8c-0.4,1.1-2.6,1.5-4,2.2
		s-2.8,1.2-4.6,1.9l-3.1-1.1l-2.5,2.3c-4-0.3-6.6-4.4-10.2-3.1c-6.7-2.6-10.8-7.8-16.3-11.9c0.6-1.5,1.4-3.3,2.3-5.4
		c6.2,1.4,9.9,6,14.9,9.3c1.5,0.4,3.5-0.2,5.7,0.8s5.3-0.4,7.6-1.7c1.7-0.9,3-2.3,5.2-2.1l5.5-5.6c1.4-0.3,2.8-0.6,4.2-1.1
		c2-0.8,3,0,4.2,1.9l-2.1,1C457,324.3,459.2,326.1,459,328.6L459,328.6z"/>
	<path id="Path_8_" class="st2" d="M349.6,325l1.9-2l0.6,0.6l9.4-4.6l1.3,1.2l3.9-1.9l1.1,2.3c0.1,2.3-2.8,2.5-3.9,4.3l1.4,2.6
		l-5.6,4.8l-1.3-1.1l-2.9,2.9l-1.1-1l-1.6,1.9h-4.2l-1.9,1.9c-0.7-0.3-1.7-1-2-0.7c-2.3,1.6-4.5,1.2-6.7-0.1c-1.6-0.9-3-1.6-4.7,0
		c-0.4,0.4-1.6,0.1-2.4,0.1c-3.8-3.1-9.1-4.1-11.7-8.7l-0.7-3.1l1.1-2.3c2.2,0.3,4.3,1,6.1,2.1c1.3,0.8,3,0.9,4.4,1.5s2.6,1.8,4,2.4
		c0.7,0.3,1.7-0.4,2.9-0.7l5.5,1C344.4,325.9,346.6,324.7,349.6,325L349.6,325z"/>
	<path id="Path_9_" d="M675,294c1.3,0,2.4-0.3,3.2,0.1c1,0.5,1.9,1.3,3.1,0.9c1.4-0.6,2.8-1.2,4.2-2c1.2-0.7,2.4-1.4,3.8-2.3
		l2.7,3.5v1.4l2.3,1.2l7.4-1l3,5c3-2.4,5.3,1,8.2,1.7v2.3c-3.6,1.7-6.9-1.5-10.1-0.6l-5.1-3.6c-4.3,1.2-8.2,1.3-11.2-2.4l-9.7,1.3
		l-1.8-1.7L675,294L675,294z"/>
	<path id="Path_10_" d="M680.3,190.1l-1.7,1.8c-1.9-0.4-3.8-0.9-5.7-1.6c-1.7-1-3.3-2.1-4.8-3.3c-3.9-0.8-7.9-2.8-12.6-1.9l-2.4-3.6
		V179c0.6,0,1.4-0.2,1.8,0c1.8,1.2,3.7,0.9,5.6,1l1.9,1.9h5.6c2.1,1.6,4,3.5,6.2,4.7C676.2,187.6,678.8,187.6,680.3,190.1
		L680.3,190.1z"/>
	<path id="Path_11_" d="M673.8,115.1c-4-3.2-9.1-4.6-14.2-4.1l-1.9-1.9h-7.1l-5.9-4.7c0.7-1.7,1.3-3.1,1.9-4.6l4.7,4.2
		c6.7,0.1,6.8,0.1,10.2,3l2.5-2.2c2.3,1.8,4.4,3.9,7.6,3.2C673.3,110,674.6,112.1,673.8,115.1L673.8,115.1z"/>
	<path id="Path_12_" d="M599.5,154h-5.3l-4.4-5.4l1.2-1.2c0.2,0,0.6-0.1,0.7,0c1.3,2,3.6,1.8,5.4,2.6s4.1,1.3,6.1,2.1
		c0.4,0.2,0.6,1,0.9,1.6l4.3,0.9l3.4-0.7l4.9,3.3v5c-2.3-0.3-2.9-2.4-4.4-3.2c-1.4-0.7-2.9-1.4-4.3-2l-3.6,1.9L599.5,154z"/>
	<path id="Path_13_" d="M706.4,230.5l3.5,1.5v4.8h5.1l2.2-2.7c3.9-0.9,3.4,2.6,5.1,3.7l-1.2,1.8c2.1,0.9,4.2,2.7,6.5,0.4l7.6,2.3
		l-4,2.7c-8.2,0.3-15.9-3.3-24.5-4.7c-1.4,1.1-3.4,1.3-5,0.4c-1.8-1.1-3.5-0.4-4.5-0.7l-3.3-3.1l1.5-3.6c0.8,1.2,1.2,1.8,1.1,1.7
		c2.4,1.7,4.8-0.3,6,1.8l2.3-1.1C705.1,234.3,705.7,232.7,706.4,230.5L706.4,230.5z"/>
</g>
</svg>
