<svg height="594" viewBox="0 0 775 594" width="775" xmlns="http://www.w3.org/2000/svg"><g fill="none" fill-rule="evenodd"><path d="m0 0h775v594h-775z" fill="#fff"/><circle cx="387.5" cy="376.5" fill="#4fd1c5" r="166.5"/><g fill-rule="nonzero"><path d="m275.92 255.87c.31-5 2.12-8.48 3.55-13 .61-1.09 3.17-1.93 3.72-4.93-1.37.86-2.31 1.49-3.3 2.06-1.180269.748708-2.40973 1.416893-3.68 2-1.201404.409144-2.427106.743123-3.67 1l-.93-.83c-2.17 1-4.63 1.46-6 4.11-.78-1.08-1.43-2-2.49-3.43v-5.58l3.24-2c2.88 1.49 5-.82 7.5-1.55.74-.22 1.47-.5 2.22-.66 1.63-.33 3.27-.45 4-2.41.21-.54 1.29-.71 1.93-1.11 2-1.3 4.36-2.15 5.59-4.51.574012-.805227 1.305433-1.485619 2.15-2 .61-.47 1.64-.67 1.93-1.26 1.16-2.4 3.36-3.67 5.31-5.2s2.87-4.1 5.58-4.61c.34-2.91 3.51-3 4.91-4.86 1.231164-1.768064 2.740733-3.324913 4.47-4.61.7-.48.85-1.68 1.48-2.33 1-1 1.7-2.51 3.61-2.2.45.07 1.16-.55 1.52-1 2.5-3.33 6.18-5 9.78-6.59 2.187857-.957656 4.178406-2.314078 5.87-4 .9-.86 2-1.91 3.11-2.06 4.69-.65 8.07-5.22 13.22-4.32 1.69-1.83 3.93-1.71 6.17-2.07 3.57-.57 7.26-.44 10.75-1.74 1.31-.5 2.95-.06 4.43-.19.973264-.159086 1.932785-.393116 2.87-.7.09.08.45.4.8.73 6.43-2.39 11.62-2.57 20.27-1.05 2.1.36 4.32.05 6.78.05l1.52 2h5.26c1.15 1 2.13 2.66 3.37 2.89 3.09.56 4.13 3.36 6.15 5 .488278.46831 1.032373.874702 1.62 1.21 3.89 1.93 5.43 5.82 7.46 9.28.15.25 0 .66 0 1 2.38 1.4 3.29 2.41 4 4.76.79 2.64 1.49 5.31 2.38 8.51 3.71-3.46 8.52-3.12 12.16-5.62.22-.16.65-.06 1 0 5.27.75 10.33-1.49 15.59-1.05 1.27.1 2.58-.45 3.88-.44s2.85.41 4.28.46c2.5.08 5-.26 7.49.1 2.09.31 3.82 2 6 2.25 1.13512.200454 2.254595.481158 3.35.84 3.278799 1.505976 5.97317 4.04578 7.67 7.23.42.79.17 1.93.26 3.36l2.47 2c1.79 6.1 3.33 11.32 5.11 17.39l1.37 1.44v4.95l1.89 1.89-1 1.28c2.36 3.05.94 7.95 5.28 11.38.64 1.21-1 2.17-2.26 3.47v4.32h-3.35l-2.85-6.41-2 5.52h-2.23l-1.38-2.69c-.64-3 .71-6.28-.73-9.46-1.34-2.94-1.77-6.24-3.87-8.91-2-2.47-3.58-5.18-5.48-8l-.07-1.31c-2.56-3-5-5.62-7.18-8.43-2.017047-2.543411-4.51012-4.669656-7.34-6.26-2.95-1.7-6-3.21-9.31-4.95-1 0-2.31.08-3.63 0s-2.51.36-3.77-.61c-.64-.49-2.08 1.62-3-.22l-3.57 1.81c-2.11 0-4.61-.12-7.09 0s-4.79.7-6.3 2.78c-.56.77-.59 1.93-1.19 4.06l4.29-2.88c1.44 0 3.28.13 5.09 0s3.39-.63 5.44-1c2.57 3.32 6.89 3.54 10.61 5 2.86 1.11 3 .76 6 3.5.378426.244102.784632.442169 1.21.59.994418.428914 1.937086.969019 2.81 1.61.66.6.85 2.1 1.48 2.26 1.26.31 2.33.89 2.41 2 .1 1.58 1.69.76 2 1.6.73 1.86 1.76 3.72 2 5.66.27 2.56 1.3 4.8 2.16 7.35l-4.87 1.65v-2.37c-2.1-2.34-4.63-4-5.25-7.11-.221778-.629811-.686287-1.144732-1.29-1.43-2.35-1.16-3.2-3.8-5.28-5.17-.46-.3-1.28 0-1.88 0l-3.39-3.39-5.87-2.33c-1.5.18-3.48 1.05-4.81.46-3.18-1.42-5.81-.73-8.54.85-1.06.61-2.21 1.07-3.56 1.71-.11 2.62-2.92 2.49-4.54 4.1l-2.62-3.14c-1.5-.31-2.76-.25-3-.67-1-2.06-3.42-1-4.56-2.44-3.68.19-6.36-2.35-9.52-3.55-1.882345-.689831-3.707902-1.525709-5.46-2.5-1.14-.65-2.18 1.87-3.15-.08-1.4.39-2.4-.59-3.59-1-.51-.17-1.2.23-1.82.34-1.209876.362008-2.467172.540659-3.73.53-1.209718-.36511-2.500282-.36511-3.71 0-1.28.5-2.83-.4-4.18.89-.48.45-2-.2-3.48-.41l-2.21 1.2-7.67-1.28c-1.63-.3-2 2.05-4.13 1.76-1.45-.2-3 .7-4.57.86-1.542195.083813-3.087805.083813-4.63 0l-3.55 2-3.7-1.31-2.65 3.3h-4.38c-2.78 2.47-8.52 4.84-11.48 5l-6.07 4.32-1.44-1.32c-2.19 2.53-5.22 1.89-7.58 2l-6.25 3.22-3.5-1.53c.12-.23.18-.56.37-.66 4.37-2.41 9-4.26 12.82-7.74 1.72-1.58 4.06-2.46 4.61-5.13h4.66l1.9-3c3.52.1 6-4 10-3.13l1.84-1.95h6.08l2.22-2.22 3.28 1c1.685469-.680022 3.404343-1.274118 5.15-1.78 1.83-.46 4 .7 5.67-1.14 2.47 2 4.64 1.05 6.69-.81 1.66-.47 3.66.65 5.13-1l1 .91c3.58-1.81 7.6-.06 11-1.16 3.64-1.16 6.81.47 10.23.33s7.13 1 10.81 1.63c-.21-2.3-2.53-2.67-4-3.59s-2.34-2.5-4-3.3c-1.79173-.937655-3.717904-1.592082-5.71-1.94-1.85-.26-3.65-.85-5.74-1.36l-1.78-1.78-4.53 1c-.910546-.416686-1.883623-.680228-2.88-.78-3.7.18-7.49-.8-11.11.88-.62.28-1.67-.39-2.59-.64l-1.78 1.78c-3.06-.71-5.76.62-8.54 1.89-2.985352 1.280215-6.064353 2.32995-9.21 3.14-3.253578.959504-6.359447 2.362697-9.23 4.17-2.39 1.48-5.13 2.32-7.32 4.1s-4.08 3.51-6.89 3.89c-2.34 3-6.88 3.25-8.51 7.31-.54 1.34-2.75 2-4.68 3.33h-1.92c-4.21 2.38-6.84 6.13-10.78 8.45s-7.42 5.61-11.12 8.55c-.1-.42-.44-1.08-.26-1.29 3.33-3.8 6.48-7.84 10.22-11.21 2.39-2.16 5-4.13 7.25-6.48 1.900367-1.76378 3.603676-3.72862 5.08-5.86 1.406618-2.206095 3.435325-3.945981 5.83-5 .73482-.216265 1.41614-.584178 2-1.08 3.49-4.14 8-7.09 12.3-10.19.963438-.507168 1.988685-.887014 3.05-1.13.11-.41.23-.86.44-1.67.68 0 1.66.31 2.22-.05 4.5-2.82 9.55-4.31 14.34-6.42 3.1-1.37 6.3-1.77 9.47-2.48 4.445659-1.123465 8.96782-1.918938 13.53-2.38.24 0 .45-.45.42-.42 1.1.29 2 .86 2.86.7 5.06-1 5.05-1.05 10.69 0 .663561.091002 1.336439.091002 2 0 3.84-.26 7 1.56 10.11 3.37 1.47.85 2.9 2 4.49 2.38 1.58771.236951 3.049491 1.001304 4.15 2.17.3.33 1.27 0 2 0l1 2.05h1.58c1.150597 1.449178 2.375575 2.837709 3.67 4.16 1.4 1.3 3.23 2.19 4.44 3.62 1.045777 1.329586 2.33971 2.443523 3.81 3.28.16-3.22-.44-5.93-2.53-8.07-1.38-1.42-1.58-3.7-2.91-4.72s-2.43-2.43-3.93-3.39c-1.698632-.995818-3.020516-2.525125-3.76-4.35-.39-1.06-2.25-1.57-3.78-2.54-2.254955.226-4.51596-.36676-6.37-1.67-1.497878-.867361-3.181231-1.364482-4.91-1.45-4.694013-.51602-9.347898-1.347906-13.93-2.49-1.52-.41-3.33-.12-4.64-.83-1.224887-.830474-2.869195-.661827-3.9.4-.462522.216798-.997478.216798-1.46 0-1.26-.53-2.22-1.56-3.94-.57-.9.52-2.54-.44-3.82-.35-2.54.17-5.38 0-7.49 1.13-1.84 1-3.5.37-5 1.3l-8.77 3-.37-.68c-.93 1.16-1.86 2.31-2.09 2.61-3.58 1.48-6.24 2.36-8.68 3.66-2.357755 1.262069-4.579445 2.763302-6.63 4.48-2.16 1.8-4.81 2.72-7 4.35-1.92 1.42-3.17 3.74-5.75 4.32-.85 1.51-1.28 3.06-3 4.28-2.14 1.51-4.41 3.31-5.49 6.11-.517166 1.252259-1.520377 2.241036-2.78 2.74-2.11.57-2.13 2.86-3.85 3.77-1.52.81-2.36 2.59-3.24 4.2-.802043 1.250594-1.817463 2.350632-3 3.25-4.08 3.53-6.94 8-10 12.37-1.97 2.88-4.25 5.47-7.05 9zm203.08-45.87c-1.18 0-2.84 0-4.5 0-.12 0-.23.43-.47.89l2.62.14c.19.54.23 1.45.62 1.64 4.55 2.27 7.54 6.23 10.74 9.92 1.16 1.34 1.72 3.22 2.69 5.13 2 .25 2.26 2.58 3.32 4.23.431589.474681.934239.879499 1.49 1.2 2.12-4.51-3.4-6.6-2.6-10.51.14-.7-.6-1.79-1.22-2.42-3.69-3.77-7.24-7.86-12.69-10.22z" fill="#6c46c0"/><path d="m397.91147 129.211471c.137084-2.750402.114093-5.506449-.068856-8.254182-.335676-2.805905 2.659582-4.647818 1.721412-7.22994 1.506236-1.902163 3.442825-3.442829 4.131389-5.413848.860707-2.685406 3.709644-2.797298 4.957668-4.759711 3.649394-.817671 7.014755-2.504658 10.638328-3.382579.791849-.1893554 1.773054.421747 2.857544.714387l4.992095-1.927984c0-2.7972983-.14632-5.52574.051643-8.2283605.06843-2.0320719.472686-4.0388104 1.196381-5.9388795.731601-1.7214143 2.194801-3.124367 2.874759-4.0367166 5.706481-1.8419134 9.769014-5.8528088 15.320569-5.6806674l1.678377-1.6439507c1.583699 0 3.787107.6627446 4.871597-.1635343 1.506235-1.1361335 3.546109.2151768 4.578956-1.5406659 1.480415.2926405 2.926401-.4045323 5.09538-.7918505l.731601-.7316011 10.879325-1.2222042v2.4099801c-2.728438.361497-4.931846 1.5578799-8.87388 3.5805418-3.210434 1.6525578-6.515545 3.5461135-9.966977 2.7284417-3.296505 1.6181295-6.024943 3.2104378-9.390304 3.5461136-1.953803.1893555-3.692429 1.3943456-5.723696 1.7644497-1.893553.3442828-3.675215 1.5062375-5.38802 2.5046578-1.25883.8406598-2.460702 1.7636294-3.597752 2.7628701 0 .9984203.301247 2.0312689-.068856 2.6595851-.619709 1.0586698 1.600913 1.4459881.352889 2.4702296-.550852.4561748 1.161954 1.2652395-.120499 1.8074851l.989813 2.160375 2.582118.4131394c-.860706.6455304-1.37713 1.075884-1.953803 1.5320588.48722 1.0797379 1.09347 2.1017029 1.807483 3.0469029.722993.748816 1.824697 1.136134 3.227648 1.962413h10.621114c2.40137-1.282454 4.906024-2.582122 7.875461-2.496051.430353 0 .972598.172141 1.273845 0 3.339539-2.1775891 7.436501-1.394346 10.887932-2.8059054 1.437379-.5938879 2.719832-.3701041 4.045319-.6111021 1.041454-.1893555 2.065695-.4217465 3.442825-.6885657 1.459491.8559981 3.227291 1.0077951 4.811347.4131394 2.461619-.7316011 4.880204-1.7214143 7.746355-1.3685244-1.161953 2.6854064-3.769893 3.6493982-5.947479 4.0711452-3.095772.532349-5.925092 2.083327-8.038996 4.40682-2.366941.327069-4.80274.275427-6.954505 1.041456-3.167399 1.118919-6.636044.688566-9.657123 2.255053-1.144739-1.20499-1.721412.413139-2.676796.542245-.906507.200936-1.791427.489184-2.642368.860708-.483365.223898-.991992.388624-1.514843.490603-3.246449.315155-6.465481.867483-9.631301 1.652557-2.478787.552218-5.070819-.145638-6.937292-1.867734-2.521869-2.125947-5.164236-3.959253-6.317583-7.393475h-3.795714c-2.005445 1.463203-4.30353 2.771477-6.145441 4.561748-1.988232 1.927984-4.682242 1.187776-6.024943 2.134554-1.23081 1.213597-1.841911 2.315302-2.711225 2.582122-2.321152.763379-4.39954 2.126209-6.024943 3.950646v2.212017c-3.442824 4.957673-3.296504 7.255761-.404531 10.328486h3.614965v.49921l-3.141577.550853c0 .395925-.163534.99842 0 1.14474 1.936589 1.47181 3.873178 2.960833 6.515545 2.960833 1.067276 0 2.212015-.395925 3.184613.671352.344282.370104 1.368523.240998 2.048481.137713 1.4632-.20657 2.917793-.55946 4.380994-.860707 1.325487-.240998 2.883365.619709 3.950641-.860708 3.812928.370104 7.11804-1.273846 10.569471-2.504657 1.394344-.499211 3.124363-.086071 4.699456-.086071 2.650959-1.862841 5.85466-2.772984 9.089056-2.582122l1.402951-1.773056c1.463201.129106 2.392763 1.575094 4.019498.533638 1.050062-.671352 2.69401-.335676 3.976462-.740208 1.195253-.473113 2.347184-1.049079 3.442825-1.721415l3.873177 2.539087-1.239416 1.945198h-3.701037l-1.342701 1.721414c-1.807483.292641-3.227648-.077463-4.794133.774637-1.196382.636923-3.055507.129106-3.993677 1.721414-3.623573-.077464-6.222905 3.029689-10.061655 2.917797-2.461619-.077463-4.974881 1.652558-7.470929 2.582122-.748814.266819-1.549271.404532-2.280871.714387-.566883.294138-1.110683.630776-1.626735 1.007027l-1.101703-1.050063-1.52345 1.523452c-4.303531.344283-8.538205 1.463202-12.910592 1.050063-.408565-.083905-.833697-.016618-1.196382.189355-1.618127 1.514845-3.038292.525032-4.553135-.180748-1.075883-.49921-2.229229-.860707-3.606359-1.342703-.860706-3.021082-5.224486-3.950646-5.164237-8.047612-3.795714-.688566-5.069559 3.442828-8.116458 3.96786-4.86299.860707-9.863693 1.273846-14.313543 3.812932l-.972598-.860707c-.631015.178408-1.240148.42668-1.81609.740208-.457463.360196-.870615.773349-1.23081 1.230812l-10.569471 2.074304-2.978044-1.489023-.989812.929563-1.721412-1.248025c-2.220622-.860707-4.380994-.981206-5.310557-2.134554-1.256631-1.55788-3.959248-.301247-4.535921-3.124367-.318461-1.532059-2.582118-2.582121-3.666608-4.053931-.985864-1.413138-1.781663-2.949756-2.366942-4.570355-1.721412-1.971019-3.7785-3.752683-3.176006-6.885657-1.411558-1.497631-3.029685-2.797298-3.563323-4.957673-.464781-1.927984-1.213596-3.787112-1.60952-4.983495-1.420165-1.222204-2.848938-1.85052-3.176006-2.840334-.93817-2.857547-3.701036-2.831726-5.637625-4.079752-.430353-.266819-1.316881-.111892-1.497629-.430353-1.093097-1.884949-4.002283-.791851-4.699455-3.072725-1.637445.684493-3.389771 1.052482-5.164237 1.084491-1.402951-.120499-2.926401.172142-4.208853-.266819s-2.409977-1.5148446-3.640787 0c-1.351309-1.4545951-2.582118-.516424-4.019498 0-.948177.321603-1.995105.133026-2.771473-.49921-1.007027-.7660295-2.435799-.9725992-3.881785-1.4890235v-5.6032037l3.57193-1.9624124.800457.8176719c.194404-.0169249.384042-.0694399.559459-.1549273 1.007026-.6971728 1.919375-1.8505205 3.012472-2.0484831 4.587563-.8607072 7.488143-4.3035359 10.92236-6.842622 1.721413-1.2738466 2.805902-3.3825792 4.226067-5.164243v-2.1431609c3.089935-3.365365 2.857545-7.4881524 2.3153-11.645368-.051642-.3701041-.533638-.6799587-.568066-1.0414557-.327068-3.1760095-.714386-6.3520189-.860706-9.5452425s-.103285-6.3089836 0-9.4677789c0-1.0328486.645529-2.039876.783242-3.0899388.072769-1.1005035.072769-2.2046119 0-3.3051155 1.721413-1.7816638 3.373968-3.365365 4.406816-5.6204178.628315-1.3771315 2.246443-2.3153023 3.442824-3.4428287.611102-.5594597 1.308274-1.0242415 1.936589-1.5148446l10.113297-1.2738467c1.282452-2.530479 2.891973-5.4396693 4.191639-8.4779656.290811-.747185.630076-1.4745939 1.015633-2.1775891.800457-1.3599174 2.289478-.8607072 3.279291-1.4976305.989812-.6369233 1.936588-1.5406658 2.969436-2.2120174.860706-.5766738 1.884946-1.0070274 3.287897-1.72141438 1.669191.08829301 3.342294.07104452 5.00931-.05164243 1.4632-.18074851 2.84033-1.05006275 4.30353-1.21359711 1.790269-.18935558 2.582119-2.01405478 4.561743-2.19480329l1.136132.86070717c.137713 0 .344282.0602495.421746 0 2.978043-2.93501145 7.694713-.38731823 10.767434-3.49447111 1.721412.53363844 3.890391-1.0672769 5.267521 1.11031225.860706-.44756773 1.532057-1.09309811 2.039874-.98981325 3.305111.63692331 6.024943-2.71122759 9.416125-1.52345169.08607 2.05709014-1.867732 2.01405478-2.582119 2.15176793-1.151932.27742204-2.187621.90967514-2.960829 1.80748505h-2.719831c-4.002284 1.57509413-6.713508 3.87318226-10.018619 4.97488746-.79185.2668192-1.721413 0-3.124364 0l-7.858247 1.5923083-.766028.9553849-6.730722.8607072-.946777-.6627445c-.344093.1520363-.680205.321529-1.007026.5078172-3.112559 1.8028059-6.47389 3.1368992-9.975584 3.959253-.120499 0-.206569.1893556-.421746.4045324.559459 1.7214143-1.067276 3.8990034 1.239417 5.3449915l-.860706 1.2308112c.430353 3.2965085 2.461619 5.5257401 4.389601 8.039005l4.07114 2.0226619c.860706-.1463202 2.582118.7402081 3.701036-.6455304l2.582119 1.3857385c.148113-.1003964.306874-.1841068.473388-.249605 3.227648-1.2824537 6.32619-3.0813317 9.941156-2.9522256 1.101704 0 2.065695-2.0054477 3.227648-.1893556.998419-.963992 2.272264-.5852809 3.442824-.7402082 1.170561-.1549273 2.048481-.7143869 3.098543-.7918506 1.248023-.0946778 2.392763-.6197091 3.528895-.7832435 2.521869-.3787112 5.164236-.0774636 7.746355-.1463202.774949-.1017868 1.536734-.2864622 2.272264-.5508526l3.13297 1.0328486-1.385737 2.1689821c-3.528895-.6455304-6.162655 1.7730567-9.390303 2.5390861l-1.196382-.7488152-1.489022 1.4890234c-2.005445.7057799-4.30353-.8607072-6.111013.9467779-1.979624-.3098546-3.769893.5508526-5.654839.8607072-2.014053.361497-4.088354.481996-6.085193.9123496-1.807483.3873182-3.563323 1.0672768-5.396627 1.6353436l-1.316881-.9209567c-.955383.5250314-1.859125 1.0930981-2.823116 1.5320588-.481995.2151768-1.282452.481996-1.557878.2582121-1.471807-1.2135971-3.236255-.5336384-4.80274-.9209567-1.02424-.249605-2.582118-.5422455-2.831723-1.2308112-.774636-1.9710194-3.442825-2.0656972-3.7785-4.4068207-.172141-1.2652396-1.015633-2.4271942-1.497629-3.6666126-.43896-1.1103122-.800456-2.2464457-1.265238-3.5719347-2.685403.5852808-5.215879 1.8160921-7.866854 2.5132649-2.831723.7488152-4.708062 3.1587953-7.591428 3.8473611-1.136132 1.7214143-2.409977 3.6149701-4.079747 6.1110209-.542245 1.3685244-.387318 3.6666125-.860706 5.7237027-.464781 1.8333062.49921 3.2534731.284033 4.9404591-.206569 1.5320588-.860706 3.4428287.671351 4.8285673.430353 4.7338894 1.643949 9.4677788.783242 14.2016683-.352889 1.9107699 0 4.1572156-.860706 5.6032037-1.248024 2.0226618-.14632 3.9162176-.860706 5.9130582l-2.10873 1.7214144c-.860706 5.6892744-4.742491 7.8582565-8.004567 10.8965528 1.373286-.0731932 2.749496-.0731932 4.122782 0 1.187775.120499 2.358335.8090647 3.520289.7660294 1.50213-.0007581 2.971485.4391511 4.226067 1.2652395 3.830142 2.2292316 7.574214 4.6047834 11.326892 6.8856574v2.659585c3.597752.860707 3.029686 4.828567 5.164237 6.885657v3.150189c.640634 1.154172 1.353572 2.266702 2.134551 3.330936.722993.860708 1.678377 1.55788 1.334095 2.900584 2.668189 1.506237 2.650975 5.035137 5.44827 6.73073 2.642367 1.600915 4.380994 4.630604 7.582821 5.646239.7316 1.721414 2.978043.611102 3.881784 2.039876 2.306693-.748815 4.492886-1.721415 7.031969-1.833306 2.539083-.111892 5.190058-.963993 7.772177-1.600916.748814-.197962 1.359915-.903742 2.470226-1.678379 3.64726.233712 7.30045-.354564 10.68997-1.721414l1.239417.860707c2.513262-1.695593 5.534341-.542246 8.839452-1.067277z" fill="#000"/><path d="m117.74 250c4.07 1.79 7.9.57 12 1.13.38.49 1 1.27 1.55 2 4.48-2 9-1 13.32-1s8.7-.33 13.12.77c4.18 1 8.79-.55 12.86.79 2-.22 4.15-1.07 5.71-.47 2 .77 3.32 1.16 5.31 0 1-.61 2.83 0 4.27.25 1.23.18 2.43.55 4.15 1 0-1.67 0-2.94 0-4.22-.07-4.88 1.7-9.63 1-14.58-.21-1.57 1.88-3.18.86-4.5-1.22-1.57.13-2.53.16-3.75.125526-1.681751.369464-3.35256.73-5-2.858598.561742-5.818209.294579-8.53-.77-1.845035-.672216-3.89713-.454458-5.56.59-.82-2.39-2.64-.16-4.17-.85s-3.9-.16-5.88-.28c-1.73-.1-3.64.61-5.23-.8-.95 1.29-2 1-3.09-.26-2.66 1.24-5.38 2-7.59.47-2.53.23-4.57.38-6.6.63-.9.11-1.76-1.82-2.66 0-.86-1.06-1.54-1.24-2.86-.32-.66.46-2.23-.5-3.41-.63-1.165759-.065072-2.334241-.065072-3.5 0-1.16 0-2.34.09-3.49 0-1.38-.13-2.73-.43-4.31-.7-1.12.21-2.79 1.09-3.81.6-3.19-1.51-6.44-.59-9.64-.87-1-.08-2.35.37-2.91-.13-.93-.84-1.41-.24-2.21-.12s-1.75-.47-2.63-.76l-2.92-.95c-1.33 1.4-3.34.89-5.25.95-1.43-2.24-4.26.18-5.78-1.74-1.89.78-3.64-.71-5.58-.34-.78.16-1.71-.65-2.61-.79-.54-.09-.77 1.2-1.82.25s-2.45-.64-3.35.86l-3.92-2c-.36.2-.89.77-1.37.73-3-.2-6.17.74-9.13-.87-.58-.31-1.7.39-2.89.71-1.17-.22-2.71-.48-4.24-.8-1.3872732-.176163-2.7496049-.511712-4.06-1-1.52-.73-2.58 1.43-4.32.26-.79-.54-2.61.44-4.24.78-.81-3.75-3.42-7.32-1.44-11.9-1.13-2.32-1.19-8.58.07-11.73l-1.66-1.66 2-5.46c-2.867967-.883013-5.7823781-1.607442-8.73-2.17-2.68-.37-5.41 0-8.11-.95-1.09-.41-2.65.47-4.51.89.68-3.28-.83-6.49 1.07-9.6.45-.73 0-2 .08-3 .14-1.73-.57-3.6.95-5.12.2315798-.455594.2315798-.994406 0-1.45-2.19-4.24.8-8.43.09-12.69-.49-2.92 1.8-4.56 3.66-6.37 1.4267905.308015 2.8302311.715681 4.2 1.22 1.63.74 2.89 1.39 4.79.11.94-.64 3 .29 5 .58l1.26-.82 2.15 1.21 1.45-1c1 1.39 2.06 1.08 3.22-.26 3 2.13 6.59.68 9.9 1.3 1 1.69 2.28-1.3 3.56.41 1.12 1.5 2.54-.28 3.85-.49.9811127.031361 1.9533823.196209 2.89.49 1.28.18 2.57.37 3.85.43 1.5.08 3-.08 4.5.06 1.0288306.21256 2.0338296.52746 3 .94l1.29-.93c1.25.3 2.6.69 4 .93s3-.68 4 1.24c1.81-.79 3.54-2.32 5.19-.18.93-.37 1.85-1.09 2.65-1 2.44.38 4.83 1.07 7.78 1.77 2-.84 4.43-1.62 7.19-.12 1 .57 2.57.17 3.87.29 2.22.2 4.44-.43 6.66.86.93.54 2.68-.34 4.74-.68.5.13 1.72 2 3-.39 2.65 2 5.81.19 8.32.95 3.21 1 5.54-2.43 8.43-.49.781282.250125 1.405728.843086 1.695903 1.610395.290175.767308.214359 1.625089-.205903 2.329605-1 1.76-.68 3.44-.89 5.16-.060347.937155-.269638 1.858709-.62 2.73-.744509 1.572992-.535399 3.431747.54 4.8-1.39 5.67-2.75 11.21-4.29 17.51 3.53-1.35 6.3-2.12 9.29-.52 1 .52 2.69-.36 4.71-.71 0 0 .49.81.88.77 4-.45 8.1.94 12.16-.79 1.33-.57 3.39.58 5.22 1v5.25c-1.782378 3.043032-2.791821 6.476513-2.94 10-.14 6-.75 12.05-1.18 18.33 7.35.47 14.39 2 21.35 1.17 1.8.93 2.36 3.12 4.47 3.19.14.27.48.63.4.8-1 2.18 2.52 4.1.34 6.32-1.58 1.61-.95 3.91-1.75 5.77-.275885.55638-.458323 1.154371-.54 1.77-.348662 2.745611-.499051 5.512774-.45 8.28.16 2.39-.81 4.59-.62 7 .22 2.82.05 5.66.05 7.58l-1.85 3.33-1.47-2.61c-2.6-1.36-5.63-1.36-8.7-1.32-.73 0-1.46-.6-2.2-.65-1.229889-.182829-2.483745-.121665-3.69.18-1.958214.744931-4.121786.744931-6.08 0-.43-.16-1.14-.59-1.24-.47-1.46 1.62-2.84-.93-4.21 0-.323611.238858-.624849.506625-.9.8-.718502-.366198-1.486593-.625597-2.28-.77-3-.09-6 0-9-.06-1.780816.010046-3.558635-.147313-5.31-.47-1.32-.28-2.6 1-4.07-.37-.63-.57-2.6.34-3.73.54l-8.54-1.34c-2.11 1.61-5 .42-7.85 0-1.62-.25-3.12-.79-4.19.39-.913742-.335744-1.86347-.563947-2.83-.68-7.72.11-15.34-1.71-23.08-1.08-.9907856-.119939-1.9561831-.396731-2.86-.82-2 .92-4.17 1.82-6.3.07-3 1.92-5.79-.8-8.79-.36-2.73.4-5.66-.55-8.89-.95.38-3.54.33-7.12 1.31-10.4.3311219-1.373682.5782464-2.766262.74-4.17.2142907-1.877158.5686113-3.73567 1.06-5.56.5-1.48-1.05-2.42-.52-3.88.3396109-1.240226.4879852-2.525012.44-3.81.07-1.5 0-3 0-4.33 1.21-2.58 3.46-1.47 5.41-1.82l1.86 3.59-1.78 1.12c-.56 2.33-.92 3.84-1.34 5.61.22.72.91 1.8.78 2.78-.5 3.86-1 7.76-2.66 11.53.45.86 1 1.92 1.59 3l-1.92 2.07c2.1632934.54391 4.3527701.9778 6.56 1.3 2.3315209.130061 4.6684791.130061 7 0 4.23-.06 8.28 1.44 12.59 1.09s8.66-.12 13-.05c.757644.138581 1.491684.384383 2.18.73 1.553437.528573 3.272055.142367 4.45-1zm-36.08-67.33c-2.19-.48-3.78-3.16-6.14-.72-1.58-1.88-3.71-.71-5.57-.92-1.8320977-.09519-3.6679023-.09519-5.5 0-2 0-4 .06-6 0-1.71-.07-3.56.55-5-.89-1.41 2-3.85 0-5.27 1.26-.0595146.850678-.2379151 1.688824-.53 2.49-1.38 2.46-1.46 5.1-1.68 7.83-.44 5.44 1.7 10.62 1 15.92 1.21.53 2.17 1.26 3.18 1.35 2.15.2 4.34-.07 6.49.1s4.05.74 6.09.93c3.2.31 6.43-.38 9.63.92 1.58.64 3.62.09 5.45.12s3.43-.31 5 .71c1.71-2.06 3 .94 4.81.4 1.97314-.447888 4.0196697-.464942 6-.05 1.7252505.428412 3.4857902.699522 5.26.81 1.21 0 2.06 1.37 3.34.5s2.31-.32 3.47.56c.82.63 2.06-1.7 3.12.06 4.36.333333 8.72.666667 13.08 1 1.272943-.008537 2.533488.250386 3.7.76 1.759062.792942 3.81306.542454 5.33-.65l7.47 1.77c.596717-.379172 1.247433-.665757 1.93-.85 1.32-.15 3.14.51 3.9-.15 1.55-1.37 2.52.27 3.77.2 3.21-.16 6.48-.53 9.61.85.927715.421436 1.992285.421436 2.92 0 2.5-1.82 5-.81 8-.16-1.719158-2.312248-1.915115-5.420131-.5-7.93 1.29-2.65 1.84-5.79.77-8.44-1.32-3.3-.45-6.5-.57-9.71 0-1 1.4-2.09.45-3.69-1.33 0-2.8 0-4.27 0-2 0-4.1-.33-5.91.24s-3.6-1.2-5.23-.19c-1.85 1.13-3.45-.47-5.21-.08s-3.65-.92-5.69-.05-4-.76-6.06-.86c-5-.24-10.1.25-15.09-1-1.25-.32-2.66 0-4-.08-1-.08-2.56-.93-2.86-.57-1.51 1.74-2.29-.37-3.4-.43-4.92-.26-9.84-.61-14.76-1-.9565742-.156016-1.899458-.386722-2.82-.69-3.58 2.96-7.87-2.17-11.71.34zm-35.4-6.67c2.46.2 4.84-.65 6.75 1.13 1.2178983-1.355271 3.2988923-1.480042 4.67-.28 4.26-1.48 8.43-.93 12.76.06 2.85.65 6 .2 9 .1s5.92 1.47 9.09 1.11c1.64-.2 3.4-.52 5.18.76.91.65 3-.28 4.87-.55.6976615.30863 1.429427.533531 2.18.67 4 .4 8.1.43 12.05 1.17 1.39.26 3-.55 3.59 0 1.69 1.48 3.47.71 5.18.86 1.662549.165687 3.337451.165687 5 0 1.58-.18 3.12 1.42 4.67 0 2.34 1.78 5 .67 6.55.91 3.37-1 2.1-3.33 2.59-4.91 1.06-3.47 2-7.07 1.66-10.81-1.68-1.3 1.07-3.5-1-4.73 2.29-2.68.58-5-.42-7.46-4 0-7.8.05-11.63 0s-8 .37-11.8-.51c-3.62-.85-7.33.28-10.91-1.34-1.8-.81-4.26-.14-6.43-.14-2 0-4 0-6 0s-3.69-.68-5.7-.13c-1.36.37-3-.42-4.76-.72l-1.13.86c-2-.64-3.91-1.91-5.48-1.58-1.91.4-3.47.81-4.83-.63l-1.43 1c-1.75-.32-3.12-.65-4.5-.81s-2.47.12-3.69-.89c-.48-.41-2.14.56-3.35.38s-2.58-.42-3.88-.49c-1.49-.09-3 0-4.49 0-1.33 0-2.67-.08-4 0s-3-.66-4.1 1c-2.49-1.21-6.79-1.39-14.53-.58 0 1.3-.53 3 .12 3.83 1.14 1.4-.27 2.19-.15 3.27.0704283 1.332403.0704283 2.667597 0 4 0 1.5-.37 3.13.1 4.46s-1.67 1.9-.47 3.4c.47.59-.49 2.22-.6 3.39s0 2.62 0 4.19l13.8 2.32c2.58-1.17 1.9-4.37 4.8-4.25z" fill="#000"/><path d="m458 431.92v1.27l6.89 8.34-.86 1c2.82 2.19 6.16 1.35 9.75 1.53.47.87 1 1.94 1.57 3l-2.51 2.83c.47.8.85 1.47 1.32 2.28-1.58 3-5.94 1.61-7.32 4.81h-4.25l-2 2c-3.07-2.26-7.07.56-10.18-1.76-1.52 1.82-4 1.27-5.44.7-1.8-.69-3.29 1.14-4.65 0-1.8-1.51-3.81-.4-6.15-1-.19-.26-.67-.93-1.26-1.77-.808667-.065718-1.621333-.065718-2.43 0-1.37.24-2.75 1-4.06.84s-2.49-1.46-3.79-1.56-2.53-1.55-3.72-.67c-1.7 1.27-2.42-1.33-4-.67s-3.44-.33-4.45-1.13c-2.29-1.8-4.71-1.92-7.29-1.82-3.88.16-7.53-.85-11.44-1.88-1.85.85-2.5.85-4.12 0-1.77.65-3.35 1.69-4.95 1.74-5.13.14-9.9 1.93-14.71 3.23s-9.1 3.74-13.24 5.52l-11.43 1.46-1.7 1.7c-1.446508-.915054-3.253611-1.050024-4.82-.36-1.439379.458471-3.008875.241609-4.27-.59-1.71-1.46-3.5-.43-4.6-.8l-4.45-3h-4.2l-3.24-4.63c-1.091884-.509209-2.210138-.959848-3.35-1.35-1.237274-.193798-2.462571-.457554-3.67-.79-1.157469-.661907-2.240367-1.446422-3.23-2.34l1.9-2.27 1.87 1c1.357077-.943662 3.131727-1.036657 4.58-.24.94.48 2.57.88 3.22.4 2.15-1.58 4.45-.64 6.66-.87 1.48-.15 3.12.35 4.46-.11 2.597727-.979223 5.126752-2.131817 7.57-3.45 1.26-.63 2.41-1.49 3.95-2.46h2.61c2-2.57 5.1-3.75 7.46-5.78 2.817226-2.35832 5.78336-4.532817 8.88-6.51 3.419727-2.106203 6.572556-4.617722 9.39-7.48 1.19-1.27 1.7-1.38 4.85-2.08-1.05 3.6-2.52 7.08-5.62 8.57-3.27 1.57-4.15 4.79-6.52 6.85-1.44 5.14-5.59 7.38-9.95 9.45-.57.28-.92 1-1.66 1.88-2.48-.07-5.08.62-7.28 4l-6.21 1.49c1.77 1.47 4.33-.47 5.64 1.55 1.6-1.92 3.79-.37 5.59-1.06s3.42-2.07 5.69-2c1.401411-.048796 2.76324-.477392 3.94-1.24 3.07-1.78 6.24-3 8.67-2.75 5.55-1.64 9.26-4.45 13.44-7 .07.84.12 1.46.2 2.47-.91.92-2 2-3.1 3.11l.43.61 6.89-3.21c1.92-.4 5 1 7.67-.89.615211-.300752 1.334789-.300752 1.95 0 2.74 1.68 5.74.62 7.55.87l9.43 4.1c2.72-2 6-.5 9.15-1.31-1.49-2.4-5.11-1.52-6-4.36-.92-3.78 3.65-3 4.32-5.47l24.08 10.16c2 .17 5.18-.75 8 1 .2-.2.4-.3.42-.43.08-.65.11-1.3.17-2.09-2.24-1.09-4.54-2.1-6.22-4.12-.67-.8-2-1.06-2.7-1.83-2-2.05-5-1.22-7.35-3-1.77-1.32-4.65-1.8-7.27-1.64-1.57.09-2.85-1.3-4.59-1-1.601.12232-3.209.12232-4.81 0-.05-.81-.09-1.59-.16-2.76.891135-.863672 1.825679-1.681397 2.8-2.45 1.439482-.926151 3.025148-1.602341 4.69-2 1.59-.51 2.25 1.79 3.93.54.73-.55 2.56.35 3.88.64 1.34203.41511 2.707834.749047 4.09 1 2.14.2 3.19 2.77 5.52 2.4 1 2.09 3.51 1.07 4.92 2.44-.33-2.65-2.18-3.9-4.71-5.24v-3.08l-14.47-9.4-1 .92-2.28-1.9c-1.59.32-3.12 2.25-4.73.09h-9.76l-2.08-1.63c.36-.68.48-1.24.81-1.46 1.58-1 3.21-1.9 4.61-2.71l6.21-1c2.89 1.7 6.59.2 10 1.1l6 2.13 3.38 3.47h3c.08.74.16 1.51.28 2.59 1.64 1.27 2.65 3.89 5.84 3.48-.45 2.7 1.47 3.94 3 5.33 1.826797 1.533333 3.245655 3.494999 4.13 5.71.55.99 1.77 1.65 3 2.8z" fill="#6c46c0"/><path d="m686.15 205.59.91 1.14-1.46 3.27c-.66 0-1.77.22-2.17-.19-2.9-3-6.55-4.14-10.51-4.91-1.75-.34-3.34-1.51-5.08-2.35-4.29 5-4.79 11.06-7 16.86 1.126468.978706 2.369149 1.814997 3.7 2.49 1.26.46 2.89-.29 4 1 1.93-2.17 2 1.07 3.28 1.2s2.39 1.41 3.69 1.84c2.59.84 5.11 1.64 6.93 3.9.34.43 1.51.2 2.28.27v4.5c-4-2-7.6-3.79-11.13-5.65-1-.52-1.8-1.9-2.68-1.88-3.59.07-6.36-3.57-11.05-1.5-2.255916 1.987769-3.68342 4.74999-4 7.74-.19 2.32-2.67 4.52-2.64 6.76 0 2.76-2.89 4-2.4 6.59-1.76 1.4.23 4.5-2.47 5.47-.43 1.82-.5 3.71-1.39 5.43-.946874 1.764989-1.772127 3.592573-2.47 5.47-.66 1.82-1.16 3.74.6 5.57-3.76.44-3.16 3.78-4 6.09-.446665 1.675503-.731306 3.390048-.85 5.12 3.65 1.3 8 2.18 11.61 4.31 3.77 2.22 8.41 2.6 11.76 5.82h4.85c2.15-3.92 1.83-8.78 4.67-12.74h3.64c.2.59.41 1.17.63 1.79l1-.84c2 1.24 4.37 1.56 6.78 2 3.052406.494746 6.061543 1.226969 9 2.19 3.2 1.12 6.09 3 9.49 3.7 3.303602.804632 6.561624 1.786044 9.76 2.94 5 1.59 9.85 3.62 14.9 5.09.94.28 1.52 1.84 2.16 2.68l3.33-2.27v3.3l-2.82 1.84c-.67 3.24-2.86 6.43-3.07 10.28-.11 1.85-1.61 3.23-2.09 5.13-1.28 5.08-3.43 9.92-4.77 15-.561275 2.297617-1.814395 4.367534-3.59 5.93-.337609-.293077-.691506-.566847-1.06-.82-1.68 1.73-4.2 1.35-5.59.71-4.16-1.92-8.7-2.27-13-3.68-2.32-.77-4.29-2.46-7.13-2.32-2.35.12-4.86-1-7.14-1.89-5-2-10.28-2.56-15.29-4.13-2.85-.9-6.19-1.09-8.58-3.46-.56-.55-1.77-.46-2.81-.7.13-2.14 2.19-2.79 2.87-4.33 1.959773-6.78399 4.406115-13.417854 7.32-19.85-1.1-.72-2.2-2-3.41-2.13-3.11-.3-5.46-2.18-8.17-3.28s-5.45-2.12-8.18-3.19c-.660344-.392445-1.379537-.676071-2.13-.84-1.921481-.09559-3.735928-.913519-5.08-2.29-.65-.58-1.71-.68-2.93-1.12-1.52-2.22.86-4.53.76-7 2.6-2.62 1.91-6 2-8.1.91-2.36 1.89-3.79 1.94-5.24.11-3.59 3-6.22 3.08-9.75 2.4-2.34 1.77-5.87 3.43-8.59 1.51-2.46 1.88-5.5 3.17-8.17.91-1.9.57-4.3 2.18-6.1s.89-4.19 2-6.15c.58-1 .1-2.59.1-4.29l2.69-2.16 4.48-14.29c-1.4-2.83-4.51-3.48-7.12-4.79-3.72-1.87-7.51-3.6-11.71-5.59l-2.7.7c-.19355-.360244-.350984-.738755-.47-1.13-.47-3.64 1.67-6.64 2.5-10 .496378-1.647445 1.248916-3.206515 2.23-4.62.757713-1.505813 1.42555-3.055194 2-4.64 1.14-2.52 2.14-5.11 3.36-8.08 1.31.45 2.3.73 3.25 1.11 4.29 1.72 8.52 3.57 12.87 5.1.878986.312386 1.723445.714509 2.52 1.2 1.85 1.1 3.93 1.81 5.78 2.91 1.918833 1.039451 3.997192 1.752514 6.15 2.11 1.87.41 4 .64 5.53 2.39.73.83 2.28.87 3.32 1.51 1.62 1 3.12 2.19 4.89 3.45-1 1.35-.94 3-2.73 3.63-.51.18-.46 1.68-.79 2.53-1.56 4.05-3.27 8-3.9 12.39-.17.89-1.11 1.61-1.83 2.6zm15.36 83.41h-5.32l-1.63-2h-4.11l-1.92-2-11.53-1.38-1.42-1.6-3.45 2.21-1.4 9.16-3.82 6.93v3.25c-1.88 2.23-4.53 10.37-4.7 14.14 4.726434 1.597929 9.585557 2.772551 14.52 3.51l1.77 1.77c1.904082-.018195 3.797504.286105 5.6.9 3.015865 1.165721 6.101934 2.140972 9.24 2.92 2.89.7 5.35 2.79 8.48 2.5 3.93 2.56 8.26 3.13 13.34 2.51 1.23-3.54 2.14-7.52 4-11s3.22-7.34 4.83-11 2.7-7.53 4-11.34c-1.402184-.613081-2.863015-1.082155-4.36-1.4-3.547517-.461931-6.988307-1.534429-10.17-3.17-1.84-.92-3.64-1.9-5.71-1.85-2.67.04-4.57-1.24-6.24-3.06zm-56.51-99c2.38 0 4.41-.34 6 1 3.77 3.17 8.58 4.21 12.86 6.32 3.009654 1.549012 6.191683 2.737238 9.48 3.54 2.274831.483996 4.490937 1.211522 6.61 2.17 1.65.77 3.16 1.45 5 .56-.32-3.39 2.34-5.69 3-8.74s1.76-5.76 2.67-8.66c-1.189383-1.029559-2.47152-1.946806-3.83-2.74-1.539871-.654197-3.145831-1.140344-4.79-1.45-1.58-.34-2.07-2.82-4.16-2-5.81-2.45-11.73-4.68-17.42-7.32-2.94-1.37-6-1.4-8.89-2.94-2.91 6.55-6.98 12.47-6.53 20.26z" fill="#000"/><path d="m584 139.1 4-4c1.82.28 3.85.58 5.88.94.438272.148131.855175.353221 1.24.61 3.33 1.62 6.38 3.78 9.93 5 .57.2 1 .91 1.33 1.28 3.24-1.16.58-4.45 2.45-6.47 1.34-1.45 1.54-4 2.24-6 1.51-.75 3-1.49 4.51-2.21.7 2.95 3.55 3.8 5.88 4.67 2.9 1.08 5.95 1.7 8.51 3.6.236031.204106.49837.375634.78.51 2.36.77 4.71 1.56 7.12 2.19 2.11.55 4.11 2.07 6.32 2.78.969222.126513 1.950778.126513 2.92 0l-.81-1.26c.68-4.6 4.83-7.68 5.9-12.07-1.09-1-1.19.16-2.09.37-3.14-1.16-6.16-4.17-10.41-2.88-2.56-2.89-7.09-1.5-9.92-4.94.33-.74.8-1.68 1.14-2.67 1.71-5 3.29-10 5.12-14.88.64-1.72.74-3.58 1.84-5.26.88-1.34.9-3.3 1.07-5 .08495-1.645571.08495-3.294429 0-4.94l4.28-1.47c3.09 3.22 8.53 1 11.8 4.59 4.3.24 7.69 3.12 11.85 4s8.05 3.07 12.16 4.35 7.27 4.15 11.71 5.6c1.050533 3.404475-.149946 7.101949-3 9.24-1.39 3.77-2.16 6.65-3.47 9.25-1.55 3.06-1.36 6.66-3.22 9.59-.07.12.58.69 1 1.19l-2.52 4.41-7.1-1.22-2.44-3h-3.46l-1.91-1.91-3.36-.15c-.1-.5-.19-.95-.33-1.58l-5.43-1.59-6.71 13.17c2.16 2.16 4.76 3 8.88 3.17 2.27 2.89 5.81 3.83 9 4.73 4.279497 1.047383 8.406639 2.640433 12.28 4.74v3.69c-1 2-1.86 3.62-2.75 5.33.11.11.32.35.53.58-.72 2.61-1.44 5.22-2.29 8.27-1.24-1-2.33-1.92-3.39-2.81-.13-4.53 2.46-8.07 3.43-12.39-1.89-.6-3.82-2.68-6.68-2.24-1.71-2.07-4.44-2.17-6.61-3.34-1.5-.81-2.87-2.08-4.82-1.67-.29.06-.78 0-.92-.14-2.54-3.27-6.94-2.69-10-4.85-2.69.32-4.22-2.47-7.09-2.39-2.09.06-4.14-2-6.35-2.52-2.55-.55-4.43-2.23-6.74-3.07-2.49-.91-4.86-2.15-7.67-2.09-1.32 0-2.66-.74-4.15-1.19-1.17 3.27-2.27 6.32-3.52 9.79 2.18.16 3 3.11 5.67 2.51 1.58 1.65 3.27 3.1 6.12 2.94l2.65 3.3 6.49-1.42v4.7c-3 3.86-5.74 7.91-5.91 13.39-.09 3-2.15 5.73-3.06 8.69-.342238.795329-.760867 1.55556-1.25 2.27-.42-.76-.87-1.54-1-1.82h-3.84c-4-4.59-9.32-5.2-14.39-5.1-2.3-1.24-4.39-2-6.08-3.35-1.88-1.48-3.67-3.28-6-3.54s-3.71-2.37-5.76-3.07-4.17-1.15-6.06-1.66c-.6-2.3-.69-3.83.93-5.35.93-.86 1.24-2.45 1.65-3.77.83-2.66 1.31-5.46 2.39-8 .66-1.86.45-3.7 1.51-6.16zm82-12.1c3.85 1.62 6.67 4.25 10.44 5 2.008029-2.200604 3.567184-4.772021 4.59-7.57 2-4.83 2.19-10.36 5.62-14.67.42-.54.28-1.52.35-2-1.85-1-3.37-2.33-5.08-2.67-3.934075-.861842-7.760696-2.156387-11.41-3.86-2.032846-.766238-3.988298-1.7238737-5.84-2.86-1.587926-1.0328337-3.49083-1.4686943-5.37-1.23-2.46.44-3-2.12-5.18-2.3-3-.25-5.88-1.6-8.68-2.44l-3 2.63c-.394284 1.7653025-.905409 3.502461-1.53 5.2-1 2.12-.26 4.81-2.25 6.57-2.19 1.92-1.28 4.78-2.14 7.1-.450867 1.027307-.958311 2.028843-1.52 3l5 2.64c1.34-.13 2.23-.51 2.7-.22 1.681043 1.233405 3.738175 1.84489 5.82 1.73.53-.06 1.12.64 1.69.65 2.9 0 5 2.59 8.06 2.47 1.41-.06 2.9 1.7 4.68 2.84zm-40.76 29.15c-5-.24-7-5.19-11.47-5.16-3.24-2.76-7.24-4.16-11-6-3.59-1.75-7.23-3.41-11-5.2-1.65 2.49-3.57.53-5.72 0-2.38 6.32-4.57 12.39-5.09 19.11l3 .14c4.92 2.6 8 6.69 13.25 8.2 4.75 1.36 9.16 4 13.81 3.85 2.074991 1.378901 4.22131 2.647332 6.43 3.8.91.43 2.2.08 3.31.08 1.17-6.41 3.67-12.23 4.5-18.81z" fill="#000"/><path d="m152.42 284.93c.39 1.88 2.41 2.09 3.4 3.4.340866 2.861322.085504 5.762231-.75 8.52-.64 2.61-.06 5.32-.86 8.12-.91 3.24-.3 6.94-.18 10.43.09 2.56-.38 4.8-2.63 6.61-2.18-.71-4.57-2.25-6.93 0-3.282335-1.39745-6.997038-1.372106-10.26.07-2.29-1.12-4.68-1.92-6.92-.13-1.207908-.427166-2.458537-.722221-3.73-.88-5.83-.09-11.66 0-17.48-.08-2.08 0-4.26.68-6.23-.61s-4.14.51-6.16-.91c-.51-.36-2.25 1-3.37-.26-1 1.28-1.89 1-2.77-.13-1.56 1.6-3-.53-4.66-.14-1.45.34-3.19.5-4.51-.79-1.6 1.15-3.07-.58-4.74-.2-1.6549298.264945-3.3401028.281796-5 .05-1.3487875-.191624-2.6846089-.465467-4-.82-.46.18-1.61 1.05-2.13.76-2.38-1.32-5.09-.39-7.45-1.34-1.48-.6-2.86 1.26-4.62-.3-1.5803273-1.022741-3.6706985-.738076-4.92.67-.64-1.44-1.64-.05-2.48-.32-3.59-1.17-7.19-.85-10.92.05l-1.33-1.39c1.66-3.66 1.1-7.6 1.17-11.48-.1248575-2.407223.1764371-4.81758.89-7.12.75-2-.24-4.39 1-6.6.64-1.15.2-2.95.09-4.44-.3109387-2.525018.6655606-5.037626 2.6-6.69l8.41 1.79c2.3-1.15 7.94-1.14 11.15.26.27-.15.55-.29.81-.46s.52-.36 1-.68l2.14 1.29c.4118347-.364665.8496573-.698881 1.31-1 .8579325.735266 1.9919892 1.063449 3.11.9 1.12 0 2.6-.21 3.28.39 1.39 1.24 1.64-1.05 2.93-.53 1.54.61 3.58-.44 5 1.11 2.38-1.27 4.75.24 7.17.11 3-.16 6.13-.75 9.11.82 1.17.62 2.54-.52 4.17-.11 2.47.62 5.14.6 7.73 1.08 2 .37 4.23.63 6.06-.9 3.55 1.56 7.11 1.28 11 .36 1.879649.377223 3.792907.561513 5.71.55 1.77-.16 3.46 1.57 5.18.09 1.86 1.33 4 .83 6.08 1 1.86.2 4-1 5.55.9 2.76-2.6 6.06.51 8.98-1.02zm-112.93-2.12c-.6125929 1.863292-1.0904904 3.768198-1.43 5.7-.24 2.14.6 4.64-.25 6.4s-.14 3.27-.66 4.89c-.63 2-.1 4.29-.17 6.45 0 1.85.46 3.79-.75 5.52 4.42 1 9.09-.95 13.42 1.08 2.75-2.26 5.09 0 7.45.84 1.3699479.551416 2.9149384.45967 4.21-.25l14.33 1.14c.57-.12 2-.9 2.59-.48 1.84 1.35 3.78.66 5.66.92s3.72.7 5.59 1c1.44.2 3.08-.13 4.31.45 1.56.73 2.51-.55 3.85-.58 5.59-.13 11 1.77 16.6 1.3.8-.07 1.75 0 2.67-.06 1.52-.07 3.35-.82 4.41.66 2-1.25 4.2-.64 6.25-.73 2.000128.08074 4.003193.050694 6-.09 1.94-.3 3.79 1.43 5.68.07.52.35 1 .69 1 .66l8.1-1c.52-1.87 1.46-3.92 1.61-6 .5-6.68-.75-13.45 1-20.08.020234-.549846-.043842-1.099549-.19-1.63-1.301619 1.312996-3.343695 1.538041-4.9.54-1.387744-.970017-3.284448-.732389-4.39.55-.24-.24-.44-.63-.71-.68-4.75-1-9.72.6-14.41-1.2-.94 1.76-2.28-1.25-3.55.42s-2.8-.63-4.34-.57c-2.83.11-5.77-.45-8.47.16s-5.06-2.79-7.65-.26c-1.07-2.07-2.82.29-4.41-.7-1.32-.82-3.56-.12-5.39-.21-.38 0-.73-.62-1.08-.95-1.2773439 1.405162-3.3665991 1.718551-5 .75-1.49-.85-2.81-.62-4.21-.74-4.19-.38-8.39-.64-12.58-1.07-.68-.07-1.31-.75-1.83-1.08-2.38 1.21-2.38 1.21-5.52.11-1 2.48-3.35-.65-4.66 1-2.14-1.93-4.73-.69-7.09-1-2.21-.27-4.5.46-6.64-.94-.51-.33-1.71.38-2.68.63z" fill="#000"/><path d="m399.2 319.7 2.29 2.28c.64799 2.075035 1.129516 4.198428 1.44 6.35.17 2.58 2.07 4.73 1.94 7.15s1.16 4.66 1.18 7.08c.14009.919833.481551 1.797388 1 2.57 1.252306 2.367029 1.937006 4.992851 2 7.67.1 3.13 1.36 6.11 2.13 9.11.470161 2.181728.751203 4.399954.84 6.63 1.68 1.51 2.06 3.48 2 5.65.012461 1.102387.236519 2.192122.66 3.21.77 2.17 1.9 4.45 1.31 7-.030003.165316-.030003.334684 0 .5.33 1.69 1 3.42.89 5.07s-1.6 3.07-1.78 4.68c-.17 1.46.6 3 .94 4.46-1.21 2.59-4 3.46-5.47 5.75-.620385.707132-1.509497 1.120841-2.45 1.14-5 .08-10 1.63-15.07 1.11-1.91-.2-3.48-1.54-5.59-1.13-1.90891.411735-3.902604.105561-5.6-.86-.48-.28-1.45.27-2.65.54l-4.41-2.22c-1.4-1.76-2.34-3.69-1.62-6 .285314-.626905.808586-1.114344 1.454123-1.354544.645537-.240199 1.360164-.213375 1.985877.074544 2.66 1.24 5.54.31 8.06 1.06 2.476658.695535 5.052065.972679 7.62.82 1.790445-.150031 3.570298-.407158 5.33-.77l.54.49 8.62-2v-2.87c.86-.91 1.54-1.62 2.37-2.48-2.88-3.58.43-8.27-2.13-12-.228764-.647042-.228764-1.352958 0-2 .53-2.51-.91-4.65-1.26-7-.12-.74-.77-1.47-.72-2.17.53-7.6-.22-12.54-3.34-21.78-1.1-3.26-1.86-6.55-2.73-9.85-.55-2.08-1.4-4.08-2.1-6.11-.4-1.18-.78-2.36-1.44-4.36l-2.44-2.14v-2.62l-5.24-11.64c2-1.1 3.74-2.37 6.38-1.33 1.59 3.78 4.67 7.31 5.06 12.29z" fill="#6c46c0"/><path d="m346.65 291.69-2.07 2.25c-3 .36-5.82.1-8.76.82-2.54.62-5.22 1-7 1.4l-5.12 5.1c-1.2-1.88-2.87-1-4.37-1.36l-3.16-4.59v-3.94c3.17-5.48 6.43-11 12.52-14.11 3.25-.4 6.74-.86 10.24-1.24 1.443764-.272597 2.934895.091983 4.09 1 1.164216.872964 2.633793 1.234039 4.07 1 1.747238-.076044 3.489464.23824 5.1.92 2.198193.671687 4.44483 1.173169 6.72 1.5 3.74 2.47 9.37 2.73 12 8.5v3.69l-3.3 1.09c-1.64-.56-3.67-.78-5-1.85-1.9-1.49-3.81-.65-5.68-.79-1.6-.12-3.51.87-4.79.29-2.27-1.01-3.58 2.07-5.49.32z" fill="#6c46c0"/><path d="m459.93 283.81c-.2 1.77 1 3.65 1.32 5.66.29 1.64 2.75 2.88 2.75 5.76l-3-1.23c-1.64 1-3.69 1.85-5.87-.17l-1.65 1c-1.19-.27-2.52-.6-3.87-.86-1.56-.3-3.3.65-4.72-.65s-2.63.58-3.73.16c-1.422658-.735811-3.127054-.67128-4.49.17-1.14.65-2.9.45-4.34.26-1.72-.23-3.07.6-4.58 1-1.34.38-2.73.57-4.51.93l-2.59-3.19c-2.4.88-3.4 2.95-5.06 4.14h-3.81c.49-3 1-5.76 1.43-8.71 3.67-1.71 5.9-5.75 10.05-6.81 3-.78 5.68-2.37 8.59-3.35.58-.19 1.12-.51 2.33-1.06 1.61-.34 4.19.89 6.38-.84 1.7 1.91 4 .44 5.61.91l2.49-1.26 6.48 3.66.31-.48c1.43 1.64 2.88 3.22 4.48 4.96z" fill="#6c46c0"/><path d="m731.45 227 2 2c1.68-.62 3.32.63 5.29.43 1.69-.16 3.53 1 5.25 1.62s3.67 1.59 5.83 2.55c.65 2-.08 4.12-1.16 6.37-1.02364 1.771503-1.619459 3.757568-1.74 5.8-.124667 1.23882-.463003 2.446679-1 3.57-1.12 3-2.32 6-3.63 9.43l.73 1.13c-1 1.86-2 3.78-3.06 6 .3 4.71-1.37 9.3-3.25 14h-3.13l-4.13-2.9c-2.621392-.022272-5.219365-.495861-7.68-1.4-2.56-1.09-5-2.41-7.52-3.56-2.1231-.945392-4.35763-1.61743-6.65-2-3.862575-.534728-7.580874-1.829675-10.94-3.81-1.13-.71-2.67-.76-4-1.26-1.87-.73-3.82-1-5.62-2.2s-4.13-1.22-6.23-1.79c-.301373-.121558-.58681-.279387-.85-.47 0-.47-.21-1.15 0-1.43 3.36-3.87 3.41-9 4.93-13.47 2.46-7.3 4.1-14.89 7.68-21.81.224079-.764118.348442-1.553996.37-2.35.26-1.21.58-2.41.89-3.69-.31-.67-.67-1.47-1.06-2.29.59-.25 1-.55 1.14-.45 2.84 1.8 6.16 2 9.26 3 3.27 1 6.64 1.63 9.9 2.64s6.32 2.46 9.56 3.45c3.02.94 5.47 3.43 8.82 2.89zm14.29 9.41-6.88-3.43-1.48 1-1.56-1.56c-2.12-.32-4.17-.24-5.87-1-4.52-2-9.32-3.2-13.76-5.36-1.25-.61-2.44-1.85-3.67-1.86-1.75 0-2.95-1-4.41-1.51s-3-.84-4.4-1.45c-2.07-.89-4.12-1.65-6.71-.88-.764908.930902-1.434901 1.935892-2 3-.9 2.12-1.15 4.64-2.44 6.44-1.49 2.06-1.41 4.43-2.28 6.58-1.562299 3.86022-2.85866 7.822806-3.88 11.86-.8 3.14-1 6.42-2.46 9 2.45 2.28 5.34 3.06 8 4.25 1.5669.649227 3.186035 1.164406 4.84 1.54 1.67.42 3.4.61 5.07 1s3.54 1.09 5.29 1.68c3.65 1.23 7 3.4 10.73 4.16 1.68.34 2.51 1.3 3.63 2.14 4.37-.45 8 2.13 12.29 3 1.42-4.39 3.23-8.56 4-12.92.85-4.62 4.08-8.68 3.22-12.77 1.82-4.85 3.27-8.9 4.73-12.96z" fill="#000"/><g fill="#6c46c0" transform="translate(192 318)"><path d="m3 51.47c0-3.66 0-3.66-2-7v-7.92c-.12200161-1.8289685-.09859473-3.6647367.07-5.49.24-1.48 1.28-2.82 1.6-4.3.27216753-1.7981411.42915406-3.6118366.47-5.43l4.18-7 4.51-2.32h10.6c.2154889.2069129.4461304.3974428.69.57 4.78 2.88 7 7.21 8 12.62.5165803 2.4203597 1.218653 4.7973773 2.1 7.11.3887425 1.4156161.6069557 2.8726088.65 4.34l-1.47 2.4c-.4006496-.0639584-.7908367-.1816873-1.16-.35-3-2.34-3.33-6-4.12-9.26-.7651014-3.9289022-2.691497-7.5378459-5.53-10.36h-9c-.2161506.1104997-.4234349.2375449-.62.38-4.61 3.54-5.54 8.7-6 14-.22 2.65-.87 5.73.18 7.89 1.24 2.53.15 4.86.95 7.3 2.38 2.56 3.09 6.19 4.83 9.29 4.2 7.5 7.11 11.45 14.69 15 1.3285286.4423054 2.684812.7964089 4.06 1.06.7373942.3120226 1.4466612.6867297 2.12 1.12v4.49l-1.2 1.2h-4.86l-3.41-1.81c-3.14-1.64-6.83-2.58-8.33-6.38-2.71-1.18-2.65-4.23-4.18-6.13-1.71029464-1.8711478-3.11426479-4.0007275-4.16-6.31-1-2.58-2.14-5.11-3.66-8.71z"/><path d="m359.45 39.78-2.17-2c-.89-2.33.15-4.39.71-6.52 1.09-4.19 2-8.42 4-12.34 1.16-2.29 2.23-4.5 4.92-5.4.57-.18 1-.9 1.52-1.46h10.87l4.45 2.34c1.22 2.07 2.73 4.59 4.27 7.19-.140057 2.3768087.200039 4.7574796 1 7 2.1 5 .75 10.36 1 15.55 0 1.07-1.09 2.18-1.9 3.67.46 2.67-.43 5.46-2 8.18-1 1.86-1.51 4.05-2.55 5.92-1.22 2.19-3.15 4-4.09 6.31-1.034913 2.1018702-2.383689 4.0339922-4 5.73-2 2.48-4.95 3.81-7.87 5-1 .42-1.95 1-3.76 1.86h-4.42l-1.43-1.3v-4.26c.723195-.522614 1.522565-.930731 2.37-1.21 4.21-.71 9-3.64 12.07-6.9 4-4.21 7.19-8.75 8.6-14.45.14-.56.9-.94 1.23-1.49.63-1.05 1.53-2.13 1.66-3.28.5-4.17.76-8.37 1.06-12.56.182552-3.5030842-.504532-6.9969099-2-10.17-.090556-.4925389-.090556-.9974611 0-1.49l-4.91-4.7h-8.64c-2.974418 2.8106012-4.915434 6.5411569-5.51 10.59-.451876 2.4339857-1.186869 4.8067706-2.19 7.07-.632338 1.1300777-1.401462 2.1779669-2.29 3.12z"/><path d="m144.36 99.92c.9-1.26 1.28-2.31 2-2.72 3.92-2.15 7.91-4.18 11.9-6.19 3.545122-1.9335675 7.512021-2.963931 11.55-3l1.84-2.32 2.22 1.4c2.75-2.14 5.22-.9 7.68.87l.74-.8c1.8 1 4.35 1.23 3.58 4.56-3.484489.4940879-6.885633 1.4595956-10.11 2.87-2.13 1-4.7.7-7.56-.26l-15.2 7.35-.25 1.25-2.08.09c-.22.16-.55.3-.69.54-.31.53-.37 1.46-.78 1.63-3.744923 1.637236-6.724159 4.641507-8.33 8.4-3.27.45-3.18 4.2-5.54 5.65-1 .6-1.28 2.22-2.21 3s-2.33.83-3.33 1.5c-2 1.32-3.82 2.84-6.12 4.57l-2.19-4.59c5.35-3.05 7.92-8.35 12.18-12.05 1.58-1.38 2.55-3.54 3.56-5.47 1.413693-2.987214 3.996774-5.259167 7.14-6.28z"/><path d="m267 10.59c-.945491.8597178-1.947754 1.6548468-3 2.38-1.68 1-3.56 1.54-4.45 3.82-.43 1.09-2.56 1.55-4 2.2s-2.84 1.17-4.57 1.87l-3.13-1.06-2.54 2.28c-3.95-.34-6.64-4.45-10.16-3.09-6.71-2.63-10.8-7.76-16.32-11.91.63-1.47 1.41-3.28 2.32-5.37 6.19 1.42 9.88 6 14.89 9.32 1.54.4 3.51-.18 5.7.76s5.26-.4 7.6-1.7c1.66-.92 3-2.3 5.17-2.09l5.5-5.59c1.415293-.27183803 2.808963-.64615697 4.17-1.12 2-.83 3 0 4.2 1.95l-2.07 1c-1.31 2.06.86 3.82.69 6.35z"/><path d="m157.56 7 1.93-2 .61.61 9.37-4.61 1.26 1.18 3.86-1.95 1.15 2.28c.09 2.35-2.84 2.54-3.89 4.25l1.43 2.59-5.58 4.81-1.25-1.1-2.9 2.9-1.1-1-1.62 1.91h-4.23l-1.91 1.91c-.69-.27-1.65-1-2-.74-2.31 1.57-4.52 1.2-6.69-.09-1.6-.94-3-1.61-4.72 0-.45.41-1.61.06-2.44.06-3.76-3.12-9.08-4.09-11.73-8.65l-.74-3.15 1.11-2.26c2.178614.26254489 4.275684.98884726 6.15 2.13 1.31.75 3 .85 4.36 1.49s2.58 1.82 4 2.35c.69.27 1.73-.39 2.85-.69l5.47 1c2.08-2.35 4.26-3.5 7.25-3.23z"/></g><path d="m675 294c1.33 0 2.43-.29 3.24.07 1 .46 1.94 1.31 3.09.89 1.43629-.55811 2.827127-1.226782 4.16-2 1.21-.66 2.36-1.44 3.8-2.33l2.74 3.5v1.38l2.3 1.18 7.4-1 3 4.95c3-2.41 5.3 1 8.2 1.68v2.32c-3.62 1.68-6.89-1.48-10.09-.62l-5.09-3.65c-4.25 1.2-8.15 1.31-11.21-2.39l-9.73 1.26-1.81-1.73z" fill="#000"/><path d="m680.28 190.15-1.7 1.79c-1.922669-.383133-3.811925-.918144-5.65-1.6-1.706-.958828-3.328378-2.059369-4.85-3.29-3.92-.79-7.91-2.76-12.6-1.85l-2.37-3.64v-2.56c.62 0 1.4-.24 1.81 0 1.75 1.2 3.68.93 5.58 1l1.88 1.88h5.62c2.13 1.65 4 3.52 6.18 4.68 2.01 1.04 4.58 1.01 6.1 3.59z" fill="#000"/><path d="m673.75 115.1c-4.027012-3.162811-9.127287-4.633354-14.22-4.1l-1.94-1.94h-7.1l-5.89-4.73c.7-1.7 1.28-3.08 1.93-4.64l4.74 4.23c6.66.08 6.84.13 10.17 3l2.48-2.18c2.28 1.79 4.42 3.9 7.56 3.2 1.86 2.06 3.08 4.14 2.27 7.16z" fill="#000"/><path d="m599.51 154h-5.25l-4.37-5.4 1.23-1.23c.23 0 .62-.14.68 0 1.29 2 3.62 1.78 5.43 2.61s4.12 1.32 6.13 2.1c.41.17.57 1 .92 1.65l4.26.85 3.35-.71 4.88 3.32v5c-2.29-.3-2.94-2.36-4.43-3.23-1.408122-.735529-2.857154-1.389931-4.34-1.96l-3.56 1.95z" fill="#000"/><path d="m706.44 230.54 3.49 1.48v4.78h5.07l2.17-2.66c3.9-.86 3.4 2.57 5.11 3.67l-1.16 1.81c2.12.85 4.18 2.68 6.49.38l7.56 2.29-4 2.73c-8.19.33-15.94-3.34-24.55-4.67-1.44567 1.088133-3.383272 1.262517-5 .45-1.8-1.13-3.5-.35-4.47-.68l-3.3-3.06 1.46-3.64c.76 1.15 1.2 1.81 1.12 1.68 2.39 1.71 4.77-.25 6 1.76l2.27-1.1c.44-1.46.99-3.05 1.74-5.22z" fill="#000"/></g></g></svg>