<svg height="80" viewBox="0 0 80 80" width="80" xmlns="http://www.w3.org/2000/svg"><g fill="none" fill-rule="evenodd"><circle cx="40" cy="40" fill="#f6f5ff" r="40"/><g transform="translate(42 1)"><path d="m4 0h16c2.209139 0 4 1.790861 4 4v34c0 2.209139-1.790861 4-4 4h-16c-2.209139 0-4-1.790861-4-4v-34c0-2.209139 1.790861-4 4-4z" fill="#e9d8fd"/><path d="m12.1351351 26c.1201202 0 .2318986-.0216884.3353354-.0650651.1034367-.0433767.1935268-.1034367.2702702-.1801801.0767435-.0767435.1368035-.1651652.1801802-.2652653s.0650651-.2068736.0650651-.3203203v-3.3233234h3.4434434c.2402403 0 .4437771-.0817484.6106106-.2452452s.2502503-.358692.2502503-.5855856c0-.2335669-.0834168-.4304304-.2502503-.5905906-.1668335-.1601601-.3703703-.2402402-.6106106-.2402402h-3.4434434v-3.3433434c0-.2335669-.0834168-.4320987-.2502503-.5955956-.1668335-.1634968-.3670337-.2452452-.6006006-.2452452-.2402402 0-.4421087.0817484-.6056056.2452452-.1634968.1634969-.2452452.3620287-.2452452.5955956v3.3433434h-3.43343345c-.24024024 0-.44210877.0800801-.6056056.2402402-.16349683.1601602-.24524525.3570237-.24524525.5905906 0 .1134468.02168836.2202202.06506507.3203203s.10343677.1885219.18018018.2652653.1668335.1368035.27027027.1801802.21521521.065065.33533533.065065h3.43343345v3.3233234c0 .2335669.0817484.4304304.2452452.5905906.1634969.1601601.3653654.2402402.6056056.2402402z" fill="#805ad5" fill-rule="nonzero"/></g><g transform="translate(15 1)"><path d="m4 0h16c2.209139 0 4 1.790861 4 4v34c0 2.209139-1.790861 4-4 4h-16c-2.209139 0-4-1.790861-4-4v-34c0-2.209139 1.790861-4 4-4z" fill="#e9d8fd"/><g fill="#fff" stroke="#805ad5" stroke-width="2"><rect height="10" rx="2" width="18" x="3" y="16"/><rect height="10" rx="2" width="18" x="3" y="3"/></g></g><g fill="#fff" stroke="#805ad5" stroke-width="2" transform="translate(27 34)"><rect height="10" rx="2" width="18" y="27"/><rect height="10" rx="2" width="18" x="4" y="23"/><rect height="10" rx="2" width="18" x="8" y="19"/><rect height="10" rx="2" transform="matrix(.96592583 .25881905 -.25881905 .96592583 2.990555 -6.715521)" width="18" x="18" y="3"/></g></g></svg>