<?xml version="1.0" encoding="UTF-8"?>
<svg width="138px" height="138px" viewBox="0 0 138 138" version="1.1" xmlns="http://www.w3.org/2000/svg" xmlns:xlink="http://www.w3.org/1999/xlink">
    <title>open-sort-icon</title>
    <g id="icons" stroke="none" stroke-width="1" fill="none" fill-rule="evenodd">
        <g id="open-sort-icon" transform="translate(1.000000, 0.000000)">
            <g id="open-group" transform="translate(0.000000, 9.000000)" fill="#E9D8FD" stroke="#FFFFFF" stroke-dasharray="2,4" stroke-linecap="round" stroke-linejoin="round" stroke-width="2">
                <path d="M4,0 L51,0 C53.209139,-4.05812251e-16 55,1.790861 55,4 L55,85 C55,87.209139 53.209139,89 51,89 L4,89 C1.790861,89 2.705415e-16,87.209139 0,85 L0,4 C-2.705415e-16,1.790861 1.790861,4.05812251e-16 4,0 Z"></path>
            </g>
            <rect id="Rectangle" fill-opacity="0.5" fill="#000000" x="5" y="19" width="30" height="3" rx="1.5"></rect>
            <g id="open-group-copy" transform="translate(74.000000, 9.000000)" fill="#E9D8FD" stroke="#FFFFFF" stroke-dasharray="2,4" stroke-linecap="round" stroke-linejoin="round" stroke-width="2">
                <path d="M4,0 L51,0 C53.209139,-4.05812251e-16 55,1.790861 55,4 L55,27 C55,29.209139 53.209139,31 51,31 L4,31 C1.790861,31 2.705415e-16,29.209139 0,27 L0,4 C-2.705415e-16,1.790861 1.790861,4.05812251e-16 4,0 Z" id="open-group"></path>
            </g>
            <path d="M101.4893,30 C101.617704,30 101.737192,29.9761428 101.847763,29.9284284 C101.958333,29.880714 102.054637,29.814648 102.136673,29.7302302 C102.218709,29.6458125 102.282912,29.5485485 102.32928,29.4384384 C102.375649,29.3283283 102.398833,29.2108775 102.398833,29.0860861 L102.398833,29.0860861 L102.398833,25.4304304 L106.079767,25.4304304 C106.336576,25.4304304 106.55415,25.3405072 106.73249,25.1606607 C106.91083,24.9808141 107,24.7660994 107,24.5165165 C107,24.2595929 106.91083,24.043043 106.73249,23.8668669 C106.55415,23.6906907 106.336576,23.6026026 106.079767,23.6026026 L106.079767,23.6026026 L102.398833,23.6026026 L102.398833,19.9249249 C102.398833,19.6680013 102.309663,19.4496163 102.131323,19.2697698 C101.952983,19.0899233 101.738975,19 101.4893,19 C101.23249,19 101.016699,19.0899233 100.841926,19.2697698 C100.667153,19.4496163 100.579767,19.6680013 100.579767,19.9249249 L100.579767,19.9249249 L100.579767,23.6026026 L96.9095331,23.6026026 C96.6527237,23.6026026 96.4369326,23.6906907 96.2621595,23.8668669 C96.0873865,24.043043 96,24.2595929 96,24.5165165 C96,24.641308 96.0231842,24.7587588 96.0695525,24.8688689 C96.1159209,24.978979 96.1801232,25.0762429 96.2621595,25.1606607 C96.3441958,25.2450784 96.4404994,25.3111445 96.55107,25.3588589 C96.6616407,25.4065732 96.7811284,25.4304304 96.9095331,25.4304304 L96.9095331,25.4304304 L100.579767,25.4304304 L100.579767,29.0860861 C100.579767,29.3430097 100.667153,29.5595596 100.841926,29.7357357 C101.016699,29.9119119 101.23249,30 101.4893,30 Z" id="+" fill="#805AD5" fill-rule="nonzero"></path>
            <g id="Group" transform="translate(1.000000, 32.000000)">
                <path d="M74.6659433,0.811822048 L114.558362,11.4807248 C115.62543,11.7661033 116.259114,12.8624774 115.973735,13.9295448 C115.972887,13.9327173 115.972031,13.9358878 115.971167,13.9390561 L112.136636,27.9990022 C112.047031,28.3275536 111.875015,28.6277829 111.63689,28.8712398 L45,97 L45,97 L2.84217094e-14,97 L2.84217094e-14,80 L72.6806757,1.38620792 C73.1845711,0.841178164 73.9488725,0.620047306 74.6659433,0.811822048 Z" id="card-shadow" fill-opacity="0.5" fill="#805AD5"></path>
                <g transform="translate(75.585980, 86.000000)" id="card-copy-5">
                    <g transform="translate(22.500000, 8.500000) rotate(-3.000000) translate(-22.500000, -8.500000) " id="card">
                        <rect stroke="#805AD5" stroke-width="2" fill="#FFFFFF" x="0" y="0" width="45" height="17" rx="2"></rect>
                        <rect id="Rectangle" fill-opacity="0.5" fill="#000000" x="5" y="5" width="30" height="3" rx="1.5"></rect>
                        <rect id="Rectangle-Copy" fill-opacity="0.5" fill="#000000" x="5" y="9" width="15" height="3" rx="1.5"></rect>
                    </g>
                </g>
                <g transform="translate(49.454899, 84.000000)" id="card-copy-4">
                    <g transform="translate(22.500000, 8.500000) rotate(-2.000000) translate(-22.500000, -8.500000) " id="card">
                        <rect stroke="#805AD5" stroke-width="2" fill="#FFFFFF" x="0" y="0" width="45" height="17" rx="2"></rect>
                        <rect id="Rectangle" fill-opacity="0.5" fill="#000000" x="5" y="5" width="30" height="3" rx="1.5"></rect>
                        <rect id="Rectangle-Copy" fill-opacity="0.5" fill="#000000" x="5" y="9" width="15" height="3" rx="1.5"></rect>
                    </g>
                </g>
                <g id="card-copy-3" transform="translate(0.171960, 80.000000)" fill="#805AD5" stroke="#805AD5" stroke-width="2">
                    <g id="card">
                        <rect x="0" y="0" width="45" height="17" rx="2"></rect>
                    </g>
                </g>
                <g transform="translate(25.316878, 82.000000)" id="card-copy-3">
                    <g transform="translate(22.500000, 8.500000) rotate(-1.000000) translate(-22.500000, -8.500000) " id="card">
                        <rect stroke="#805AD5" stroke-width="2" fill="#FFFFFF" x="0" y="0" width="45" height="17" rx="2"></rect>
                        <rect id="Rectangle" fill-opacity="0.5" fill="#000000" x="5" y="5" width="30" height="3" rx="1.5"></rect>
                        <rect id="Rectangle-Copy" fill-opacity="0.5" fill="#000000" x="5" y="9" width="15" height="3" rx="1.5"></rect>
                    </g>
                </g>
                <g transform="translate(70.171960, 6.000000)" id="card-copy-2">
                    <g transform="translate(22.500000, 8.500000) rotate(15.000000) translate(-22.500000, -8.500000) " id="card">
                        <rect stroke="#805AD5" stroke-width="2" fill="#FFFFFF" x="0" y="0" width="45" height="17" rx="2"></rect>
                        <rect id="Rectangle" fill-opacity="0.5" fill="#000000" x="5" y="5" width="30" height="3" rx="1.5"></rect>
                        <rect id="Rectangle-Copy" fill-opacity="0.5" fill="#000000" x="5" y="9" width="15" height="3" rx="1.5"></rect>
                    </g>
                </g>
                <g transform="translate(104.000000, 25.000000)" fill="#FFFFFF" id="Icon/Hands/Hand-Paper-(Outline)">
                    <g transform="translate(8.000000, 8.000000) rotate(-15.000000) translate(-8.000000, -8.000000) ">
                        <path d="M12.6428125,3.52003122 L12.6428125,3.18174997 C12.6428125,1.81887496 11.3765625,0.785156205 10.0478438,1.13343746 C9.24693751,-0.413437553 7.10753124,-0.349375052 6.36090624,1.15678121 C5.07090623,0.826749955 3.78574997,1.81078121 3.78574997,3.18749997 L3.78574997,7.12906249 C3.16221872,6.89696874 2.43237497,6.97068749 1.84565621,7.40628125 C0.928312456,8.08740625 0.727093705,9.38543751 1.39096871,10.3173125 L5.13999998,15.5802813 C5.32764075,15.8436537 5.63105831,16.0000313 5.95443749,16.0000313 L12.9199688,16.0000313 C13.3857188,16.0000313 13.7898125,15.6785 13.8944063,15.224625 L14.8376563,11.1321875 C14.9454504,10.6641506 15,10.1854147 15,9.70512501 L15,5.59374998 C15,4.32437498 13.8899063,3.34399997 12.6428125,3.52003122 Z M13.4999063,9.70509376 C13.4999063,10.0716875 13.4582188,10.4385 13.376,10.7952813 L12.5220938,14.5 L6.21209374,14.5 L2.61221872,9.44696876 C2.16099996,8.81353126 3.08168747,8.11021875 3.53078122,8.7405625 L4.37853123,9.93053126 C4.65962498,10.3250938 5.28574998,10.127 5.28574998,9.64043751 L5.28574998,3.18749997 C5.28574998,2.38609371 6.42859374,2.41218747 6.42859374,3.20909372 L6.42859374,8 C6.42859374,8.27615625 6.65243749,8.5 6.92859374,8.5 L7.14284374,8.5 C7.419,8.5 7.64284375,8.27615625 7.64284375,8 L7.64284375,2.09374996 C7.64284375,1.29178121 8.7856875,1.31843746 8.7856875,2.11534371 L8.7856875,8 C8.7856875,8.27615625 9.00953126,8.5 9.28568751,8.5 L9.49993751,8.5 C9.77609376,8.5 9.99993751,8.27615625 9.99993751,8 L9.99993751,3.16015622 C9.99993751,2.35790621 11.14275,2.38484371 11.14275,3.18174997 L11.14275,8 C11.14275,8.27615625 11.3665938,8.5 11.64275,8.5 L11.8570313,8.5 C12.1331875,8.5 12.3570313,8.27615625 12.3570313,8 L12.3570313,5.61534374 C12.3570313,4.79528123 13.4999063,4.81409373 13.4999063,5.59374998 L13.4999063,9.70509376 L13.4999063,9.70509376 Z"></path>
                    </g>
                </g>
            </g>
            <g id="card" transform="translate(5.000000, 27.000000)">
                <rect stroke="#805AD5" stroke-width="2" fill="#FFFFFF" x="0" y="0" width="45" height="17" rx="2"></rect>
                <rect id="Rectangle" fill-opacity="0.5" fill="#000000" x="5" y="5" width="30" height="3" rx="1.5"></rect>
                <rect id="Rectangle-Copy" fill-opacity="0.5" fill="#000000" x="5" y="9" width="15" height="3" rx="1.5"></rect>
            </g>
            <g id="card" transform="translate(5.000000, 49.000000)">
                <rect stroke="#805AD5" stroke-width="2" fill="#FFFFFF" x="0" y="0" width="45" height="17" rx="2"></rect>
                <rect id="Rectangle" fill-opacity="0.5" fill="#000000" x="5" y="5" width="30" height="3" rx="1.5"></rect>
                <rect id="Rectangle-Copy" fill-opacity="0.5" fill="#000000" x="5" y="9" width="15" height="3" rx="1.5"></rect>
            </g>
            <g id="card" transform="translate(5.000000, 71.000000)">
                <rect stroke="#805AD5" stroke-width="2" fill="#FFFFFF" x="0" y="0" width="45" height="17" rx="2"></rect>
                <rect id="Rectangle" fill-opacity="0.5" fill="#000000" x="5" y="5" width="30" height="3" rx="1.5"></rect>
                <rect id="Rectangle-Copy" fill-opacity="0.5" fill="#000000" x="5" y="9" width="15" height="3" rx="1.5"></rect>
            </g>
            <g id="Group" transform="translate(46.000000, 0.000000)">
                <circle id="Oval" fill="#805AD5" cx="9" cy="9" r="9"></circle>
                <path d="M11.3524305,4.8888615 C9.89409717,4.89408692 8.72222217,6.09547581 8.72222217,7.55380914 L8.72222217,8.77776748 L4.83333328,8.77776748 C4.37326384,8.77776748 3.99999995,9.15103137 3.99999995,9.61110081 L3.99999995,12.9444341 C3.99999995,13.4045036 4.37326384,13.7777675 4.83333328,13.7777675 L10.9444444,13.7777675 C11.4045138,13.7777675 11.7777777,13.4045036 11.7777777,12.9444341 L11.7777777,9.61110081 C11.7777777,9.15103137 11.4045138,8.77776748 10.9444444,8.77776748 L10.1111111,8.77776748 L10.1111111,7.54339248 C10.1111111,6.85589248 10.6614583,6.28471192 11.3489583,6.27776748 C12.0434027,6.27082303 12.6111111,6.83505914 12.6111111,7.52776748 L12.6111111,8.91665637 C12.6111111,9.14755914 12.7968749,9.33332303 13.0277777,9.33332303 L13.5833333,9.33332303 C13.8142361,9.33332303 13.9999999,9.14755914 13.9999999,8.91665637 L13.9999999,7.52776748 C13.9999999,6.06943414 12.8107638,4.88367026 11.3524305,4.8888615 Z" id="Icon/Security/Lock-Open" fill="#FFFFFF"></path>
            </g>
            <g id="Group" transform="translate(119.000000, 0.000000)">
                <circle id="Oval" fill="#805AD5" cx="9" cy="9" r="9"></circle>
                <path d="M11.3524305,4.8888615 C9.89409717,4.89408692 8.72222217,6.09547581 8.72222217,7.55380914 L8.72222217,8.77776748 L4.83333328,8.77776748 C4.37326384,8.77776748 3.99999995,9.15103137 3.99999995,9.61110081 L3.99999995,12.9444341 C3.99999995,13.4045036 4.37326384,13.7777675 4.83333328,13.7777675 L10.9444444,13.7777675 C11.4045138,13.7777675 11.7777777,13.4045036 11.7777777,12.9444341 L11.7777777,9.61110081 C11.7777777,9.15103137 11.4045138,8.77776748 10.9444444,8.77776748 L10.1111111,8.77776748 L10.1111111,7.54339248 C10.1111111,6.85589248 10.6614583,6.28471192 11.3489583,6.27776748 C12.0434027,6.27082303 12.6111111,6.83505914 12.6111111,7.52776748 L12.6111111,8.91665637 C12.6111111,9.14755914 12.7968749,9.33332303 13.0277777,9.33332303 L13.5833333,9.33332303 C13.8142361,9.33332303 13.9999999,9.14755914 13.9999999,8.91665637 L13.9999999,7.52776748 C13.9999999,6.06943414 12.8107638,4.88367026 11.3524305,4.8888615 Z" id="Icon/Security/Lock-Open" fill="#FFFFFF"></path>
            </g>
        </g>
    </g>
</svg>