<svg height="594" viewBox="0 0 775 594" width="775" xmlns="http://www.w3.org/2000/svg"><g fill="none" fill-rule="evenodd"><path d="m0 0h775v594h-775z" fill="#fff"/><circle cx="387.5" cy="376.5" fill="#4fd1c5" r="166.5"/><g fill-rule="nonzero"><path d="m561.9 281c2.55 4 3.1 8.1 4.06 12 .38 1.51.11 3 .86 4.66.67 1.47-.19 3.65-.44 6.17l1.53 1c.43 4.27-1.85 7.49-2 11.16-.163736 3.51036-.649102 6.998304-1.45 10.42-.83 2.64-1.69 5.27-2.48 7.93-.4 1.34-.42 2.86-1.09 4-.525361.793003-.832346 1.710508-.89 2.66-.049686 4.040444-1.879226 7.853206-5 10.42v6l-3.49 5.24c3.25-.11 5.57 1.49 8.15 2.37 4.883192 1.562137 9.522072 3.80415 13.78 6.66 1.53 1.06 2 2.64 3.31 3.69s2.21 2.69 3.3 4.08c-.74 5.76 2 10.85 2.52 16.48-.17 1.65-.73 3.56-.51 5.38.6 5-2.45 8.7-4.65 12.59-1.13 2-4.39 1.78-5.78 3.94-3.78.93-6.15 4.19-9.59 5.79-2.48 1.16-4.76 2.49-7.53 2.32-3.21-.19-6.48.72-9.64-.87-.89421-.261756-1.741357-.663391-2.51-1.19-1-.95-2.19-1.74-3.53-2.79l3.62-5.19 4.57 1.54-.77.77c2.599378 1.909931 5.778539 2.863679 9 2.7 4.14-2.13 8.64-3 11.69-6.39 1.83-2 4-4 5-6.43 1.253377-2.647309 2.286862-5.393235 3.09-8.21.35-1.58.71-3.78-.08-4.88-1.53-2.16.3-5-1.91-6.65 1.15-2.78 1.29-4.15 0-5.76-1.57-2-3.41-3.66-4.29-6.25-.43-1.23-2.59-1.77-3.64-2.91-1.643669-1.735194-3.681139-3.048916-5.94-3.83-1.44-.53-3-.81-4.42-1.19-2.44.6-5 1-7.44 1.89s-4.77 2.15-7.58 3.44l-2.44-.95c.37 2.85.68 5.31 1 7.74-3.21 1.05-5.66.27-8.22-1.95 0-1.65-.12-3.62 0-5.56.225562-1.922908-.449872-3.842172-1.83-5.2-1.36-1.27-1.15-2.61-1.21-4.38-6.2-5-7.69-13.18-11.69-19.84-.65-1.74.19-3.76-1.22-5.51-.46-.58 0-1.86-1-2.61-.17-.13.65-.69.33-1.75-.86-2.8-.74-5.88-2.43-8.51-.72-1.11.93-2.05.44-3.35-.337189-1.066267-.489386-2.182382-.45-3.3 0-3.83-.15-7.67 0-11.5.291009-4.86517 1.456293-9.638094 3.44-14.09.235428-.574229.412974-1.170516.53-1.78.007415-.309219-.039983-.617309-.14-.91l-4.12-1.31-1.66 1.18-1.95-1.24-3.67 1.92c-1.33-1.63-3.39-1.08-5-.74-3.36.72-6.82 1.15-10.1 2.13-4 1.19-8.35 1.29-11.93 3.76-4.29-.73-8.11 1.18-11.65 2.14-2.21 1.69-3.93 3.89-6.08 4.47-6.34 1.67-12.07 6.21-18.62 4.2l-4.77 3.24c-.93-.37-1.9-1.16-2.63-1-3.49.89-7.24.5-10.55 2.25-2.243023 1.238421-4.996343 1.086969-7.09-.39l-3.59 1.85c-.93-.93-2-1.32-3 .22l-.7-.71c-2.74 1.36-5.67.72-8.47.6-2.05-.09-4.35-2-6-1.45-2.35.77-4.55.08-6.69.63l-2.09-2-4.89 1.06-2-2c-2.31-.84-4.67.32-7.19-.87-2.11-1-4.34-1.67-6.3-3.48l-2 1.28-4-2.07c-2.788895.523945-5.635237-.566637-7.36-2.82-1-1.34-2.51-.72-3.42-1.43-2.91-2.24-6.38-3.14-9.64-4.53-.29-.12-.66-.07-.9-.23-2.53-1.59-4.09-4.31-7.4-5.15-2.6-.66-4.89-2.65-7.21-4.22-.72-.48-1.08-1.49-1.71-2.42-1.59-.35-3.87-.19-3.54-3.13h-3.58c-.81-1-1.74-2.18-2.08-2.59l-14-3.49c-1.4.59-3.06 1.69-4.82 1.89s-3.34-.61-5.12-1l-.59 1.87-7.52 1.43-2.17 2.46-10.23 1.14c-1.09 1.55-1.81 2.59-2.61 3.74 0 0 .12.26.25.48 1.721164 3.048889 2.604424 6.499121 2.56 10 0 2.18-.91 4.61.94 6.61-1.73 3-.72 6.35-1.05 9.52-1.66 3.66-3.48 7.24-4.88 11-.513842 1.628973-1.254442 3.1775-2.2 4.6-.73675 1.161448-1.346901 2.398513-1.82 3.69-1.303566 3.158471-2.928798 6.174366-4.85 9-3.17 4.48-5.93 9.26-9.22 13.64-2.38 3.17-3.87 6.74-5.63 10.19-.241295.774469-.372578 1.578999-.39 2.39l2 .7v3.43c-2 1.17-3.76 3.53-6.55 1.41-.23.58-.45 1.15-.75 1.93-2-.57-4.08-2.33-6-.22l-4.67-5c-3.23.48-6.13-.36-9.05.64-3.09 1.06-6.43 2-8.73 4.09-1.92 1.77-4.11 3.67-5.34 6.11-1.555974 2.837235-2.799903 5.834733-3.71 8.94-.6 2.35-.18 5-.07 7.47 0 .54.62 1.05.68 1.15-.36 2.59-.67 4.78-.89 6.32l5.59 9.37-.69.57 5.26 4c-.05 2.87 3.55 2 4.07 4.12 4.07 1 7.79-.25 11.73-.88l.34-1.64 2.45-.25c2.11-2.26 4.5-4.64 9-3.61-3 3.55-4.07 8.19-9.22 8.85-.85 2-3 1.68-4.5 2.42-.861881.445274-1.852042.576117-2.8.37-4.56-1.43-9.55-1.68-13.49-4.86-.32-.25-.9-.18-1.29-.25l-.63-1.84h-2.35l-6.18-7.55c-.09-.92.17-2.32-.41-3.1-1.215206-1.441058-2.151188-3.095981-2.76-4.88-1.22-4.16-1-8.39-.86-12.6.134759-.891604.134759-1.798396 0-2.69-.82-3.68 1.12-6.84 3-9.65 1.817568-2.482732 3.841416-4.807649 6.05-6.95 2.56-2.66 6.09-4.39 9.24-6.47.63-.42 1.41-.6 2.09-1 1.62-.58 3.65.71 4.91-1l11.7 2.09c-.21-1.47-.36-2.49-.6-4.13 1-2.88-.64-6.35-.72-9.87-.08-3.26-1.87-6.48-2.88-9.64l1-1.15-2-2c.19-.85.41-1.88.7-3.19-1.390222-1.683848-2.357165-3.676026-2.82-5.81-.500139-2.284481-.778101-4.611988-.83-6.95l-1.69-1.69c-.45-3.23-.39-6.43-1.46-9.18-.695257-2.049601-1.263008-4.140263-1.7-6.26-.630032-2.436599-.630032-4.993401 0-7.43.87-3.06.79-6.06.89-9.44 2.91-2.65 3.38-7 6.06-10.18s4.88-7 7.52-10.35 5.52-6.41 8.57-9.91c-.18-3.73-.36-7.84-.59-11.95 0-.26-.38-.5-.67-.85 1.19-3.59 2.41-7.24 3.62-10.9l.47.16c0-1 0-2 0-3 2-2.06 4.45-3.88 4-7.39 4.52-1.38 5.15-7 9.84-8.33v-2.52l3.88-1.78c1.64-4.25 7-5.59 9.61-9.25 3.69-.7 5.93-3 8.28-5.2h1.94c1.48-2.47 2.49-2.91 6.38-3l7.13-4h2.6c.21-.58.41-1.16.66-1.85h4.89c3.57-3 8.35-2.3 12.5-3.92l.87.81c.35 0 .81.08 1-.1 1.73-1.77 3.9-2.07 6.21-1.91s4.15-.26 5.45-1.69c2.412076-.549522 4.852381-.966811 7.31-1.25 2.41-.16 4.63-1.05 7.06-1.26s4.62-1.06 7.05-.67l1.57 1.57c1-.26 2.11-.93 2.7-.63 3.46 1.79 7.12 1 10.61.77 2-.1 3.95-1.07 6.2-.75.11.4.24.84.42 1.49 3.06 1.93 6-1.74 9.9 0l1 1.41h5.49c3.16 4.36 9.1 2.85 13.05 6h4l.44 1.33 9.26 4.65h3.24l1.53 1.88h2.75c7 5 15 7.1 22.81 9.91l2.79 3.47.35-.56c2 .78 4.06 1.48 6 2.36 5.35 2.38 10.66 4.84 16 7.28 1.914467.992302 3.884382 1.873755 5.9 2.64 1.92.62 3.41 2.39 5.65 2.06 3.29 2.81 7.5 3.61 11.36 5.15 5 2 9.46 5.36 14.72 6.68s9.58 4.37 14.86 5.23c1.15.19 2.17 1.18 3.52 2 3.37-.89 6.45 1.34 9.74 2.25 2.09.59 4.56.64 6.46 2.62 1.5 1.56 4.07 2.07 6.12 3.13.705222.379643 1.332787.88848 1.85 1.5.38.45.34 1.4.77 1.63 1.29.74 2 2.05 3.22 2.85.6909.387007 1.329422.860857 1.9 1.41.81 1 1.23 2.38 2.2 3 .88388.728373 1.703559 1.531325 2.45 2.4 2.069407 1.987052 3.491336 4.552101 4.08 7.36.92 3.28 3.65 6.17 2.38 9.78zm-146.2 22c4-1.1 7.45-3.85 11.86-3.07.75.13 1.59-.45 2.39-.47s2 .64 2.67.28c3.25-1.87 6.74-1.85 10.28-1.78 1.755904.105593 3.512276-.199118 5.13-.89 3.08-1.38 6.71-1.28 9.71-3.1 4.41.48 8.26-2.5 12.68-2 .472764.052915.949944-.048836 1.36-.29 3.58-2.51 8-1.37 12.29-3.26l1-1c2.52-.53 4.71-1.44 6.83-1.3s4-1 6.09-1.16 4.59.84 6.57-.91c1.79 1.9 4.07.72 6.11.9 2.3.19 4.63 0 6.88 0l4.06-5.48c.7 1 1.24 1.8 1.7 2.45l1.67-1.38c-.71-.83-1.76-1.51-1.9-2.33-.39-2.3-3.33-2.22-3.76-4.39-.206249-.442035-.618335-.752973-1.1-.83-3.12-.19-5.3-2.52-8.1-3.44-2.686198-.95551-5.436329-1.720735-8.23-2.29-2.72-.49-5.24-1.89-7.88-2.63s-5.81-.48-8.73-.7c-.44 0-.85-.4-1.29-.48-2.63-.49-5.13-1.47-7.88-1.59-2.12-.1-4.19-1.09-6.31-1.59-1.66-.39-3.32-.73-4.25-2.34-1.51 1.52-2.56 1.06-4.06.21-1.09-.63-2.83-.13-4.13-.13l-1.86-2.13c-6.4.61-12.4-1.18-18.49-2.59 2.44-.34 5.22-1.08 7.24-.15 2.5 1.14 4.82.44 7.18.8s4.71.74 7.08 1c2.87.31 5.88-.69 8.59 1 5.24-.35 10.39.63 15.59.9 3.575822.209285 7.049451 1.272291 10.13 3.1 3.38-.36 6.87.69 10.29 2 4 1.55 8.08 3 12.07 4.64.643721.243818 1.315738.405102 2 .48 1.16 1.3 1.72 2.4 2.6 2.82 4.16 1.94 6.41 3.61 8.24 6.54v6l-2 2.12v2.55c-1.87 4.13-7.08 2.85-9.21 7.07-.21 1.93.09 4.72-.91 6.92s-.48 4.47-.87 6.66c-.42 2.35-1.33 4.64-1 7.09.28 1.86 1 3.73.91 5.58-.073076 2.244901.314913 4.480945 1.14 6.57 1.2 3.13 1.27 6.45 2.22 9.75l1.7 1.77c0 2.31-.29 4.8 1.69 6.69-.4 2.22 2.19 3.21 2.23 5.05.08 2.87 1.58 4.75 3.4 6.63.937583 1.071969 1.771321 2.230496 2.49 3.46.56.87 1 1.82 1.62 3 .610892-.713937 1.137683-1.495736 1.57-2.33 1.55-4.63 1.9-9.52 3-14.24.44-1.85 1.61-3.7.91-5.56-.52-1.38 1.75-2.19.21-3.82-.75-.8 0-2.89-.15-4.38-.38-5.53.33-11-.76-16.63-.87-4.48-1.48-9-3.18-13.23-.92-2.3-1.58-4.76.34-7h2.63c.07 4.05-.52 8.25 2.92 11.29.45 2.51.1 5 .9 7.61 1.1 3.63 1 7.66 1.15 11.53.16 5.83.06 11.67 0 17.5 0 4.94.65 10-2.29 14.67l2 .38c.74-1.72-.5-4.21 1.9-5.28.27-.12.41-.86.37-1.3-.26-2.59 1.36-4.57 2.6-6.4 1.211593-1.806658 2.019916-3.853046 2.37-6 .241707-.894155.556087-1.767061.94-2.61 1-3 2.72-5.77 2.1-8.77.783646-.755117 1.456936-1.616929 2-2.56.480014-1.487497.814909-3.017968 1-4.57.21-1.44 0-2.95.37-4.36s1.35-2.49 1.58-3.82c.168194-1.624705.19162-3.261146.07-4.89l1.84-1.83c.65-3.65-.69-7.48 1.11-11.05.293144-.766592.196217-1.627752-.26-2.31-1-1-.79-2.2-.64-3.24.46-3.39-1-6.21-2.49-9-1.36-2.45-3-4.76-4.18-7.28-.914602-2.051928-2.482879-3.743277-4.46-4.81-.55-.3-1.45-.71-1.48-1.12-.17-2.58-2.87-2.93-4-4.73s-3.52-3.25-5.48-4.66c-1.486922-1.255485-3.450945-1.793123-5.37-1.47-6 1.34-6.54 1.27-12.19.07-1.09-.24-2.39.52-3 .67-1.369537-.344199-2.763724-.581579-4.17-.71-2.17 0-4.15-.32-5.68-2-1.42 1.8-3.38.62-4.65.94-1.295811-.785462-2.674102-1.425981-4.11-1.91-3.349332-.670617-6.629834-1.648073-9.8-2.92-3.15-1.26-6.32-2.38-9.39-3.91-2.61-1.31-5.42-2.62-8.57-2.24-.27 0-.57-.21-.86-.33-.11-.45-.23-.9-.37-1.41-1.21-.21-2.75 0-3.63-.72-2.41-1.88-5.16-1.43-7.57-1.52-1.863787-1.858442-4.368862-2.932045-7-3l-8.58-4.07c-1.862044.160452-3.734267-.156174-5.44-.92-2.527717-1.285957-5.282997-2.063958-8.11-2.29-2.34-.08-4.63-1.53-7.62-2.61-3 1.17-5.7-2.21-9.34-2.36-3.432257-.260912-6.818477-.949578-10.08-2.05-3.36-1-6.63-2-10-1.72l-1.56-1.76c-.570425.156951-1.158446.240954-1.75.25-.6-.07-1.17-.41-1.77-.5-.592505-.044326-1.187495-.044326-1.78 0l-1.77-1.77-5.6-.78-1.4.82c-1.66-2.12-4-2.35-6.47-2.32-.90809-.168113-1.793886-.439891-2.64-.81-1.622578-.538237-3.299252-.897045-5-1.07-1.86694-.171658-3.648023-.864687-5.14-2l-1.15 1c-1.9-1.36-4.15-.45-6.24-1-2.28-.6-4.89.58-7.07-1.09-2.89 1.78-5.78 1.16-8.7-.17l-4.53 2.32-1.11-1c-.678154.376096-1.410004.645903-2.17.8-1.4.05-2.93.43-4.06-.88-2.67 1.44-5.63 1.3-8.53 1.56-2.67.24-5.22 1.16-7.9 1.52s-6 .57-8.3 2.58c-1.598099.16335-3.180083.457673-4.73.88-1.296559.579953-2.532575 1.286727-3.69 2.11l-.87-.63-1.83 1.83-1-.85c-1 .25-.14 2.56-2 1.92-1 2.06-3.2 2.16-4.87 2.71-5 1.62-8.78 5.28-13.28 7.73-6.391254 3.642671-12.292138 8.085137-17.56 13.22-.3.28-.86.29-1.28.42-.189523-.293791-.363108-.597563-.52-.91-.18-.4-.33-.82-.51-1.29l-1.44.44c0 .45-.17.84 0 1.08.257728.384127.559809.736555.9 1.05-2.6 3.43-.48 7-.8 10.92.76-.76 1.24-1.05 1.45-1.48 1-2 2.42-3.75 3.26-5.65 1.13-2.56 3.55-3.12 5.23-4.71 2.65-2.52 5.73-4.4 9.6-4.57.93637-.03181 1.833265-.384918 2.54-1 1.62-1.69 3.84-2.06 5.81-2.94 1.26-.57 2.88-.65 3.85-1.51 2.31-2.06 5.14-2.19 7.95-2.78l1.71-1.78c5.46.65 10.19-1.5 14.9-3.76 1.63-.64 3.66.66 5-1.16 4.78-.23 9.23-2.8 14.16-2 .63.1 1.56.23 1.92-.11 1.73-1.68 3.8-.5 5.66-.87s3.58-1.15 5.59-1.06c4.16.2 8.33.12 12.5 0 2.33-.05 4.49.17 5.95 1.75.949013-.187284 1.884435-.437843 2.8-.75 1.26-.54 2.21 1.37 3.79.17.7-.54 2.59.65 4 .83 5 .65 9.5 3.59 14.73 3.09.11 0 .21.27.36.33 5.45 2.13 11.42 2.9 16.36 6.37 3.28-.33 5.25 2.48 8.09 3.43 5.39 1.81 10.37 4.8 15.84 7.45-2.63 1-4.45-.52-6.15-1.26-4.60558-1.831694-9.346513-3.302788-14.18-4.4-4.35-1.15-8.63-2.58-13-3.56-3.05-.68-5.58-3.21-9-2.46-.23 0-.54-.27-.75-.39-.1-.5-.2-1-.29-1.38-4-.18-7.68-1.84-11.63-1.2-1.71-1.7-4-.57-6-1.27-1.402859-.645595-2.886144-1.099662-4.41-1.35-1.498982.039102-2.984399.295092-4.41.76-.47.1-.52.95-1.46.41s-2.77-.16-3.59-.87c-1.47-1.27-2.15.5-3.35.44-5-.28-10-.17-15-.09-1.597644-.099119-3.196443.174765-4.67.8-2.2 1-5 .78-7.5 1.2-1.054467.252366-2.08761.586716-3.09 1l-1.43-.92-.57 1.62c-1.916328.574404-3.876086.992441-5.86 1.25-5.257101.152663-10.344306 1.896051-14.59 5-2.190143-.250679-4.403293.201056-6.32 1.29-1.41.87-3.2 1.11-4.79 1.7-2.63 1-5.62 1.27-8 2.46-2.58 1.31-5 3.11-7.69 4.42-2.22 1.08-4.32 2.41-6.49 3.64-.23.47-.36 1.34-.78 1.52-3.25 1.37-4.23 4.35-5.39 7.23-.161711.275622-.360201.52794-.59.75h-1.95l-3.72 7.57c-2.18 1.36-4.33 2.18-5.44 4.46h-1.18l-4.7 4.68c-.73 1.27-1.6 2.69-2.4 4.16-2.66851 4.933931-4.314654 10.355322-4.84 15.94-.42 4.24.59 8.64 1.18 12.94.18 1.32 1.35 2.49 1.58 3.82.187591 1.800448.224386 3.613424.11 5.42l1.7 1.19c.34 2.36.25 4.25.91 5.83 1.31 3.15 1.89 6.53 3.36 9.61.891548 1.530384 1.243682 3.315705 1 5.07-.43 2 .63 3.64 1.54 5.28.81-2.41 1.86-4.75 1.48-7.4-.076882-.474641.038254-.960367.32-1.35 1.28-1.28.09-3 .74-4.19.680848-1.265787.999198-2.694905.92-4.13-.08-3.54.9-6.87 1.77-10.26.69921-2.951912 1.094601-5.967611 1.18-9 .19-4.16.22-8.34 0-12.5s-.82-8.37-1.24-12.41c1.47-1.06 2.09-2.91 4.24-2.67-.36 1.59-1.34 3.37-.82 4.16 1.46 2.22.61 4.47.85 6.68.12 1.15-.29 2.45.11 3.46.34.86 1.09 1.55.92 2.62s.29 2.21-.61 3.29c-.31.37.69 1.62.55 2.37-.64 3.36-2.38 6.57-1.23 10.15-1.37 1.76.11 4.18-.86 5.61-1.22 1.8-.26 3.62-.94 5.14-.83 1.87-.46 3.86-1 5.59-.79 2.38-.39 4.84-1 7.09-1.028533 3.314372-1.666191 6.737592-1.9 10.2.032521.472725-.07162.944827-.3 1.36-2.79 3.46-1.29 7.38-1.39 11.17.854757-1.072384 1.419495-2.346488 1.64-3.7.100441-1.926078.946903-3.737362 2.36-5.05.640179-.516731 1.202617-1.122952 1.67-1.8 1.51-2.71 2.68-5.62 4.4-8.16 1.89-2.79 2.5-6 3.55-9.05 1.33-3.88 2.71-7.85 2.13-12.14.062734-.940975.285952-1.864288.66-2.73-.16-.32-.66-.88-.67-1.44-.07-3.83-.25-7.68 0-11.5s-1-7.38-1-11.09c0-3.22-1.4-6.22-1.48-9.35-.05-1.93-1.52-3.87-.12-5.9l1.4.12c.09.88.18 1.66.27 2.55l1.61.58c.77 2.66 1.7 5.24 1.3 8-.046591.477773.029116.959545.22 1.4 1.364325 3.254232 1.966339 6.777383 1.76 10.3-.185119 1.490942-.185119 2.999058 0 4.49 1.24 6.09 1.34 11.89.11 16l.76 1.23c-.52 2.38-2.62 3.76-1.64 6.2h1.45c.44-1.34.47-2.68 1.61-3.9 1.507887-1.796532 2.719759-3.821944 3.59-6 .261347-.886197.595829-1.749162 1-2.58 2.75-4.3 4.37-9 4-13.87-.87-.67-1.68-1-1.94-1.54-1.878052-4.167399-2.898303-8.670104-3-13.24 0-1.36.66-2.72.93-4.09.38-2 .13-4.41 1.15-6 1.2-1.85 2.13-3.83 3.34-5.65.53-.8 1.51-2.05 2.1-2 2.77.46 3.34-2.43 5.61-3.23h4.49l1.81-1.89h5.07c1.665554-.772251 3.387131-1.417424 5.15-1.93 1.44-.28 3.4-.64 4.39.07 1.58 1.13 2.66-.73 3.74-.09 2.45 1.44 5.06.9 7.61.93 2.067406.062698 4.119351.378382 6.11.94 3.19.8 5.66 3.45 9.15 3.33.23 0 .45.47.71.67 1.79 1.34 3.58 2.66 5.28 3.92 3.7.54 6.22 3.73 9.84 4.25.19 0 .36.5.45.78.86 2.62 3.26 2.61 5.59 3.38 3.66 3.42 7.14 5.11 12.83 6.83 2.58.78 4.93 2.3 7.38 3.48.41-.15 1.21-.7 1.53-.5 3.16 2 6.65 2.13 9.82 1.94l7.78 4c.64 0 2-.41 2.91.08 2.81 1.52 5.89.22 8.59 1 3.06.94 6.06.82 9.12.87 2.17 0 4.66-.67 6.42.17 2.036231.969782 4.414987.899052 6.39-.19zm-22.08-86c1.843441.04856 3.673885.323967 5.45.82 1.36.47 3.38 1.62 5.08.22 3.08 1.62 6.14 3.19 9.78 3 2.07-.11 3.87 1.63 6.09 1 .31-.08.77.59 1.2.65 4 .51 7.82 2 11.62 3.31 2.47.88 5.1 1.5 7.33 2.8 2.105985 1.40183 4.570452 2.168939 7.1 2.21.444591.006987.888521.037027 1.33.09l1.89 1.89c3.031951-.186296 6.004105.901078 8.2 3 1.17 0 2.45-.32 3.47.07 1.833455.794583 3.61381 1.706472 5.33 2.73l1.43-.9c1.53 1.09 2.82 2.42 4.39 3 3.16 1.23 6.65 1.71 9.68 3.17 3.23 1.54 7.15 1.19 9.93 3.85.35.34 1.31-.06 2 .08.587498.19685 1.148416.465553 1.67.8.43-.23 1.07-.89 1.49-.77 2.65.77 5.26 1.71 7.82 2.57l13.9 2.11.35-.32 8.940034 1.36c.006822-1.637124-1.02502-3.098565-2.570034-3.64-3.21-1.18-6.63-1.79-11-2.89-3.15-1.16-7.28-2.87-11.54-4.21-5.16-1.63-10.35-3.12-15-6-.661935-.395047-1.358076-.72973-2.08-1-3-1.23-6.05-2.3-9-3.69-2.66-1.27-5-3.3-7.74-4.23-5.27-1.78-10.14-4.51-15.46-6.15-1.74-.54-3.1-2.22-5.19-1.95-1.16-2.29-3.63-1.67-5.47-2.46-3.4-1.446667-6.813333-2.856667-10.24-4.23-.86-.35-2-.23-2.67-.77-2.36-2-5.36-2.38-8-3.57-2.47-1.1-5.9-1.06-6.29-5.15l-4.76.84-1.62-2.64h-2.83l-11.19-4.94-7 1.21c-1.28-2.89-4-3.57-6.35-4.1-1.66-.37-2.52-1.3-3.69-2.2-3.340011.360901-6.714722-.210205-9.75-1.65-1-.5-2.64.24-4.19.45-1.92-1.94-5.19.31-7.48-1.7-.47-.41-1.65-.21-2.43 0-.37082.140631-.684055.401073-.89.74-5.31-1.47-10.13-1-14.78-.65-4.48.29-9.23.17-14.05 2.95h-5.57l-1.48 1.64c-3.14.3-5.94.49-8.72.84-4.213365.426509-8.339111 1.481541-12.24 3.13-3.1 1.37-6.55 2-9.24 4.22-3.75-.49-6.11 2.38-8.78 4.06-1.59 1-3.1.62-3.82.92-1.75 1.34-3 2.15-4 3.12s-2 2.94-2.65 2.8c-2.17-.46-2 1.59-3.12 2.19-1.36.75-3.56 1.32-3.85 2.39-.58 2.18-2.49 2.27-3.64 3.44-.31.32-.41.83-.7 1.2-3.78 4.82-6.45 10.35-9.78 15.47-.91 1.41-2.47 3.19-2.11 5.45 3.16-2.66 6.16-5.1 9.06-7.64 3.56-3.13 7-6.37 10.57-9.51.56-.5 1.52-.58 2-1.11 2-2.16 5.22-2.4 7.19-4.3 2.170912-2.122899 4.984299-3.466291 8-3.82.617313-.067553 1.201338-.314373 1.68-.71 2.36-2.29 5.8-2.37 8.32-4 2.12-1.39 4.6.16 6.36-1.62 4.73-.49 9.13-2.61 14.07-2.37 2.9.15 5.87-1 8.81-1.51s6.05-.91 8.92.63c2.89-1.53 5.88-1.28 8.9-.53.76.19 1.89.77 2.22.47 1.53-1.41 2.77.47 4.25.15s3.76-.72 4.88.06c1.94 1.37 3.82.51 5.68.86s3.74 1 5.58.91c2.242421-.058372 4.473579.336162 6.56 1.16 3.14 1.11 6.42 1.37 9.6 2.16l1.76 1.76 1.21-1.13c3.58 2.04 8.25 1.29 11.87 4.11z" fill="#6c46c0"/><path d="m549.778505 208.268047c-2.344719-1.784937-2.152002-4.735712-3.147705-7.123669-.949202-2.567402-1.225653-5.335494-.802986-8.04026.457702-3.851284-1.035852-7.517642-.802986-11.320684.112418-2.050266-.144537-4.02013.674508-6.150799.658449-1.688454-.256955-3.875405.923434-5.628181-.802986-3.907566 2.521376-6.898542 2.408958-10.653343 2.095793-2.412078 2.561525-5.740745 4.761707-8.080461.497851-.530657.674508-1.374884 1.172359-1.905541.931464-.988952.610269-2.78997 2.087763-3.320627 1.477495-.530657.875255-2.701527 2.513346-3.296507 1.196449-.434174 1.14827-2.355795 2.87469-2.653285.690568-.120604 1.108121-1.608052 1.73445-2.412078 2.8506-3.634197 6.865529-5.877429 10.486996-8.570916.746396-.501507 1.452498-1.060668 2.111853-1.672374 4.625199-4.824155 7.074306-5.692503 12.920044-5.676423l1.437345-1.527649h1.09206c4.970483-.265329 9.997175-.209047 14.903419-.94071 2.42135-.360483 4.860835-.585958 7.307172-.675382 3.388601-.136685 6.423888 1.157797 9.290548 2.034185 1.10812-.080402 2.304569-.554778 2.898779-.144724 3.099526 2.146749 7.098396 2.49248 9.965055 5.049282.802986.707543 2.240331-.257288 2.754242 1.109556 2.320629-.096483 3.733885 1.415086 5.259558 2.846252 1.11615 1.045234 2.408958 1.889461 3.613437 2.862332 1.204479.972872 1.951255 1.985944 3.316332 2.645245 1.027822.498497 1.605971 1.84926 2.593644 2.990977 1.198446-.50291 2.114884-1.508768 2.505316-2.749769 1.076001-.578898 2.513346-.860308 2.946959-1.680414 1.605972-2.974896 4.167497-5.26637 5.187289-8.707601.602239-2.018105 1.300837-4.824155 4.247795-5.628181l4.817916.731664c.875255-.59498 2.127913-1.133677 3.067406-.080403 2.192152-.176886 4.103258-.265329 5.998305-.490456 1.766569-.217087 3.517079-.570858 5.620902-.92463l1.284777-1.648253c1.051912 1.559811 4.247796.353772 3.589347 3.835204l-1.846867 2.114588 2.505316 1.415086 3.790093-.980912c.434198-.512647.930523-.9691 1.477495-1.358804 2.609704-1.463327 5.179259-3.039218 5.388035-6.392006.080299-1.326643 2.095794-.402013 1.782629-2.090467-.136508-.731664.971613-1.688455 1.461434-2.452279l2.995138-.92463 1.830808.948751v7.678447l-2.802421 2.194991c4.01493.369852 7.564127.804026 9.748249-2.283434.393463-2.002024.706628-3.618116 1.043882-5.338732 1.509613-.32965 3.364511-.160805 3.380571-2.412078 2.152002-.804026 3.677675.466335 5.380005 1.358804v5.973913l-1.66218 3.457311c2.408957.691462 4.159467-.434174 6.022394-1.125636 2.320629-.860308 4.344154-2.347756 6.825381-2.934695 1.397195-.32965 3.211943-1.133676 3.782063-2.259313 1.445375-2.709567 3.621467-2.18695 5.813618-2.235192.232866 1.913582.441643 3.658318.754807 6.174919l-.875254 1.744737-1.413256.385932 3.356482 2.926654c1.133804-.018529 2.251693-.270311 3.284212-.739703 2.929757-1.066071 5.947128-1.87318 9.017532-2.412078 3.774034-.62714 6.584485-2.934695 10.061414-4.671391l.505881 1.133677c-1.180389 1.270361-2.408958 3.328667-4.183557 4.317619-2.24836 1.23016-3.011197 3.216104-4.817915 5.451296-4.641259 2.990976-9.932936 5.989993-16.509391 3.10354-1.413255-.426134-1.975346-2.412078-4.159467-2.291474-1.14827.056282-1.252658-1.736696-1.421285-3.272386-.899345.30553-1.670211.59498-2.465167.804026-2.408958.683422-4.930334.804026-6.994008 2.532682-.70685.498782-1.544595.778392-2.408958.804026-1.999435.120604-4.014929 0-6.006334 0l-4.416423-3.312587c-1.557793.570858-3.211944.804026-4.753677 1.969864-2.730152 2.058306-5.71726 1.093475-8.367113-.30553-3.950691-2.098508-4.095228-2.203031-7.226874.747744l-.907374.964831h-2.368808l-1.870957 1.784937c-1.477495-.860307-3.091496-1.608051-5.050782 0-.297105-1.029153-.538001-1.857299-.802986-2.685446-.184687-.683422-.361344-1.366844-.521941-1.969864l.802986-2.106547c-2.995137.402012-5.620901.402012-7.95759 1.214079-1.064782.425994-2.213605.599366-3.356482.506536-2.079733-.273369-4.127347.225127-6.166932.249248-2.884952.15101-5.470827 1.830176-6.785231 4.406062-.875254 1.608052-3.083466 2.540722-2.794391 4.888478.040149.32161-.642389.972871-1.084031 1.085435-2.408958.651261-2.657883 3.264345-4.617169 4.526665 3.051347 3.039218 4.063109 6.922664 6.094663 10.170928 3.613437 5.780947 4.095229 6.078436 4.729587 9.744794l2.184122 2.058307c.100964.280485.16835.57197.200747.868348-.088329 3.11158.802986 6.030194 1.397195 9.037251.521941 2.749769 1.605972 5.539738 1.011762 8.450312-.176656.804026-.489821 1.656294-.754806 2.548762 2.224271 3.328668-.465732 6.689496-.136508 10.122687.305135 3.288466-.955553 6.52065-1.461434 9.784995-.542326 3.328045-1.627447 6.544163-3.211944 9.519667-1.469464 2.862332-2.794391 5.797027-4.159467 8.659359-.722688.498496-1.71839.804026-2.119883 1.535689-2.756089 4.68917-6.529412 8.698194-11.041057 11.730739-1.413255.988951-3.091496 1.608051-4.593079 2.412077-.668281.478483-1.291815 1.016708-1.862928 1.608052h-2.408957c-.882775 1.469557-2.105578 2.704975-3.565258 3.602036-1.517643.804026-3.211944 1.366844-4.769736 2.042226-2.29654-1.077395-4.336124-.6191-6.777202 1.527649-.802986-.804026-1.68627-1.189958-2.344719-.128644-3.099525.361812-6.150872.361812-8.961323 1.197999-1.260688.369852-2.023524-.699503-3.003167-.176886s-1.959286 1.069355-3.107556 1.704535l-2.698032-.988952c-1.244629-.209047-3.43678.747744-5.283648-.747744-1.027822.426134-1.887017 1.374884-3.211944.498496-.690567-.474375-1.66218-.514576-2.408957-.908549-1.437345-.723624-2.706063-.482416-4.135378.62714-1.72642-1.768857-3.741914-3.0955-6.560395-2.508561l-1.975345-2.524641c-1.16433 0-2.063674.281409-2.449108-.048242-2.039584-1.744736-4.962453-1.768857-6.889619-3.835203-1.806718-1.945743-4.432482-2.733688-6.86553-3.602036v-1.8573c-3.364511-.988952-4.890184-4.140734-7.226873-6.367886v-1.712575l-1.887017-1.318602c-1.381136-2.034186-2.85863-4.205056-4.320064-6.432208-1.461435-2.227151-1.260688-4.936719-3.412691-6.617133zm85.91064-76.268047c-.384967.699242-.837781 1.358273-1.351796 1.967415-2.703591 2.604405-3.559462 6.394098-5.887111 9.248462-.343948.427348-.103984 1.306234-.383942 1.838404-1.343797 2.531837-2.871566 4.966916-4.135375 7.539069-1.879716 3.813882-4.551313 7.152037-6.327044 11.04655-.759886 1.612635-1.943707 3.289776-2.831573 4.886285-.936722 1.605002-1.791051 3.257441-2.559613 4.950789-1.159825 2.733417-3.783429 4.837905-3.551464 8.17606-1.599758 1.846467.103985 3.22527.911863 4.370241 1.687745 2.418953 3.759432 4.628263 5.671143 6.926268.071989.588612.151977 1.209476.231965 1.85453 3.327497 1.249792 4.70329 3.886451 5.679142 6.966584l3.031542 1.386866v2.854364c2.999547.66118 4.231361 3.434913 6.143073 5.305569 1.911711 1.870657 3.927406 3.942893 4.399335 6.692436 1.71974.17739 2.207667 1.652951 3.24751 2.418953 1.039843.766001 1.727739 2.18512 3.303501 2.685037 1.224746.519735 2.093951 1.643228 2.295653 2.967249 1.743737-.056443 1.903713 1.709393 2.78358 2.918869 1.759734-1.330424 3.199516-2.56409 4.799275-3.588113 1.767733-1.136908 3.367491-2.354447 4.143374-4.402494 2.151675-.467664 2.863568-2.5399 3.751433-4.031588 1.295805-2.160931 2.559614-4.305735 3.999396-6.369908.90558-1.173649 1.497663-2.561668 1.719741-4.031588.167786-1.384787.667428-2.707594 1.45578-3.854198.799879-1.298171 0-2.701163.695895-4.152535 1.051157-2.287453 1.692934-4.7442 1.895713-7.256858.575913-5.644223-.383942-11.288445-.743887-16.972984-1.679747-1.209476-.671899-3.160765-1.175823-4.733084-1.215816-3.830008-3.103531-7.3133-4.639299-10.965918-.335949-.806318-.391941-2.201247-.887866-2.362511-2.063688-.669243-1.815726-2.789859-2.84757-4.079967-1.08313-1.579816-2.045749-3.240223-2.879565-4.966916l-3.559462-1.136907c0 2.418952-1.879716 3.088196-2.775581 4.41862-1.039843 1.540066-2.287655 2.71729-3.503471 4.21704l-2.519619-1.233665c2.039691-4.257357 5.991095-7.071405 7.302897-11.119119l-8.902656-7.321364h-1.807727zm-37.022806 55c-.801123.527721-1.642804.991142-2.51714 1.385913-1.035532.390286-2.166651.533656-3.234046.852257-.573526.17523-1.13112.796501-1.664817.732781-3.265909-.262845-6.045914 1.489458-9.096751 2.094799-3.895194.796502-7.6948 2.118695-11.605925 2.620491-3.146425.406216-5.950327 1.847884-9.096751 2.182414-2.811868.302671-5.575943 1.218648-8.332051 1.919569-.730411.258999-1.438952.575954-2.118858.947837 1.720576 1.816024 1.354157 4.500234 3.289806 5.949867.294728 3.759488 2.97118 6.475559 4.48465 9.66953 1.364984 2.89908 3.299158 5.494031 5.687461 7.630486 1.274501 1.115102 2.063099 2.779791 3.226081 4.404654 3.528775.07965 5.121901 3.488677 7.782422 5.623302 1.903786-.246916 3.528775.517726 5.042245 1.879744 1.351571 1.109071 2.760797 2.145968 4.221784 3.106356 2.063099-1.704514 1.545333-4.380759 2.931353-6.204748l-.724873-.796501c.422179-2.15852 1.983443-4.062159 1.593127-6.212713l-2.469346-1.760269c.202494-.792926.51343-1.554125.924013-2.262064.916048-1.123068 2.023271-2.07887 3.011009-3.186007 2.039201-2.22224 2.190548-3.233797 1.003669-5.575512l1.38602-2.516945-2.07903-2.63642c1.943615.28674 1.991408-1.274403 2.819834-1.656724 1.210776-.565516 1.449745-1.330157 1.89582-2.49305 1.147051-2.986881 1.170948-6.372013 3.02694-9.080118-.366419-2.23817 1.736508-4.309074.613354-6.610964zm-39.62318-34c-2.921051 1.638727-3.511646 5.345751-5.586709 7.954986-.574633.715949-.590595 1.861467-.989646 2.752426-.86993 1.948971-2.019196 3.810438-1.596203 6.093519-1.396677.970509-.558671 2.386496-.798101 3.643384-.332612 1.199017-.599045 2.415302-.798101 3.643384-.135678 1.590997.31924 3.277454-.127697 4.725262-.446936 1.447807.287317 2.76038.103754 4.136593-.383089 2.800155 1.02955 5.329841.989645 8.050446l3.120577-1.590997 1.396677.994373c.291553-.248005.620043-.449287.973684-.596624 3.615399-.859138 7.182912-2.076251 10.846198-2.537641 4.652931-.588669 8.922763-2.235351 13.368198-3.349049l.909835.795499c.989646-1.941017 3.751077-.342065 4.708798-2.569461 1.596203 1.137563 3.192406-1.670547 4.788609 0 1.516392-.707994 3.048747-1.400077 3.647323-3.1104-1.997365-1.183302-3.728124-2.764883-5.083906-4.645712-1.197623-1.514548-2.733506-2.729441-4.48533-3.547924 0-.620489-.07981-1.248932-.07981-1.209158-1.276962-1.129608-2.13093-1.861466-2.960956-2.625145-1.348791-1.240978-2.609791-2.585371-3.990507-3.746799-1.02157-.843228-2.952975-1.280752-3.192405-2.227396-.542709-2.028521-2.705564-1.201203-3.192406-2.155801-.997627-2.028522-3.144519-2.211486-4.549178-3.508149-1.110134-1.00609-2.377028-1.825542-3.751076-2.426271-1.596203-.676174-1.428602-3.054715-3.671267-2.93539zm39.085809 21.481781c-.671254-.914979-1.390455-1.481781-1.598224-2.178137-.815809-3.800549-2.121577-7.475814-3.883685-10.931174-.327636-.607288.135849-1.619434.271698-2.761134-1.598224-1.554656-1.99778-4.048583-2.133629-6.477733l-1.126748-.234818c-.487459-2.275303-.92697-4.356275-1.430411-6.688259-1.885905 1.165992-3.556049 1.530365-5.537847.769231l1.254606-2.647773 2.63707-1.230769c-.231743-1.255061-.463485-2.42915-.71121-3.740891l-1.326526-1.319838v-3.797571c-.463485-.898785-.799112-1.57085-1.14273-2.242915-.934961.591093-1.598224 1.368421-2.884795 1.692308-3.284887.879577-6.259118 2.678256-8.582464 5.190283-1.112932 1.331806-2.325873 2.574379-3.627969 3.716599-1.390455 1.093118-2.485238 2.574899-4.235294 3.238867-.406058.230473-.768599.532031-1.07081.890688v2.558704l1.965816 2.089069h1.478357l10.676138 9.716599h1.414428c2.820866 2.574899 5.641732 5.125506 8.430633 7.724697 1.174695 1.093117 2.181576 2.42915 3.4202 3.408907 2.477247 2.048583 5.162264 3.846153 6.752497 6.817813.21576.404859.966925.510122 1.861931.955466-.344639-.673347-.625582-1.378247-.839068-2.105263-.062305-.802764-.072983-1.608786-.031964-2.412956zm7.512752 50.853002.628981.880124 15.342356-8.332919 3.861465.234161c-1.050955 1.227329-1.592356 2.42236-2.388535 2.68882-2.746815 1.001242-4.904458 2.931056-7.340764 4.400621-2.046178 1.227329-3.869427 2.834162-5.851911 4.190683-.848284.433753-1.736241.782608-2.651274 1.041615-.726793.644786-1.388252 1.361596-1.974522 2.139752-.636943.952795-2.619427.403726-2.300955 2.42236 3.558917-1.768323 7.093949-3.480124 10.589171-5.264596 3.61465-1.849069 7.030255-4.109938 10.907644-5.401864 1.727707-2.212422 4.402866-2.107453 6.536624-2.640372-1.101074-.849746-2.13403-1.786632-3.089172-2.801864-.796178-.936646-1.910828-1.614906-2.388535-2.535403-.636943-1.170808-1.990446-1.550311-2.388535-2.963354-.451531-1.182734-1.048044-2.303133-1.775478-3.334783l-2.085987-1.057764-11.090764 7.01677c-.692675 1.461491-.684714 1.429193-1.998408 1.881367-.691449.272665-1.340409.645254-1.926752 1.106211-1.950637 1.404969-3.877388 2.85031-5.820063 4.263354-.517516.379503-1.074841.702484-2.436306 1.614907 1.664013.121118 2.58758.492546 3.017516.177639 3.348058-2.397625 6.848203-4.568992 10.477707-6.5 2.388535-1.316149 4.705414-2.729192 7.125796-3.956521 1.345394-.60527 2.7316-1.112558 4.148089-1.518013.191083-.064596.469746.113044.796179.209938v2.059006zm12.399173 8.693329c.605222 0 1.292231.192772 1.496697 0 1.153193-1.309236 2.764392-1.815261 4.261089-2.522088 3.173325-1.493976 6.330292-3.044177 9.536332-4.481928.640516-.118137 1.297829-.118137 1.938345 0v2.530121c-1.209004.943481-2.366529 1.948891-3.467757 3.012048-.654415.674556-1.609476.982179-2.543567.819277-.155395 0-.327147.345382-.523435.562249.049072.586346.106323 1.212852.147216 1.702811l1.488519.297189-2.249135 3.052209c1.472161-.200803 2.404529-.088353 3.07518-.457831 3.099717-1.662651 5.782322-4.072289 9.528154-4.554217.989619-.128514 1.864737-1.140562 3.271469-2.072289h-2.600818l-8.284995-8.915663c-2.617175 1.606426-5.7905 2.690763-7.655238 4.86747-2.134633 2.522088-5.381566 3.389558-7.458949 6.160642zm-18.040893-88.028112c.716688-.05807 1.427222-.173188 2.1244-.344188 1.055169-.361857 2.085753-.78772 3.085631-1.275061 3.150251-1.49409 6.583218-2.221578 9.8304-3.441882 4.038783-1.564492 8.077567-3.128984 12.229437-4.419689 1.478195-.469348 3.231027-.962163 3.529897-2.941245.135894-.462726.319929-.910903.549274-1.337641.145397-.367655 1.074317-.44588.420034-1.149901-.516964 0-1.187403-.203384-1.550893 0-1.405497.938695-2.802916 1.705296-4.604214 1.564492-.29887 0-.654282.336365-.953152.571039-2.487336 2.091355-5.498514 3.512977-8.731851 4.122436-.619474.118575-1.197636.387759-1.680134.782246-2.15671 1.736586-5.105023 2.072952-7.269811 3.91123-.445752.437643-1.033165.713789-1.663979.782246-2.439425-.179917-3.68337 1.689651-5.315039 3.175918zm23.094421-4.013134c-3.985286 1.412537-7.874924 2.79403-11.469651 4.959403-1.982964 1.210748-4.071307 2.249565-6.240956 3.104477-1.619054.739683-3.100528 1.736359-4.383814 2.949254 3.985285-.318209 7.484365-2.173134 11.158798-3.399403 3.841815-1.272836 7.755365-2.328358 11.342122-3.430448l3.49908-6.170149-3.650521 1.001194c-.079706.341493-.175353.690746-.255058.985672zm-17.750746 38.013134c2.994034-5.923636 5.786397-11.896364 8.656325-18l-6.686158 4.630909c-.279236.662727-.72136 1.693636-1.21778 2.830909h-5.096062c1.210024 1.677273 2.25716 3.092727 2.466587 5.187273.186158 1.783636 1.202267 3.501818 1.877088 5.350909zm-6.324845 34.810577h-1.509079c-.605245.663789-1.000672 1.052348-1.34768 1.481382-.347007.429034-.556826.809498-1.162071 1.708041 3.389375-1.618996 6.229993-2.744199 8.876933-4.217485 2.694523-1.563982 5.46604-2.990514 8.303968-4.27415 2.170814-.939018 4.107599-2.428495 6.819099-2.266595-.621385-2.088505-2.211163-2.841338-3.308675-4.24177-1.460659.809498-2.69536 1.376147-3.857431 2.072315-1.162072.696169-2.332213 1.521857-3.478144 2.30707-1.145932.785213-2.525891 1.432811-3.365165 2.477064s-2.122394 1.376147-3.114997 2.088505c-.992602.712358-2.57431 1.100918-2.856758 2.865623zm-8.843187-81.810577c3.787307-1.42635 7.101201-2.860624 10.588679-3.962083 3.613723-1.133155 7.330018-1.933496 11.235678-2.939865-3.771527-.507147-7.369468-2.504036-10.9753.610161-4.142367-1.093535-7.76398 2.298008-12.0247 1.458046v3.70851zm18.824357 61.373522c-1.575083-2.222222-3.970868-3.254531-6.308623-4.373522-1.517054 1.379039-1.840361 3.20725-1.964709 5.066982-.124349 1.859732-2.486974 2.994484-1.475605 4.933018l9.748937-4.349882zm12-43.89907-.457033-.474452-16.542967 8.980701c2.350456.135558 4.521363-.474452 6.724916-.847236s4.480557-2.372261 6.839174-.499869zm2.517241-23.474452c-2.142203 1.253585-3.967043 2.382642-5.799817 3.320755-.864815.448302-2.102532.315471-2.77693.921509-1.586817 1.419623-3.625877 1.552453-5.395178 2.407547-1.769301.855095-3.443394 2.573585-5.72841 2.573585-.412573 0-.793409.772076-1.816906 1.776604 9.163869-2.407547 16.780592-6.77434 26-9.132075h-2.594446zm-33.517241 8.916985c.275952.347763.502312.733598.672356 1.146042.125905.638345.199984 1.2862.221482 1.936973l18.106162-8.764801c-3.757286-1.170254-6.32806 2.421216-9.697752 2.146812-2.887177 1.69485-6.193589 2.203306-9.302248 3.534974zm9 27.620311c.621849 1.493007 1.235294 2.994173 1.840336 4.462704l9.159664-7c-3.714286.54662-7.386555 1.068765-11 2.537296zm14.059046 33.462704c-5.65405 3.108156-8.635125 5.353798-10.059046 7.568359 1.873581 1.453063 2.148372-1.227721 3.605602-1.235492 1.140802 0 2.298259-.909135 3.422407-1.460833 1.124148-.551697 2.448145-1.251032 3.971991-2.043612zm-7.018805 41.355677 3.959759-2.355677c-4.539235.418605-8.104628 2.995896-12 4.924761.634979.127969 1.277562.21297 1.923541.254446.711779.218856 1.405982.493265 2.076459.820793 1.690141-.878249 3.541247-1.543092 4.072435-3.644323zm14.655962-.789929-.397274-.565748-7.298929 3.918019c1.316456.270208 2.4148-.202656 3.559883-.33776 1.478968-.086335 2.96115-.086335 4.440117 0-.420643-1.072389-.677702-1.688802-.903603-2.279882zm-20.696203-95.41581c-2.117683-.454327-4.331999.138528-5.897498 1.578982-.230629.189478 0 .860545 0 1.27108zm-11 95.728615 2.688679.121447 2.311321-1.956639c-2.122642-.24964-3.466981.607233-5 1.835192z" fill="#000"/><path d="m144.954962 137.789193c1.85264-1.065749 3.194208-2.403945 4.663543-2.540169 1.645017-.200329 2.755004-1.105815 4.15247-1.60263l.742654.665092c2.124148-.536882 4.168441-1.057736 6.212734-1.562565.255536-.064105.654812-.120197.798552 0 1.269697 1.338196 2.475511.801315 3.769165 0 .367334-.216355.966248 0 1.597104 0 0-2.660365.079855-5.056297 0-7.436203-.227441-1.983988.502386-3.957769 1.964438-5.312718h1.932496v13.325868c2.491482.352579 4.863181.673105 7.242866 1.04171.362602.085889.697711.262292.974233.512841 1.525234 1.242038 3.345933 1.097802 5.030878 1.065749 3.585498 2.403945 7.186967 4.631601 10.117653 7.70865 1.006279 1.21521 2.498082 1.919664 4.072615 1.923156l6.332517-7.131703h2.946657c.399276 1.915143.798552 3.758167 1.197828 5.721389-2.291845 1.923156-4.45592 3.742141-6.588054 5.545099v2.77255c2.978599 1.346209 3.817078 4.863982 6.172807 7.12369.838479.801315.718696 2.596261 1.08603 4.142799 2.536495 2.200662 4.406779 5.071321 5.398211 8.285597l9.398957-4.206904c.355905.174887.700019.372969 1.030132.592973.287879.24441.554985.51244.798552.801315-.367334 1.90713-.718697 3.766181-1.086031 5.705363-2.77896.801315-4.392035 3.950483-7.857751 4.391206.375319 2.59626.407262 5.208547 1.237756 7.548387.274828 1.108495.443292 2.240841.503087 3.381549.223595 1.242038-.375319 2.540169.694741 3.758167.407261.472776 0 1.730841-.151725 2.612287-.151725.881447-.487117 1.955209-.798552 3.07705-3.010541 1.394288-7.186968 1.562564-9.766291.28046-1.53322 2.115472-3.99276 2.460037-6.236691 3.20526-4.459009 1.332991-8.991871 2.403237-13.575383 3.20526-2.08422-.801315-2.882772 2.3158-4.927065 1.60263-1.948467 2.083419-4.511819 1.530511-6.923446 1.60263-.39129 0-.798552.040065-1.109987.056092l-1.46135 1.466406-1.237756-.801315-4.096571 3.20526.942291 1.650709c-2.124148 3.493733-3.99276 7.436203-8.60839 8.742346l-5.126704-.969591c-.92632-1.185946-2.108177-2.708444-3.393846-4.37518h-2.61925c-1.956452 2.524143-5.302385 1.722828-7.98552 2.932813l-1.022146-.761249-3.76118 2.516129h-3.114352l-1.653003 1.658722c-2.443569-.568934-4.647572.376618-6.811648 1.546538-2.036688 1.248379-4.418048 1.809977-6.795677 1.60263l-.566972 1.60263h-4.982964l-1.149915 1.47442h-2.683135c-1.876597 2.508115-5.006921 1.835011-7.019272 3.509759l-1.070059-.977604-1.7967421 1.706801-1.597104-.841381-.5270443 1.137867-6.3405025 1.32217-1.1419293-2.219642.598914-.705158c-3.6893101-1.826998-1.8206985-5.328744-2.4914822-8.325662-3.705281-.705157-6.8356047 1.762893-10.7165673 2.107458-.2873122-.222416-.5887363-.425845-.9023637-.608999-.2807099-.098544-.5735968-.157864-.8704216-.17629v-2.868707c2.2918441-4.006575 7.2508518-5.480995 12.1779174-6.586809 2.0043654-4.078694 2.060264-4.335114 2.060264-9.968359l1.5971039-1.658722-.9422913-1.057735c2.7390333-3.766181 3.0983816-8.509966 4.9749787-12.676803.6148851-1.362236 1.3415673-2.668379 2.0762351-4.110746-.7107112-.705157-1.4054514-1.810972-3.1942078-1.939182-.9343058-.064106-1.7488288-1.770907-3.0105409-3.20526.215609-1.137868.5270443-2.852682.9103492-4.912061 2.3477428 1.01767 5.2225299.192315 5.9252556 3.413602l2.0363071-3.036984v-2.115472c1.597104-1.658722 3.585499-3.085062 3.266078-5.352784l3.793122-3.20526-.383305-.28046 3.833049-6.322375c-2.012351-1.266078-3.266077-3.413602-5.166631-5.208547 1.645017-1.201973.279493-4.727759 3.99276-4.006575.439203 2.676392 3.329961 3.012944 5.054834 5.048284 2.092206-1.506472 4.208369-2.868708 6.132879-4.471338 2.659178-2.219642 4.631601-5.168481 8.065375-6.594822 1.676959-.689131 2.890758-2.484076 4.264267-3.734128l1.597104 1.025684 5.270443-4.759811c-1.325596-2.836655-2.914715-5.993836-4.264268-9.247175-.423232-1.01767-.215609-2.299774-.31942-3.734128l2.571337-1.025683c.718697.86542 1.213799 1.458393 1.716887 2.051366l.239565-.208342c.111797.224368.335392.45675.319421.665092-.23025 2.074879.465456 4.145752 1.900554 5.657283.686754.801315.846465 2.027327 1.325596 3.028971.207623.705157.678769 1.306143 1.133944 2.115472zm25.667038 23.850646c-.429407 2.18306-.922429 4.215291-1.200748 6.287213-.190847 1.420973.40555 3.17536-.214703 4.262921-.620254 1.08756-.397599 2.238628-.620254 3.334127-.222655 1.0955-.580494 2.151307-.795197 3.246806-.405551 2.262444.373743 4.524888-.60435 6.890531-.882669 2.151306-.286271 4.715409-.866765 7.14456-.858812 3.596095-.795197 7.406527-1.121228 10.954991.566219.491932 1.097622 1.022428 1.590395 1.58768.28324.473699.520237.973468.707725 1.492419l3.626099-1.746447 1.160987.738271 5.208541-1.881401.262415.500119 2.091369-2.460904 8.564272-1.127253c.794988-.664259 1.649442-1.254181 2.552583-1.762324.986044-.460427 2.170888-.508058 3.180788-.912916.612302-.238152 1.200748 1.127253 1.701722-.063507 5.264204-1.309836 10.464793-3.056284 14.798617-2.595857l3.355732-1.849647-2.894517-10.756532-3.005845.912916c-.834957-.79384-1.494971-1.468604-2.147032-2.095738v-4.763039c.675917-.666826 1.733529-1.730571 2.918373-2.913393l-2.123176-1.841709v-3.22299c-2.512823-2.53235-2.695718-2.857824-3.101269-5.183775-1.240507-1.63531-2.306071-3.056284-3.387539-4.469319s-.620254-3.548465-2.894518-4.032707l-2.027752 3.000715h-2.528727l-1.041708-1.039931v-6.104629l1.69377-1.254267-9.876348-7.676433-10.28985-.746209c-2.600295 1.667064-.795197 4.048584-1.868713 5.675956-2.123177.039692-2.123177 0-3.236453-.79384-.532782-1.778202-.978092-3.286498-1.288219-4.310551-1.463162-.452489-2.70367-1.270144-3.292116-.936732-.825417.642388-1.996634.588476-2.759334-.127014l-3.840801.889101-2.74343 1.802017-6.361577 1.246328-2.878613 3.222991-2.520775-.754148c-1.892569 1.047868-2.727526 3.365881-4.771183 4.604271h-1.025804l-4.349728 3.92157c-.853752.106664-1.670695.411135-2.385591.889101-1.351835.873224-2.655958 1.817893-4.270208 2.945146l-1.65401 3.310313c1.359787 2.38152.508926 4.76304.795197 6.79527l-1.590394 1.444789-4.103217-3.413512c-.692059.943627-1.446528 1.840018-2.25836 2.683179-1.208699 1.127253-2.775238 1.913154-3.808994 3.17536-1.033756 1.262205-1.661962 3.000715-2.560534 4.46138-.343809.387007-.756282.707272-1.216652.94467-.699773 2.270382-1.383643 4.461381-2.09932 6.787332 2.433303.563626 4.286112 1.444789 4.818894 3.842185-1.383643 1.166945-.993996 3.707233-3.037653 4.262921l-4.588287-2.841947-2.481015 5.683894.890621 1.095499-1.367739.79384c0 3.000715-1.9402809 5.120268-1.073516 7.747878l-1.7653376 1.34159c.4532623 2.38152-1.8289533 4.485196-.3260308 6.763516 4.4212954-2.62761 5.2085404-2.770501 7.3714774-1.317774.453867 1.618815.187297 3.354353-.731582 4.76304l-4.826846 3.016592h-2.7752378c-1.1848437 2.516473-1.8289533 5.001192-.7951971 7.771693 2.1549841.436612 4.3258719-.373105 6.0594019-1.262205 2.168412-1.261264 4.648376-1.888449 7.156773-1.809956l1.153036-1.651187h2.997893l3.522723-2.38152c2.528727.69858 4.715519-1.159006 7.156774-1.413035 2.687766-.293721 4.92227-1.706756 7.371477-1.913154l.294223-1.286021c3.419347 0 6.290009-2.500596 9.64574-1.627372l3.34778-2.286259 7.450997-1.182821c.357838-1.333652.747485-2.762564 1.224603-4.51695.29909-.264625.580652-.548358.842909-.849409 2.107272-2.57998 3.729474-5.302851 3.610195-8.851315-.047712-1.444789.548686-2.913393.89062-4.358182.281847-.680561.482038-1.392025.596398-2.119553-.067002-1.382717.406242-2.737416 1.320027-3.778678.405551-2.500596.850861-4.604272 1.081468-6.739701.349887-3.17536.556638-6.390412.795197-9.589587 0-.246091 0-.603319.11928-.730333 1.327979-1.198698.127232-2.881639.739533-4.056522.627006-1.401432.876449-2.942056.72363-4.469319-.047712-2.452966 1.526778-4.143845 2.576438-5.961738h3.975986c.270367.920854.532782 1.825831.795197 2.706994l-1.876666.674764c.166992.865285.381695 1.675002.516879 2.214813z" fill="#000"/><path d="m438.58 60.13.82.76 3.15-1.69 1 .79 5.81-2 1.1 1c.36-.32.71-.9 1.1-.93 4.41-.36 8.77-.9 12.79-2.93.139135-.0805359.299987-.1155038.46-.1 4.79 1 9.12-1.36 13.63-2.17 2.39-.43 4.89-.26 7.07-1 2.41-.79 4.8-.45 7.11-.94 2.89-.63 5.54-2.36 8.69-1.92 1.11-1.33 2.66-.85 4.07-1s2.72-.84 4.1-.94c6.092877-.5883398 12.09659-1.883719 17.89-3.86 1.429324-.312355 2.913899-.2642437 4.32.14 1.314398.4285791 2.581097.9915566 3.78 1.68 1.23-1.71 2.38.39 3.69.09 1.481801-.2453844 2.992159-.2656125 4.48-.06 2 .16 4 .48 6.59.8-.47 2.25-.85 4-1.19 5.65-1.56.82-3 1.44-4.29 2.27-2.37 1.52-4.63 3-7.63 3.39-1.88.23-3.63 1.64-5.38 2.61-1.35.75-2.61 1.66-4.16 2.64l-1.69-2.92c-1.47 2.09-3.06 1.45-4.47 1.53s-2.65 0-4 0c-1.41 1.56-3.34 2.58-5.14 1.87s-2.56 2.32-4.51.69c-.67-.56-2.54.12-3.79.48-1.500176.3552873-2.934613.9459379-4.25 1.75-1.6 1.1-2.87-.57-4.66 0-2.876588 1.0564858-5.941598 1.5026151-9 1.31-1.727783-.1477286-3.461942.1991031-5 1-2 1.07-4.08.71-6.13.95-3.24.38-6.44 1-9.78 1.57l-1.56-.9c-.69.9-1.28 1.69-1.79 2.37-2.170325-.2132783-4.360584.0776155-6.4.85-1.92.66-4.29-.81-6.06 1.07-3.059618-.2614433-6.140831.0782714-9.07 1-3.77 1-7.86.62-11.43 2.56-.569325.2985023-1.207868.4400173-1.85.41-2.79-.14-5.45 0-7.72 2-.23.2-1.11-.35-1.94-.63-1.51.58-3.06 1.89-5.27 1.76-1.34-.09-2.71.63-4.08.91-4.91 1-9.85 1.94-14.74 3-1.358315.4562163-2.665377 1.0527729-3.9 1.78l-.89-.8c-3.61 1.28-7.19 3.41-10.88 3.63-4.23.25-8 1.93-12.07 2.54-2.550854.4035662-5.121006.6739328-7.7.81l-3.81-4.74c.1-2.58-.51-5.4 1-7.44 1.43-1.15 2.92-1.83 3.55-3 1.12-2 2.62-3.11 4.8-2.8 4.46.63 8.67-1.38 13.08-1 .33 0 .75.13 1 0 1.3-.82 2.17-2 4.29-1.28 1.18.41 3.06-1.13 4.62-1.79l1.16 1c1.7-1.09 3.4-2.17 5.62-1.95 1.251742-.0266054 2.485688-.3019485 3.63-.81 2.07-.62 4.16-1.7 6.55-1.2 1.751172.3525278 3.561152-.2130911 4.8-1.5zm-36.26 18.21 4.54-2.35c5.5.79 10.9-2.45 16.25-2 2.26-1.08 3.92-2.06 6.19-2.05 3 0 6.26 0 9-1.1 1.8-.68 3.49-.41 5.14-.87 1.46-.4 2.73-1.56 4.2-1.86 1.660503-.179986 3.333628-.2134485 5-.1.453161-.09924.895335-.2432816 1.32-.43 2.246754-.6629513 4.539763-1.1576528 6.86-1.48 3.005413-.096658 5.963474-.7758913 8.71-2 .77-.38 2 .26 3.48.5 2-.33 4.12-2.65 7-1.1.349365.0979834.722405.0660085 1.05-.09 3.242901-1.0946347 6.596421-1.8290555 10-2.19 4.42-.59 8.77-1.32 13.16-2.1 5.43-1 10.82-2.11 16.22-3.17 3.13-.61 6.16-1.73 9.32-2.64l1.65 1.65c3.37-2.72 7.68-3.06 11.55-4.33l-.06-1.25c-1.91-.35-3.93-1.27-5.74-1-3.38.6-6.58 1.27-9.85-.38-.791616-.3051204-1.668384-.3051204-2.46 0-4.46 1.6-9.34 1.32-13.75 3-3 1.14-6.21.7-9.24 1.82-1.63.6-3.7.46-5.5 1.06-1-1.85-1.73.37-2.72.16-1.123051-.2362338-2.288391-.1741743-3.38.18-3.55 1.24-7.27 1.72-10.89 2.62s-7.37 1.24-11.09 2.16c-2.773594.8608487-5.682774 1.1999138-8.58 1-3.57 2.37-8 1.22-11.76 3-5-.41-9.64 2.19-14.67 2.09-1.58 0-3.18 1.06-4.91 1.69l-1.17-.85c-2.51075 1.0470834-5.140345 1.7825641-7.83 2.19-4 .5-7.87 1.8-11.9 2.78l-1.3-1c-3.150202 1.9011339-6.732954 2.9680436-10.41 3.1-1.951322-.0883084-3.852027.6357696-5.25 2-2.33.09-4.68-.08-7 .92-1.84.78-4 .76-6.05 1.09s-4.23.29-6 1.1-4 .3-5.57 1c-2 .94-3.8-.8-5.5 0-.120592.9809499-.415206 1.9325219-.87 2.81-.80561.7388256-1.715306 1.3553976-2.7 1.83l1.74 4.51 12.35-3 1 .88c2.84-2 6.43-2.25 9.67-2.84 3.42-.62 6.62-2 10.07-2.43s6.58-1.52 10.68-2.53z" fill="#000"/><path d="m261.72 64.23 6.06 1.47c.19-.1.74-.68 1.26-.66 4.22.19 8-1.37 12-2.5 2.423264-.6426925 4.88039-1.1501425 7.36-1.52 2.35-.41 5-.1 7-1.19s3.47-.74 5.17-.78c3.06-.08 5.82-1.21 8.73-2l1.53 1c.86-.34 1.79-1.07 2.56-.94 2.69.48 5.26-.53 7.52-1.3 2-.69 4.18-.13 6-1.16 2-1.16 4.18-.28 6.24-.62 1.871326-.2037948 3.717331-.5957777 5.51-1.17 3.52-1.36 7.35-1.35 10.86-2.74.84-.34 2.07.29 3.4.52 1-1.14 2.89-1.27 4.8-1.69 4.26-1 8.62-1.34 12.81-2.77 2.607574-.7125631 5.296876-1.0823421 8-1.1 3-.2 5.85-1.16 8.77-1.75 2.16-.44 4.33-.8 6.49-1.22 3.14-.61 6.47-.36 9.54-1.15 5.76-1.47 11.86-1.35 17.35-3.92 1.73.82 3.45-1.56 5.26.08 3.52-2.27 7.6-2.88 11.66-3 3.567237-.1799254 7.04006-1.208402 10.13-3h6.17c.07.89.13 1.68.2 2.47l1.94 1.94v5.87l2.77 1.76c-.44 4-4.12 4-6.34 5.8l-.71-.71c-5.8.38-11.26 2.69-17.14 2.89-2 .07-4 1-6.09.88s-3.91 1-5.76 1.75c-.14.06-.28.24-.4.23-5.73-.69-10.59 3.11-16.25 3.14-1.41 0-3.06 1.42-4.54.78s-2.82 2-4.21.09c-2.57 2.18-5.85.48-8.8 1.65-2.32.91-5.28.87-7.94 1.34-1.9.34-3.94-.66-5.74.63-1.62 1.17-4-.67-5.42 1.38-4.44-.71-8.46 1.34-12.63 2.15-5.81 1.13-11.84 1.34-17.39 3.78-.81.35-2.05-.29-3.28-.51-5.74 3.22-12.82 2.5-19.53 4.51l-1-.69-7.3 2.53-.72-.63-30.05 5c-1.092892 2.1838292-3.254519 3.6312452-5.69 3.81-1.392804.2021465-2.760381.5507445-4.08 1.04-2.095706.8087374-4.33573 1.176401-6.58 1.08-1.024023.0657282-2.033813.274418-3 .62l-.34-1.28c-3.55-1.12-7.46-1.55-9.86-5v-4.42zm74-6.3c-1.11-.55-2-1.28-3.79-.52-3.000884 1.2957441-6.179921 2.1318007-9.43 2.48-3.611969.3598201-7.181434 1.062998-10.66 2.1-1.15.34-2.7 1.15-3.43.71-1.55-1-2.63-1.09-3.85.25-1.43-1.9-2.69 1-4.17.22-.11-.06-1.06 1-1.71 0-2.59 1.1-5.32.78-8 .84-.13 0-.26.15-.49.29l-1.32 1.36c-5.7 1.17-11.14 1.46-16.28 3.34l-.74-.67c-3.35.93-6.47 2.48-9.6 2.52-5.1.06-6.93 4.29-10.74 6.41 3.35 1.47 6.32 2.25 9.38 1.66 1.35-.26 2.59-1 4.1-1 2.38 0 4.9.67 7.08-1 6.05-.21 11.75-2.48 17.75-3 2.09-1.7 4.9-.21 6.91-1.38 1.51-.88 3-.09 4.23-.68 1.271101-.6551144 2.680011-.9979147 4.11-1 1.113343.0563164 2.224865-.1420475 3.25-.58 2-.87 4.27-.93 6.41-1.41 1.056904-.2317864 2.088514-.5667246 3.08-1 1.23-.53 2 .81 3.36.48 5.4-1.32 10.83-2.59 16.41-2.53 1.77-1.74 3.92-2 6.25-2 1.24 0 2.7.55 3.62-.89 2.75.07 5.11-1.81 7.64-1.94 4.25635-.3253055 8.479835-.9907635 12.63-1.99 4.18-.88 8.47-1.15 12.68-2 1.54-.3 2.81-1.44 4.58-1.13 1.658945.2268818 3.341055.2268818 5 0 1.38-.14 2.71-.8 4.09-.91s2.78-1.36 4.17 0c4.35-2.06 9.28-1.48 13.75-3 1.142431-.5040162 2.351518-.8408092 3.59-1 4.64-.13 8.88-2.89 13.66-2 3.7-1.84 8.1-1 11.75-3 4.93.68 9.28-1.88 14.53-2.29l-2.59-1.21c.57-2.68-.73-4.65-2.34-6.48-2.408258.0389672-4.806693.3169981-7.16.83-4.14003.8323111-8.229851 1.8973339-12.25 3.19-1.636295.5763979-3.347324.9132147-5.08 1-3.4 0-6.43 1.37-9.51 2l-1.17-.81c-1.59.38-2.61.69-3.66.86-2.82.44-5.91.25-8.43 1.36-4.84 2.12-10.14 1.86-15 3.58-.84.3-2-.34-3.15-.57-.313056.2405843-.647834.4514947-1 .63-4 1.82-8.54 1.82-12.78 2.86-3.335406.8902879-6.726178 1.5584203-10.15 2-6.66.7-13 2.86-19.73 3.23-1.79.03-3.52 1.03-5.81 1.79z" fill="#000"/><path d="m355.29 465.24 3.7 1.28c1.88-.2 3.69-1 4.88-.4 3 1.43 6.11.55 9.14.9 1.069914.213424 2.125334.493979 3.16.84 2.057075-1.25502 4.610767-1.379315 6.78-.33.999056.394918 2.110944.394918 3.11 0 3.5-.78 7.08-1.16 10.49-2.47 1.257453-.428093 2.643079-.239144 3.74.51.84.56 2.41.13 3.63-.05 1.7031-.243995 3.39212-.577793 5.06-1 1.36-.36 2.57-1.07 4.13-1 1.645812.043383 3.290117-.131472 4.89-.52 2.74-.58 5.62-1 8.12-2.1 1.77-.83 3.4-.78 5.51-.9l2.36-3.12c3 .75 3.85-1.56 5.49-2.28l10.12-3.52c.61-2.91 3-3.92 5.67-5.26l2.51 3.47c-.653608 1.238417-1.385075 2.434149-2.19 3.58-2.13 2.68-5.21 4.16-8 6-2.45-1.06-3 2.3-5.12 2.13-1.83 2.33-4.61 2.53-7.34 3.28-.07.32-.16.78-.34 1.66l-2.85-.77-1.87 2.41c-1.643423.401039-3.265498.884992-4.86 1.45-1.58185.767268-3.335447 1.111787-5.09 1-2.101892-.286271-4.212879.458345-5.67 2-.23-.23-.51-.7-.7-.67-4.82.82-9.74 1.11-14.52 1.91-3.59.61-7.09.42-10.62.78-2.86.29-5.72-.49-8.65.83-2.001087.86471-4.317835.536504-6-.85-3.93 2-10 1.29-17.58-2.09-1.84.57-3.9 2.35-5.95.1-2.54.24-5.24-.74-7.55 1.06-2.152635-1.913806-4.910808-3.00787-7.79-3.09-.783919-.017891-1.552096-.223653-2.24-.6-2.57-1.44-5.83-1.23-8.1-3.37-2.15.51-2.56-2.36-4.56-2.32-.947713-.175395-1.857851-.513737-2.69-1-1.677408-1.155572-3.283653-2.411181-4.81-3.76-1.265597-1.411757-2.428566-2.912254-3.48-4.49.198519-.65068.452795-1.283024.76-1.89.411072-.549049.87679-1.054973 1.39-1.51h3.06c4.15 4.22 9.74 6.53 15 9.53 1.82.44 3.78 1 5.78 1.38 4.77.91 9.39 2.54 14.25 3 .58.06 1.12.53 1.71.67 1.44.35 2.89.94 4.13-.41z" fill="#6c46c0"/><path d="m278.32 51.82-.66-.66c-4 3.08-9.54.89-13.66 3.84-4.58-1-8.82 2.47-13.9 1.4-1.668327 1.1459526-3.656735 1.7340732-5.68 1.68-2.21 0-4.4-.22-6.74.45-1.72.49-3.87-1-6.14.19-1 .52-2.83-.69-4.62-1.2-1.33-.76-.86-2.36-.93-4 2-2.07 4.21-4 7.4-4.57 1.036398-.3526263 1.989393-.9142131 2.8-1.65 1.42-1 2.66-2.52 4.23-3 1.444425-.3664387 2.915745-.6172319 4.4-.75 3.11-.46 6.08-1.55 9.33-1.58 2.68 0 5.35-.79 8-1.07 2-.64 3.75-3.34 6.33-.86l1.67-1.74c2-.24 3.86-.42 5.75-.72 1.7-.28 3.39-1 5.06-.95s3.26-1 5-.58c5.32-3.4 12.12-1.42 17.49-4.84 1-.61 2.61 0 3.91-.19s2.38-.81 3.59-.94c3.85-.42 7.84-.22 11.54-1.15 4.41-1.12 8.92-1.65 13.33-2.64s8.51-2 12.69-3.25c.88-.27 1.72-.66 2.77-1.06l1.24 1.08c1.22 1.66-.46 3.77 1.16 5.19-1 1.43.13 2.71.2 4 .1 1.83-.48 3.7-.81 5.83-2.1.34-4 .53-5.78.95-4.18 1-8.55.91-12.61 2.14-1.471859.5807274-3.049115.8464422-4.63.78-1.74-.22-3 1-4.59 1-1.22 0-2.25-.85-3.72-.1-1.18.6-2.91.12-4.26.12l-2 2c-4.576922-.2583743-9.159454.3977301-13.48 1.93-4 1.46-8.51 1-12.65 2.81zm-48.2 2.94c.433735.1090706.874936.1859465 1.32.23h4c1.132886.1495673 2.275652-.1925345 3.14-.94.72-.66 1.8 1.19 3.2 0 .8-.65 3 .42 3.82-.22 2.42-1.84 5.56.24 7.79-1.79 4.15-.05 7.86-2.51 12.11-2.17 1 .07 2-.67 2.79-1l1.78 1.23c.52-.43.85-.91 1.26-1 4.88-1.11 9.77-2.15 14.66-3.21 1.52-.33 3.07-1 4.57-.91 1.88.12 3.41-.66 5.08-1.09 2.56-.66 5.09-1.75 7.67-1.9 3.959122-.1686253 7.88066-.8406968 11.67-2 2-.63 4.17.48 6.22-.69 1.78-1 4.22.36 5.92-1.37 5.12-.14 10.1-1.32 15.15-2 2.9-.42 5.73-1.34 8.63-2v-3l-2.16-2.67c-3.94.29-7.84-.31-10.91 1-4.86 2.08-10.24 1.42-14.94 3.73-.61.3-1.7-.38-2.55-.6-1.159789.6755812-2.394918 1.2125939-3.68 1.6-1.44.29-3-.06-4.48.11s-3.06.91-4.58.9c-3.09 0-5.94 1.72-9.08 1.06-.65 1.13-1.38.77-1.73.44-2.72.91-5.19 2.35-7.69 2.41-3.25868.152966-6.458683.9232743-9.43 2.27l-1.23-1.07c-3.75.21-6.71 4.58-11.1 2.15l-1.63 1.54-13.57 1.53c-2.612373 1.5649585-5.553467 2.4996717-8.59 2.73-3.89.15-10.32 2.82-13.53 5.68-.14.06.05.55.1 1.02z" fill="#000"/><path d="m388.82 441.48-2.51 3.36h-2.51l-6.86-3.79h-2.15c-3.06-2-4.51-5-5.78-8.13-1.11-2.73-1.75-5.79-.77-8.47s1-5.42 3.23-7.72c1.41-1.45 2.22-3.91 2.68-6.33.6-3.11 2.32-6 3.8-9.57.178756-2.63536.55988-5.253076 1.14-7.83.849773-2.505652 1.488663-5.077936 1.91-7.69.33-2.86.62-5.72 1-8.57.38-2.68.86-5.35 1.26-7.78l4.05-4 1.51 1.35c-.54 5.49-2.57 10.63-3 16.18-.371712 4.74589-1.012745 9.466829-1.92 14.14-.66 3.36-1.37 6.76-2.28 10-.63 2.25-.76 4.59-1.44 6.85-1.165181 3.347076-2.541271 6.61696-4.12 9.79-1.146125 2.203351-1.871834 4.600902-2.14 7.07 6.81 5.6 6.81 5.6 11.92 5.68.9 1.65 1.87 3.43 2.98 5.46z" fill="#6c46c0"/><path d="m338 372.29c.45-1.36.92-2.83 1.35-4.12l5.37-4.07h3.06l.22 1.53-1.79.63 2.18 3.88c-2.9 2.7-5.06 5.54-7.52 8.06-1.38 1.42-3.71 1.94-5.64 2.79-2.25 1-4.54 1.89-6.88 2.86l-.93-.85c-4.1 1.87-7.82-.67-11.66-1.07-5.53-3.75-10-8.18-9.81-15.43l1.74-1.67c.62.3 1.12.4 1.14.57 1 6.72 5.69 10.1 11.4 12.63 2.64 1.17 5.36.9 7.79 1z" fill="#6c46c0"/><path d="m442.48 378 1.68-2.87h3.74c.5-.28.79-.4 1-.58 1.15-.84 2.35-1.62 3.41-2.57s2.48-1.85 2.77-3.77c.19-1.23 1.55-2.28 2.28-3.25l2.72.13c-.24.87-.43 1.54-.71 2.52 1.8 4.92-3.29 7.4-4.84 11.35h-2.3l-2 2.5c-2.12.62-3.33.92-4.51 1.33-1 .34-2 .91-3 1.18-1.36.36-3-.64-4.12.91-1.82-1.54-4-.45-6-1-1.186952-.415482-2.261654-1.100006-3.14-2-3.07-2.83-6.08-5.73-7.5-9.83-.136324-.414802-.373401-.789317-.69-1.09-.19-.18-.61-.11-1.11-.18v-4.58l2.12-1.68c2.42 5.21 5 9.91 9.32 13.41z" fill="#6c46c0"/><path d="m313.64 331.15-1.78-1.63c.59-3.19 1.74-5.48 4.76-6.83 1-.46 2 .78 3-.59.64-.87 2.57-.89 3.95-1.06 1.329883-.135645 2.670117-.135645 4 0 1.25.1 2.43-.14 3.76.61s3.19.36 4.84.47l7.47 3.42-3.88 4.32c-.76-.3-1.5-.9-2.09-.78-1.605766.269564-3.240373-.277804-4.36-1.46-2.19-2.32-4.2-1.78-6.54-.57l-1.7-1.15-2.07 1.22-1.62-1.1z" fill="#6c46c0"/><path d="m422.05 326.45c3.33-2.53 5.56-3.08 10.21-2.73.64 0 1.3-.62 2-.69 1.15-.12 2.38.2 3.46-.1s1.19 1.44 2.43.61c.58-.39 1.85.3 2.82.45s1.92.16 2.86.34c.59.12 1.12.54 1.71.64.722015.061763 1.447985.061763 2.17 0 .68 1.82 1.39 3.69 2.12 5.65l-.89 1c-1.11316-.129143-2.215874-.33632-3.3-.62-7.5-2.42-7.56-2.44-15.82-1.29-.239079.041548-.485187.002874-.7-.11-2.38-1.57-4.57-.19-6.62.49-2.22-.48-2.78-1.78-2.45-3.64z" fill="#6c46c0"/><path d="m346 265.76-2.11 1.53-2.22-2.08c-2.38-.22-4.64 0-6.55-.71-2.83-1.05-6.23-.08-8.64-2.48-1.54 2-3 .45-4.66 0-1.843135-.358361-3.706707-.602162-5.58-.73l-.93.75c-3.8-2.64-8.68.32-12.9-1.88-1.808748 1.292309-4.253495 1.235265-6-.14-1.26.33-2.52 1-3.64.87-2.43-.38-4.74.47-7.19.33-2.19-.12-4.68.56-7.05.84-2.30233.353154-4.54401 1.026331-6.66 2-4.24 1.78-8.38 3.78-12.69 5.74v-2.49c2-2.23 5.12-3.53 7.84-5.38 3.37-2.3 7.28-2.59 10.91-3.86 2.06997-.875507 4.31861-1.24571 6.56-1.08 2.25.28 4.18-1.43 6.59-1.05 2.327736.207991 4.668118.234738 7 .08h12.48c1.78 0 3.73-.17 5.28.49 1.520244.597524 3.183003.733189 4.78.39 1.67-.28 3 1 4.79.38.75-.28 2.07 1 3.18 1.6l1.08-1c3.779754 1.737417 7.944612 2.467731 12.09 2.12l.32 1.59 18.79 3.85c1.05 1.17 2.81 1.57 4.83 1.66 1.54.07 3.4.17 4.51 1 2.71 2.13 6.16 2 9.1 3.48 2.4 1.24 5.52 1.11 8.36 1.6l1.73 1.73c.47-.2 1-.65 1.4-.55 4.5 1.17 8.94 2.63 13.48 3.56 2.37.49 4.93.09 7.22.09l1.7 1.7c3.78.46 7.28 1.05 10.8 1.25s7.32-.06 11 .11c1.377708.223304 2.721683.619777 4 1.18-.11.28-.13.42-.22.5-.094885.128402-.233709.217392-.39.25h-33.52l-3.44-1.82c-4.18.39-9.9-.82-14.7-3.23l-1.08.84c-2-.92-4-2.17-6.19-2.7s-4.49-1.24-6.74-1.81c-2.41-.62-4.79-1.23-7.16-2-2.17-.71-4.5-1.14-6.72-1.89s-4.5-1.21-6.75-1.8c-1.24-3.1-4.94-.09-6.09-2.83z" fill="#6c46c0"/></g></g></svg>