<svg width="419" height="600" aria-label="A chart." style="overflow: hidden;"><defs id="_ABSTRACT_RENDERER_ID_0"></defs><g><path d="M10,51.096969696969225C143,51.096969696969225,276,-6.394884621840902e-13,409,-6.394884621840902e-13L409,20.133333333332693C276,20.133333333332693,143,71.23030303030257,10,71.23030303030257Z" stroke="none" stroke-width="0" fill-opacity="0.6" fill="#aaaaaa"></path><path d="M10,151.76363636363587C143,151.76363636363587,276,200.9999999999995,409,200.9999999999995L409,211.06666666666615C276,211.06666666666615,143,161.83030303030253,10,161.83030303030253Z" stroke="none" stroke-width="0" fill-opacity="0.6" fill="#aaaaaa"></path><path d="M10,71.23030303030255C143,71.23030303030255,276,40.19999999999931,409,40.19999999999931L409,60.33333333333264C276,60.33333333333264,143,91.36363636363589,10,91.36363636363589Z" stroke="none" stroke-width="0" fill-opacity="0.6" fill="#aaaaaa"></path><path d="M10,91.36363636363589C143,91.36363636363589,276,80.39999999999938,409,80.39999999999938L409,100.5333333333327C276,100.5333333333327,143,111.49696969696922,10,111.49696969696922Z" stroke="none" stroke-width="0" fill-opacity="0.6" fill="#aaaaaa"></path><path d="M10,111.49696969696922C143,111.49696969696922,276,120.59999999999943,409,120.59999999999943L409,140.73333333333275C276,140.73333333333275,143,131.63030303030254,10,131.63030303030254Z" stroke="none" stroke-width="0" fill-opacity="0.6" fill="#aaaaaa"></path><path d="M10,131.63030303030254C143,131.63030303030254,276,160.7999999999995,409,160.7999999999995L409,180.93333333333283C276,180.93333333333283,143,151.76363636363587,10,151.76363636363587Z" stroke="none" stroke-width="0" fill-opacity="0.6" fill="#aaaaaa"></path><path d="M10,302.5636363636356C143,302.5636363636356,276,321.5999999999996,409,321.5999999999996L409,341.73333333333295C276,341.73333333333295,143,322.69696969696895,10,322.69696969696895Z" stroke="none" stroke-width="0" fill-opacity="0.6" fill="#aaaaaa"></path><path d="M10,282.4303030303023C143,282.4303030303023,276,251.26666666666614,409,251.26666666666614L409,271.39999999999947C276,271.39999999999947,143,302.5636363636356,10,302.5636363636356Z" stroke="none" stroke-width="0" fill-opacity="0.6" fill="#aaaaaa"></path><path d="M10,322.69696969696895C143,322.69696969696895,276,361.79999999999967,409,361.79999999999967L409,371.86666666666633C276,371.86666666666633,143,332.7636363636356,10,332.7636363636356Z" stroke="none" stroke-width="0" fill-opacity="0.6" fill="#aaaaaa"></path><path d="M10,272.36363636363564C143,272.36363636363564,276,221.1333333333328,409,221.1333333333328L409,231.19999999999948C276,231.19999999999948,143,282.4303030303023,10,282.4303030303023Z" stroke="none" stroke-width="0" fill-opacity="0.6" fill="#aaaaaa"></path><path d="M10,342.76363636363567C143,342.76363636363567,276,291.4666666666663,409,291.4666666666663L409,311.5999999999996C276,311.5999999999996,143,362.896969696969,10,362.896969696969Z" stroke="none" stroke-width="0" fill-opacity="0.6" fill="#aaaaaa"></path><path d="M10,542.7333333333333C143,542.7333333333333,276,532.6666666666669,409,532.6666666666669L409,542.7333333333336C276,542.7333333333336,143,552.8000000000001,10,552.8000000000001Z" stroke="none" stroke-width="0" fill-opacity="0.6" fill="#aaaaaa"></path><path d="M10,552.8000000000001C143,552.8000000000001,276,572.8666666666667,409,572.8666666666667L409,582.9333333333334C276,582.9333333333334,143,562.8666666666668,10,562.8666666666668Z" stroke="none" stroke-width="0" fill-opacity="0.6" fill="#aaaaaa"></path><path d="M10,512.5333333333332C143,512.5333333333332,276,422.1333333333331,409,422.1333333333331L409,432.19999999999976C276,432.19999999999976,143,522.5999999999999,10,522.5999999999999Z" stroke="none" stroke-width="0" fill-opacity="0.6" fill="#aaaaaa"></path><path d="M10,522.5999999999999C143,522.5999999999999,276,462.33333333333337,409,462.33333333333337L409,472.40000000000003C276,472.40000000000003,143,532.6666666666666,10,532.6666666666666Z" stroke="none" stroke-width="0" fill-opacity="0.6" fill="#aaaaaa"></path><path d="M10,532.6666666666666C143,532.6666666666666,276,502.5333333333334,409,502.5333333333334L409,512.6000000000001C276,512.6000000000001,143,542.7333333333333,10,542.7333333333333Z" stroke="none" stroke-width="0" fill-opacity="0.6" fill="#aaaaaa"></path><path d="M10,242.23030303030237C143,242.23030303030237,276,211.06666666666615,409,211.06666666666615L409,221.1333333333328C276,221.1333333333328,143,252.29696969696903,10,252.29696969696903Z" stroke="none" stroke-width="0" fill-opacity="0.6" fill="#aaaaaa"></path><path d="M10,232.1636363636357C143,232.1636363636357,276,180.93333333333283,409,180.93333333333283L409,190.9999999999995C276,190.9999999999995,143,242.23030303030237,10,242.23030303030237Z" stroke="none" stroke-width="0" fill-opacity="0.6" fill="#aaaaaa"></path><path d="M10,252.29696969696906C143,252.29696969696906,276,281.39999999999964,409,281.39999999999964L409,291.4666666666663C276,291.4666666666663,143,262.36363636363575,10,262.36363636363575Z" stroke="none" stroke-width="0" fill-opacity="0.6" fill="#aaaaaa"></path><path d="M10,391.7999999999998C143,391.7999999999998,276,341.733333333333,409,341.733333333333L409,351.79999999999967C276,351.79999999999967,143,401.86666666666645,10,401.86666666666645Z" stroke="none" stroke-width="0" fill-opacity="0.6" fill="#aaaaaa"></path><path d="M10,401.86666666666645C143,401.86666666666645,276,371.86666666666633,409,371.86666666666633L409,391.99999999999966C276,391.99999999999966,143,421.9999999999998,10,421.9999999999998Z" stroke="none" stroke-width="0" fill-opacity="0.6" fill="#aaaaaa"></path><path d="M10,442.1333333333331C143,442.1333333333331,276,442.20000000000005,409,442.20000000000005L409,462.33333333333337C276,462.33333333333337,143,462.2666666666664,10,462.2666666666664Z" stroke="none" stroke-width="0" fill-opacity="0.6" fill="#aaaaaa"></path><path d="M10,462.2666666666664C143,462.2666666666664,276,482.4000000000001,409,482.4000000000001L409,502.5333333333334C276,502.5333333333334,143,482.39999999999975,10,482.39999999999975Z" stroke="none" stroke-width="0" fill-opacity="0.6" fill="#aaaaaa"></path><path d="M10,421.9999999999998C143,421.9999999999998,276,401.9999999999997,409,401.9999999999997L409,422.13333333333304C276,422.13333333333304,143,442.1333333333331,10,442.1333333333331Z" stroke="none" stroke-width="0" fill-opacity="0.6" fill="#aaaaaa"></path><path d="M10,482.39999999999975C143,482.39999999999975,276,522.6000000000001,409,522.6000000000001L409,532.6666666666669C276,532.6666666666669,143,492.4666666666664,10,492.4666666666664Z" stroke="none" stroke-width="0" fill-opacity="0.6" fill="#aaaaaa"></path><path d="M10,492.46666666666647C143,492.46666666666647,276,562.8,409,562.8L409,572.8666666666667C276,572.8666666666667,143,502.53333333333313,10,502.53333333333313Z" stroke="none" stroke-width="0" fill-opacity="0.6" fill="#aaaaaa"></path><path d="M10,582.9333333333334C143,582.9333333333334,276,582.9333333333333,409,582.9333333333333L409,593C276,593,143,593.0000000000001,10,593.0000000000001Z" stroke="none" stroke-width="0" fill-opacity="0.6" fill="#aaaaaa"></path><path d="M10,572.8666666666667C143,572.8666666666667,276,542.7333333333335,409,542.7333333333335L409,552.8000000000002C276,552.8000000000002,143,582.9333333333334,10,582.9333333333334Z" stroke="none" stroke-width="0" fill-opacity="0.6" fill="#aaaaaa"></path><path d="M10,191.96363636363586C143,191.96363636363586,276,100.5333333333327,409,100.5333333333327L409,110.59999999999937C276,110.59999999999937,143,202.03030303030252,10,202.03030303030252Z" stroke="none" stroke-width="0" fill-opacity="0.6" fill="#aaaaaa"></path><path d="M10,202.03030303030252C143,202.03030303030252,276,140.73333333333275,409,140.73333333333275L409,150.79999999999941C276,150.79999999999941,143,212.09696969696918,10,212.09696969696918Z" stroke="none" stroke-width="0" fill-opacity="0.6" fill="#aaaaaa"></path><path d="M10,171.83030303030253C143,171.83030303030253,276,20.133333333332693,409,20.133333333332693L409,30.19999999999936C276,30.19999999999936,143,181.8969696969692,10,181.8969696969692Z" stroke="none" stroke-width="0" fill-opacity="0.6" fill="#aaaaaa"></path><path d="M10,181.8969696969692C143,181.8969696969692,276,60.33333333333265,409,60.33333333333265L409,70.39999999999931C276,70.39999999999931,143,191.96363636363586,10,191.96363636363586Z" stroke="none" stroke-width="0" fill-opacity="0.6" fill="#aaaaaa"></path><path d="M10,212.09696969696918C143,212.09696969696918,276,241.19999999999948,409,241.19999999999948L409,251.26666666666614C276,251.26666666666614,143,222.16363636363585,10,222.16363636363585Z" stroke="none" stroke-width="0" fill-opacity="0.6" fill="#aaaaaa"></path></g><g><text text-anchor="start" x="16" y="111.36363636363589" font-family="Heebo" font-size="14" stroke="none" stroke-width="0" fill="#000000">Reporting</text><text text-anchor="end" x="403" y="19.99999999999934" font-family="Heebo" font-size="14" stroke="none" stroke-width="0" fill="#000000">Monitor Social Media</text><text text-anchor="end" x="403" y="220.9999999999995" font-family="Heebo" font-size="14" stroke="none" stroke-width="0" fill="#000000">Dashboard</text><text text-anchor="end" x="403" y="60.19999999999934" font-family="Heebo" font-size="14" stroke="none" stroke-width="0" fill="#000000">Monitor Web Presence</text><text text-anchor="end" x="403" y="100.39999999999941" font-family="Heebo" font-size="14" stroke="none" stroke-width="0" fill="#000000">Overall Performance Trends</text><text text-anchor="end" x="403" y="140.59999999999948" font-family="Heebo" font-size="14" stroke="none" stroke-width="0" fill="#000000">Monitor Ad Performance</text><text text-anchor="end" x="403" y="180.7999999999995" font-family="Heebo" font-size="14" stroke="none" stroke-width="0" fill="#000000">Opportunities</text><text text-anchor="start" x="16" y="307.4636363636356" font-family="Heebo" font-size="14" stroke="none" stroke-width="0" fill="#000000">Campaigns</text><text text-anchor="end" x="403" y="341.5999999999996" font-family="Heebo" font-size="14" stroke="none" stroke-width="0" fill="#000000">Customise Emails</text><text text-anchor="end" x="403" y="261.19999999999953" font-family="Heebo" font-size="14" stroke="none" stroke-width="0" fill="#000000">Create Campaigns</text><text text-anchor="end" x="403" y="381.79999999999967" font-family="Heebo" font-size="14" stroke="none" stroke-width="0" fill="#000000">Notification Preferences</text><text text-anchor="start" x="16" y="357.7303030303023" font-family="Heebo" font-size="14" stroke="none" stroke-width="0" fill="#000000">Help</text><text text-anchor="end" x="403" y="301.39999999999964" font-family="Heebo" font-size="14" stroke="none" stroke-width="0" fill="#000000">Ask a Question</text><text text-anchor="start" x="16" y="542.5999999999999" font-family="Heebo" font-size="14" stroke="none" stroke-width="0" fill="#000000">Account</text><text text-anchor="end" x="403" y="542.6" font-family="Heebo" font-size="14" stroke="none" stroke-width="0" fill="#000000">Invite Users</text><text text-anchor="end" x="403" y="582.8" font-family="Heebo" font-size="14" stroke="none" stroke-width="0" fill="#000000">Manage Users</text><text text-anchor="end" x="403" y="421.9999999999999" font-family="Heebo" font-size="14" stroke="none" stroke-width="0" fill="#000000">My Account</text><text text-anchor="end" x="403" y="462.20000000000005" font-family="Heebo" font-size="14" stroke="none" stroke-width="0" fill="#000000">Connect Social Media</text><text text-anchor="end" x="403" y="502.4000000000001" font-family="Heebo" font-size="14" stroke="none" stroke-width="0" fill="#000000">Connect Ad Accounts</text><text text-anchor="start" x="16" y="252.16363636363567" font-family="Heebo" font-size="14" stroke="none" stroke-width="0" fill="#000000">Overview</text><text text-anchor="start" x="16" y="452.06666666666644" font-family="Heebo" font-size="14" stroke="none" stroke-width="0" fill="#000000">Settings</text><text text-anchor="start" x="16" y="587.8333333333334" font-family="Heebo" font-size="14" stroke="none" stroke-width="0" fill="#000000">Users</text><text text-anchor="start" x="16" y="201.89696969696914" font-family="Heebo" font-size="14" stroke="none" stroke-width="0" fill="#000000">Monitor</text><rect x="0" y="51.09696969696922" width="10" height="110.73333333333332" stroke="none" stroke-width="0" fill-opacity="0.8" fill="#4285f4"></rect><rect x="409" y="-6.394884621840902e-13" width="10" height="30.19999999999996" stroke="none" stroke-width="0" fill-opacity="0.8" fill="#5e97f5"></rect><rect x="409" y="200.9999999999995" width="10" height="30.19999999999999" stroke="none" stroke-width="0" fill-opacity="0.8" fill="#db4437"></rect><rect x="409" y="40.19999999999931" width="10" height="30.200000000000074" stroke="none" stroke-width="0" fill-opacity="0.8" fill="#e06055"></rect><rect x="409" y="80.39999999999938" width="10" height="30.200000000000045" stroke="none" stroke-width="0" fill-opacity="0.8" fill="#f4b400"></rect><rect x="409" y="120.59999999999943" width="10" height="30.200000000000074" stroke="none" stroke-width="0" fill-opacity="0.8" fill="#f5bf26"></rect><rect x="409" y="160.7999999999995" width="10" height="30.19999999999999" stroke="none" stroke-width="0" fill-opacity="0.8" fill="#0f9d58"></rect><rect x="0" y="272.36363636363564" width="10" height="60.400000000000034" stroke="none" stroke-width="0" fill-opacity="0.8" fill="#33ab71"></rect><rect x="409" y="321.5999999999996" width="10" height="30.200000000000045" stroke="none" stroke-width="0" fill-opacity="0.8" fill="#ab47bc"></rect><rect x="409" y="241.19999999999948" width="10" height="30.20000000000016" stroke="none" stroke-width="0" fill-opacity="0.8" fill="#b762c6"></rect><rect x="409" y="361.79999999999967" width="10" height="30.200000000000045" stroke="none" stroke-width="0" fill-opacity="0.8" fill="#00acc1"></rect><rect x="0" y="342.76363636363567" width="10" height="20.133333333333326" stroke="none" stroke-width="0" fill-opacity="0.8" fill="#26b8ca"></rect><rect x="409" y="281.39999999999964" width="10" height="30.19999999999999" stroke="none" stroke-width="0" fill-opacity="0.8" fill="#ff7043"></rect><rect x="0" y="512.5333333333332" width="10" height="50.333333333333485" stroke="none" stroke-width="0" fill-opacity="0.8" fill="#ff855f"></rect><rect x="409" y="522.6000000000001" width="10" height="30.199999999999818" stroke="none" stroke-width="0" fill-opacity="0.8" fill="#9e9d24"></rect><rect x="409" y="562.8" width="10" height="30.200000000000045" stroke="none" stroke-width="0" fill-opacity="0.8" fill="#acab44"></rect><rect x="409" y="401.9999999999997" width="10" height="30.20000000000033" stroke="none" stroke-width="0" fill-opacity="0.8" fill="#5c6bc0"></rect><rect x="409" y="442.20000000000005" width="10" height="30.200000000000045" stroke="none" stroke-width="0" fill-opacity="0.8" fill="#7481c9"></rect><rect x="409" y="482.4000000000001" width="10" height="30.200000000000045" stroke="none" stroke-width="0" fill-opacity="0.8" fill="#f06292"></rect><rect x="0" y="232.1636363636357" width="10" height="30.199999999999932" stroke="none" stroke-width="0" fill-opacity="0.8" fill="#f279a2"></rect><rect x="0" y="391.7999999999998" width="10" height="110.73333333333335" stroke="none" stroke-width="0" fill-opacity="0.8" fill="#00796b"></rect><rect x="0" y="572.8666666666667" width="10" height="20.133333333333326" stroke="none" stroke-width="0" fill-opacity="0.8" fill="#268d81"></rect><rect x="0" y="171.83030303030253" width="10" height="50.33333333333317" stroke="none" stroke-width="0" fill-opacity="0.8" fill="#c2185b"></rect></g><g></g><g></g><g></g><g></g><g></g></svg>
