<svg height="594" viewBox="0 0 775 594" width="775" xmlns="http://www.w3.org/2000/svg"><g fill="none" fill-rule="evenodd"><path d="m0 0h775v594h-775z" fill="#fff"/><circle cx="387.5" cy="376.5" fill="#4fd1c5" r="166.5"/><g fill-rule="nonzero" transform="translate(1)"><path d="m366.06 294.41c-1.61 2.16-4.26 2.13-6.47 3-4.95 1.87-10.18 2.8-15.31 4.06-.890504.248549-1.754605.583472-2.58 1-2.1 1-4.18 2.8-6.25 2.78-2.46 0-3.24 2.74-5.68 2.28-2.08-.39-3.4 1.36-4.95 2.48-.8.57-2.62-.09-3.21.53-3.05 3.21-8 1.81-11 4.83-3-.22-5.3 1.58-7.86 2.74-1.25.58-2.86.37-4.08.5-4.851385 3.385932-10.499179 5.453459-16.39 6-2.13 2.43-4.49 4.75-8.14 5.26-1.061849.304946-2.01542.904829-2.75 1.73-1.561546 1.458753-3.689069 2.150839-5.81 1.89-1.1 1-2.61 1.84-2.82 3.84h-2.76c-2.46 1.66-4.8 3.2-7.08 4.83-.27.2-.22.87-.31 1.32h-3.21l-4.74 5h-3.43c-1.72 1.95-3.55 4-5.39 6.08-.387294.31717-.652401.759013-.75 1.25l-.26-.28-2 .15c0 .7.09 1.24.13 1.91.820772-.438218 1.539783-1.044777 2.11-1.78.097599-.490987.362706-.93283.75-1.25 1.767089-.011888 3.439078-.802149 4.57-2.16 1.19-1.33 2.72-1.51 4.13-2.18 1.95-.93 4.31-.48 6-2.55 1.12-1.32 3.64-1.45 5.61-2.15l1.18 1c3.93-4.47 10.41-3.55 15.11-6.87 4.23.26 8.2-1.67 12.29-2.66s8.36-1.4 13.08-2.91l2-1.72 1.42.9c2.070648-.65866 4.190775-1.150235 6.34-1.47 3.62-.29 3.65-.12 5.81-1.2.669293.736425 1.621125 1.152116 2.616205 1.142566s1.938759-.443431 2.593795-1.192566c1.44.12 2.56 1.87 4.41.6 1.148117-.593412 2.467573-.766745 3.73-.49 1.12.19 2 .56 3.24.05.91-.37 2.32.67 3.54.83s2.67-.08 4 .07c1.07.12 2-1.56 3.11-.18.59-1.49 2.12.89 3-.76.25-.48 2.19-.09 3.35-.1 1.34 0 2.68.09 4 0 .608248-.182794 1.175351-.481626 1.67-.88 1.82 2.71 3.66-.42 5.61-.15 2.095679.172791 4.200999.196184 6.3.07l1.9-1.9c2.21-.51 4.68.72 6.69-.74 2.18-1.58 4.54 2.6 6.53-.36h7.08l.43-1.41c2.23-.51 2.23-.51 4.59.36l.63-1.55 14.62-2.95 1.55-1.55c3.14.44 5.44-1.71 8.49-3.05h3.7c.19-.54.38-1.12.48-1.4l10.18-4.94.39.58 2.75-3.42c2.76 1.22 3.38-2.44 6-2 2.1.39 3.46-1.94 5.2-3s3.33-2.29 5.4-3.74l.42-1.16h3.15c3.52-4 8.25-6.51 12.2-10 .94-.84 2.14-1.4 3-2.27 3.466667-3.373333 6.886667-6.793333 10.26-10.26 1.39993-1.539567 3.129678-2.74287 5.06-3.52-1 3.91-2.51 5.57-4.8 8.48s-5.34 5-7.87 7.61c-4.15 4.31-7.72 9.2-13.35 12.88l-1.79.21c-.1.42-.21.87-.27 1.17-2.56 1.62-5.4 2.85-7.46 4.88s-5.77 1.71-6.89 4.94l-1.19-1.06-4 4c-.39 0-1.68-.3-1.88 0-1.29 2.22-4.32 1.44-5.63 3.46-3.34.45-5.47 3.54-8.9 4-2.262364.269676-4.275414 1.56378-5.46 3.51h-4.09l-6.06 2.89-1.92-1.2-1.67 2.62-1.36-1.22c-4.61 2.82-6.25 3.21-8.89 2.1l-3.18 1.76-13.27 1.43c-.34.35-.93.94-1.52 1.52-2.64.79-5.58-.79-8.08 1.07-1.53-1.19-3.11-1.47-4.77-.24-1.32 1-3.17-.3-4.57 1.25-.5.56-2.36-.1-4.66-.28l-3.81 1.35-1.06-.53c-3.281532.856121-6.730775.831977-10-.07-1.894906-.57518-3.905728-.654373-5.84-.23-1.31.31-2.36 1.29-3.63.06-1.2 1.83-2.21-.26-3.25-.14-2 .25-4.37-1.24-5.77 1.13-1.58-.72-2.6-1.69-4.27-.81-2.62 1.37-5.84 1-8.46 2.54-2.45-1.78-4.17.61-6.49 1-3.9-2.15-7.07 1-10.65 1.86-2.5.35-5.31-.31-7.32 1.73-1 1-2-1.42-2.56.41s-2.29.86-3.41 1.4c-.987607.445928-2.011281.807224-3.06 1.08-3.58 1.05-7.17 2.06-11.22 3.22l-1 1-4.41-.7c-.76 2.85-2.88 3.68-5.3 4.18-1.066959.205947-2.104683.54178-3.09 1-3.62 1.73-7.42 3.12-10.85 5.21-2.478415 1.509421-4.742119 3.345947-6.73 5.46-2.72 2.88-6.17 5.08-9.33 7.6l-1.42 4.32-2.84 1.47-3.45-1.64 2.69-6.87-3.48-2 .53-.81-6.08 1-1.83-1c-3.38 3.81-6.79 7.54-10.05 11.4-.820375.940497-1.308785 2.124627-1.39 3.37.02633 1.280402-.374803 2.533064-1.14 3.56-.754925 1.235405-1.104578 2.675978-1 4.12-.05 1.3-.92 3.07-.36 3.79 1.35 1.71-1.14 2.25-.57 3.58l1 1.06c0 .27.13.78 0 .9-.990893.689066-1.365909 1.976623-.9 3.09 1.4 3.6 2.84 7.17 4 10.85.56 1.72 2.25 3.06 3.34 4.63.453361.718616.851184 1.470802 1.19 2.25l8.74 3.74h5.47l2.28-2.84c2 .35 3.63 1 5.11.78 1.27-.15 2.36-1.86 4-.1-.55.71-1.14 1.43-1.68 2.18-.655454.682112-1.162746 1.492418-1.49 2.38-.56 3.12-3.08 3.83-5.46 4.61-1 .33-2.2-.08-3.13 1-.75.86 1.29 1.83-.38 2.62-.54.26-.51 1.71-.77 2.61 0 .13-.24.22-.3.28.403336 1.367527.71404 2.760684.93 4.17.16 1.83-.05 3.68.06 5.51.28 4.87.19 9.83 1.18 14.57.5 2.36.28 4.8 1 7 .804057 2.007473 1.722222 3.967337 2.75 5.87-.91 1.78-1 1.78-.91 4 1.613868.186171 2.817035 1.57611 2.77 3.2-.13 3.2 1 5.92 2.15 8.7.063726.397462.063726.802538 0 1.2 3.82 1.59 2.92 6.52 6 8.83v2.62l4 5.44-1 1 5.1 3.92v2.21l1.86.74v2c2.016677 1.198333 3.947962 2.534863 5.78 4 1.89 1.69 3.36 3.83 5.1 5.69 1.53 1.63 3.18 3.15 5.09 5v2.8c-2.67-1.45-5.45-.48-7.9-.82-2.05-1.52-4.19-2.73-5.83-4.44-1.49-1.55-2.38-3.66-3.63-5.46-.445356-.446456-.962555-.814917-1.53-1.09-2.334332-1.446586-4.239988-3.490332-5.52-5.92-1.035238-1.762149-2.216019-3.434643-3.53-5-1.22-1.64-.7-4.11-2.77-5.38-1.87-1.15-1-4.07-3.16-5.25-.63-.33-.9-1.61-1-2.5-.68-4.56-2.89-8.49-5-12.86v-4.62l-1.92-1.84c.17-5.2-1.7-10.09-2.82-15.16-.700473-2.956334-1.145445-5.967425-1.33-9-.15-3.54 1-7.2-.9-10.63-.22-.42.15-1.22.37-1.8 1.07-2.85.79-5.65-.06-8.78.37-1 .88-2.45 1.53-4.26l-2.68-1.2c-6.38-2.59-11.72-6.55-15.18-12.57-2-3.47-3.38-7.27-5.07-10.91-.26-.56-1-1.08-.95-1.59.35-6.08-1.79-12-1-18.11.26-2 1-3.92 1.42-5.9-.011375-.684414-.143398-1.361455-.39-2 1.24-2.39 2-5.25 4.45-7 .52-3.79 3.85-5.47 6-8 2.49-2.94 6.23-3.48 9.48-4.93.924056-.337925 1.953081-.223177 2.78.31 1.75 1.64 3 .07 4.38-.38l4.27 2.9c2.41-.82 1.26-3 1.79-4.58 1.29-3.8 2.4-7.68 3.88-11.41 1.38-3.44 2.69-6.92 4.13-10.3 1.33-3.13 4-5.68 6.16-8.47 1.05-1.38 3-2.12 2.77-4.4-.05-.57.89-1.31 1.49-1.84 1.566984-1.586206 3.304155-2.994723 5.18-4.2 2.6-1.45 4.1-4.12 6.51-5.8 3.54-2.48 6.95-5.13 10.78-8h2.43c.2-.27.38-.52.57-.75.9-1.1 1.75-3.06 2.72-3.12 3.77-.23 5.45-3.22 8.07-4.83 2-.85 4.29-1.31 5.89-2.62 4.37-3.59 9.66-4.91 14.78-6.7 1.76-.62 3.62-.93 5.45-1.38.11-.44.23-.89.35-1.35.12-.1.25-.3.37-.29 3 .31 5.47-1.31 8.17-2.07 2.196736-.71939 4.341734-1.588081 6.42-2.6 1.75-.77 3.4-1.65 5.46-1.38 2.94.37 5.63-.58 8.39-2.1l1.59 1c2.43-.48 5-1 7.61-1.49s5.3-.95 8-1.35c2.637957-.484125 5.330479-.598557 8-.34-.81.44-1.63 1.27-2.42 1.25-1.289149-.152567-2.581805.255257-3.55 1.12-1.92 2-4.95-.2-6.73 2-3.85.06-7.3 1.57-10.78 3-.4609.067159-.9291.067159-1.39 0l-2.62 3.25-.38-.58c-1.42.61-3.11.91-4.2 1.88-2.5 2.26-5.58 2.66-8.59 3.53-2.5.73-5.25 1-7.21 3.13-1.28 1.37-2.57 1.16-3.72-.11-4 3.95-9.2 5.86-14.26 7.88-3.08 1.23-6.18 2.29-8.55 4.75-1.25 1.29-2.46 2.13-4.57 1.69-1-.22-2.41 1.17-4 2l-1.45 2.5-3.55.19-2.61 3.9h-2.35c-1 1.09-2.85 2.15-3.16 3.54-.48 2.08-2.67 1.52-3.35 3.07-.45 1-1.52 1.43-2.85 1.55-1.107122.286012-2.038906 1.032168-2.56 2.05-1.074305 2.336589-2.951382 4.210118-5.29 5.28-.72.34-1.07 1.48-1.71 2.44l-2.24.26c-.91 2.83-2 5.53-4.37 7.71-1.40917 1.458757-2.361508 3.297395-2.74 5.29-.41 1.89-1.13 2.91-2.78 3-.51 1.68-.94 3.13-1.38 4.58l.48.22c1.15-1.31 2.09-3 3.51-3.83s1.4-4 4.12-3.1c1.34-1.19 2.65-2.43 4-3.57s3-2.43 4.55-3.54c2.7-1.94 5.46-3.81 8-5.57l4.25-1.6.41-1.69h2.44l2.48-3.1h3.59l1.82-2.92c4.75.07 7.76-3.93 12.42-6 3.3.42 6.49-1.25 9.25-3.81 1.353481-1.37028 3.167128-2.189807 5.09-2.3 1.71-.11 3.7-.18 5-1.08 1.387994-1.01986 2.940449-1.794396 4.59-2.29 2.259671-.571588 4.439666-1.421417 6.49-2.53h5.2l1.72-2.26 1.06 1 1.36-2.25.67.81 7.1-1.9c1 .17 2.41.85 3 .41 1-.76 1.48-.62 2.21 0l1.39-1.38 31.35-7.42z" fill="#6c46c0"/><path d="m542 461.39c.277344 2.931384.390854 5.875964.34 8.82 1.52 1.39 1.82 3.18 2.08 5.17.380789 3.112086 1.050342 6.181986 2 9.17.742303 1.777724 1.01437 3.716633.79 5.63l2 1.79v4.35l.6-.14 3.25 9.62c2.39 1.51 3.26 4.92 3.88 8.77l-1.91 3.73c.68.21 1.15.53 1.54.46 1.336903-.422379 2.709103-.723593 4.1-.9 1.36 0 2.71.79 4.09.88 1.276071.02721 2.361587.938046 2.61 2.19l-8.9 4.74c-1.20761-.347385-2.43263-.631109-3.67-.85-4.26-.59-8.39.78-12.6.95-5 .2-9.74-1.47-14.61-2.22-1.8-.28-3.49-1.24-5.27-1.73s-3.41-.63-5.09-1.05c-.871162-.308637-1.725654-.662449-2.56-1.06-1.1588-.456053-2.352725-.817241-3.57-1.08-1.93-.63-2.57-3.58-5.32-2.81-.83-3-3.55-3.79-5.85-5-.842644-.392746-1.663804-.83003-2.46-1.31-.67-.46-1.13-1.49-1.82-1.64-4.9-1.07-6.09-5.53-8.53-8.78l4.21-3.57-.65-.81c.78.13 2.13.06 2.24.4.79 2.32 4.11 2.45 4.31 5.15 3.49 1.84 5.53 5.77 9.78 6.6 1.678407.305888 3.265161.989834 4.64 2 3.29 2.57 7.21 3.58 11.29 5.08-.69-2.58-1.33-5-2.14-8.07l-1.8-1.28.76-.48c-1-2.94-1.9-5.89-2.86-8.83l-.5.14v-8.09c-1.26-1.2-2.4-2.39-2.2-4.55.12-1.35-1.64-2.51-.29-4.38.69-.95 0-2.86 0-4.83l1.29-2.47c.08 1.42.13 2.19.21 3.48.914698.749877 1.779844 1.558237 2.59 2.42.779963.99145 1.497995 2.030091 2.15 3.11-2.32 3.11 2 5.07 1.35 8.25-.55 2.81.65 6 1.1 9.21l1.5.39c.09 1.21.18 2.62.3 4.29l.77.91c.76186.830706 1.469964 1.709155 2.12 2.63 1.13 1.85 1.7 4.45 3.31 5.5 1.8 1.18 2.19 3.87 4.71 4.07.11 0 .14.87.23 1.45 1.78 0 3.85-.62 5 .15 1.76 1.19 2.88-1.12 4.5 0l1.66 1.83c1.74-2.23 3.55-.15 5.93.18-2.41-3.51-3-7.27-5.27-10.2-1.8-2.31-.65-5.06-1.08-7.57l-1.77-1.77c-.591574-4.826549-1.694434-9.576559-3.29-14.17-.870846-2.682856-1.539385-5.427209-2-8.21-.305736-2.644184-.864976-5.252852-1.67-7.79-.77-2.16-1.81-4.51-1.22-7 .43-1.84-.61-3.41-1-5.1s.56-3.64-1-5.09c.45-3.55-.79-7.18.73-10.71.55-1.27.29-2.88.44-4.85l4.78-4.46-3.85-1.74v-4.8l4.2-1.19 2.19 3.35c1.59 0 2.25.06 2.9 0 2.53-.3 5.44 0 7.5-1.16 2.25-1.28 5 .29 6.78-1.83 3.3 0 4.63-3.19 7.21-4.35.56-.24 1.07-.57 2-1.06.65-2.6 2.51-5.09 3.45-8.14 2.71-8.88 2.21-13.43.38-20.23-.63-2.37 0-5.1-2-7.19-.972716-1.237908-1.864567-2.537273-2.67-3.89-.907508-1.476556-1.909601-2.892848-3-4.24-1.15417-1.085777-2.383924-2.088294-3.68-3-2.53 1.16-5.18-2.81-7.69-.24l-2.59-.78-4.65 4.67c2.13 3.92-1.78 7.93-.54 11.07-1.24 3.66-2.21 6.52-3.37 9.92-.85-7-.72-9.61.45-11.92-1.26-2.42-3.12-4.32-3.27-7.32-.08-1.49-2-2.79-2.62-4.37-1.47-4.09-3.79-7.31-7.78-9.24-.589837-.301801-1.038399-.822134-1.25-1.45-.523386-2.085718-2.26793-3.639948-4.4-3.92-2.29-.31-3-3-5.41-2.74-.44 0-1-1.41-1.87-2.58-1-.61-2.85-.71-3.8-2.78-.65-1.41-2.62-2.23-4.06-3.24s-2.26-2.89-3.69-4.11c-1.186194-1.236471-2.298139-2.542089-3.33-3.91-1.36-1.48-2.82-2.85-4.24-4.27-.62-3-1.55-5.82-5.25-7.12-.26-1.53.37-3.64-1.71-5-.83-.54-.91-2.22-1.35-3.37-1.24-3.33-2.58-6.61-3.92-9.89-1.193193-2.742982-1.916614-5.667089-2.14-8.65.007117-2.546737-.418958-5.076135-1.26-7.48-1.39-3.27-.31-6.51-.61-9.73-.07-.75.87-1.6 1.29-2.3l3.42 1c.471749 1.272499.869086 2.571359 1.19 3.89.31 1.57-.09 3.46.65 4.73 1.1 1.9-.55 3-.68 4.71l2.17.62c-.33 1.28-.65 2.58-1.13 4.45l2 1v6l1.78.37c.28 4.72 3.74 8.23 5.53 12.51.86 2 1.94 3.92 1.74 6.13l3.81 2.44.33 2.72c1.246537 1.15902 2.626179 2.166058 4.11 3 1.69.74 1.33 3.15 3.51 3.49.88.14 1.44 1.82 2.33 2.57 1.298621 1.128055 2.6537 2.189422 4.06 3.18 3.43 2.36 7.42 4.15 9.67 8.07 1 1.72 3 2.38 5.82 2.88l1.72 3.58c2.78 1.53 6 5.47 8.1 10.27 4.39-4.09 4.84-4.37 8.31-5.12.85-1.37-.47-2.38-.58-3.48-.28-2.89-2.86-5-2.37-8.07-2.42-1.69-2.15-4.79-3.67-7-1.05-1.53-1.85-3.22-3-4.77-1.52-2.1-2.5-4.59-4.25-8-2.59-1.92-4.11-6-5.89-9.87-1-.73-2.8-1.43-2.82-2.19 0-1.78-1.45-1.44-2.2-1.78v-2.16c-2-2.25-3.81-4.68-6-6.53-5-4.13-8.87-9.42-14.38-12.9-.79-.5-1.73-.43-1.74-1.76 0-.48-1-1.44-1.32-1.34-2.45.84-3.35-1.7-5.09-2.38s-3.91-.51-5-2.61c-.23-.46-1.66-.3-3.07-.51l2-2.76 9.66 1.43 7.07 4.71c1.9-.06 3.69 1.23 5.25 2.92 2.306572 2.685381 5.160267 4.846962 8.37 6.34l1.3 3.12c7.48 4.86 11.37 12.49 16.83 19.92v2.23l3.15 3.55 3 3.39c-.09 2.92-.11 5.52 2.9 7.4 1.35.84 1.76 3.19 2.62 4.91 0 .53-.48 1.56-.14 2.13 1.43 2.41 2.45 5 3.76 7.45 1.17 2.16.24 4.86 2.39 6.79 1.74-3.58-.75-6.81-.63-10.19s1-6.89-1-10.09l1.05-1.3c-.73-3.22-2-6.43-2-10 0-3.35-.79-6.7-1.27-10.37-.29-.3-.88-.89-1.29-1.29-.47-4.05-.61-8-1.46-11.7-.62-2.69-1.68-5.31-2.29-8.05-.78-3.5-1.77-6.95-2.72-10.64l-3.88-3.5.56-.42c-1.76-3.27-3.46-6.57-5.32-9.77-.33-.58-1.3-.78-2-1.17l-2.19-4.62c-3.14-3.34-7.81-3.54-9.6-8.18l-14.26-3.08c-1.17-3.13 1.92-3.84 2.91-5.61.343388-.036136.680005-.120291 1-.25 2.74-1.76 5.79-.69 8.11.22 2.95 1.16 6.17 2.33 8.49 5 1.2 1.36 3 2.17 5.17 3.66 0 0 .05.76.09 1.26l4.86 4.12-.43.31 3.22 5.52c2.33-.18 1.63 2.1 2.19 3.12s2.83.55 2.28 2.48c0 .16.67.51.64.69-.45 2.49 1.71 4 2.16 6.12s2.64 3.7 2.12 6.15c2.88 7.38 4 12.61 4 18.95l2.14 2.25c-.442851.787248-.811121 1.614181-1.1 2.47-.094525.777136-.094525 1.562864 0 2.34l1.93 1.93c.31 3 0 6 .93 9 .88 2.84-.53 6.17 1.19 9-.39.42-.72.78-1.19 1.27.37.8 1.24 1.77 1 2.45-.45 1.64 1.16 2.9.28 4.79-.56 1.19.33 3.45 1.2 4.82 1.06 1.64.46 3.2.58 4.78.15 1.83-.13 3.69.08 5.5.27 2.36.68 4.8 2.82 6.31.776094.421028 1.607582.730732 2.47.92l3.4 4.18c.89 2.63 1.25 5.27 2.58 7.26 2.38 3.55 2.85 7.67 3.52 11.53.76 4.43 1.91 9 1.2 13.58-1 6.19-1.59 12.42-5 18-3 5-6.6 9.36-12.05 11.84-.346902.095338-.713098.095338-1.06 0-.13 0-.23-.22-.67-.66-1.08 8 1.18 15.31 2.6 22.85-.19.2-.53.56-.79.85 1.368167 2.006024 2.068097 4.392784 2 6.82 1.59 4.59 2.91 7.9 3.88 11.3 1.86 6.46 5.62 12 8.29 18.11.93 2.13 2.9 3.84 4.53 5.62 1.473418 1.370394 2.285852 3.308577 2.23 5.32 4.073811 3.613243 7.461522 7.932574 10 12.75v3.77l4.38 6.42c-1.65.89-1.71-.72-2.41-1.1-.70563-.448577-1.311505-1.037433-1.78-1.73-1.883288-2.430091-4.602796-4.073201-7.63-4.61-1.417461-3.787625-3.262744-7.401026-5.5-10.77-2.32-3.4-5.1-6.67-6.29-10.89-.54-1.87-2.35-3.38-3.3-5.15-1.82-3.58-4.29-7-5.25-10.79s-2.88-7.19-4.21-10.81c-1.39-3.83-1.4-8-2.91-11.81-1.374688-3.643355-2.379738-7.415643-3-11.26-.72-4.1-.89-8.31-1.32-12.76-1.657652.480352-3.354102.814958-5.07 1-1.841827-.095231-3.671974-.349511-5.47-.76l-.34 2.18 3.4 2.77-1.25 1.38c.817094 2.696329 1.445283 5.446324 1.88 8.23.320489 2.973258.947146 5.905475 1.87 8.75.64 2.13.12 4.61.12 7.08l2 1.56v6.29l2.18 2.18c-1.22 4.18 3.25 6.3 4 10s4.34 6.1 5.82 9.66v4.28c2.33 1.21 4.42 2.39 5.14 5 2.84.61 1.52 4.38 4.29 5-.69 1.39-1.23 2.47-1.78 3.59-1.43-1.87-3.46-.57-5-1.09-2.48-2.05-4.53-4.28-5.47-7.34-.17-.56-.39-1.45-.75-1.55-3.31-.85-2.86-4.22-4.32-6.29-.51-.73-.59-1.76-1-2.56-2.014845-3.825888-3.765599-7.785131-5.24-11.85-.92-2.29-1-4.78-2.57-7-1.25-1.76-1-4.56-1.52-7.24l-1.48-1.48c-.72-1.84.55-4.09-1.54-6 .71-5.74.7-5.84-1.41-11.47-1.15 4.12 1 7.87 1.38 11.51zm-1.83-17.54h-.86c.12.56.24 1.12.37 1.67l.49-.06z" fill="#6c46c0"/><path d="m641.93 313.65c-2.62 2.25-4.93-1.56-7.4-.22-1.84-2-4.53-.58-6.77-1.84-2.08-1.17-5-.95-7.34-1.32l-7.83-5.27c.217384-.528916.628823-.954666 1.15-1.19 1.49-5.59 2.53-10.5 4.11-15.22 1.53-4.53 4.26-8.6 4.82-13.56.14-1.2.82-3.31 3.09-3.23-1.177252-2.507875-3.297948-4.448851-5.9-5.4-2.033687-.896945-3.89501-2.14234-5.5-3.68-2.075293-1.984168-4.738942-3.24054-7.59-3.58-.44-1.89-1.35-3.29-3.38-2.89-3.41-2.4-6.64-4.71-9.91-6.94-.34-.23-1 0-1.48 0-2.83-2.85-6.34-4.78-9.52-7.13-3.8-2.82-8.3-5.08-10.46-9.76-.65765-.963321-1.429983-1.843109-2.3-2.62l2.8-.56c9.55-10.24 16.26-22.55 27-31.29v-2.29c2.75-2.22 4.73-5.33 8-7.12 1.24-.67 1.84-2.52 2.78-3.91-.19-.33-.7-.83-.75-1.37-.091948-1.740279-.380449-3.464573-.86-5.14-.49-1.62-1-3.25-1.56-4.87-.782359-1.869738-1.30391-3.838173-1.55-5.85-.21-2.89-1.31-5.47-2-8.2-.43-1.81-1.76-3.49-1.17-5.58.13-.46-.41-1.13-.67-1.69-1.178447-2.726446-1.953256-5.610083-2.3-8.56-.26-1.88-.22-4-1.1-5.53s-.49-3.18-1-4.63c-.43655-1.339408-.770843-2.710009-1-4.1-.34-1.95-1.34-3.78-1.9-5.7-1.57-5.37-3.11-10.76-4.41-16.2 0-.14-.22-.24-.34-.36l1-3.51 1.71-.69v-5.11l1.51-1.5 2.14 3h1.48l3 3c-.23.42-.54 1-1 1.73 1.49.84 1.82 2.51 2.2 4.18.14.59.63 1.15.64 1.72.14 5.61 2 10.75 4.06 15.89l-1 1.15 1.69 1.52c1.05 4.75 1.72 9.39 3.23 13.87.302009 1.063645.763952 2.0752 1.37 3 1.148292 1.329205 1.786324 3.023534 1.8 4.78-.06 1.17.69 2.37.91 3.59.243121 2.205597.61037 4.395738 1.1 6.56.715752 1.750228 1.603435 3.425103 2.65 5l-.77.85 2.31 6.23c2.15-.78 2.92-2.83 3.65-4.54.677031-1.690808 2.068677-2.99456 3.8-3.56 1.42-3 2.6-6.43 6.18-8.1.09-.77.17-1.56.25-2.28 2.35-2.51 5-4.62 6.19-8 .73-2 2.74-3.52 4.11-5.3.67-.87 1.2-1.83 1.78-2.76 1.51-2.43 2.8-4.92 4.87-7s3.2-5 5-7.38c3.289784-4.230178 6.296338-8.673198 9-13.3 3.06-1.2 4.32-3.91 5.48-6.66.273048-.848172.473765-1.717948.6-2.6l-2.55-.93 6.11-1.3c2.29 1 5.36 2.49 8.48 3.82 2.22.94 3.71 2.84 5.73 4.07 3.6 2.21 8.25 2.85 10.41 6.94h2.38c.18.55.38 1.12.63 1.85.439804.005878.87691.069763 1.3.19 3.39 1.38 6.87 2.57 9 5.94 1.43 2.28 4.28 2.58 6.3 4.06 3.59-.47 5.76 2.35 8.39 3.87 2.14 1.23 4 2.45 6.57 2.09l1.84 3.06c.35 0 1.3-.3 1.88.05 5.09 3 10.77 4.84 15.59 8.35.93.68 2.42.6 3.81.9l4.59 4.59 2.23.23 5.36 5.36v4.63c-.72 1.28-1.36 2.36-1.94 3.46-.29.54-.34 1.39-.77 1.65-1.344332.686626-2.40576 1.822354-3 3.21-.43 1.31-.09 2.87-.09 4.63 1.16 0 2.29.07 3.41 0 1.122218-.228618 2.257846-.385601 3.4-.47 1.095338.187253 2.16564.499284 3.19.93-1.885996 4.156533-2.971615 8.631318-3.2 13.19-.28 4.26-1.92 8.36-1.92 12.7-2 1.74-.5 4.08-1.39 5.95-.87 2.47-2.24 4.89-2.51 7.42-.45 4.28-2.66 8.21-2.21 12.68.15 1.42-.63 3-1.31 4.41-1.580273 3.086582-2.480499 6.47607-2.64 9.94 0 .89-.67 1.73-.84 2.63-.43 2.34-.73 4.7-1.13 7.05s-.83 4.69-1.31 7.39l-1.7 1.69c0 3.58.42 7.49-1.85 10.94-.31.47-.06 1.29-.15 1.93-.24 1.72.46 3.44-.84 5.19-1 1.28 0 3.26-1 5.1s-.2 4.57-.2 6.88l-1.55 1.55c-1.53 9.69-3 19.1-4.5 28.54-2.32.94-4.29 2.21-4 5.53-2.5-.3-4.92.48-7.71-.85l-1.08 2.07-4-1c-.329111.31696-.736217.541213-1.18.65-1.32.13-2.67 0-4 .06-2.71.2-5.41-.38-8.16.83-1.3.57-3.32-.56-5-.83s-3.4-.43-5.6-.7c.1-.07-.28.23-.93.75-2.82-2.17-6.68-.19-10.16-1.75l-.8.75-5.58-2.05-1.36.82c-1.34-.26-2.86-.53-4.37-.84-1.85-.39-4 .93-5.59-1-1.75 1.75-3.36-.92-5.18-.25-.23.09-.94-.38-1.77 0-1.063023.384165-2.226977.384165-3.29 0-3.018805-.932001-6.143866-1.476366-9.3-1.62-3.61-.24-7-.52-9.79-3.09-.571595-.365419-1.195375-.641905-1.85-.82zm54.14-196.55c-2.58-4-7.53-4.87-11.12-7.86-3.36-2.8-7.79-4.3-12.18-6.6-.09 1.22-.15 2-.17 2.35-2.11 3-4.36 5.59-5.79 8.55-.878679 2.216129-2.245946 4.205503-4 5.82-1.17.94-1.4 2.52-3 3.31-1.11.54-1.5 2.58-2.17 4-.2.41-.12 1.05-.41 1.31-3.400642 3.232734-6.405044 6.858157-8.95 10.8-1.526486 2.009106-2.913087 4.120748-4.15 6.32-.508626 1.155195-1.231351 2.203656-2.13 3.09-1.23 1.11-1.39 3.23-3.41 3.54-.67 3.66-3.84 5.47-6 8 .72 3.22-3.52 3.67-3.23 6.66h-2.74v1.92l-6.12 7.49c.11 1.29-.08 2.86.42 4.16 1.32 3.47 1.35 7.31 3.57 10.56 1.07 1.58 1.31 3.81 1.63 5.79.74 4.52 3.08 8.74 2.42 13.4l1.57 1.56c1.21 4.08 1.31 7.94 1.63 11.81.31 3.67 2.05 7.21 1.84 10.93l-2.19 1.53c-4.18-3.61-3.17-10-7.52-12.53-1.4-5.78-5.15-9.79-7.27-14.64-.22-2 .14-4-.92-6.09-1-1.9-1-4.3-1.3-6l-3.8-7.85c-3 5.86-7.48 9.61-11.51 13.76-1.24 1.28-2.41 2.65-3.53 4-3.22 4-6.4 8-9.59 12-2.72-.13-2.32 2.76-3.75 4s-3.09 2.32-3.81 4.38c-.34 1-1.85 1.54-2.88 2.32v2.48c3.62-.12 4.17 3.87 6.94 5.41s5.26 3.51 8.06 5.41c1.54-.5 2.43.91 3.39 2 2.409545 2.849872 5.763662 4.738116 9.45 5.32 1 1.49 1.65 3.49 2.65 3.67 2.87.57 4.78 2.35 6.89 4 .43.33 1.27.13 1.68.16 1.95 1.46 4 2.58 5.48 4.18s3.84 2.28 5.51 3.6 4.11 1.46 5.76 3.31c1.32 1.49 3.78 2 5.72 2.92s3.91 2.92 5.75 2.78c2.67-.2 3.61 3.15 5.91 2.32 1.538326 1.232081 3.158739 2.358017 4.85 3.37 2.585819 1.383627 5.281681 2.550942 8.06 3.49 3 .95 6.1 1.42 9.53 2.19 2.358493-3.767226 5.499488-6.983251 9.21-9.43.278357-.183489.516511-.421643.7-.7 2.932681-4.275635 6.264265-8.263491 9.95-11.91.632657-.515468 1.173613-1.134186 1.6-1.83 1.55-3.28 4.06-5.76 6.51-8.33 2-2.1 3.73-4.45 5.53-6.71.485744-.805096 1.020066-1.579863 1.6-2.32 4.441376-4.436227 8.366359-9.360906 11.7-14.68 1.41-2.14 2.91-4.63 5-5.8s2.68-2.85 3.77-4.49c.582661-.638964 1.256619-1.18824 2-1.63v-1.95c1.68-1.67 4.1-3 4.81-5 1.25-3.47 4-5.43 6.17-8-.073323-1.930668.718684-3.793352 2.16-5.08 4.217198-4.30421 7.53804-9.402739 9.77-15 1.66-4.34 5.1-7.48 6.84-11.68 1.85-.67.69-2.8 1.79-3.76 3.72-3.25 3.58-7.89 4.47-12.16 0-.23-.27-.54-.41-.82l-.32.26-1.74-2.14-5.36-1.46c-2-2.35-4.37-4.68-8-5.11-.59-.07-1.6-.39-1.64-.69-.27-2-2-1.48-3-2.18-1.38-1-2.47-2-4.32-1.8-.473892.01347-.926259-.197882-1.22-.57-1.11-1.76-2.84-1.35-4.45-1.4-1.60602-1.786523-3.586422-3.196706-5.8-4.13-1.888272-.662339-3.737852-1.430215-5.54-2.3-3.48-1.74-5.72-5.61-10.06-5.95l-14.2-9.65zm11.08 147.24c-1.72-2.06-4.09-.42-6.77-.38-.36-.92-.72-1.85-1-2.63l-3.48 2.15c-.21 1.08-.39 2-.51 2.62-3.28 1-3.94 3.82-5.13 6.16-1.321729.057055-2.428999 1.019177-2.67 2.32-1.007021 2.783794-2.942246 5.135728-5.48 6.66-2.82 1.88-5.87 3.57-8.74 5.35-2.922715 1.958968-6.39483 2.932982-9.91 2.78-3.65-2-7.45-2.88-10.16-5.71-.34-.36-1.28-.07-1.85-.3-3.32-1.34-7.33-1.39-9.23-4.95-5.24 0-8.88-2.77-12-5.84h-3.22c-1.25 5.23-3.43 10.07-2.2 15.58l-2.32 1.69c.73 5.91-3.6 10.72-2.82 16.43 1.539007-.018596 3.076193.112015 4.59.39 3.159904 1.048027 6.452973 1.640645 9.78 1.76 1 0 2.46-.42 2.92.08 1.65 1.75 4.26.08 5.78 1.91s4 .63 5.91 1.42c1.58.63 3.62.08 5.24.66 5 1.8 10.27 1.48 15.34 2.8 4 1 8.37.81 12.57 1.14.33 0 .78-.14 1 0 1.87 1.5 4.13 1.26 6.1.87 2.18-.43 4.13 2.79 6.23.2 4.07 2 8.4.37 12.57 1 .715944.224013 1.391224.561653 2 1 2.74-1.25 3.56-1.29 6-.6.87.24 2.24.72 2.62.33 1.18-1.19 2.5-.71 3.74-.74 3.67-.07 7.35-.12 11 0 2.456735.272712 4.898428-.627639 6.59-2.43.1-1.4-.24-3.09.39-4.26 2-3.77.75-8.51 3.66-11.95-1.37-1.76.07-3.61.32-5.18.29-1.85.6-3.72.79-5.62.26-2.71 1.45-5.31 1-8.11 2-1.76.3-4.2 1.09-6.05.71565-1.915379 1.025532-3.958558.91-6l2-2c-.159681-1.590526-.139554-3.193983.06-4.78.92-4 2.39-8 1.94-12.21 2.23-1.76.11-4.45 1.38-6.44s.22-4.5.68-6.55c.94-1.29 1.6-2.25 1.2-4-.27-1.18 1.45-2.67 1.68-4.12.61-3.75 1.81-7.35 2.19-11.17.26-2.69 1.59-5.29 2.76-8.89.522052-2.469868.876196-4.972263 1.06-7.49.08-3.11 2.11-5.59 2.24-8.61 2.05-1.48-.17-4.08 1.69-5.87 1.36-1.3.7-3.74 1.31-5.42.686192-1.972863.935277-4.071321.73-6.15-3.8.39-7.47-.81-10.62 1.33-.5 1.75-1 3.4-1.61 5.59-1.41 1.56-3.87 3.18-3.71 6.36-.023172.314895-.193703.600349-.46.77-2.9.74-2.55 3.61-3.42 5.54-.553133 1.633538-1.411701 3.147061-2.53 4.46-.65.67-1.23 1.42-1.75 2 1.16 2.17 2.47 0 2.69.23 1.14 1.24 2.49.84 3.73.76 1.053293-.192412 2.080333-.507908 3.06-.94l2.9 1.71c-1 1.43-1.94 2.83-3 4.3-3.81-.5-7.82.84-11.48-1l-2.74 1.37c-.42 1.27-.9 2.74-1.65 5l-4.33 4c-.5 4.17-4.22 6.14-5.53 9.53l-2.37.24v3.7h4.38c.89-.82 1.59-1.46 2.14-2l8.89 2.91c2.093066-2.001546 4.755343-3.304734 7.62-3.73.27 0 .61.53 1.15 1-1.21.81-2.21 1.46-3.15 2.08-.62 1.55.53 3.54-2 4.79-2.17-1.2-4.4 2.37-7.21.71 0-.42 0-.75-.06-1.28l-5.5-1.6-2.65 3.3-10.51-1.32c-.531156 2.109696-1.692778 4.007362-3.33 5.44-2.33 2.42-3.24 6-6.37 7.84-.71.43-.76 2-1.37 3.72l-5.28 4.93c4.7 1.63 9.25-1 13.27-.62l2.19 3.06.88-.89 1.91 1 2.47-2.36 2.9.82 4-2.56 4.44 3 1.52-2.34c1.86.84 3.41 1.53 4.94 2.27.19.09.25.44.37.67l-1.76.64-.2 3.57h-6.53c-1-1-1.84-2.45-4.11-1.7l-1.76 2.75c-5 .39-9.91 0-14-3.07zm-83.15-51.71 2 5.68 1.3-.24v-3.73z" fill="#000"/><path d="m346.44 18.32h-2.84l-1.87-2.91-9.28-1.44-.21-1.05-7.73-2.64c.34 2.16.67 4.27 1.07 6.79l1.71 1.8c0 2-.14 4 0 6 .275866 4.9603107-.578987 9.9184615-2.5 14.5-.89 2.33-1.21 4.87-2 8.25l-2.53 2.26v2.86l-1.93 2.19 1 1-1.82.61c-.81 6.31-6.42 9-10.35 13.48 2.61 1.56 5.45 3 8.3 2.22s5.49 2.85 8.21.34c1.21.59 2.4 1.56 3.7 1.74 3.84.52 7.73.67 11.59 1.09 2 .22 4 .7 6.18 1.08v4.51c-.15.09-.42.38-.69.38-4.65 0-9.39.53-13.71-2-.483243-.1411113-.996757-.1411113-1.48 0-4.78.7-9.39-.88-14.1-1.21-2.66-.18-5.37-.83-7.47-.79l-9.58-4.89h-3.38c-1.67-2.13-4.47-2.69-5.48-5.39-.38-1-1.19-1.83-1.08-3.06 0-.46 0-1.14-.25-1.37-3.66-3.06-2.58-8-4.49-11.69-.21-.41 1-1.44-.21-2.08 1.94-1.77.49-4.07 1-5.7l-1.22-2.39c2.35-4.07 2.81-8.46 3.36-13.05 1.605694-1.6441345 2.675977-3.7358937 3.07-6 .4-2 1.86-3.87 2.79-5.83s3.38-3.5 3-6.13c1.75-1.74 3.21-3.66 5.11-5 1.73-1.2 3.93-1.73 6.07-2.62l1.42 1 1.77-1.77 1.6.93 3.47-2.34 7 4.19c3.21.08 6.21.46 8.9 2.74 1.613929 1.45006904 3.919321 1.83949332 5.92 1 2.25 2.35 4.34 4.59 7.86 4.35 1.45-.09 1.83 2 3.66 2.08 2.43.16 5.28.6 7.09 2 3.23 2.54 7.77 1.5 10.7 4.67.84.89 3 .74 4.48 1 3.71.74 6.76 3.23 10.67 3.45 1.49.08 2.81 2 4.35 2.69 2.364277.989924 4.948831 1.3349913 7.49 1l4.43 3c3.24-.62 6.08 1 8.39 3.85l11.23 1.5c1.3.78 2.87 1.83 4.54 2.67 4.27 2.17 6.18 3.52 8.12 6.7.78 1.29.86 3 1.5 4.37s2 2.6 2.31 4c.41 2.09.11 4.32.11 6.84 2.76 0 5.39.48 7.38 3.13 4.43-.63 8.25 2 12.47 3.1 1.834584.619009 3.764634.9068234 5.7.85l1.69 2h4.38l-.11.49c2.289032.9410008 4.625531 1.7621135 7 2.46 2.46.61 5.24.3 7.48 1.29 2.59 1.13 5.11.62 7.77.92l.52 1.47c.9.37 2 .84 3.14 1.27s2.5.41 3 1.13c1 1.47 2.62.57 3.46 1.41.69.69.07 2.68 2.13 1.61.13 1.18.21 2 .29 2.74l1.58.58c.51 4.17 1 8.18 1.51 12.45l1.84 1.93c-.39 3.2.58 6.46-.93 9.66-.49 1-.79 3 .69 4.08l-2.82 2.56v4.64l-2.85 3.01-.26 2.3c-2.49 1.09-5 1.85-6.09 4.87-.37 1.05-2.27 1.56-3.68 2.44-3.281836.399509-6.607341-.214646-9.53-1.76-1.432974.875444-3.209706.973108-4.73.26-3.459085-1.371159-7.203514-1.865836-10.9-1.44-.56.05-1.08.6-1.35.77-1.752551-.39691-3.535608-.644464-5.33-.74-1.89 0-3.75-.38-5.75.6-1.18.57-3.22-.61-5.55-1.17l-1.34-1.27-4.7 1.56v-1.61c-2.35-.21-4.7-.72-6.47.52l-8.35-1.27c-.81 1.21-2.49.65-3.84.49-1.83-.21-3.57-1.19-5.4-1.36s-3.59.36-5.38.39c-.780933-.125526-1.534943-.382498-2.23-.76-1.89 1.34-4.08 1-6.29.4-1.86-.49-3.69-1.09-5.56-1.49-.76487-.22778-1.588975-.141411-2.29.24-1.19 1.17-2.56.28-3.68.76l-1.83-1.86c-.298831-.118307-.611237-.198928-.93-.24-3.18 0-6.54.65-9.47-.19s-6.08-.51-9.05-.92c-.92-2.27-2-4.24-4.86-3.91l-7.48-7.47v-1.93c-4.42-1.92-2.47-7.55-5.78-9.9-.44-2.64-1-5.13-1.22-7.66s.19-5-.1-7.5c-.43-3.65 1-7 1.18-10.61 0-1.22.69-3.06 2.35-3.24l2.87-8.61c2.75-2.3 4.94-6.18 9.34-7.4.607334-.2763476 1.078995-.7840134 1.31-1.41.76-1.93 1.72-3.43 4.12-3.44.51 0 1.11-.61 1.53-1.07 2-2.17 4.58-2.73 7.33-2.86 1.83-.09 3.68.06 5.5-.06.671926-.1184005 1.32029-.3446527 1.92-.67l10.75 2.2 1.94-.91c.12-3.57-2.74-6-4.39-9.34-3.32-.76-5.68-4.14-9.34-5.28-3.49-1.09-6.94-2.33-9.9-2l-11.89-5.91c-3.77-.07-3.68-.27-8.86-2.71-1.78-.84-3.79-1.29-5.52-2.36-1-.61-1.92-1.25-3.11-2.03zm86.11 48.68-13.17-4.27c-1.52-1.46-4-2.44-7.52-2.07l4.59 6.18c-.18 3.87 0 7.7 3.45 10.58l-2.37 3.88c3.23 1 .83 4.57 2.61 5.74-.36 2.25-.65 4.12-1 6.17l-1.6 1.6c-.46 4.62-.65 9.36-5.37 12.44v2.89c-1.72.88-3.72.79-4 3.05-2.06 0-1.7 2.72-3.14 3-2.77.65-2.74 3-4 5.06l11.57 1.63c3.37 2 3.37 2 8.2.69.46-.12 1.09-.29 1.43-.09 2.91 1.71 6.08.66 9.11 1 .610196.191003 1.18461.481589 1.7.86l1.07-1c3.09 2 6.63.67 10.74 1.36l1 1.88 2.13-2.13c1.56 2.06 3.12.65 4.62 0l3.57 1.89c3.08.06 5-2.86 7.9-2.94 1.62-2.59 4.54-3.87 6.38-6.55v-2c3.046798-1.950181 4.654836-5.51532 4.1-9.09-.05-.41.35-.86.41-1.31.22-1.76 1-3.75.45-5.23-1.43-3.76-.77-8.24-4.45-11.33l2.87-3.4 2.62 1.35c-.05 2.25 1.76 4.21 1.07 6.55s1.14 4 1 6.09.29 4.36-.79 6.68c-.89 1.91-.18 4.56-.18 6.93-3 2-3.55 5.13-4.33 8.21l-3.7 3.7c.07 1 .13 2.08.24 3.19 0 .11.24.2.15.13 5.43-.73 10.54-3.4 15.9-.85 5.4-2.35 9.32-6.34 12.62-10.54.062176-1.087087.212673-2.167315.45-3.23 1.18-3.65 2.54-9.44 1.57-10.71-1.57-2.07-.44-4.16-.87-6.18s-.93-4-1.39-6c-.59-2.39-3.53-2.16-4.75-4.39-1-1.75-3.18-2.82-5-4.3l-2.29 2.05-4.14-2.79h-7.28c-.46-.6-1.08-1.38-1.54-2l-10.49-1.38-1.3-1.3c-1.9-.39-3.68-.33-5-1.09-1.653804-.9384687-3.540899-1.3859601-5.44-1.29-3.68-1-5.48-3.64-8.41-4s-5.34-3.19-8.5-1.94zm-73.2 43.75c1.8 1.58 4 1.46 4.49 3.73l5.42 1.42.24 1.2c2.341971.581904 4.716044 1.025999 7.11 1.33 3.159153.22999 6.330847.22999 9.49 0 2.52-.18 5-.73 6.91-3.11h4.29c.51-.91 1-1.73 1.1-2l9-5.74v-2.88c4.55-2 3.31-7.92 7.06-10.79 0-4.46.05-9 0-13.45.037467-1.1082597-.192337-2.2092596-.67-3.21-1.836713-2.9097735-2.665945-6.342655-2.36-9.77-1.53-4.21-4.53-6.42-7.22-8.72s-5.79-3.63-8.95-5.53c-2.49 1-5.21 2-7.94.11-.160217-.0655745-.339783-.0655745-.5 0-.978013.4507252-2.015004.7604758-3.08.92-1 0-2-.78-3.1-.89-2.45-.26-5.08-.26-6.61 2-1 1.48-2.52.48-3.47 1.3-.51 1.88-1.48 3.48-3.43 3.62s-2.85 1.54-3.69 2.83c-2.73 4.2-5.29 8.49-8.16 13.14v4.56c-3.91 4.43-2.86 9.47-2.82 14.24 0 2.14.85 4.27 1.31 6.37h1.14c1.14 2.73 1.3 6 4.5 7.57zm-65.1-92.91c0 .73.18 1.81-.13 2-2.11 1.22-2.53 3.66-2.68 5.37-.2 2.29-3.18 3.19-2.22 5.65-2 1.73-.29 4.2-1.12 6-1.35 3-.89 6.23-1.87 9.23-.039405.2141976-.007804.4354037.09.63l2.13 2.84c-.88.92-1.54 1.63-2.44 2.58l2.46 1.81v4.43h2.1l4.33 6c2.94224 1.5233061 6.410498 1.6552906 9.46.36 4.188827-1.8977609 7.653731-5.0961341 9.88-9.12.54-.92.58-2.31 1.31-2.91 1.94-1.57 1.28-4.57 2.87-5.76 2.24-1.65 1.29-4.21 2.67-6 .81-1.06 0-2.63 1-4.09 1.819548-2.8397843 2.610193-6.2176746 2.24-9.57-.26-3.14-.06-6.32-.06-9l-3.73-6.69-6.95-5.51-8.44 1.28c-4.65 2.8-7.42 7.05-10.9 10.47zm121.48 37.52c3.5 3.53 8.6 2.41 11.26 4.66l2.48-1c-1-4.82-4.1-8.07-5.61-11.67l-6.63-4-3.26 1.11-2.14-2h-4.5l-2.84-3.41-3.1 1.63v10.28l2.54 2.61c4.31-1.08 7.8 2.69 11.8 1.79zm-19.5 66.87c1.22-1.57 2.4-2.46 4.13-1.29v1.29zm-31.2-42.65c-.685506 2.2742342-1.229876 4.5886413-1.63 6.93-.160237 2.4702109-.180269 4.9475208-.06 7.42 2.165518 2.57946 3.614031 5.6834172 4.2 9 1.205583.45347 2.364341 1.022803 3.46 1.7.163636.126136.325367.253667.485835.381182l.319442.254592c.053024.042289.105955.084472.158817.126496l.316537.249826c1.896559 1.482532 3.765733 2.624268 6.719369.987904 1.61-.9 4.15-.15 6.81-.15-2.18 1.5-4.19 2.23-4.56 4.58l-4.2 1.43c-2.15-2.25-5.2-2.22-8.53-1.93-2-2.49-3.8-5.3-6.19-7.43-.884-.7904-.9568-1.672736-.991744-2.554207l-.016256-.406433c-.032-.67616-.112-1.34336-.592-1.95936-1.665758-2.139697-1.607043-4.6242883-1.448967-7.1219807l.06332-.9772902c.047585-.7594894.084738-1.5161836.065647-2.2607291 1.75-1.39.47-3.42.87-4.54.274091-.4213636.504251-.8707593.723685-1.3100185l.217089-.4344668c.767904-1.5227048 1.540135-2.7564238 3.809226-1.9855147zm33.2 21.13v2.67h-2.5c0-.28-.06-.7 0-.72 1.07-.35.13-3 2.5-1.95zm-43.84-48.29c1.4.56 2.89 1.16 3.43 2.77l1.23-.73.05.66-4.43 4.42-5.17 1.16-3 3c-.07945 2.3883569-1.738826 4.4319232-4.06 5-.07-3.93-1.36-7.8 3.09-10.07 1.49-4.08 5.25-5 8.86-6.21z" fill="#000"/><path d="m3.48 182.71-1.7-1.7c-.1-.29-.23-.58-.3-.87-.31-1.39.43-2.81-.64-4.28-.57-.77 0-2.4.12-3.63.08-.77.71-1.69.45-2.25-.89-2 .15-3.81.09-5.71-.08-2.17 0-4.34 0-6.67l1.68-1.43c.53-3.86 1-7.51 1.6-11.69 1.6752252-2.733543 3.1846141-5.565317 4.52-8.48 1.4202143-3.351965 3.3982196-6.439006 5.85-9.13 1.7090466-1.85829 3.1466222-3.949003 4.27-6.21 1.83-3.36 5.56-4.94 7.43-8.25.25-.43 1.5-.3 2.44-.45.23-3.41 4.36-3.69 5.45-6.55 3.68-.14 5.54-4.18 9.28-4.45 1.35-3.66 5.55-4.19 8.09-6.72 1.06-1.05 3.23-1 5.3-1.56 2.43-2.92 6.51-3.94 10.22-5.57 2.69-1.17 5.47-2 8.1-3.44 2.26-1.24 5.11-3.07 7.83-.5 1.0544592-.7497568 2.1494543-1.4408055 3.28-2.07 1.0220761-.4061219 2.0713022-.7402703 3.14-1l1.08.91c2.0344435-1.629685 4.6755295-2.2972524 7.24-1.83l.6 1.74 4.86-1.74 3.81 2 3.16-1.25 2.71 2.36 3.86-2c1.72 2.07 4.19 2.64 7 3.11 2.33.4 4.45 2 6.81 2.79 2.94 2.56 6 5 8.8 7.73 1.968138 1.9264123 3.740161 4.0434611 5.29 6.32.755904 1.350517 1.270289 2.822606 1.52 4.35.34 1.36-.29 2.77.91 4.18.76.9-.41 2.9 1.08 4l-.9 1 2 2v13.75c1.12-.54 1.87-.95 2.66-1.26 2.58-1 5.18-2 7.76-3 2.15-.86 4-2.4 6.5-2.46.76 0 1.5-.45 2.27-.52 3.7-.37 7.45-.44 11.07-1.17.898994-.182311 1.828739-.144572 2.71.11.830887.090296 1.669113.090296 2.5 0 2.5 0 5-.17 7.5.05 2.334566.319918 4.651001.760508 6.94 1.32l2.66 2.66h3.14c.78 3.53.78 3.53 3.42 3.92 1.39 1.71 2.61 3.19 3.93 4.8v3l2.83 1.82c2.89 10 2.83 20.47.84 31.38-1.42 1.61-4 3.17-3.62 6.8l-4.09 3.39v2.59l-4.17 1.9c.38 1.26.77 2.57 1.15 3.82l3.57 2.43 10.55 1.49 2.37 3 11.35 1.27c-1.33 1.46-2.17 3.23-3.27 3.42-3.1.54-5 2.62-7.26 4.35-.69.52-2 .3-2.62.84-2.07 1.73-4.56.28-6.6 1-1.834497.817927-3.920641.864766-5.79.13-2-.69-4.87-1.1-6.92.7-5.14-1.67-10.8-.83-15.68-3.53-1.57.51-3.3 1-5 1.63-2 .8-4.24 1.4-5.85 2.73-2.72 2.24-5.29 4.64-8.44 6.29-.44 2.39-2.5 3-4.27 4-1.61.91-2.43 2.77-4.66 3.14-1.2.19-2.08 2-3.25 3-.947747.560736-1.953659 1.01675-3 1.36-.95 1.13-1.41 3.75-4.36 3.58-.49 0-1.17.58-1.52 1.07-1 1.46-2.84 1.43-4.06 2.24-1.78 1.17-4.16 0-5.75 2.22-.82 1.17-3.57.79-5.22 1.59-3.46 1.7-7.5.9-10.87 2.78-2.13-2.3-5.56.52-7.46-2.09l-2.6 1.43-.87-2.15-3.4-.18-3.77-2.93-.91.83c-1.9-1.65-3.84-3.16-5.58-4.89s-3.13-3.53-4.83-5.49c-.4-1.4-.86-3-1.46-5.18l-2.74-2.29c-.0780787-1.505655-.0780787-3.014345 0-4.52.12-1.08-1.47-2-.15-3.14-1.42-.93-.88-2.39-.85-3.63.1283656-1.294766.3523097-2.578267.67-3.84-3.4.79-7.05.84-9.35 4.75l-5.47 2.2c1 4.65-2.69 8.25-1.91 12.64-.19.19-.29.35-.43.42-2.95 1.56-3.21 5-5.2 7.3-.45.51-.34 1.52-.55 2.61-4.87 3.84-8.26 9.84-13.65 12.2-1.49 1.4-2.22 2.51-3.24 3-4.07 1.85-8.06 3.91-12.41 5.09-1.3496916.521373-2.6569402 1.146579-3.91 1.87l-8.45 1.36c-.46.47-1 1.06-1.83 1.83l-1.32-1.92h-5.32c-1.41-1.42-2.59-2.59-4.08-4.08.73-.68 1.36-1.69 2.25-2 2.45-.95 4.38-2.89 7.23-3.17 2-.2 2.11-3.24 4.27-3.93 1.8542468-.755155 3.6464089-1.65458 5.36-2.69v-1.81c4.5-1.64 5.2-6.77 8.87-8.59 1-4.71 1.43-9.3 4.55-13.29l-2.24-2.45v-3.16h-2.36l-1.06-2.23-1.29 1.19-4.24-2.22c-2.66 3.18-5.55-1.4-8 0-4.75-2.77-9.35-5.08-12.16-9.82-2.16971572-3.585044-4.13291226-7.291078-5.88-11.1-.16630408-.865106-.16969547-1.75365-.01-2.62zm111.33-4.85c.552357-.901094 1.267924-1.69127 2.11-2.33 4.74-2.82 8-7 11.21-11.33 1.31-1.75 2-3.87 3.47-5.6 1.69-1.94 3.68-3.82 4.88-6s2.26-4.71 3.34-7.1c2.81-6.2 5.05-12.56 4.88-19.5-.09-3.88.28-7.73-.85-11.63-.71-2.45-.13-5.27-.13-7.66-1.108432-1.620598-2.075333-3.333585-2.89-5.12-.894133-3.0909313-3.082182-5.6436558-6-7-1.849071-.8422404-3.588568-1.9067594-5.18-3.17-3.12-2.51-6.49-4-10.44-3.37l-1.9-1.9c-4.65-.75-9.49.89-14-1.15-2.59 2.38-5.9.39-8.88 1.49-2.8776521.9226882-5.8622514 1.4705369-8.88 1.63-2.9.25-5.71 1.48-8.69 2.31l-.47 1.32-7.72 1.57-1.57 2.56-6.38 1.51c-2.39 3.8-8.1 2.87-10.66 6.74h-3.3l-1.66 2.88h-1.53c-1.2 1.18-2.2 2.06-3.1 3s-1.45 1.93-2.26 2.83c-1 1.12-2.07 2.16-3.07 3.18h-2.23c-.9 2.7-3 4.44-5.06 6.33-2.0201727 2.067806-3.8946604 4.273086-5.61 6.6l-2.59.19c-.07 1.27-.13 2.4-.18 3.49l-3.47 3.55c-.52 1.42-.89 2.28-1.14 3.17s-.4 1.82-.51 2.35l-2.62 1.6c-.29 6.42-.63 7.51-3.24 10.43-.82 7.35-1.64 14.77-2.54 22.91l1.85 1c-1.27 2.39-1.94 4.11-.35 6.24.85 1.15.47 3.14 1.18 4.48s2.11 1.78 2.23 3.55c.05.65 1.85 1.05 2.59 1.81s1.38 2.11 2.18 3.08c1 1.28 2.22 2.45 3.19 3.51h2.84l1.46 2.23 10.24-1.27 5.36 3.1 4.5 6.39c.5484606 1.593593.9960131 3.220146 1.34 4.87.21 1.47-.21 3.05.11 4.49s-.85 2.74-.53 4.35c.26 1.35-.47 2.9-.86 4.87l-5.72 5.53v2.53l-4.56 4.52-4.67 1.82v2.48l-2.56.2-.55 3.06h-3.59v1.89c2.5044625-.110361 4.9547274-.765585 7.18-1.92 1.8726119-1.127535 3.9609047-1.84975 6.13-2.12 4-.49 7.68-1.65 10.64-4.53.36-.35.68-.75 1.07-1.06 9.08-7 12.45-11 17.23-20.21.8497151-1.453635 1.7742916-2.862195 2.77-4.22v-8.55c4-2 6.21-5.91 9.66-8.55h1.85l5-5h2.12l.71-2.06c3.15.68 5.57-1.27 8.05-2.86 3.28-2.12 6.14-4.89 10-6 .744886-.221614 1.443015-.577456 2.06-1.05 1.9-1.49 3.7-3.11 5.64-4.55.58-.42 1.48-.42 3.07-.83zm28.19 51.27c5-3.67 9.94-7.16 14.71-10.89 4-3.16 8.7-5.52 12.12-9.5 1-1.18 3.09-1.66 3.67-2.93.663291-1.817178 2.553005-2.878816 4.45-2.5 2.22.24 3.66-1.43 5.32-1.79 2.2 1.3 4.29.46 6.36.8l1.51-2.05 2.66 2.17 1.75-1.24c.885605.379541 1.790131.713315 2.71 1 1 .27 2.09.38 3.45.62l.74-.67c2.36 1.57 5 1 7.58 1.06h8.4c.7-1.36 2.75-1.69 2.27-3.82l-9.85-1.57-1.38-2.17-6.44-1.56c-.87-2.39-1.55-4.28-1.94-5.36.4-2.61.69-4.45.88-5.63 1.54-2.17 2.45-4.29 4.05-5.45s3.24-2.25 4.18-4.27c1.015298-1.794416 2.193601-3.491575 3.52-5.07 1.6-3.88 1.05-8 1.09-12 0-1.67-.14-3.35 0-5 .29-2.81-.89-5.33-1.45-7.95-.342272-1.899397-1.264543-3.646124-2.64-5-1.07-1-2-2.5-3-3.54-2.151695-2.090906-4.5691-3.88967-7.19-5.35-1.7-1-4.31 0-5.29-2.66l-4.89 1.19c-.23-.5-.65-1.43-1.12-2.5l-3.12 2.68c-1.46-.17-2.62-2-4.44-.57-.51.4-1.88-.48-2.83-.4s-2 .75-3.1.89c-.47.06-1-.56-1.24-.68-1.455975.696106-2.972214 1.25842-4.53 1.68-1.71.3-3.41.48-5.12.86-1.86.4-3.21 1.66-4.68 2-2.83.67-5 2.48-7.68 3.35-3.419819 1.122709-6.147718 3.732963-7.42 7.1-1.765127 4.463452-3.906155 8.768925-6.4 12.87-3.17 5.38-6.54 10.67-11.35 14.84-.642051.508531-1.1874 1.1284-1.61 1.83-2 3.75-5.23 6.54-8.44 8.89-3.198227 2.185628-6.208654 4.634109-9 7.32-1.8.27-3.06.07-4.47 1.25-2.74 2.28-5.78 4.71-9.1 5.65s-5.1 3-7.3 4.88c2.09 3.36.78 6.74 1.23 9.51l1.82 3.52c-1.22 1.07-1.1 2.19-.26 3.44s1.61 2.67 2.44 4c.72 1.17 2.34 1.62 2.26 3.55 0 .75 1.52 1.6 2.38 2.36.41.37 1.12.53 1.33 1 1.44 3 4.8 3.34 7.2 4.91 1.83 1.19 4.54 1 6.72 1.43l.36 1.73c1.39 0 3.07.5 3.93-.12 1.028631-.892968 2.536985-.959269 3.64-.16 1.27-2 2.18.36 2.48.34 3.7-1.18 6.59-2.6 9.59-2.93s5.32-.7 7.44-2.78c.57-.64 1.86-.43 3.04-.61z" fill="#000"/><g fill="#6c46c0"><path d="m364.14 204.23-4.05 2.07c-3.82-2.83-6.39.65-10.32 1.89-3.957334.287269-7.862029 1.076945-11.62 2.35-6.61 2.17-13 5.1-19.75 6.73-.642025.05803-1.287975.05803-1.93 0-1.91 1.88-3.9 4.39-7.43 4.06-.49 0-1 .66-1.58.94-1.38.7-2.78 1.36-4.18 2-1.169889.390756-2.285466.928383-3.32 1.6-1 .9-2.27 1.07-3.37 1.57-1.79.83-4.11.87-5.33 3-.93 1.6-3.64.42-4.44 2.51-4.26 2.26-6.75 6.85-11.47 8.58-1 .36-1.4 2-2.27 2.8-1.62 1.56-3.36 3-5.08 4.42s-3.77 3-5.59 4.62c-2.569163 2.248307-4.772262 4.883254-6.53 7.81-1.34 2.2-1.31 2.23-3.69 3.39-1.279098 3.372095-3.466503 6.3244-6.32 8.53v1.8c-3.23 3.14-5.59 6.92-8.18 10.58-3.09 4.38-5.88 8.95-8.75 13.46-2.402292 3.621451-4.515498 7.42656-6.32 11.38-1.31993 2.787419-2.494832 5.641229-3.52 8.55-1.9 6.07-4.84 11.7-6.91 17.69-.68 2-.61 4-1.2 6-1.08 3.65-1 7.65-1.4 11.5l-3.46 3.46c-2.71-1.62-2.8-1.68-2-3.8.874497-2.358244 1.465316-4.812157 1.76-7.31.480595-4.186805 1.488587-8.296053 3-12.23 1.05-2.59 1.82-5.27 2.74-7.87s2.41-5.16 2.17-8.15c.034637-.792438.396814-1.534902 1-2.05 1.43-1.19.84-2.71 1-4.05.7-.78 1.8-1.44 1.94-2.27.87-5.05 5.31-8.44 6.15-13.51.17-1 1.27-1.79 1.93-2.69 3.85-5.21 6.86-11 11.18-15.93 1.61-1.84 2.54-4.27 3.86-6.38 2.41-3.86 2.43-3.84 5.69-6.07.58-2.59 1.39-3.83 3.84-5.84.25-.21.61-.43.69-.71 1.06-3.81 4.94-5.2 6.94-8.09 1.951568-2.610562 4.122812-5.049448 6.49-7.29 1.22-1.25 2.3-2.67 4.14-3.29.7-.23 1.07-1.42 1.61-2.2 1.516119-.729942 2.950768-1.618218 4.28-2.65 3.638021-3.580714 7.811328-6.573215 12.37-8.87 1.76-.86 3.13-2.52 4.66-3.8l1 1c.62-.92 1.22-1.81 2-2.91 2.34.68 3.5-2.38 6.25-2.43 2 0 3.94-2.28 5.95-3.55l.37.37c1-1 2-2 3-3l.54.81c3.12-1 6.24-1.91 9.36-2.88 1.463272-.486584 2.895871-1.06096 4.29-1.72 2.17-1 4.47-1.38 6.56-2.31 1.35-.6 2.62-.06 3.75-.61s2.07-1.44 3.16-2.07c2.28-1.34 5-1.54 7.41-2.67 1.41-.66 3.27-.86 4.84-1.6.42-.19.86-.59 1.26-.56 3.6.31 7.09-.39 10.61-1 2-.35 4.09.21 6.16-.91.95-.52 2.66.34 4.61.68.63-.22 1.86-1.92 3.09.26l5.44-2c1.47.57 3.17 1.32 4.93 1.88.632731.062569 1.271175-.030109 1.86-.27.75-.19 1.5-.71 2.21-.64 1.38.15 3 1.25 4 .8 1.287675-.642518 2.72482-.925801 4.16-.82 2.37.22 4.72.77 7.1.93s5.16-.49 7.46.19c2.169381.561909 4.399142.857419 6.64.88.624438.034672 1.226909.242421 1.74.6 2 1.43 4.17 1.5 6.37 1.35l4.46 3c2.55.28 6-.86 8.59 2h6.06l1.7 1.88h3.91c3.39 1.25 6.12 1.74 8.23 3.17 2.45 1.66 5.34 1.61 7.83 2.93 2.31 1.22 4.82 2 7.26 3.06.87 1.18 1 3 3.16 3 2.34.08 4 2.19 6.69 2.1 2.22-.07 3.52 3.22 6.26 2.86 3.22 3.33 7.74 5.65 8.52 10.9 2.38 2.82 1.33 6.66 2.86 9.75.08.15-.51.64-.78 1l2.16 2.16-3 .33c-.14-.62-.24-1.08-.35-1.59l-3.85-1.49v-5.73l-8.74-7.31c-2.22-.35-2.22-.35-6.17-4.3l-6.5-2.7-1.1.82s-.19.07-.25 0c-3.74-2.89-8.49-3.81-12.37-6.4-.93-.62-1.51-1.74-2.92-1.46-.990593.302539-2.059746-.110261-2.59-1-1 1-1.56-1.93-2.87-.33-.28.34-2.08-.17-2.85-.74-1.044965-.766653-2.344269-1.103112-3.63-.94-2.104692.284561-4.217923-.459535-5.68-2h-4.73l-4.3-2.91h-6.13l-1-1.66c-2.9-1-5 .21-7.09-1.29-1.52-1.08-4.12.66-6.07-1.07-.56-.49-2-.2-2.93 0-4.95.72-9.69-1.37-14.62-1.07-.5 0-1-.62-1.78-1.08-3 2.63-5.73.17-8.86-.75-1.24151.394232-2.517007.672096-3.81.83-2.83.14-5.67 0-8.51.06-.954313.032321-1.901202.180063-2.82.44-1.57.4-1.96.41-4.94-.51z"/><path d="m304.75 535.1c-1.17.29-2.14.83-2.95.65-2.1-.48-4.13-1.72-6.2-1.75-1.06 0-1.53-1.87-2.9-.63-.43.39-1.87-.44-2.86-.53-1.16-.11-2.33 0-3.5 0s-2.34.06-3.51 0c-1.576895-.06087-3.130696-.399388-4.59-1l-12.24 3.22c-.69 1.2-1.4 2.41-2.27 3.93l2 2.18v2.88l-5.83-2.51-2.69 2.35c-1.14-2.19-2.23-4.24-3.3-6.31-.870513-1.462525-1.626119-2.990453-2.26-4.57-1.18-3.6-3.89-6.25-6.19-8.88-4.56-5.2-7.29-11.35-10.54-17.24-2.24-4-4.09-8.31-6-12.51-1.132363-2.366574-2.133872-4.793563-3-7.27-1.26-3.82-2.13-7.79-3.72-11.48-.78-1.8.73-4.06-1.32-5.46.28-5.35-2.78-10.28-2-15.52l4.08-4.1 2 1.68c-.59 2-2.37 3.77-.31 5.87.43.43.22 1.57.19 2.38-.18 4.69 2.29 9 2 13.69 1.568543 1.688953 2.317819 3.980641 2.05 6.27 1.27 4 4.14 6.52 4 10.27 1.87 2 2.09 4.83 3.5 7.06.29264.542901.533696 1.112062.72 1.7l1.75.63v3.46l3.1 2.48v3.31c1.4.75 2.64 1.12 3.09 3.21.89 4.14 5.58 9.79 8.52 11.38 1.32 1.58 1 4.12 3.75 5 1.39.48 2.12 2.91 3.27 4.66 1.85-2.35 5.08-3.55 6.6-6.59 2.15-.42 3.64-2.44 6.08-2.34.93 0 1.91-.79 3.26-1.4-.8-1-1.29-2.14-1.76-2.13-3 .06-3.72-2.55-5.14-4.33l-3.31-.16c-2.11-3-4.18-4.68-7.59-7-1.757657-1.237527-3.330112-2.719068-4.67-4.4-1.38-1.68-2.1-4-3.67-5.41s-1.75-3.85-4.1-4.28c-1.57-4.61-5.53-8.33-5.38-14.11.95818 1.33936 1.989758 2.624659 3.09 3.85.93.92 1.28 2.12 2.66 2.94 4 2.35 6.32 6.89 10.87 8.65 1.46 4.17 6.36 5.61 7.73 9.84h1.74l8.39 7h3c1.51 2.3 4.29 2.79 6.44 3.8 2.59 1.21 5 3.19 8.16 3.34.87 0 1.67 1.55 2.91 2.8 1.53.28 3.84.34 5.83 1.19s3.81.51 5.6 1c2.269186.780685 4.472782 1.74037 6.59 2.87l-1.27 6.74c-2.49 1.86-5.23 1.92-7.9-.37z"/><path d="m446.92 460-1.87 5.38c-1.31.61-2.95.21-4 2.1-1.7 3.17-4.88 4.6-8.63 5.55 0 2.27-2.29 2.7-4 3.64-1.06.58-2.49.49-3.53 1.1-1.78 1-3.37 2.39-5.38 3.85h-4.81l-1.84 3.14c-3.041444-.325621-6.1134.204265-8.87 1.53-.44.22-1.19-.27-1.75-.17-4.08.74-8.11 1.88-12.32 1.6-.626412-.028099-1.239815-.188266-1.8-.47-1.260269-.749696-2.829731-.749696-4.09 0-.68.33-1.84.75-2.23.44-2.25-1.79-4.81-1-7.14-.85-4.75.24-9-1.56-13.5-2.55-4.25-.95-7.91-3.47-11.66-5.61-.804286-.597013-1.524143-1.30005-2.14-2.09-3.62-3.75-8.22-6.62-10.55-11.55-2.31-.24-2.76-2.34-3.83-4.2v-3.36c1.57-3.22 3.58-1.25 5.22-.69 1.63 2.37 3.07 4.81 4.83 7 4.2 5.17 8.71 10.09 14.89 12.91 2.527092 1.284208 5.306616 1.994455 8.14 2.08 3.17 0 6.53-.69 9.46.15 4.42 1.27 8.77.57 13.14.8 1.45.08 3.31-1 4.31-.36 1.92 1.17 3-.66 4.44-.55 1.471447.070102 2.893884-.537934 3.86-1.65 2.1-2 4.84-1.34 7.34-1.41l2.72-2.71 7.64-.85 3-3.76c8.35-3.32 15.43-6.78 21.65-11.47 1.575517.322363 2.844648 1.487656 3.3 3.03z"/><path d="m308.26 375.36c3.83.43 7.19 1.06 10.56 1.11 2.88532-.05933 5.758373-.394184 8.58-1 1.081591-.249464 2.053366-.842352 2.77-1.69 2.47-3 5.73-4.4 9.57-5.32-.15-2.88 3.42-2.54 4.2-4.54.695657-2.093869 1.955137-3.955408 3.64-5.38h3l1.42 1.46-1 1.14 4 2.68v4l-2.2 3c-1.16 1.44-3.19 1.55-4.38 3.58-.89 1.51-3.36 2.11-5.51 3.32.38 2.33.92 4.61 1.09 6.91.19 2.48 0 5 0 7.05-.61 1.2-1 2-1.55 3-3.69-4-4.36-9-4.69-14.29-2.78 1.11-5.27 2.53-7.92 3s-5.63.11-8.38.11l-1.24 1.25c.28 1.06.86 2 .68 2.82-.47 2.11-1.35 4.11-1.92 6.2s-.95 4.3-1.36 6.16l-2.74 2.69c-3-1.95-.94-5.59-2.74-7.65l3-12-12.9-3.67c-.19 1.08-.36 2-.52 2.9-2.69.49-2.39 4.62-5.69 4.42v3.45l-6.58 5c-.59-2.5-1.44-4.56-1.48-6.64s.68-4.35 1.08-6.56c1.87-.85 3.66-1.67 3.93-4.28.11-1.09 1.3-2.08 2.22-3.44-1.72-3-3.48-6.13-5.32-9.39v-4.76l2.53-3.56c3.13.42 1.73 3.51 3.44 4.53l-1 1.06c5.37 6.51 5.15 8.58 13.41 13.33z"/><path d="m475.31 396.93c-2 2.75-4.52 1.22-7.25 1.88.42-1.24.68-2 1-2.91l-2.58-2.58c-.74-3.93-1.47-7.78-2.3-12.19-3.88 4.63-9.28 2.51-13.68 4.76-1.87 2.93-2.17 6.72-2.87 10.63l1 1.46-3.32 2.18-1.81-.81c-1.56-3.52 1.54-6.8.73-9.91.73-1.43 1.27-2.49 1.89-3.69-6-.19-11.11-3-16.77-4.82-.07 1.37-.15 3.13-.24 5-2.76 3.42-4.42 7.8-7.9 11-3-4.8-3-4.8-3-8.32 1.13-2.43 2-4.41 2.95-6.36 1.25-2.57 1.51-2.82 4.35-4.46-4.36-3.32-6.51-8.13-9.27-12.63v-4.42l4.32-2.47 1.71 2.14-.92 1.79c3.25 7.91 8.9 13.66 17.61 16.29 1-.26 2.62-1.23 3.34-.77 2.92 1.84 5.1.57 7.64-1.15 3.67 1 6.28-1.75 9.25-3.48.69-.39 1.18-1.22 1.9-1.46 5.72533-1.993052 11.118828-4.834751 16-8.43.25-.2.49-.42.94-.8l4.28 2.91c-.29 1.36-.67 3.15-1 4.87-2.55.59-3.34 2.82-4.82 4.36s-3.3 2.35-4.92 3.46c-1.92 3.65-.79 7.14.66 10.63.12.28-.13.82 0 1 2.21 1.87 1.77 4.9 3.08 7.3z"/><path d="m371.9 401.8 2.34-4.53c-.64-1.83-2.08-3.73-.17-5.62 0-5 .36-10-.13-15-.31-3.15-1.89-6.19-3-9.5.779362-.396103 1.537099-.833388 2.27-1.31.701394-.553125 1.369241-1.14751 2-1.78l3.25 4.08c.16 2.36.3 5.74.62 9.1.18 1.88.62 3.74 1 5.6.32 1.71-.24 3.37.72 5.22s-.29 4.31-.19 6.33c.12 2.2.7 4.2-.17 6.47-.56 1.45-.23 3.23-.38 4.85-.12 1.23-.36 2.44-.64 4.3 2.1 2.39.23 5.47-.74 8.33-.54 1.59-.86 2.63.07 3.53-.59 2.8-1.5 5.38-1.58 8s.66 5.38 1.09 8.41c1.81 3.1 6.12 3.16 8.67 5.73.8 2.53-1.23 3.42-2.65 4.9-4.19-2.83-9.87-2.83-13.22-8 0-.06.26-.9 0-1.29-2.69-3.36-1.15-7.74-2.76-11.4-.38-.85 1.14-2.41 1.44-3.72.116515-1.332873.082971-2.674615-.1-4 .58-1.67 1.39-4 2.15-6.22-2.38-4.51 2.28-8.85.11-12.48z"/><path d="m348 303.82 5.77-1.33.41 1.57c-2.04.7-4.12.15-6.18-.24z"/><path d="m467.26 281.37 2-2v2z"/><path d="m469.16 279.28.69-.82.32.32-.82.7z"/></g><path d="m646.29 157.4c.43 3.39 4.59 4.13 3 7.52l10.71 1.72c1.39.32 2.48 2.22 3.61 4.12.73 1.21 1.52 2.38 2.31 3.62l.92-.92c1.72.65 3.45 1.69 5.13-.1 5.13 2.87 7.84 5.67 9.13 10.81 7.24-2.77 7.24-2.77 13.1 3.1.56 1.54 1 2.7 1.38 3.84h8.29c1.8 1.4 3.64 2.68 5.3 4.16s3.32 3.27 4.67 4.62l6.82 1.59-2.25 4.93c-6.84-1.09-10-6.43-14.34-10.2-1.55 1.06-3.13.09-4.67 0-1.877267-.248737-3.737449-.612758-5.57-1.09l-6.71-7.87c-.91 0-1.64-.22-1.87 0-1.63 1.76-3.26 1-4.69-.06-3.033647-2.174098-5.643382-4.885511-7.7-8-2.837925.178371-5.6621-.519819-8.09-2-2.406852-1.661504-4.59125-3.624102-6.5-5.84-6.82-1.27-10.3-1.23-13.83-11.7z" fill="#000"/><path d="m665.85 134.32-1.23 1.35 1.85 1.84c.08.74.16 1.52.27 2.48h6.26l8.14 5.81 8.43 1.47 5.84 7.82h6.61c3.83 3.54 6.61 8.06 12.49 8.68l.47-.43c5.27 1.76 8.26 6.24 12.16 9.8h4.9l1.35 1.26c-.33 1.21-.65 2.35-1 3.76-5.78-.13-9.51-3.79-13-7.89h-5.2l-12.33-9.1h-3.43c-2.79-1.48-5.9-2.38-7.18-5-1.39-2.87-3.59-3.53-6.28-4.22-2.121822-.482454-4.097036-1.466632-5.76-2.87-2-1.82-4.31-2.5-6.63-3.42-2.87-1.14-5.7-2.35-8.53-3.52-1.72-2.4-1.78-5.05-1.26-8z" fill="#000"/><path d="m673 206.38 3.24 2.21-3.41 3.49-8.39-1.86-5.49-6.72c-1.92-.35-4.39-.82-6.87-1.25s-4.7-.76-7-1.13l-3.46-5.47c-2.79-.3-2.79-.3-4.54.58l-1.94-1.94h-5c-2.177596-1.850095-3.079593-4.798182-2.31-7.55l6 3.54 2.37-.77 6.45 1.06c.7 1.27 1.51 2.77 2.24 4.12 4.39 3.19 9.48 2.49 14.25 2.55 1.44 1.78 2.45 4 4.14 4.84 1.9.91 1.85 3.65 4.38 3.74 1.62795.221626 3.22939.60691 4.78 1.15.08 0 .23-.22.35-.34z" fill="#000"/><path d="m646.45 158.08.7-.82.32.32-.82.69z" fill="#000"/><path d="m31.23 177-5.29 1.49c-.42.63-.88 1.32-1.36 2-.57-.44-1-.59-1-.82-.6-2.27 1.21-3.3 2.56-4.38.62-.5 1.94.31 2.66-.78.6-.91 1.75-1.36 1.87-2.77.05-.58 1.41-.94 1.87-1.61 1.48-2.19 2.81-4.48 3.95-6.33l-1-4.57 2.71-4c3 .36 3 .36 3.69 3.78l1.55.32.4 2.63c1.76.69 2.09-.3 1.77-1.7h2.84l7-9.68c.47-3.21 3.06-4.95 4.67-7.23 1.2158912-1.625336 3.2196787-2.460567 5.23-2.18l.54 2.85h4.37c4.44-1.92 6.15-5.93 8.1-11l4.75-4.53 4.93 1.88 2.84 3.57c2.12-.36 2.74-2.07 3.9-3.23s2.8-1.33 4-2.24c.9446323-.842564 1.657345-1.913355 2.07-3.11 1.72-4 2.94-8.32 6.53-11.37l2.82 1.23 2 3.3 2.74-4.7c.86-.85 1.85-1.76 2.74-2.75s1.61-2 2.44-3.08l1.7 1.78c-.32.53-.75 1.14-1.08 1.8-1.089947 1.866661-2.01672 3.823926-2.77 5.85-.74 2.49-2.79 3.32-5.35 4.82l-6.69-.86-.31 2.76c-1.5 1.7-3.13 2.87-3.78 4.45-1.43 3.42-4 5.81-6 7.91l-6.46 2.7-5.21-4.88-.68 4.56c-3.09 1.57-2.61 5.78-6.19 8.25h-1.85l-3.07 4h-4.2l-2.51-2.36c-2.4383098 2.004899-4.5267218 4.400828-6.18 7.09-.5549786 1.247178-.970822 2.551719-1.24 3.89-3.22.91-3.48 4.89-6 7.29h-3.65l-4 2.74-4.06-.73z" fill="#000"/><path d="m162.94 174.48c2.68-2.89 7.33-5.73 6.79-11.69l5.81-2.4 1.79 2.8c6.27 0 6.89-6.32 10.39-9.46.08-4.51.08-4.51 1.7-6.84.53 1.13 1.27 2 1.32 2.91.21 3.7.36 7.42-1.77 10.77-.09.14.45.7.57.87-1.29 3.54-4.76 5-7.12 7.64h-5.25l-1.91-1.91c-.27 1.56-1.74 1.86-2.6 2.75s-1 2.18-1.44 3.26l-1.43.12c.62 4-1.86 6.52-4.79 9.06l-7.57-2.05-2.55 1.28c-.280597 1.780876-.678123 3.541349-1.19 5.27-.67 1.86-1.28 4.17-2.7 5.21-1.6 1.18-1.8 3.37-3.68 4.25h-4.31l-.7 2c-.489052-.082003-.96386-.233537-1.41-.45-1.470259-1.239886-2.57915-2.853132-3.21-4.67-.42471-.642217-.906676-1.244674-1.44-1.8-.7 3.28-1.25 5.84-1.85 8.61l-1.64 1.64v2.79c-.87 1.68-3.07 2.23-3.13 4.17-1.74 2.12-4.42 1.51-6.59 2.4-1.71.7-4.22-.56-6-.88-1.42-3 2.11-3.65 2.08-5.84 1.21.66 1.79 2.51 4.28 1.7 2.07-2.79 5.4-5.36 6.32-9.64 2.76-2.51 2.28-7 6-9.38 1.18.49 3.39.73 3.84 1.76.81 1.82 1.61 2.69 4.06 2.34l7.18-8.5c-1-3.35 2.27-5.33 3.31-8.19l5-.77c.32.17.72 2.39 3.84.87z" fill="#000"/></g></g></svg>