<svg height="594" viewBox="0 0 775 594" width="775" xmlns="http://www.w3.org/2000/svg"><g fill="none" fill-rule="evenodd"><path d="m0 0h775v594h-775z" fill="#fff"/><circle cx="387.5" cy="376.5" fill="#4fd1c5" r="166.5"/><g fill-rule="nonzero"><path d="m572.63 445.12-3.63-3.59v-4.22c-3.64-.49-2.78-3.84-4-5.81-1.37-2.21-.91-4.68-1-6.26-1.21-2.84-2.2-4.93-3-7.1-.315303-.978077.021499-2.048626.84-2.67.17-.15-.67-1.27-.86-2-1.26-4.7-1.19-9.66-2.95-14.28-.45-1.16.1-2.67-.1-4-.43-2.76-1.05-5.5-1.71-8.83 0-.06.79-1.27.68-1.35-1.64-1.27 1-3-.69-4.51-1.17-1 .57-3.5-1.11-5-.35-.3-.22-1.27-.12-1.91.74-5.1-1.36-10-1.08-15.09.07-1.17-.66-2.37-.93-3.58-.38-1.69-.76-3.38-1-5.09-.159994-1.561988-.437446-3.109702-.83-4.63-.7-2.5-2.35-4.44-3.06-6.75s-.92-4.92-2.89-6.85c-.45-.44-.06-1.65-.44-2.27-1.23-2-1-4.48-2.67-6.46-1.3-1.51-1.44-4-2.14-6.06-.49-1.47-2.72-2.11-2-4.17-2.67-2-2.21-5.81-4.71-8.12-1.44-1.33-1.78-3.86-3-6.74l-2.63-2.46c-2-4.79-3.34-8.73-6.47-12.22-2.82-3.16-4.22-7.63-7.16-10.82 0-.75-.07-1.39-.08-1.43-3.89-4.66-7.15-9.16-11.07-13-1.77-1.74-3.21-3.8-5-5.31-1.316571-1.086741-2.32942-2.495774-2.94-4.09-1.48-.8-3.66-1.26-4-2.34-.82-2.43-4.64-2-3.9-5.5l-1.82.7-3.06-2.57c0-.08.09-.55.28-.61 1.34-.42 2.69-.74 4.47-1.21 1.78.2 3.26 2.4 5.72 2.2.61-.05.37 2.25 2.05 1.95 3.65 4.57 9.69 6.74 12.39 12.28 4.26 1.63 5 6.31 7.94 9.15 1.07 1 1.61 2.61 2.57 4.25 1.69.77 3.79 1.73 3.48 4.69l4.1 3.86c-1.47 2.56 1.82 2.53 2.28 4.37s2 3.51 3.06 5.2 2.21 3.13 2.91 4.11c.81 2.35 1 4.43 2.13 5.77 1.881424 2.040145 3.294373 4.466732 4.14 7.11.82-4.12 0-6.9-1.7-9.48-.19-.27-.65-.46-.68-.72-.55-4.43-4.07-7-6.37-10.37-1.94-2.85-3.37-6-5.59-8.71-1.11-1.35-2.74-2.59-2.88-4.62-2.48-.51-1.9-3.27-3.39-4.61-1.477834-1.470492-2.792156-3.09663-3.92-4.85-.755303-1.173422-1.449559-2.385032-2.08-3.63-.61-1.08-1-2.41-1.89-3.18s-2.16-1.43-2.77-2.8c-.531401-1.179604-1.345419-2.210008-2.37-3-2.42-1.83-3.35-5.15-6.61-6.2-1.233085-.553961-2.221599-1.538919-2.78-2.77-.644359-1.604165-1.915835-2.875641-3.52-3.52-.71-.29-1-1.49-1.62-2.39h-1.86c-1.44-3.61-5.18-4.88-7.73-7.37s-6.36-4.27-9-7.45c-1.61-.38-3.89-.22-4-2.9-2.89-1.31-5.83-2.45-8-4.95-1.681413-1.939175-4.008212-3.203817-6.55-3.56-2.420206-.471205-4.589456-1.799027-6.11-3.74-1-1.47-2.53-1-3.4-2-.41875.211083-.820019.455188-1.2.73-1.056357-.575174-1.971742-1.377844-2.68-2.35-.28-.14-.56-.42-.82-.4-2.93.18-5.57-1-8.31-1.7-2.44-.64-4.79-1.66-7.46-1.36-2 .22-4 0-6 .05-1.89655.099581-3.778829.384268-5.62.85-7.21 1.5-13.21 5.4-19.16 9.27-2.657575 1.620776-4.773755 3.994518-6.08 6.82l-1-.9-.76.76c-.628787-.162881-1.164197-.574671-1.483-1.140594-.318803-.565922-.393536-1.237226-.207-1.859406 1.359743-.989437 2.646409-2.075584 3.85-3.25 2.5-2.81 5.7-4.61 8.8-6.59.700991-.332021 1.370403-.726974 2-1.18 5.205033-4.827534 11.816638-7.865299 18.87-8.67 1.19-.16 1.79-2.43 3.44-.78 1 1 2-.75 3.31-.41 2.12.57 4.46.53 6.41 1.42 1 .47 2-.69 3.05.5.58.66 2.51.12 3.72.12 5.54 3.24 5.54 3.24 8.13 2 1.283771 1.129995 2.647302 2.166011 4.08 3.1 2 1.13 4.28 1.8 6.26 3 1.51.88 4 .75 4.08 3.37l6.19 3 .11-.28c1.78 1.34 3.56 2.71 5.36 4s4.1 2 4.47 4.15c1.87.91 3.89 1.35 5.12 2.58 5 4.95 10.93 8.7 16 13.6 2.77 2.7 6.12 4.95 8.57 8 1.71 2.11 4.07 3.12 6 5.63.9 1.67 2.15 4 3.22 5.93l4.86 4.19c-.49 3 3.4 3.52 3.14 6.25 4.29 1.43 4.3 5.74 6.22 8.75 2.6 3.45 5.61 6.67 7.69 10.41 1.62 2.9 3.89 5.52 4.26 9.27.26 2.61 2.13 5.07 3.42 7.91l-.84 1.71 2 .75c.41 5 2.33 9.73 5.21 14.56 0 1.94-.18 4.29 1.56 6.4 1 1.26.54 3.29 1.33 4.93.64 1.37.3 3.18.54 4.77.423923 1.670864.757738 3.363305 1 5.07.075799 1.330918.300536 2.649147.67 3.93.631523 2.051972.968222 4.183281 1 6.33 1.22 3.77 2.48 6.35 2.8 9s.42 5.34 1.71 7.83-.73 5.87 1.32 8.44c-1.83 1.74-1.29 4.25-.63 5.94.58 1.48.32 2.87.76 4.18.56 1.65-1 3-.26 4.78.64 1.58.34 3.6.19 5.41-.25 3 1 5.52 2.09 8.34l-.88 1.18c.3 1.75.52 3.29.83 4.82.28 1.37 1.19 2.88.86 4-.45 1.55 1.88 2.82.15 4.22 2.33 3.84 2.38 4.12 2 10.49 1.35 2.4 2.56 4.55 3.79 6.72l-.27.27 2.1 7.18c1.89 3.28 3.64 6.65 6.36 9.37-.42 1.56 1 1.25 1.69 1.74s.46 1.34 1.62 1.91c2.75 1.37 3.52 3.65 3.7 7.57-.56.09-1.15.15-1.74.27-1.56.33-2.86 2-4.8.18-1-.89-2.85-.27-4.41-1.38-2.71-1.91-6-2.95-9-4.33 0-.41-.06-.73-.09-1.06-.28-.13-.57-.41-.83-.39-2.100238.17502-4.17191-.577651-5.67-2.06-1.17-1.06-2.84-1.68-3.72-2.91-.746222-1.097093-1.709371-2.029612-2.83-2.74-1.61-1-3-2.33-4.72-3.64.28-4.06-4.78-4.87-5.36-9.67l-1.31 2.79c1.52 1.15 2.23 3.48 2.41 5.64.28 3.49 2.54 5.75 4.43 8.15.63.8 1.55 1.62 2.33 2.47 1.43 1.57 1.9 3.91 4.43 4.73 1.23.4 1.95 2.4 2.67 3.37l7.3 3.85h1.35l4.13 3c-1.21.79-2.12 1.28-2.9 1.92s-1.6 1.56-2.5 2.47l-5.12-2.3c-3.26.79-6.35 4.28-10.74 2.23-.27.13-1 .79-1.35.64-2.29-.94-5-.41-7-2.42-1.345653-1.384638-3.332022-1.93853-5.2-1.45-3.48-2.93-6.08-6.57-9.92-9-1.52-.94-2.37-3-3.68-4.69v-10l2.79-2.24h3.79c.06.5.32 1.08.14 1.4-.81 1.35-1.75 2.64-2.77 4.14 3.25 5.81 6.92 11.49 14.77 13.83l2.92 3.08 9 2.13 1-1.29c-.25-.1-.62-.22-1-.39-2.61-1.35-4.17-3.92-6.65-5.57-2-1.33-3-4.29-4.21-6.62-1.45-2.72-2.71-5.54-4-8.32-.412935-.65924-.748484-1.363893-1-2.1-.42-1.84-.25-4-1.13-5.52-1.49-2.6-1-4.84.21-7.14l-1.64-2-2.43 1.27c.71-3.34.14-6.61 1.94-9.5.232833-.643657.250379-1.345512.05-2-.43-2.65.77-5 1.41-7.42.16-.6.64-1.2.57-1.74-.21-1.55-.73-3-.93-4.6s.4-3.32-.31-4.35c-1-1.47-.43-2.85-.73-4.23s-1-2.74-.91-4.08c.11-1.72-1.16-3-1-4.58.17-1.8-.89-3-1.47-4.43-.81-2-.79-4.21-2.51-6-1.44-1.5-2.09-3.75-3.09-5.67s-1.65-4.17-3.08-5.68c-2.59-2.76-3.85-6.78-7.84-8.27-.7-.26-1-1.49-1.64-2.41h-2.06l-3.75-4.04c-3.43.45-4.11-2.74-6.34-3.55-1.6951-.718447-3.347791-1.533106-4.95-2.44-2.687207-1.589674-5.672157-2.610752-8.77-3-.617996-.072197-1.208713-.295433-1.72-.65-1.94-1.51-4.19-1.37-6.37-1.32-2.31-2.52-5.35-2-8-2l-1.72-1.72c-2.77-.46-5.31-.74-7.78-1.32-2.25-.53-4.43-1.35-6.63-2.1s-4.63-1.65-8-2.84h-2.82c-1.64-1.59-3.27-3.11-5.78-3-.626015-.017667-1.239136-.182079-1.79-.48-4.775534-2.245559-9.372279-4.853168-13.75-7.8-.41-.28-.43-1.12-.63-1.68h-1.25c-2.74-2-5.37-3.27-7-5.33-1.623555-2.138449-3.493073-4.078451-5.57-5.78-2.21-1.76-3.79-4.3-5.83-6.72v-1.73c-7.659223-6.79876-13.042507-15.788356-15.42-25.75-3.589346 6.98816-7.9788 13.535426-13.08 19.51-3.49 4-7.46 7.85-9.53 13-.17.43-.49 1-.85 1.12-3 .79-3.62 3.86-5.5 5.72s-4 2.83-5.44 5.08c-.82 1.33-2.82 1.88-4.2 2.9-1.083108.940369-2.111459 1.94201-3.08 3l-1.44.08c-.34 2.38-2.42 3.5-4.45 3.83-2.26.36-2.65 2.62-4.57 3.33s-3.39 2.35-5.33 3.78h-2.56c-2 2.1-4 4-7.31 4.1-1.79 0-2.85 2.39-5 2.31-1.295124.128055-2.568687.420403-3.79.87-1.1 3.15-4 2.7-6.62 2.73-4.68 4.11-11.4 4.07-16.23 8h-3.58c-3.78 2.59-7.14 5.27-10.85 7.33s-5.84 6.13-9.38 8.55l-2.16.25c-.483706.854804-1.028453 1.673596-1.63 2.45-3.26 3.66-6.71 7.17-9.84 11-2.2 2.65-4 5.55-4.16 9.28-.06 1.63-1 3.22-1.66 4.76-.76 2.6.68 5.51-1.21 8.14 1.5 3.92 1.26 8 .2 12.67.397691.93292.631127 1.927562.69 2.94-.14 3.11 1.32 5.9 1.59 8.84.61 6.63 3.77 12.61 4.47 19.18.05.47.08.94.12 1.37.67.27 1.63.39 1.74.76.93 3 1.7 6 2.45 8.75-.83.83-1.22 1.48-1.79 1.72-.658385.135505-1.335667.152437-2 .05-1.78-3.53-3.89-6.9-5.08-10.83-1.11-3.66-1.44-7.53-3.16-11.06.3 3.83-1.14 7.57.52 11.51.74 1.74-.41 4.33-.84 6.51-.53 2.69-6.77 15.78-8.54 17.94-.85 1-1.91 1.87-2.8 2.86-.453942.722279-.83897 1.485638-1.15 2.28 6.37-2.92 11.72-5.95 16.2-10.36 1.54-1.52 3-3.16 4.63-4.55 1.007324-.615107 2.094068-1.089506 3.23-1.41 1.23 2.79-.46 4.64-2.12 6.12-2.86 2.55-6 4.78-9 7.12-1.91 1.48-3.83 2.93-6.21 4.73-2-.23-3.38 2.57-5.58 2.92-2.42.37-4.44 1.89-6.62 2.08s-4.45 2.22-7 .8c.271861-2.636896 1.875958-4.95057 4.25-6.13 3.59-1.8 5.64-4.93 7.51-7.94 2.58-4.15 4.27-8.87 6.25-13.38.8-1.83 1.35-3.78 2-5.76-1.35-.64-1.73.71-2 1.28-2.125148 4.547149-5.098297 8.647108-8.76 12.08-1 1-.4 3-2.58 3.16-1 .09-1.95 1.64-2.89 2.56s-2 2.4-3.22 3.13c-4.13 2.41-7.84 5.72-12.93 6.2-1.38.13-3.06 1.29-4 .81-1.33-.68-2.14-1.18-3.22.09-1.6-2.16-3.15-.33-4.69.09-1.19.32-2.6.53-3.42 1.3-1 .94-2.29-.89-3 .65-.08.19-1.17.24-1.4 0-1.48-1.57-3.82-1.51-5.3-2.92-.5-.47-.54-1.42-.76-2.08l5.35-6.74c1.56-3.58 2.47-6.24 3.83-8.63 1.59532-2.506496 2.619539-5.333338 3-8.28.19-2 2.3-3.44 2-5.68 2.84-3.87 2.37-9 4.84-13 .149184-.282038.20187-.605181.15-.92-.75-4.62 1.61-9 .94-13.58-.35-2.42 1.16-4.32 1.09-6.6s0-4.66 0-7c2.25-1.55-.23-4.63 2-6.18-.71-2 1.31-4.11 0-6.17 2.28-2.52-.29-6.11 1.92-8.73.41-.48 0-1.62.1-2.43.35-2.2-.54-4.4.85-6.67 1-1.63-.72-4.2 1.1-6 .25-.25 0-1 0-1.47.26-2.2-.39-4.38.85-6.66.91-1.66-.49-4.19 1.14-6-.85-5.09 1.57-9.75 2.23-14.64.57-4.11 1.48-8.65 4.7-12-1.011773-.83931-1.262073-2.290202-.59-3.42 1.37-2.64 3.27-5.13 2.66-8.4 2.48-2.62 1.5-6.72 4-9.34 2.74-8 8-14.63 11.45-22.25s7.28-15 11.31-22.3c2.074949-3.543738 4.379887-6.947698 6.9-10.19 4.51-6.12 10.29-11.15 14.59-17.42 2.38-.64 2.69-3.29 4.49-4.6s3.19-3.44 5-4.83c2-1.52 2.16-4.84 5.2-5.3 2.17-3.2 6.06-4.08 8.8-6.52 1.449959-1.420612 3.14358-2.568888 5-3.39.72-.28 1.08-1.46 1.34-1.83l6.49-3.59.77.67c2.79-1.05 4.62-3.89 8.15-4l3.36-3.81h4.45l4.44-3c2.893243-.023959 5.75254-.625737 8.41-1.77 7.05-2.61 14.4-2.34 21.72-2.29 2 1.44 4.35.91 6.6 1l2.89 2.9h3.18l1.19 2.1c3.42-.31 8.42 1.27 11.53 2.7 2.00181 1.039602 3.718499 2.553721 5 4.41-2.740341.885872-5.637017 1.182355-8.5.87-3-.36-6-.79-8.79-1.15-2-1-3.68-2.27-5.58-2.76-2.61-.66-5.37-.7-8.06-1.1-1.71-.25-3.4-1-5.08-.91-2.71.07-5.39.61-8.09.93s-5.4-.45-8.15.86c-1.56.74-3.78 0-5.53 1.13-.92.57-1.94 1-3.82 1.93h-2.24c-3.33 1.14-4.87 3.22-7.85 3.28-2.26 0-3.79 3.43-6.65 2.8l-5.21 5.26-1.26-1.28-2.13 3h-2.63c-.46188.734721-1.01644 1.406914-1.65 2-5.75 4.08-11.78 7.75-16.62 13-3.143671 3.447308-6.098012 7.06262-8.85 10.83-1.284626 1.754762-2.836871 3.296883-4.6 4.57-1.55 1.09-1.51 3.55-3.77 3.95-.48.09-.94.88-1.21 1.44-1.92 3.92-5.26 6.77-7.63 10.34-.94 1.4-1.82 2.83-3.09 4.83 3.28-.68 3.4-3.86 5.68-4.43.93-3 3.71-4.51 5.7-6.62s3.61-4.13 6.22-5.42c2.14-1.05 2.93-4 5.64-4.52 3-3.74 7.41-5.69 10.79-8.88 3.63-3.44 7.77-6.15 11.7-9.16 4.27-3.27 8.9-5.92 13.4-8.78 4.539924-2.943428 9.40998-5.343215 14.51-7.15 2.77-1 5.29-2.57 8.28-3 1.384378-.224556 2.748686-.558945 4.08-1 .447738-.230428.853423-.534692 1.2-.9 2.66-.13 5.33-.22 8 .87 2.19.9 2.25.73 2.25 3.66-2.141001-.694508-4.339728-1.1965-6.57-1.5-1.63-.09-3.33.68-5 1.2-9.279792 2.93045-18.236214 6.800508-26.73 11.55-2.56 1.44-4.14 3.94-6.87 5.09-2.9 1.22-4.67 4.3-7.9 5.06-1.83 3.05-5.91 3.42-7.74 6.49-.359174.569105-.840895 1.050826-1.41 1.41-1.17.76-2.49 1.3-3.6 2.13-1.117452.944411-2.185533 1.945737-3.2 3-1.033388 1.060006-2.125082 2.061561-3.27 3-3.48 2.55-6.22 6-10 8.17-1.39.81-2 2.83-3.38 3.78s-2.74 1.63-3.12 3.38c0 .15-.1.35-.21.4-4.7 2.07-5 8.1-9.42 10.44-.5 2.45-2.7 3.77-3.86 5.81s-3.64 3.66-3.5 6.55c-5.12 5.82-7.09 13.52-11.67 19.67-.41 3-2.8 5.15-3.38 8.1-.24 1.18-1.08 2.23-1.93 3.92v4.25c-3.19 3.65-3.31 4.06-2.12 7-.25.29-.52.63-.82.94s-.7.71-1.07 1.08v6l-.39-.13c-1.007384 2.409593-1.859133 4.881337-2.55 7.4-.63 3-.69 6-1.09 9.07-.244 1.240052-.557833 2.465336-.94 3.67l.66.72c-.6 2.45-1.91 4.84-1.54 6.92.81 4.63-1.37 8.82-1.22 13.29 0 .63-.76 1.29-1.12 1.87.52.57.86.93 1.36 1.46l-2.25 4.3c.21.35.53.88.83 1.36-.25 1.82-.48 3.67-.77 5.52-.24 1.55.33 3.06-.85 4.69-.86 1.19.91 3.25-.08 5.1-.655794 1.231352-.999181 2.604904-1 4 0 1.07 1.06 2.12-.09 3.17 1.1 2.15-1.25 3.94-.47 6.35.6 1.82-.5 4.2-.88 6.57l-1.6 1.6.69.79c-.35 2.54-.68 4.89-1.05 7.53-2.33 2.18-.08 6.75-3.77 8.65l.85.85c-.42 1.88-1.76 3.38-1.93 5.52-.14 1.85-2 3.52-2.41 5.42-.4 2.06-2 3.62-1.95 5.81 0 2-2 3.16-2.54 5-.7413 1.966044-1.613245 3.880315-2.61 5.73l1.19 1.29 1.84-3.06h6.21c1.35-1.38 3.28-2.57 4-4.28.86-2 2.91-2.2 4-3.74 3-4.21 6.12-8.36 8-13.18 2-5 5.75-8.87 7.86-13.75.05-.13.61 0 1.43-.09-2 4.06-3.24 8.13-2.93 12-1.649953 3.514476-3.632315 6.863061-5.92 10-2.05 2.88-3.5 6.19-5.33 9.53-2.57 1.46-2.57 1.46-3.87 4.69 3.42-1.58 6.92-1.49 9.53-4.1 1.46-1.46 3.29-2.55 4.84-3.94s2.72-3 4.29-4.17 2.05-3.54 4.15-4.23c2.58-5 6.09-9.39 8.33-14.55.458827-1.145841.989894-2.261415 1.59-3.34.408734-.519244.578866-1.187101.468376-1.838613-.110491-.651513-.491302-1.225935-1.048376-1.581387l.93-1-.91-1.07 3.9-1.83c-.31-3-.06-6.22-1.14-8.93-.72-1.82-.55-3.45-.8-5.16s.53-3.49-.88-5.19c-.47-.56.48-2.3.82-3.67l-1.1-1.64c.31-.41 1-1.31 1-1.33-3-2.5 2.14-5.82-.81-8.24.66-2.58 1.78-5.12 1.87-7.7.15-4.36 2.77-8.24 2.1-12.67 2.41-4.16 2.69-9.27 5.68-13.12.87-1.13.87-2.53 1.47-3.38 1.74-2.44 1.62-5.89 4.43-7.75.76-.52.73-2.15 1.47-2.81 1.36-1.21.05-4 2.75-4.3.601648-1.79146 1.545829-3.448871 2.78-4.88.47-.47.37-1.5.47-2 1.07-1.48 1.95-2.82 3-4.05.650339-.645672 1.349037-1.240735 2.09-1.78 1-.85 2.58-1.59 2.77-2.6.75-3.81 3.63-5.5 6.41-7.42.930742-.67238 1.776868-1.454711 2.52-2.33.7-.8 1-2 1.87-2.59 1.91-1.29 4-2.28 6.25-3.51l1.94 1.79c-.14.25-.23.6-.43.69-3.11 1.36-3.69 4.88-5.94 7 .17 2.53-2.78 2.46-3.68 4.38-.643491 1.749655-1.911551 3.199375-3.56 4.07-1.16.52-1.69 2.48-2.9 4.42-.54.41-2.43.53-2.42 2.69-.0413.79505-.437853 1.529407-1.08 2-1.9 1.18-1.61 4.45-4.5 4.59-.47 1.47-.6 3.19-1.47 4.37-2.966773 4.189068-5.323635 8.778214-7 13.63-.64 1.72-2.3 3.07-3.76 4.92v3.29c1.171729-1.046952 2.277197-2.16578 3.31-3.35 3.63-4.8 7.17-9.67 11-14.83 2.36-.55 4.41-2.29 6.25-4.35 1.406153-1.802565 3.563846-2.857437 5.85-2.86l3-3h3.83c2.72-4.61 7.08-4.61 11-5.12l4.14-2.82h4.28c.81-.93 1.77-2.06 2.55-3l7.48-1.49 2.11-2.54c3.52-.06 6.27-.62 8.65-3h3.07c.9-3.1 3.2-3.83 6-4.07l.57-1.68c1-.64 2.42.07 3.49-1.3 1.42312-1.76317 3.12977-3.277188 5.05-4.48 1.51-1 3.5-1.9 4.4-4 .29-.67 2.7-.6 2.81-1.13.5-2.45 3.91-2.14 4.12-4.77.05-.64.94-1.41 1.63-1.77 3.58-1.84 5.34-5.19 7.39-8.37.944684-1.161944 1.992263-2.236298 3.13-3.21 1.54-1.64 3.43-3 4.31-5.21.23-.58 1.23-.86 2.06-1.41.7-1.21 1.3-2.95 2.47-4.09 1.858324-1.962481 3.394024-4.206965 4.55-6.65 1.31-2.47 2.71-4.9 4.36-7.86-.19-2.42.65-5.53-1-8.51l4.58-1.63 2.15 3.23 1.86-1c6.94 6.07 13.84 12.36 21.65 17.53 1.098453.617893 2.136357 1.33773 3.1 2.15 2.91626 2.90446 6.450869 5.112736 10.34 6.46 1.201337.251708 2.204931 1.072491 2.69 2.2.64 1.57 3 2.82 4.89 3.38 1.777835.615886 3.448117 1.506703 4.95 2.64 1.07.72 2.23 1.64 3.86 1.54 2.49-.14 4.55 1.43 6.23 2.89 1.416161 1.260542 3.108083 2.171577 4.94 2.66 2.398534.731664 4.623498 1.942806 6.54 3.56.83908.573177 1.870334.792364 2.87.61l2.63 3.27c3.64-.38 5.56 2.21 7.8 3.73 1.393962.864473 3.010292 1.302447 4.65 1.26l2 2.78 7 3.5c1 3 4.29 4.45 6.44 6.87s4.5 4.83 7 7.49l-2.41.5c-3.11-3.82-7.73-5.65-11.91-8.13-2.1-1.25-4.53-1.93-6.7-3.09-1-.54-1.73-1.6-3-2.78-2.2 1.08-3.74-1.52-5.75-2.56-1.78-.91-3.16-2.44-5.41-2.71-1.27-.16-2.4-1.38-3.6-2.11-3.71-2.27-7.16-5-11.37-6.36-.88-.28-1.8-.47-2.7-.71-.12-.45-.24-.9-.35-1.35-.29-.13-.58-.38-.85-.35-2.10368.195682-4.179269-.594667-5.62-2.14-2-1.9-3.79-4-6.89-3.88-1.06-1.73-4.08-.9-4.52-3.46 0-.13-.2-.34-.31-.35-4.19-.26-6.31-4.1-9.7-5.58-3.66-1.58-6.63-4.11-10-6.12-1.37-.83-3.43-.24-4.17-2.6-.39-1.23-2.13-2.23-3.48-2.92-1.61-.82-2.4-2.23-3.46-3.51-1.330998-1.832329-3.300628-3.099029-5.52-3.55l-1-2.08c-.59 1.91-.59 3.26.53 4.81 2 2.8 3 6.26 5.78 8.6.528478.382716.957193.886884 1.25 1.47 1.8 4.82 4.45 9 9.16 11.54l-1.24 1.41c3.07 1.07 4.31 4.08 6.49 6 5 4.42 9.51 9.52 15.8 12.42 2.41 1.12 4.38 3.17 6.69 4.9 2.547329-.234788 5.026011.909219 6.5 3h4.17l1.43 1.69c8.35 1.71 16.12 5 24.64 5.46l1.65 1.66c.294775.105055.599789.178795.91.22 3.806272.031434 7.579694.707674 11.16 2 1.438583.56024 2.832585 1.228825 4.17 2 1.16281.767116 2.398865 1.416966 3.69 1.94 3.34.92 3.35.83 6.93 3.63.413507.212612.859662.354571 1.32.42 1 .33 2.34.39 3 1.07 3.08 3.06 7.34 4.5 10.4 7.44 2.931409 3.00091 5.638677 6.212867 8.1 9.61 2.42 3.13 4.62 6.43 7 9.75.41 1.68.85 3.51 1.47 6.1l2.6 2.09v4.26c3.75 5.62 3.08 12.24 4.67 18.38-.617635 1.460991-1.067187 2.987457-1.34 4.55-.147577 1.508883.169965 3.026802.91 4.35 1 1.53 1.1 2.53-.13 3.87-.34.37-.11 1.27-.15 2.07 1.86.11 2.06 1.9 3 3l-1.17 1.32 2.38 3.1c-.27.81-.57 1.68-.95 2.81 3.55 1.65 3.55 6.41 6.73 8.84.39.3.56 1 1.3 1.51 1.599342 1.119036 2.928396 2.581337 3.89 4.28 2 3.33 5.58 5.43 8.82 7.48 1.916734 1.112053 3.715915 2.41537 5.37 3.89.3.32.9.23 2.35.44z" fill="#805ad5"/><path d="m296.3 98.3c-3.58-4-8.46-2.53-12.4-4.66l-1.41 1.11-5.35-1.37-1.51-1.51-1.08.86c-3.55-.72-6.75-3.05-10.61-2.94-1.92-2.13-5.53-1.8-6.94-4.85.07-.54-.09-1.38.26-1.79 3.69-4.3 4.06-5.26 4.84-9.94.499494-2.2700731 1.168025-4.4996214 2-6.67 1-2.93 2-5.83 3-8.76 1.36-4.11 2.68-8.23 4-12.34 2.09-6.47 4-13 6.31-19.39 1.4-3.94 2.2-8 3.46-12 .915101-3.4026616 2.126394-6.71865895 3.62-9.91l4.16-2.14c1.77 1.91 5.22 1.08 6.61 3.56 1.13-.33 2.13-.63 3.3-1l1.85 2.38 1.23-1.11 1.69 1.69c2.63.44 5.12.93 7.64 1.24 1.66.21 2 2.48 4.18 2.14 1.44-.23 3 .69 4.57.85 1.625564.0847218 3.254436.0847218 4.88 0l1.07 1.07c-.26 1.86-.52 3.66-.81 5.67l-3.86 3.86c.17.48.37 1.05.62 1.79-.22 1.55-.47 3.35-.75 5.34l-1.67 1.67c-.49 3.5 1 7.5-2.36 10.34.38.66.62 1.06 1 1.62-1.22 5.69-4.6 11.09-3.64 17.35l-1.85.44v5.31c1.4 1.8 2.59 4.06 4.43 5.5 2 1.57 3.37 3.64 5.12 5.39 1.561651 1.7449822 3.004871 3.5924366 4.32 5.53h2.85c-.2-4.62 1.52-8.71 2.55-13 .88-3.64 2.26-7.15 2.62-11 .386959-3.2599471 1.100544-6.4727557 2.13-9.59.77-2.56 1.8-5 1.82-7.76 0-.37.61-.73.93-1.09l-1-1.05c.32-3.5 2.75-5.41 5.34-7.22 1.78-1.18 3.74 1.34 5.81-.46l2.12 2c3.45.62 7 1 10.49 2.15 1.94.67 4.3.19 6.46.1 2.33-.09 4.49.18 6.22 1.94.5-.3 1-.83 1.54-.88 2.37-.21 3.78 1.95 5.92 2.61 1.6.49 2.34 2.85 2 5.05l-1.72.49c.34 2.62-2.66 4.54-2.14 7.66l1.73.13v-2.39c1.43-1.39 2.81-2.6 4-4s2.7-2.65 3-4.2c.35-1.74 3.64-1.58 2.14-3.82 4.3-4.66 8.54-9.06 14.85-10.94 1.548499-1.5635565 2.356143-3.7136338 2.22-5.91.097518-1.6162617.328302-3.2217141.69-4.8l3.47-2.51 10 3.32 1 1.05c.298165.0973479.607133.1577983.92.18 2.78-.25 5.24 1 7.85 1.6 1.82.39 3.59 1 5.42 1.35.64.11 1.4-.48 2.21-.8l.48 1.49c2.84.83 6.05 1.52 8.67 4.21-.24.8-.62 2.1-1.22 4.09l-2.54 2.12v3.47l4.87 4.87c-.39 2.08-.77 4.09-1.11 5.89l2.15 2.15-.79 1c.28 1.28.15 3.38 1 3.82 2.26 1.26-.38 2.69.55 4.09.7 1 .39 2.85.34 4.31s-.34 2.68-.54 4.2c.368954.0026964.734546.0703986 1.08.2.373645.2597327.710084.569257 1 .92.16-.33.44-.61.42-.87-.27-3.26.68-6.29 1.72-9.3.79-2.26.38-4.65 1.07-7 .770177-2.5950633 1.134481-5.2936078 1.08-8-.12-3.33.82-6.42 1.32-9.56.499561-2.9674223 2.167117-5.6110219 4.63-7.34l3.82 1.17c.22-.61.42-1.19.62-1.77.13-.09.26-.25.39-.25 2.66 0 5.52-.57 7.92.23 3.458212 1.1951182 7.091103 1.8067957 10.75 1.81 1.443998.1347997 2.871017.4128338 4.26.83l1-.88 1.54 1.64 6.52 1.51 2.45 4.9-.81 1.43 1 1.72-2.28 2.44c.47 3.8-.32 7.54-1.29 11.31-.88 3.43-1.26 7-1.92 10.83l-1.92 2 1.36 2.14-1.33 2.09 1 1.53-2 2.17c.22.49.48 1.05.81 1.76-.61 1.62-.36 4.43-.9 6.93s-.43 5.25-1.71 7.7c-1.06 2-.7 4.5-1.16 6.71-.52 2.52-1.81 4.89-2.85 7.55l.94 1.3c-1.82 4.93-1.64 10.76-6.74 14.37-2-.46-4.24.6-6.49-.63-.66-.36-2 .73-2.88.51s-2-1.92-2.66-1.77c-1.66.35-3.06-1.67-4.78-.24-.35.29-1.65-.57-2.65-1l-1.4 1-7.83-2.91c-2.13 2.6-5.15-2.7-7.62.82.13-1.9-.45-4.4.55-5.57 1.58-1.87-1.36-3.62.51-5-.72-1.91.72-3.65.27-5.74-.34-1.59.67-3.59.82-5.5s1-3.55 1.63-5.57c-.73-1.83-1.55-3.92-2.72-6.87 0-1.85 0-4.67 0-7.5 0-2.29.51-5-.46-6.78-1-2 .7-4.45-1.53-5.89v-11.03l-3.38-2.77c-1.73 5.39-1.74 10.62-3.1 15.68-1.29 4.79-2.46 9.66-3.78 14.47-1.28 4.66-3.1 9.15-4.71 13.72v4.13l-1.89.65c2.4 3.07-.39 5.44-1.23 8s-1.35 5.73-4 8l-4.1-3.85c-2.42-.47-4.77-.8-7-1.44-.85-.24-1.51-1.2-2.29-1.85l-1 .89-1-.94-.81.81c-1-.53-2.06-1.07-3.13-1.61-.57.22-1.32.82-1.94.71-3.67-.68-7.31-1.52-11.61-2.44l-1.33.65c-.6-1.15-1.16-2.21-1.39-2.64 1.37-4.36 3.09-8.12 3.6-12s1.65-7.4 2.47-11.06c.531013-3.0633037 1.327345-6.0746417 2.38-9 1.07-2.59 2.72-5.4 2.3-8.54 2.83-4.63 2.9-10.11 4.6-15.09.46-1.34-.14-3.14.52-4.27s1.3-2.17.4-3.63c-2 2-4.37 3.77-5.84 6.07s-4.39 3.11-5.71 5.84c0 .36.29 1.35 0 1.63-2.12 1.83-3 4.56-4.71 6.51-.85 1-.39 3.26-2.56 3-.48 1.3-2.29 1.86-2.51 2.76-.44 1.89-2.15 1.73-3 2.7-1.506175 1.6365313-2.846085 3.4186114-4 5.32-.34.58.3 1.75.56 3-1.76 2-1.67 5.11-2.58 7.85-1 3-1 6.3-2.39 9-1.07 2.12.26 4.61-1.65 6.35-.387869.5026071-.694898 1.0626833-.91 1.66l1.11 1.19-2.07 2.82c-.4 4.43-.71 9.16-3.24 13.55l1.09 1.43c-1.11 2.88-2.23 5.76-3.58 9.25l-2.03 2.14-11-2.89-1.12.82-5.3-1.3-2.11-1.86-1.92 1.44-2.74-3.27c-2.38 1.35-4.6-.55-6.83.09-1.24-2.14-4.89.35-5.54-2.76l4.72-4.12c2.23.6 5.92.48 9.19 2.29.717364.313252 1.480442.509087 2.26.58 4.51.77 9 1.5 13.55 2.29.41.08.74.54 1.15.86l2.11-1.23 2.48 1.4 1.42-2.84c-.49-3.23 1-7.17 2.11-11.13 1.09023-3.12449 1.78562-6.3730065 2.07-9.67.07-2 1.06-3.87 1.55-5.82 1.18-4.69 2.81-9.26 3.41-14.11.386749-1.6497365.89822-3.2677218 1.53-4.84.25-.86.33-1.76.59-3.25l-3.73 1.48-5.1-2.38c-1.87-2.26-1.26-5.24-1.35-8.25l3.7-3.27 1.43 1.36c-1.55 2-1.33 4.18.27 6.32h3.76l3.81-4-.49-1.1c.94-4.66 1.91-9.48 2.86-14.16-3.72-1.98-7.32-1.68-10.65-1.68l-1.67-1.21-1.94 1.39-2.41-1.89c-1.476512.2220553-2.966924.3390159-4.46.35-1.357356-.2285856-2.694764-.5629376-4-1l-1.55-1.55h-7.14c-1.92 8.46-3.82 16.86-5.81 25.66l-1.36 1.44c.55 4.06-2.46 7.39-1 11.2-3.34 1.88-2.84 5.47-4 8.14.3.71.61 1.42.93 2.15l4.23.85 3.86-4.56c1.58.14 3.21-.56 4.16.95-.192773 1.277713-.223013 2.5746909-.09 3.86.47752 1.2533605 1.109031 2.4424826 1.88 3.54l-3.5 2.68h-1.45c-.21.58-.41 1.16-.66 1.85h-4.34l-3.84-3.85h-2.29c-.004033.6077021-.084669 1.2124711-.24 1.8-2.228861 5.805453-3.903 11.808914-5 17.93-2.06 2.23-1.75 6.2-5.53 7.51-1.58-3.25 1.78-5.94.47-8.68l2.14-2.14c-1.1-3.58 1.66-6.51 2-10 .467497-3.1197631 1.135548-6.2061581 2-9.24-2.21-2.05-4.28-3.31-5.4-5.16-2.32-3.82-5.7-6.8-7.95-10.67-.61-1.06-2.18-1.55-3.46-2.4-.54 2.33-1 4.46-1.61 6.9l-1.13 1.15-4 17.9-2.18.13-.69-1.95zm5.56-42.55 4.56 5.83h2.14c.71-2.3 1.36-4.36 2-6.42 1.28-7.2 2-14.54 5.45-21.37.22-2.44-.44-5.08 1-7.48s.56-5.26 1.9-7.72c.35-.62-.62-2-.91-2.79-2.67-.22-5.21.66-7-1.11s-4.28-.44-6.39-1.57c-1.766431-.9080921-3.590317-1.699779-5.46-2.37-2.061765-.6913846-4.161974-1.26234741-6.29-1.71-1.47-.36-3-.61-4.69-1-1.66.79-1.92 3.48-4.38 4.4.45.7.85 1.35 1 1.55-.38 2.41-.69 4.41-1 6.52l-1.26 1.24c-.93 3.45-1.6 6.34-2.51 9.16-.86 2.63-2.66 5.14-2.79 7.77-.16 3.15-3.11 5.38-2.11 8.48l-2 2 .9 1.1c-2.06 1.88-2.1 4.42-2.44 6.84-1 3.07-2.06 6.14-3.3 9.86l-1.43 2 1.17 1.3-1.77 1.76c-.5 2.8-1 5.59-1.76 9.71l-1.79 1.15c2.59.71 4.69 1.26 6.77 1.86 2.23.64 4.44 1.33 6.67 2 2.08.61 4.41 2.11 6.17 1.61 2.36-.68 3.76 1.35 6 .84 2-.45 4.22.52 6.73.92l5.16 3.41c-.7-5.28 2-9 2.9-13.25s2.67-8.62 3-13l-6-4.59-5.35.27 2.33 2.33c-2.12 1.54-3.1 4.16-5.71 5.47-1.54-4-2.76-8-2.25-12.63 1.75-1 1.95-3.76 4.68-4.21h5c.24.73.44 1.31.62 1.85zm179.72 58c1.473207-1.417353 2.379711-3.322788 2.55-5.36.17-1.69 1.16-3.24 1-5.1-.17-1.56.69-3.11 1.14-4.51.58-1.75.25-3.61.9-5.1 2.34-5.41 2.12-11.33 3.75-16.9 1.25-4.28 1-9 1.47-13.78.79-1.48 1.85-3.16 1.73-5.41-.18-3.55 1.65-6.95 1-10.57 1.5-2.54.83-5.36 1-8.07.194278-.7470245.497532-1.461358.9-2.12l-11.36-3.92-1.61.92-2.08-1.14-1.72 1.06c-2.89-1.17-5.76-2.49-9.1-2-.59-.81-1.07-1.46-1.19-1.64-1.206973.0987481-2.402131.3096583-3.57.63-.954856.4728407-1.856613 1.0460764-2.69 1.71l1.24 1.82c-1.525768 1.6882021-2.221978 3.9673736-1.9 6.22.22 3.08-.86 5.88-1.78 8.87l1 1.37-1.9 2.2c-.45 2.5-.8 4.49-1.14 6.42l.48.64c-.77 2.14-2 3.65-1.71 5.74.12.81.36 2-.06 2.42-1.61 1.57-.39 3.54-1 5.12-.49 1.27-.35 2.58-.71 3.85-.46 1.66-.11 3.54-.11 5l3.67 2.49c1.4-1.12 2.75-2.23 4.13-3.3s2.77-2.13 4.18-3.17c.205186-.1100568.428943-.181252.66-.21.32 1.2.63 2.34 1 3.58-6.9 8.1-6.9 8.1-14.8 8.3-.63 2-1.3 4.21-1.91 6.2l.72 1.06c-.4 4-2.33 6.91-1.55 10.5 1.36.38 2.94.43 4 1.21 1.36 1 3.24.31 4 1.05 1.13 1.08 2.12-.44 3.05.51s2.71-.07 4.11 1c1 .74 2.8.39 4 .5l3.88 2c2.13-2.61 4.18.41 6.33-.09zm-56.85-13.1c.8-4.61 1.56-9 2.32-13.32 2.22-1.44-.14-4.23 1.7-5.78.31-3.77 1.93-7.24 2.41-11 .395036-3.5692102 1.183149-7.0838591 2.35-10.48 1.76-4.76 1.95-9.77 3.48-14.52.38-1.14.06-2.51.06-4-2.84.68-3.74 3.12-5.6 4.16l-1-1c.25-4.66 3.77-7.15 6.61-9.77 2.237624-1.7515596 3.335519-4.5884286 2.86-7.39-3.17 1.84-6-2.86-8.74.08-2-.54-3.63-.95-5.24-1.44s-3.47-.59-4.31-2.46l-.92.92-3.34-1.71h-4.48c-.35 1.13-.7 2.27-1.09 3.51l5.19 1.79c.35 1.34.39 2.91 1.14 4 .9 1.25.11 2.61.85 3.85.6 1-1.39 2.23-.09 3.62h-2.46c-2.24-3-2.24-3-5.87-4.88l-2.51 6.36c0 .35.54 2.33-.11 2.87-1.33 1.1-.37 2.58-1.26 3.56s0 1.87-.51 3c-1.418717 2.8225456-2.148645 5.9410168-2.13 9.1-.077177.3883355-.204933.7648772-.38 1.12l-1.34 1.15c-.87 4.11-1.39 7.88-2.52 11.45-1 3.09-.9 6.49-2.73 9.35-.640542 1.0818262-1.023749 2.2964538-1.12 3.55-.478929 2.5930184-1.103248 5.1570634-1.87 7.68 0 .2.31.51.47.75l1-.89c3.74 2.72 8.27 2.76 12.45 3.86.44.11 1.09-.53 1.51-.75.656131.3825602 1.37893.6370669 2.13.75 1.599887-.15421 3.18183.435792 4.29 1.6 1.28 1.59 3.18 1.31 4.66 2.24.672296.425773 1.486213.566989 2.262643.392574.776431-.174416 1.451752-.650171 1.877357-1.322574z" fill="#000"/><path d="m678.029403 117.279932c1.247401 2.311346 2.046161 4.838609 2.353986 7.44797.312045 1.96399.507336 3.944817.584841 5.932012 0 1.896779 1.286651 3.595825.731052 5.558515 1.308582 1.970014.475183 4.189026.731051 6.144393 1.293962 2.197041 2.602544 4.269583 2.193155 6.913357-.263178 1.62581.592152 2.929388 1.462104 4.45267 0 1.296255-.489805 3.112476.131589 4.394083.731052 1.464695 0 3.178387.906504 4.394083 1.008851 1.347519-.387457 3.200357 1.155062 4.298878-.065795 4.350142 2.061565 8.31214 2.193155 12.632988 1.272029 1.230344.204694 3.061212 1.023472 4.320849.913814 1.391459.095037 2.834183.533668 4.254937 1.28665 1.186402 1.410929 2.782919 1.381687 4.481964-.043863 2.61448.614083 4.584493 2.229708 7.228267-.665257 4.115791 1.696039 7.95329 1.388998 12.449901l1.352445.834876c.321663 2.753625.438631 5.12643.928436 7.396706.248557 1.171756 1.155061 2.197042 2.032323 3.786235-.299731 2.856154 1.40362 5.917365 1.915356 9.249545.482494 3.119798 1.959218 6.122422 1.886113 9.242221 1.304544 2.226589 2.035621 4.743331 2.12736 7.323471.124279 1.977338-.204694 3.954675 1.147751 5.770896.5556.732347.314352 2.065219.467873 3.37612l1.966529 1.266961c.614084 3.954674-.636015 7.169678-5.044256 8.971252l-7.07658 1.003316-1.052714 1.127815c-5.058878.820228-9.657192 3.434708-14.964627 3.112475-.1389.410114-.2778.834876-.42401 1.259637-1.937287.322233-4.232789.095205-5.724135 1.091197-2.112739 1.398783-4.525209 1.464695-6.689122 2.460687-1.41824.637142-2.924207 1.347519-4.678731 1.113168-.614083-.087882-1.293961.344203-1.959218.497996l-8.472889 1.948043-.731051 1.164432h-6.338218l-1.359756 1.464694-.731052-.54926c-3.655258.16844-6.930369 2.343511-10.687975 2.057895-1.462103 1.135139-3.194695.593202-4.810319.732348-.665257.058587-1.308583.454055-1.966529.497996-.877862.003292-1.754863-.055441-2.624476-.175764v1.75031c-.733548-.024106-1.467746.020024-2.193155.131823-.712947.240248-1.402909.544173-2.061565.90811-.4167-3.215004-2.310123-5.756249-2.799928-8.83943-.209261-.765467-.336693-1.551052-.380147-2.343511.131589-2.057896-.665257-3.815529-1.462103-5.624426-1.537368-3.574305-2.547062-7.353799-2.997312-11.219559-.544107-3.14229-1.306249-6.242753-2.280881-9.278838-.979609-3.507943-2.12736-6.949975-2.82917-10.553123-.774915-3.961998-1.813008-7.865408-2.193155-11.907964-.058484-.732347-.85533-1.340196-1.155061-2.065219-.774915-1.896779-1.235478-3.918058-1.864182-5.858777-.935746-2.856154.160831-5.910042-1.293961-8.597756-.212005-.388144-.065795-.952051-.226626-1.369489-.472454-.896398-.878076-1.826575-1.213546-2.782919-.123228-.971797-.13794-1.954327-.043863-2.929389-1.257409-1.135138-1.462103-2.585186-1.462103-4.167055-.082793-1.506279-.327901-2.999176-.731052-4.452671-.527319-1.552596-.774855-3.186753-.731052-4.826168.13159-1.537929-1.191614-2.856154-.731051-4.452671-1.98115-3.947351-1.41093-8.568461-3.326285-12.530459-.159116-.299913-.267794-.62405-.321663-.959375-.255868-2.585186-.453252-5.170371-.731052-7.748233-.116968-1.010639-.504425-1.991984-.731051-2.9953-.606773-3.068534-1.169683-6.144392-1.608314-9.249544-.263179-1.860162-.504426-3.698354-.621394-5.573162 0-.534614-.533668-1.017963-.614083-1.5599-.4167-2.812213-1.535209-5.514574-1.535209-8.443962-.036552-1.611164-.526357-3.207681-.672567-4.826168-.146211-1.618487.175452-3.280915-.731052-4.848138-.314352-.556584-.051173-1.464695-.051173-2.402099-2.39785-1.735663-2.317434-4.657728-2.924207-7.323472 1.308582-2.372804 1.615624-5.243605 3.750295-7.44797.869951-.043941 1.83494-1.039933 2.851101-.476026 1.462104.827553 2.346676-.490672 3.509048-.732347 1.162372-.241674 2.273571-.461379 3.655258-.732347l1.140441-1.142462h4.510589l.85533-1.508635h2.763375l1.250098-1.428077c3.17913.100804 6.296489-.894486 8.831104-2.819536 3.172764-.651789 6.345528-.593201 9.34284-1.625811.431321-.146469 1.074646-.065911 1.293962-.344203.731051-.930081 1.769145-.988669 2.777996-1.310901 2.463644-.776288 5.190466-.878817 7.310516-2.7096849.2778-.2416746.950367-.0439409 1.462104 0 2.397849.0585877 4.620246-.3075858 6.462496-2.0871894.526357-.512643 1.425551-.6298186 2.12005-.9081105l.774915.7323471 4.050026-2.1970414c.833398-.1977337 2.193155-.1684399 3.574842-.5419369 1.84225-.5053195 3.779537-1.2669606 5.848413-.9740217.891883.1318225 1.988461-.4467318 2.843791-.9520513 2.244329-1.3182249 4.715283-1.5306056 7.098512-2.065219 1.761834 2.8122131 3.143522 5.3900751 3.282421 8.5245209.073106 1.8162211 1.060025 3.4640021 1.542519 5.2143121.455864 2.07965.664446 4.206039.621394 6.334803 2.237018 3.822852 2.478265 5.104459 1.505967 7.206296zm-87.665662 12.083128c.138582 2.258501-.182344 4.472863.495977 6.312033.805574 2.203978 1.174799 4.545908 1.086772 6.893211v1.714106l1.218061 1.228566c.306338 1.66261.576208 3.141303.860665 4.693563-1.013835.853375-.65644 2.015731-.393864 3.384074l1.035716.735668c.393864 3.32522 1.298292 6.223753.940897 9.247349-.267312 1.545999.263025 3.123017 1.407699 4.185952l-.634559.875445c.517858 1.50812 1.298292 2.788182 1.320174 4.075601 0 1.831814.729377 3.398787 1.210766 5.046684.32822 1.081432 1.094066 2.207005.98466 3.222227-.364689 3.531207 1.254529 6.863784.729377 10.630405l1.458755 1.022578c-1.684862 2.111368 1.035716 3.678341 0 5.340951l1.458755 1.471337c-.255282.294267-.583502.529681-.729377.846018-.124066.352143-.124066.736646 0 1.088789.393864 1.052005.962778 2.052514 1.298292 3.12659.466801 1.471336 1.801562 2.883819.226107 4.553786-.255283.26484.415745 1.280062.364688 1.92745-.138581 2.001018 2.465296 3.01624 1.735919 5.149677 1.320173 2.074585.583502 4.76713 2.086019 6.871141.557924.943123.343434 2.15651-.50327 2.847036l2.071432 3.075093c-.072938 1.714107-.1167 3.626844 1.327467 4.96576.058987 1.103357.188109 2.201759.38657 3.288437.277163 1.088788.977366 2.089297 1.145123 3.185443.122557 1.310847.139632 2.629553.051056 3.943181l1.356642 1.368343c-.495976.890158-1.006541 1.581686-.247988 2.810252 1.064891 1.72882 2.282951 3.567991 1.808856 5.885346 1.188885 1.162355.262576 2.839679.882547 4.038818 1.458755 2.839679 1.458755 6.010409 2.363183 9.298845l1.130535.846019c0 3.781334.320926 4.96576 2.188132 8.22477-.123994 2.148151-.211519 4.414009 1.772388 6.135473.984659-.044141 1.940144.228057 2.997741-.544395.547033-.389904 1.896382.345764 3.114442.625318l1.079479-1.412483c1.407698-.308981 2.70599.448758 3.646887-.735668.809609 1.037292 1.502518-.139777 2.26107-.169204.999247 0 1.983907-.640031 2.983154-.647388 3.048798 0 5.762082-1.809743 8.832761-1.611113 2.91751-1.853884 6.484166-1.221209 9.948709-2.493915l.561621-.735668c2.487177-.559108 4.529434-.912229 6.513341-1.471337 2.713284-.772451 5.324456-2.030444 8.081502-2.464488 2.757047-.434044 5.156699-1.66261 7.461532-2.795539l2.188133.617961 1.407698-1.353629 11.115713-1.934807c.123994-.257484.44492-.926942.729377-1.537547l1.597337.934299 3.369724-.816592 2.851866-2.530698c-.145875-1.861241 0-3.678341-.663734-5.598435-.663733-1.920094-.525151-4.031462-.991953-5.885346-.663733-2.604265-1.714037-5.149677-2.326714-7.820152-.612677-2.670476-1.458755-5.333594-1.81615-8.04821-.226107-1.559616-.364689-3.016239-1.531693-4.163882v-2.942672c-.403931-1.28402-.891236-2.539824-1.458755-3.759265-1.757799-3.038309-1.232648-6.547446-2.107901-9.77703-.926309-3.420857-1.786974-6.87114-2.574702-10.299354-.729378-3.14866-2.078726-6.179613-1.889088-9.519546 0-.537038-.357395-1.081432-.44492-1.64054-.320926-2.045158-1.210767-3.935825-1.641099-5.922129-.59809-2.751399-.671028-5.620505-.977366-8.474897l-1.137829-1.147642c-.306339-2.596909-.196932-5.208531-1.04301-7.459676-.495977-1.331559 0-2.773469-.685615-3.729837-.962778-1.280063-.364688-2.560125-.605383-3.810761-.109407-.566465-.233401-1.132929-.357395-1.692037-.612677-2.685189-1.342055-5.355664-1.794269-8.09235-.408451-2.449775-.517858-4.94369-.77314-7.415535-.045241-.22304-.137256-.433739-.269869-.617961-1.502518-2.464489-1.108654-5.385091-1.830738-8.04821-.787728-2.891176-.481389-6.039836-1.538986-8.931012.488683-4.325728-2.764341-7.952573-2.290246-12.278301-.887164-2.153931-1.381347-4.451764-1.458755-6.782861-.17505-2.251144-.933603-4.458149-1.414992-6.621013-1.261823-.176561-1.889088-.603248-2.188132-1.7361772-.517053-1.5741988-1.118458-3.118923-1.801563-4.6273528l-2.239189 1.7435336c-1.852618.0882801-3.603124-.1103503-5.17858.3384073-1.27641.3678341-2.385064 1.1697124-3.858407 1.294776-1.473342.1250636-2.76434.9048718-4.142864 1.3904128-1.232648.4340443-2.58929 1.4198393-3.646887 1.1697123-1.604631-.375191-2.246483 1.184426-3.552069 1.132929-.335513 0-.729377.514968-.612677.441401-4.07722-.434044-6.746741 1.677323-9.620489 3.023596l-.846077-.684171c-1.546281.772451-2.997742 1.92745-4.587785 2.162864-1.830737.272197-3.581243.912229-5.5068.971082-1.925556.058854-3.887582 1.096146-6.301821 1.853884l-1.633806 1.70675h-4.937885c-3.501012 2.111368-7.074962 3.21487-10.524917 2.942673-1.823444 1.118215-3.201968 2.398278-4.784717 2.773469-.838784.205987-1.9912 1.331559-3.03421.2207l-3.267611 1.72882c-.226107 7.724516-.226107 7.724516 1.254529 10.152221z" fill="#000"/><path d="m207.379926 141.018149.65406.725755c-1.025502 2.741739-.977053 5.451223-1.332345 8.644543-.573312.379005.395666 1.983729-.226095 2.741739-1.025502 1.257975-.169571 2.725612-.807482 3.72554-.542713 1.028449-.791355 2.186285-.718659 3.346535-.056523 1.282166.314918 2.653036-.807482 3.701348 1.009353.983801.064599 1.967601 0 2.959466-.080748 1.274102-1.073951 2.298222-.847856 3.701348.116982 1.31934.133178 2.645661.048449 3.967458l-1.849133 1.314422.968978 2.846571c-1.655338 1.999857.242245 5.273816-2.139827 7.338184.299483.617759.485463 1.2842.549088 1.967602-.180083 1.116816-.430906 2.221104-.750959 3.306215-.234169 1.06444-.952828 2.524013-.516788 3.128808.977053 1.354742-1.316195 2.032113-.306843 3.120745-1.283896.846713-.605612 2.177263-.807482 3.290087s-.508714 2.201455-.807482 3.298151c-.258394.967673-.250319 2.241775-.87208 2.814315-.92053.806394-.096898 1.612788-.355292 2.419182-.314918.959608 1.138549 2.096624-.169572 3.330407-.807482.806394.363367 2.346606-.864005 3.273959-.274544.209662-.104973.999928-.161497 1.516021-.266469 2.306286-.282618 4.677084-.880155 6.902732-.557162 2.056304-.807482 4.17712-1.405018 6.241489-.855931 3.088488-.807482 6.451151-1.1547 10.184755l-1.614963 1.06444.63791 1.419253c-.597536 3.346535-1.227372 6.870477-1.905657 10.708912l.645985.919289-1.614963 4.572253.710584.806394c-.508714 1.314422-1.501917 2.636908-1.380794 3.846499.266469 2.70142-1.009353 5.112538-.952829 7.741382 0 .701563-.508714 1.403125-.637911 2.12888s-.43604 1.846642-.064598 2.322414c1.316195 1.71762.476414 3.507814.855931 5.644758-1.364645-.22579-2.349773-.379005-3.326826-.57254-.492564-.088703-.985128-.435452-1.445393-.379005-3.31875.411261-6.580977-.274174-9.738231-.927353-3.674043-.75801-7.267338-1.919217-11.054428-1.532148-1.283896-1.524085-3.181479-.177407-4.47345-.870906s-2.737363-.677371-4.150457-.725754c-.268385.028862-.539097.028862-.807482 0-1.937956-.524156-3.851688-1.137016-5.79772-1.612788-1.946031-.475773-3.827464.459644-5.789645-.693499-1.186999-.701563-3.092656.177407-4.441151-.943481-4.408851-.072575-8.583532-1.78213-13.056982-1.709555-1.774098-.074566-3.526976-.41434-5.200184-1.007992-.847187-.266486-1.722388-.434255-2.608166-.499965-1.416837.039502-2.827474-.201682-4.150457-.709626-1.170849-.540284-2.777738 0-4.085859-.87897-.750942-.454184-1.596301-.730073-2.470895-.806394-1.057801-.137087-2.147901 0-3.229927-.048383-1.5261411-.088704-3.0199826.22579-4.5622731-.693499-1.2354473-.741882-2.9473089.153215-4.5622728-.677371-1.6149638-.830586-3.8759132.233854-5.6119993-1.032184-4.1666067.064511-8.2201659-1.02412-12.2172014-1.798259-3.8355391-.749946-7.8002753-.887033-11.5712158-2.161135-1.7764602-.596732-3.7547909-.048384-5.7411964-.741883-2.4224458-.806394-5.1113606-.71769-7.6953027-.919289-.8501688-.184362-1.6887134-.418623-2.5112687-.701563-1.7603106-.290301-3.4721723-.854777-5.2809318-1.06444-5.4182036-.620923-10.9171555-1.007992-16.1496383-2.773995-1.2045414-.27069-2.4319692-.427286-3.6659679-.467708l-1.0901006-1.128952c.3472173-2.193391-.5167884-4.580317.5167885-6.87854.9124545-2.032113-.0484489-4.281952 1.0174272-6.451151.8559308-1.749875.1372719-4.354528 1.1304747-5.943124 1.2192977-1.967601.1049726-4.031969 1.2354473-5.99957.8963049-1.612788.3310676-3.967459.8640056-6.047955.8882302-3.443302 2.2609494-6.87854 1.7764603-10.596016-.0726734-.516092.6459855-1.096696.7348085-1.677299.4360402-3.023978.9609035-6.023763 1.6149638-9.015485.3763134-2.366642.8912944-4.709207 1.5422905-7.015627.5571625-1.612788.1614964-3.491686.8074819-5.314136.8074819-2.274031.492564-4.838363.9689783-7.257545.6136863-3.104617 1.1869984-6.233425 1.8410588-9.321914.5560956-2.067111.9768756-4.168176 1.2596718-6.289873.2281856-2.403425.718266-4.774814 1.4615422-7.072074.2987683-.983801.0968979-2.096625.2664691-3.128809s.5975366-1.919217.7671078-2.903018c.3310676-1.886962.3714417-3.854563.8720804-5.693141.5006388-1.838578.807482-3.644901 1.4373179-5.443159.8074819-2.112752.621761-4.572254.9447538-6.870476.3692875-3.560396.9489939-7.095879 1.7360861-10.587953.3203943-1.224075.5551307-2.468927.7025093-3.72554.1881803-1.250023.4579151-2.486438.8074819-3.701348.9205294-3.532005.6782848-7.338185 2.7777378-10.926638 1.2112229.282238 2.7131392-.669307 4.1746815.709627.4198906.403197 1.5503653.064512 2.3578472.064512 3.3671996 0 6.7343992-.096768 10.0935239 0 2.3174731.096767 4.6187966.612859 6.9362697.741882s4.9902382-.4919 7.2673372.161279c3.1653291.919289 6.2741345.411261 9.3910147.701563 1.3888689.137086 2.7858126-.459645 4.2150556.588667 1.0416517.75801 3.5771449.129023 5.2082583-.612859.6521035.373241 1.3573103.645155 2.0913782.806394 6.879746.322557 13.767567.556411 20.655387.854777 1.001278.04032 2.220576-.524156 2.737364.806394.985128-.314494 2.018705-1.040248 2.608167-.806394 2.955383 1.29023 5.99959.685435 8.987273.677371 4.223131 0 8.333214 1.451509 12.588643.895097.258395-.040319.597537.475773.68636.556412.847856-.22579 1.986406-.806394 2.204426-.53222 1.082025 1.241847 2.317473-.588667 3.665968.483837.993202.806393 3.092655.137086 4.683395.282237 1.388869.137087 2.955384-.645115 4.134307.725755 2.608167-2.12888 5.103286.669307 7.800275.169343 2.788995-.516059 5.649192-.516059 8.438186 0 3.674043.701562 7.436909.096767 10.95753.806394 5.5797 1.161207 11.119026.26611 16.650277.701562 2.422446.185471 4.844892.61286 7.37231.943481v4.160993l-1.057801 2.056304-1.162774.241919c-.314918 2.257903.339142 4.52387-.807482 6.604366-.201871.354813.347217 1.137015.605611 1.870834l-1.421168 1.24991.694435 1.056376c-.92053 2.749804-1.663413 5.378648-2.470895 7.991364zm-26.478324 134.981851c.39409-.949591.989246-1.569239.981204-2.591256 0-1.979655-.353877-4.2973.530814-5.850445.884692-1.553144 0-3.16262.932948-4.466295 1.037502-1.456576.281493-3.082146.506687-4.611148.056298-.394322-.12064-.86107 0-1.19906 1.254653-2.880961.804265-6.043581 1.60853-8.99697.73642-2.954236 1.273805-5.954607 1.60853-8.980875.080426-.587458.747966-1.126633.739923-1.681902 0-3.758126.957076-7.355304 1.656786-11.000767.209109-1.102491.804265-2.213029.739924-3.283331-.101127-2.33324.225983-4.665269.965118-6.880509.559498-1.435167.78237-2.979668.651454-4.514579-.353876-2.052082.66754-3.806411.989246-5.689497.128683-.740359.490602-1.609476.699711-2.494688.804952-3.081078 1.343119-6.225819 1.60853-9.399339.064341-.973733.587113-1.907229.747966-2.889009s-.217151-2.349835.297578-3.074099c.739924-1.046159.329749-2.035987.538858-3.017767s.804265-1.939418.747966-2.889009c-.085706-2.332863.204873-4.664301.860564-6.904651.241279-.804738.804264-1.673855.747966-2.48664-.15281-3.420136 1.36725-6.679325.892734-10.131651-.072384-.531127.538858-1.118585.651455-1.714091.353876-1.87504.627326-3.766174.916862-5.633166.289535-1.866992.538857-3.798363.804265-5.705591.193023-1.376102-.056299-2.679778.66754-4.152448.85252-1.746281.715795-4.02369.924904-6.035534.12064-1.191012-.353876-2.70392.217152-3.508658.844478-1.182964.112597-2.470545.683625-3.347709.571028-.877165.096512-1.87504.386047-2.808536.515123-1.836144.907401-3.704592 1.174227-5.592928.249322-1.47267.418218-2.969483.619284-4.409964l-.804265-.997875c-.593756.316158-1.239327.523299-1.906108.611601-.707753-.064379-1.407464-.756454-2.075003-.716217-4.093709.265564-8.106991-.804738-12.136359-.756453-7.552047.088521-15.023669-1.456576-22.583759-.933496-.691314-.09287-1.357891-.319749-1.962407-.667933-.967126.338067-1.971818.556959-2.991865.651838-.973161 0-2.308241-1.005922-2.806885-.64379-1.101843.804738-1.793511-.152901-2.629947-.080474-5.83092.539174-11.541202-1.046159-17.356037-.869117-1.563584-.071996-3.118485-.273875-4.648652-.603554l-.844478.651838c-.747989-.367694-1.539915-.638135-2.356496-.804738-3.91677-.185089-7.80137-.193137-11.742268-.692074-6.249139-.804738-12.643045.378226-18.956525-.877165-3.0320792-.603553-6.1847978.120711-9.3375164-.748406-2.3645389-.651838-5.0588265 0-7.6003038-.160948-2.5414772-.160947-5.139253-.595506-7.7129008-.748406-2.2680272-.128758-4.5521397 0-6.8282095 0-.8042649 0-1.8015535.120711-2.2599845-.297753-1.4074637-1.31977-2.3725816 0-3.5065952.321895l-1.4557195-.804738h-6.7960389c-2.1473874-1.665807-4.519969-.410416-6.5225887-.804737-.5549428.555269-1.0375018.804737-1.0857577 1.126633-.4664737 3.138477-1.8015535 6.10796-1.7532976 9.351054.0344647.893732-.118974 1.784748-.4503884 2.615398-.6997105 1.722139-.5469001 3.782268-1.1983548 5.544644-.8042649 2.164745-.1206397 4.54677-.8605634 6.437904-1.6889564 4.426058-2.1071742 9.093538-2.9114392 13.63226-.619284 3.492562-.9490326 7.105836-1.88198 10.534019-.595156 2.196935-.0643412 4.587006-.8042649 6.47814-1.8176388 4.409964-1.7693829 9.133776-2.9194818 13.680545-.8605635 3.387946-1.0938003 7.049504-1.8337241 10.542066-.3458339 1.609476-.458431 3.339663-.8846914 4.828428-.5469002 1.931371 0 4.168542-.8686062 5.633165-.8686061 1.464623-.2010662 2.736109-1.1179282 4.02369-.804265 1.102491-.5227723 2.969483-.6916679 4.498485s-.2171515 2.848772-.4343031 4.257063c-.0884691.587459-.5790707 1.118586-.6836252 1.714092-.8578826 4.747953-1.6916373 9.49859-2.501264 14.251908-.2165072 2.027781-.5413589 4.042509-.9731606 6.035534-.9128159 2.666869-1.4224436 5.455195-1.5120181 8.272706 0 .804738.1528104 1.786518-.2573648 2.277408-.9329473 1.134681-.3780045 2.204982-.5066869 3.556942l4.6566941.708169c1.2596275.122872 2.5110367.319023 3.7478747.587459 2.404549.728923 4.8479704 1.322674 7.318811 1.778471 3.0803348.466748 6.2008828.587458 9.3133881.853022.3895028-.020474.7798745.017502 1.1581416.112663 3.8122158 1.609476 7.9702656 1.891134 11.9192065 2.100366 3.948941.209232 7.3992376 2.51883 11.3642638 1.858945 2.8149273 1.609476 5.8952621 1.649713 8.9997248 1.561191.2668598-.036317.5374052-.036317.804265 0 3.3142894.968638 6.7387053 1.509511 10.1900369 1.609476.4664737 0 .916862.402369 1.3913783.482843 3.6352776.611601 7.1257878 2.003797 10.8736618 1.915276h3.8846l1.520061 1.520955 1.109885-.732312c2.412795.732312 4.640609 1.545097 7.093617 1.665808 2.702331.128758 5.501173.177042 8.04265.965685 2.776239.978163 5.702739 1.460298 8.645848 1.424386.892734 0 1.890023-.249468 2.493221.756454.595156-.925449 1.053588-.386274 1.761341 0s1.76134.233374 2.637989.418464c1.841766.386274 3.659405.933496 5.517257 1.223201 1.60853.257516 3.21706 0 4.930144.732312 1.713085.732311 3.747875.659885 5.629855.901306 2.292155.297753 4.82559.056332 6.820167.981781 1.60853.756453 3.257273 0 4.528012.716216 1.648743.909354 3.281401.643791 4.938186.716217 1.190312.048284 2.412795 0 3.09642 0z" fill="#000"/><path d="m504.66 280.92 2 .23c2.53 3.63 13.74 16.34 15.19 17.2.08.74.17 1.53.23 2.1.92.61 2 .94 2.43 1.66 1.43 2.21 2.56 4.6 4 6.84s3 4.4 4.47 6.6l-.47.47 3 3c-2.24 3.46 2 4.66 1.63 7.55-.28 2.36 2.89 4.25 1.89 6.62-.67-.67-1.51-1.52-2.36-2.36l-.66.65c0-.66.28-1.54 0-2-2.15-2.82-4.43-5.53-7-8.65v-1.33c-2.35-.95-4.27-2.25-4.12-5.07-2.6-3-6.11-5.1-7.12-9.17l-1.73-.61v-1.65c-5.85-5.66-10.35-12.06-16.13-18h-1.41c-1.58-2-3.73-3.4-4.94-5.87-1-2-4.69-4.08-8.84-6.22-.56-.29-1-1.84-1.11-1.79-2 .62-1-3-3.09-2.16l-2.52-2.9-2.31-.11c-.606128-1.033376-1.338413-1.987363-2.18-2.84-2-1.49-4.18-2.76-6.28-4.11-1.964962-1.387893-3.835733-2.904554-5.6-4.54-2.15-1.82-5.08-2.86-7.61-4.4-4-2.44-8.15-4.58-11.95-7.36-.93-.68-2.4-.65-3.91-1l-1.66-1.7h-3l-2-2c-2.17.05-4.52.29-6.32-1.37s-4.34.49-5.84-1.62c-4.33.07-8.26-2-12.64-2.23-3-.15-6-.64-9.09-.82-1.042262-.189772-2.052327-.526461-3-1l-1.13 1-3.79-2.71c1.6-2.83 4.28-3 6.8-3.78 1.44.86 3.33.47 5.18.53s3.83.62 5.59.74 3.81.09 5.64.35 3.41 1.41 5.19 1.86c1.862047.387308 3.745317.664456 5.64.83l.69-.69c1.97818 1.624745 4.573831 2.291047 7.09 1.82l1.65 2h4.12c1.65 1.11 3 2.05 4.4 3l.57-.57c1.947841 1.307093 3.982562 2.479814 6.09 3.51 8.22 3.37 13 7 16.24 10.29 2.62 1.35 5.11 1.83 6 3.28 1.13 1.88 3.35 1.79 4.16 3.1 1.06 1.71 3 2.09 4.06 3.54.24.32.9.28 1.24.56 2.24 1.86 4.39 3.83 6.68 5.62s4.61 3.32 6.93 5c.65 3.68 4.44 3.84 6.74 5.36 2.12 1.31 2.61 3.18 4.27 5.32z" fill="#805ad5"/><path d="m296.71 268.81c6.25-2.64 10.78-6 16-8.47l1.34.79c1.27-2 3.14-2.73 5.46-3.31 2.742246-.67703 5.261329-2.055461 7.31-4 .62-.59 1.7-.7 3.18-1.26l3.31-3.45h3.3l2.53-3.28c4.11 1 6.19-2 8.91-3.4s5.22-3.25 8.11-4.53c2.55-1.13 4.62-3.41 6.77-5.33 1.14-1 1.89-2.45 3-3.5 1.252523-1.068831 2.56104-2.070247 3.92-3 .72342-.143089 1.473999.010365 2.083209.425906.60921.415542 1.026001 1.058349 1.156791 1.784094l-9.12 8.37c-3.86 3.54-7.65 7.17-11.64 10.54-1.633891 1.185539-3.428664 2.131751-5.33 2.81-2.997715 1.215211-5.559248 3.306259-7.35 6h-3.06c-.89 2.94-3.79 2.79-5.89 3.68-1.271437.585644-2.458667 1.339014-3.53 2.24-1.24.95-3.33.71-4.87 1.39s-2.47 2.31-3.89 2.63c-3.29.73-6 2.66-8.75 4.21-4.48 2.48-9.26 4.5-13.25 7.87-1.990595 1.513534-4.108505 2.851866-6.33 4-.37.22-1 0-1.13 0-.879437 1.098858-1.886518 2.089154-3 2.95-2.803489 1.456586-5.41656 3.253493-7.78 5.35-.774112.778877-1.734533 1.346868-2.79 1.65-2.9.64-4.14 3.88-7.12 4.35-.470552.159934-.840066.529448-1 1-.56 3.34-3.88 4.32-5.78 6.44-3.29 3.67-9.61 10-11.44 13.14-.48.82-1.16 1.52-1.69 2.3-.79 1.17-2 2.3-2.2 3.56-.34 2.78-2 4.9-3.17 7.2-1.58 3-3.21 6-4.58 9.09-.75 1.71-2.11 3.16-3.09 4.74-1.9 4-4.53 7.74-5.65 13.32-1.31-4.85.95-7.59 2.32-11.08-.1-4.5 1.85-8.95 3.91-13.34 1.64-3.49 3.13-7.15 5.4-10.21 1.457769-1.837323 2.674324-3.853713 3.62-6 1.86-4.69 5.09-8.3 7.56-11.45.351271-1.147011.830979-2.250674 1.43-3.29.93-1.13 3.34-.8 3.15-3.12 1.53-.32 1.86-1.79 2.73-2.76 1.72-1.91 3.4-4.15 6-4.74 2.28-.52 2.53-2.79 4.31-3.84 3.41-2 6.36-4.8 9.5-7.28l6.5-5.17 1.65 1.26 1.84-2.89c3.19-.61 5.66-2.84 7.13-4.39z" fill="#805ad5"/><path d="m356.65 462.14c.54-2.5 1.05-4.79 1.53-7 2.05-.4 3.57 0 3.77 2.09.15 1.5.61 2.47 2.15 2.78.307771.041532.591044.19025.8.42.74 1.19 1.42 2.4 2.1 3.62s1.33 2.45 2.14 4h4.62c.21.8.32 1.25.46 1.79 3.23.81 6.81-.77 9.92 1.21l3.62-1.93h4.77c1.06-2.25 3.54-2.33 5.53-3 4.19-1.37 7.83-3 9.18-7.72.4-1.43 1.78-2.58 2.74-3.84s1.75-2.24 2.72-3.48c1.51-.06 3.43-.54 4.4 2-.25.39-.59.9-1 1.56.51 1.89 1.07 3.94 1.64 6.06l-3.39 6.62-4.12 2.11c-.38 1.68-1.3 3-3.42 2.61l-5.81 4.45c-2.87.65-5.47.87-7.72 1.87-1.88.83-3.28 1-4.83-.32-2.74 2.81-6.31 1.76-9.68 2-2.11-1.49-4.39-2.51-7-1.95-1.325863-2.71019-3.854464-4.634448-6.82-5.19l-4.79-5.48c-.5-2.24-.5-2.24-3.51-5.28z" fill="#805ad5"/><path d="m283.78 262.22c.289587-.527821.62416-1.029681 1-1.5 1.26-1.33 3.13-2.39 3.73-4 .74-1.93 2.68-2 3.67-3.38 1.055788-1.500821 2.357419-2.812594 3.85-3.88 3.89-2.75 7.26-6.14 11.39-8.61 2.45-1.47 4.17-4 6.65-5.65 3.06-2.07 5.68-4.82 8.43-7.22.73 0 1.74.19 2-.14 2.4-3.24 6.59-3.68 9.5-6.21 1.89-1.64 5-1.83 7-3.4 1.62-1.29 3.58-1.12 5.11-2.26 1.388321-.987527 2.89298-1.800311 4.48-2.42 1.45-.61 3 0 4.13-.87.95554-.841202 2.071196-1.480663 3.28-1.88 1.26-.36 2.58.13 3.88-.68 1.06-.65 2.65-.28 4.08-1s3.26-.14 4.92-.14h4.44l3 2.78c-.48 1.12-.9 2.11-1.33 3.1-2-.9-3.23 0-4.57 1.12h-2.84c-1.15 0-2.34-.22-3.08 1-.73-1.36-1.36-.39-2.19-.06-1 .4-2.21.26-3.27.57-1.042163.402817-2.046171.898128-3 1.48-2-.1-4.63-.1-6.58 2-5.22 1.06-9.13 5.29-14.49 6-1.9 2-4.81 2.1-6.83 4.14-2.3 2.32-5.29 4-8 5.83-.34.23-1 0-1.63 0-1.89 1.73-3.52 4.17-6.68 4-2.13 2.46-5.39 3.28-7.76 5.41-1.21 1.09-2.47 2.13-4.11 3.53h-1.5c-1 4-5.16 4.9-7.67 7.54-2.278009 2.521529-5.118071 4.47086-8.29 5.69z" fill="#805ad5"/><path d="m369 413.46 4.91-4.89c-.37-2.87 2.15-4.43 3-6.73s1.52-4.71 2.53-7.9l2.6-2c-.468745-3.922942.44351-7.886657 2.58-11.21l1.47-11.37c2.33-1.66 2.33-1.66 4.87.11-.33 2 .09 4-.82 6.32s-.27 5.25-.18 7.91c.18038 4.473374-.481088 8.940827-1.95 13.17-.26.73.35 1.76.6 2.88-1.470068 1.927572-2.061632 4.38456-1.63 6.77-2.75 1.88-2.19 5.54-4.57 7.73-2 1.85-3.22 4.55-4.63 6.65l11.22 10.1v2.78h-5.28c-5.16-2.86-10.11-6.2-14-12.39-.88-1.75-.87-4.81-.72-7.93z" fill="#805ad5"/><path d="m326.6 365c1.69-.21 3 .19 3.43 2.3.16.9.88 1.72.93 2.59.17 3.32 2.14 5 5.13 6.14 1.39-1.15 2.92-1.76 4.47-.1 1.24-2.35 8.66-8.35 16-12.92l1.55 1.55-2.08.68.9 1.27-2.93 3.7c-.024851.48944.032613.979581.17 1.45.288767.603537.66257 1.162557 1.11 1.66-1.5 2.3-1.5 5.46-4.22 6.61-2.55 1.06-4.46 3.37-7.69 3.33-1.38 0-2.78 1.88-4.07 2.83-5.364689-2.140542-10.22211-5.379958-14.26-9.51-.04-3.79-2.93-7.82 1.56-11.58z" fill="#805ad5"/><path d="m421.2 365.17c2 2.82 4 5.6 6.16 8.49l7 2.3c.19-.15.53-.63.93-.71 3.5-.63 4.86-3.59 6.73-6 1-1.27 2-2.47 3-3.75s1.77-2.47 3.35-4.7l.84 3.82.47-.79c-.22 2.69-.47 5.37-.65 8.07-.15 2.12-2.28 5.61-4.4 7.12-1.41 1-2.82 2-4.19 3.1-.645488.573273-1.259707 1.180815-1.84 1.82h-10.15c-1.971222-1.461466-3.857609-3.034013-5.65-4.71-1.688311-1.939171-3.26103-3.976026-4.71-6.1v-7.94z" fill="#805ad5"/><path d="m668.787606 220.546152c-3.842831-.673972-6.946098 2.813105-10.556908 2.197738-2.43621 1.245385-4.560643 2.439489-7.076609 2.153783-1.247107-.146516-2.175187.556761-3.320786.78386-.529295.109887-1.029588.732579-1.51538.673973-3.103267-.219774-5.69899 1.465159-8.591989 2.197738l-.630804-.549435-4.807164 3.318584-1.000586 1.677607c-1.682144-1.369923-3.538304-.432222-5.336459-.820489.145013-.732579.725063-1.8461.369782-2.322276-.616303-.893747-.297275-1.934009-.725062-2.651937-.906328-1.589697-.543797-3.230675-.659807-4.593272-1.138348-2.131806-2.030175-4.058489-2.225941-6.314833-.101509-1.194104-.725063-2.35158-1.138348-3.706851 0 0 .23202-.249077.456789-.50548-.877325-2.446815-1.7474-4.886304-2.842244-7.933833.23927-1.816797-.899078-4.095119-1.167351-6.476001-.319027-2.791127-1.754651-5.245268-1.841658-8.058372 0-1.06224-.725063-2.109828-1.305112-3.560335-.514795-3.054856-.964333-6.593214-2.175188-9.970404-.616303-1.70691-1.189102-3.589639-.797568-5.530974.283848-1.27579.003222-2.61322-.768566-3.662896-1.232606-1.531091-1.450125-3.37719-1.834408-5.128055-.384283-1.750864-1.138348-3.51638-1.065842-5.450389.056603-1.262363-.192272-2.519635-.725062-3.662897-.725062-1.369923-.420536-2.769149-.725062-4.109769-.372536-1.655532-.942237-3.259359-1.696646-4.776417-1.370368-2.798453-1.587887-5.95587-2.718984-8.754322-.899077-2.197738.079757-3.662897.630804-5.45039.609052-1.98529 2.051927-2.644611 3.900836-2.747172.833821-.043955 1.674894 0 1.732899 0 2.987257-1.157476 5.227699-2.256345 7.598653-2.842408 1.167351-.285706 2.175187-.351638 3.13227-1.303991.598973-.532309 1.378187-.810486 2.175187-.776534 2.965505.197796 5.575729-1.260036 8.388971-1.750865 1.819907-.322334 3.821079-.307683 5.430717-1.838774.725063-.688624 2.291197-.380941 2.863997-1.684932h4.053098c.812207-.586915 1.687924-1.078468 2.610225-1.465158 2.360994-.733607 4.614189-1.783187 6.699576-3.120788.290025-.183145.572799-.564086.848323-.549434 2.175187.095235 3.531053-1.032937 4.6549-2.747173.253772-.388267.993336-.461525 1.62414-.732579l1.819906.813163c-.137761.732579-.297275 1.575045-.478541 2.549376l1.04409 1.054914c.290025 2.62996.565549 5.208639.855574 7.779992.016431.228034.096923.446596.23202.630018 2.21869 2.798453 2.044675 6.117037 1.921415 9.281779l1.450125 1.465159c-.088 1.310557-.071027 2.626156.050754 3.93395.166764 1.084218.899077 2.080526 1.131097 3.164743.203944 1.33195.329841 2.674909.377033 4.02186l1.247107.446873v3.355213c.855573 1.765516 2.508716 3.201372.81932 5.128055 1.274049 2.441345 2.034383 5.122621 2.233192 7.875227.137762 2.153783.775817 4.270937 1.232606 6.593214l-.529295.615366 1.341365 1.465159c.34078 2.197738.659807 4.263611.957083 6.139014l2.073678 6.248901-.522045.564086c.72856 1.953251 1.355389 3.943708 1.877912 5.963195.964332 4.659205 2.827743 9.186544 2.124432 14.146106l1.450125.520131-.725062 1.135498 1.348616 2.651937 2.958254 1.355272v6.117037c-2.073678 2.021918-2.254944 2.073199-5.916509 2.59333-.868371.082127-1.70911.351954-2.465212.791186-2.428959 1.589697-5.495973 2.029244-7.830673 4.146398zm-11.213464-99.546152-.896187.16817c.348517 2.193524-.533445 4.123825-.87485 6.171114-.433868 2.544488-1.209141 5.081664-1.600334 7.677334 0 .102364-.213377.16817-.234715.263222-.362743 2.039978-1.379844 3.787485-2.176454 5.65198-1.06689 2.507929-1.09534 5.388757-1.500758 8.116039-.120914.826227.170702 1.784066-.128027 2.507929-.877436 2.136182-1.334331 4.429952-1.34428 6.748741 0 1.608585-1.038439 3.107493-.71126 4.81113 0 .073117-.120914.182793-.440981.650745l-.803723.731175c.640134 2.544487-1.422519 4.6064-.711259 7.172823 1.003608.652192 1.954976 1.385696 2.845038 2.193524.896187.92128 1.081114 2.749216 2.951727 2.127718 1.045551 1.074826 2.304481 1.959548 2.98729 3.180609.808904 1.383901 1.892174 2.577224 3.17933 3.502327 1.322943 1.016333 2.261805 2.551799 3.378483 3.860602.078238.087741.149364.204729.24894.248599 2.681449 1.16988 4.047067 3.538885 5.185082 6.06875 2.261806-.314405 2.759687 1.667078 3.556298 2.924698h1.628784c.446295.604724.936066 1.174199 1.465195 1.703637.440961.257301.922444.433013 1.422519.519134-.256053-1.572025-.22049-2.924699-.71126-4.006837-.782385-1.710949-.256053-3.546197-.753935-5.169405-.791521-2.415326-1.199788-4.945856-1.209141-7.49454.064282-.469398.020429-.947755-.128027-1.396543-.803723-1.55009-.839286-3.363403-1.422519-4.869623-.583232-1.50622-.917524-3.282974-1.614559-4.789194-.561895-1.199126.078239-2.449435-.462318-3.451144-1.948852-3.655873-1.251817-7.896686-2.752575-11.618365.512107-1.462349-.625908-2.676099-.775273-4.072643-.149364-1.396543-.860624-2.544487-1.187803-3.85329-.476544-1.908366-1.173578-3.772861-.9033-5.849397.325712-1.667021-.212723-3.388442-1.422519-4.547906 0-1.462349.561895-3.312221-.113801-4.255436-1.550546-2.193524-1.209141-4.460166-1.28738-6.083373-1.081114-2.230083-1.884838-3.911785-2.681448-5.542304zm-45.568975 11.310155c-.04296 2.358874.12888 4.337992 2.591926 5.192445.408121.14606.716002.635362 1.016723 1.007816 1.023882 1.263422 1.804324 3.227934 3.093127 3.651509 1.847284.628059 1.940364 2.724025 3.580008 3.308267.579962.204484.716002 1.592058 1.331763 1.854966 1.238683.540423 2.255406 1.219604 2.634887 2.519541.422441 1.416785 2.148005 1.321846 2.649206 2.848177.386641 1.248816 1.560884 2.263935 2.441566 3.330176.880682 1.06624 1.926044 2.190905 2.906967 3.249842.980922 1.058938 1.797164 1.942603 2.677846 2.921207.651561.730302 1.167083 1.913391 1.933204 2.103269 1.983325.496605 2.284046 2.139784 3.000048 3.70263-.143201-2.125178.579961-3.943629 1.224362-5.78399.159588-.294784.282268-.608834.365161-.934786.265662-2.868867.744371-5.713036 1.432004-8.508015.315386-.847718.555027-1.722769.716001-2.61448.200481-4.060478 1.618164-7.785017 2.720807-11.619101.966602-3.373994 2.541806-6.660351 2.319845-10.333769 1.052523-1.592058.179001-3.651509.887842-5.112112.708842-1.460604.393801-2.665601.443921-4.009357-.716001 0-1.324603-.189878-1.661124 0-2.596463 1.571084-5.482133 2.580358-8.47746 2.965025-1.353243.226394-2.591926 1.219604-4.41057 2.132481h-2.914127c-1.009562 1.124665-2.319845 1.263422-3.708889 1.519028-1.926044.357848-4.109849.233697-5.599133 2.074057-.515256.428647-1.148142.683796-1.811484.730302-2.019125.372454-4.05257.649968-5.728014.912877zm31.530647 45.689845c-1.335027 4.067897-.449926 8.396836-3.378135 11.725115-.250778 1.051418-.081134 2.175346-.494181 3.342782-1.13588 3.306526-1.475168 6.874094-2.559417 10.195122-.590067 1.76203 0 4.075148-1.66694 4.858273-1.202261 4.843771-2.279134 9.187212-3.437141 13.878708 5.163088-.964403 9.544337-3.321028 14.478774-4.089651 5.113395-.687939 10.179953-1.678309 15.172103-2.965721.081134-.101517.538436-.659855.737584-.899143 2.448779-.507581 4.595148-.594595 6.217833-2.458142h3.15686c.545812-1.225445 1.571054-1.268951 2.692181-1.493737.92198-.18853 1.66694-1.174687 2.544665-1.841793-.649074-.507581-1.475168-1.044166-2.124242-1.689519s-1.18751-1.682268-2.006228-2.110086c-1.700779-.829984-3.080679-2.181467-3.931323-3.850362-.671202-1.341464-2.537289-1.493738-2.950336-3.067238-.188577-.456239-.555155-.819232-1.017866-1.007911-2.257504-.823328-4.043032-2.565455-4.897558-4.77851-.305227-.523895-.735577-.966881-1.253893-1.290705-1.003114-.797627-1.939846-1.841793-3.097852-2.226104-1.158007-.384311-1.836585-1.493738-2.655303-2.175346-2.094738-1.791035-4.794296-2.95122-6.129323-5.684905-.553188-1.058668-2.190624-1.566249-3.392886-2.371127zm-33.535814-35.968192c.54268.689345 1.026816 1.42382 1.447246 2.195594.300755.823007.542587 1.666829.723622 2.524933l-.882819 1.13439c2.170868 2.715217 1.80182 6.1623 2.894491 9.250768l-.723623 1.24417c.231264.164705.472994.31384.723623.446438.274976.124417.564425.204922.810457.292746-1.20845 1.734519-.419701 3.571499-.672969 5.005954 2.605042 3.315346 2.424136 7.201547 3.306956 10.633992l-.528245 1.068523c.564426.622085 1.099907 1.229532 1.642624 1.83698v2.10777l1.360411 1.375906c-1.099907.783095-.65126 1.932122-.665733 2.356604.861111 1.815024 1.874183 3.088468 2.047853 4.471692.499299 3.89352 1.628151 7.662623 2.170868 11.512231.412465 3.066513 1.671569 5.642676 3.010271 8.313982-.065126 1.968716-.217087 4.003299 1.555789 5.679269v7.51625h1.114379c.32563-1.273444.658496-2.481021.926237-3.659323.723623-3.212886 1.063725-6.513595 2.605042-9.51424.515822-1.008393.851434-2.101027.991363-3.227523.412465-3.542225 2.344538-6.725836 2.337302-10.348566 1.316993-.827007-.17367-2.707899 1.273576-3.483675 1.042017-4.574154 2.749766-8.994617 2.959617-13.751737 0-.351295.405229-.687952.571662-.951424-.919001-1.222213-1.584734-2.561526-2.641223-3.395851-1.170329-.793503-2.04017-1.964781-2.467554-3.322666-1.818731-.582021-3.289269-1.948717-4.016106-3.732509-.445344-1.06522-1.053361-2.053079-1.801821-2.927459-.723623-.900193-1.172269-2.239505-2.084034-2.722536-2.894491-1.544234-4.580532-4.266771-6.461951-6.733155-1.353175-1.771112-3.618114-2.656668-4.529879-4.596109-1.338702-2.876228-4.616713-3.798378-5.933707-6.586782-.050653-.095142-.463118-.014637-1.063725-.014637z" fill="#000"/><path d="m653.552346 268.147035c-1.95893.066106-4.195619-.41867-5.847552 1.469017h-2.996871l-.475113 1.380876c-4.115215.543537-7.821101 2.636886-11.855912 4.003072-1.154891-2.504674-2.105119-4.825721-1.878526-7.484642.151128-1.219471.151128-2.453072 0-3.672543-.289129-1.091113-.683261-2.151356-1.17682-3.165732-.10928-.192178-.195173-.39686-.25583-.609642-.255831-2.467948-.182736-5.016693-.811348-7.345085-.869823-3.231838-.372781-6.713408-2.002787-9.798344-.65054-1.233975.102333-2.548745.65785-3.672543.72884-1.197776 1.555197-2.332802 2.470591-3.393429 1.095168.09903 2.197674.081796 3.289248-.051416 1.170063-.346139 2.305494-.801051 3.39158-1.358841 1.059869 1.777511 1.995477-.426015 3.077274-.095486 1.242605.381944 2.105119-.734509 3.150369-1.153178 1.16951-.462741 2.426734-.470086 3.65472-.896101 1.096416-.381944 2.360949-.190972 2.923776-1.256009 3.223463-.683093 6.293428-1.175214 9.239132-2.071315.765388-.247394 1.558491-.397905 2.360949-.44805 2.143121-.283307 4.212417-.976436 6.096073-2.041934 1.648019-1.233283 3.547844-2.083718 5.562484-2.489984 1.922382-.367254 3.65472-1.682024 5.650197-2.65892l.884442.690438 3.406199-2.027244 2.34633 2.086004c1.016012 3.342014.767492 7.043937 2.295164 10.341881.080805.21637.125267.44473.13157.675747.248521 2.938035.445876 5.876069.730944 8.865519.051563 1.147825.2988 2.278241.730944 3.342014.640369 1.400175.836854 2.96434.562827 4.480502l3.13575 2.857238c-.599374 1.946448-1.206058 3.892895-1.834669 5.920139h-3.78629l-1.257224 1.792201c-3.106512-1.2707-5.518627.815304-8.237739 1.263354-.190045 0-.350853.477431-.51897.477431-2.704493-.051416-5.182393.8961-7.718769 1.645299-1.315699.381945-2.974942.124867-4.020192.829995-3.011489 2.034588-6.52733 1.248664-10.145502 2.64423zm7.596493-8.294645 2.261173-1.617342 1.232049.954009c1.956785-1.371387 4.536841-.387566 6.037042-2.116707 1.268287-.231048 2.500336-.223595 3.514965-.700599 2.667024-1.25959 5.363038-2.131613 8.051805-1.744047l3.754127-2.75768c-.855187-1.311762.195678-2.735321-.724735-4.248319-.920413-1.512997-1.268286-3.435921-1.645148-5.217233-.376862-1.781313-.500067-3.771314-.768219-5.649518s-.587036-3.726596-.891424-5.612253l-.173937.074532-1.594416-5.217233c-3.355523 2.489366-7.609717 2.720414-11.030466 5.038357-.478848.31633-1.040124.474934-1.608912.454644-2.37713-.119251-4.399141.924196-5.928332 1.594983l-1.261038 1.833485c-3.623675.745319-6.834251 1.490638-10.073816 2.146519-3.239565.65588-6.486378 1.311761-9.747685 1.89311-.791038.084083-1.561424.311166-2.275667.670787-1.869817 1.02854-3.833848 2.094347-6.276205 1.550264.420346.745319.84794 1.155244.826198 1.535357-.094216 1.416106.898671 2.817306 0 4.225959.630519 2.59371 1.17407 5.217233 1.9133 7.758771.49157 1.465136.324265 3.079191-.456583 4.404835 1.398738 1.975096.398604 4.263225.724735 5.962553.724735.901836 1.261039 1.557716 1.565427 1.930376l5.667428-1.580076 1.188565-1.222324h3.029392c.449336-.536629.84794-.998727 1.326265-1.557716h4.522346c.101463-.491911.166689-.834758.260904-1.296855h3.768622c1.285205-1.250472 3.069272-1.803104 4.81224-1.490639z" fill="#000"/><path d="m58.619202 161.224277 1.9791121-3.224277 2.6280013 1.878141c2.3035567.669038 5.2235581-.943101 7.7947817.741584 2.2305566-2.063537 4.3394466.532006 6.5943366.185396 2.2892026-.23793 4.5971341-.23793 6.8863367 0 1.7844454.104789 3.5607796.499763 5.3371138.806069 1.6222231.257942 3.3336684-.46752 5.0126692.709341.8111115.564249 2.3603345.056425 3.5770018.104789 2.3846678.096728 4.8666688-.209578 7.1053368.491702 2.238668.701281 4.542225-.660976 6.440225 1.088194.219001.201517.811112 0 1.192334 0h9.733339c.637879-.107562 1.257574-.302895 1.841223-.58037 1.760112 2.119962 1.760112 2.152205-.543445 5.972973.657 4.481745-1.273445 8.97155-.746223 13.606448-1.451889 3.151731-.527222 6.496918-.811111 9.745377-.170333 1.773353-.624556 3.530584-.762445 5.311997s.348778 3.595068-.113556 5.207207c-.900333 3.111427-1.103111 6.2954-1.46 9.447131s0 6.448554-.097334 9.672831c-.210889 6.609768-.511 13.219535-.811111 19.821242 0 .443338-.454223.862494-.697556 1.289711l.575889.644855c-.243333 1.434804-.494778 2.668089-.648889 3.917497-.300111 2.418207-.673223 4.836415-.770556 7.327169.078082 1.482392.287071 2.955101.624556 4.401138l-1.930446.209578c-1.103111-2.579422-3.325557-3.345187-5.539891-4.110953l-.908445.806069c-.308222-.257942-.584-.709341-.908445-.741584-3.13089-.322427-6.294225-.386913-9.3926714-.878615-5.1992248-.806069-10.5444497-.991465-15.5084521-2.990517-.7629349-.222114-1.5643029-.28253-2.3522234-.177335-1.8817788.096728-3.6337796-.145093-5.0370026-1.563774-1.0706672 1.05595-2.3035567.983404-3.5688906.459459-1.8928487-.766735-3.8921973-1.242399-5.9292252-1.410621-2.89317-.400956-5.759018-.977023-8.5815598-1.724988-.7381115-.153153-1.476223-.628734-2.1737789-.572309-2.9281126.249881-5.6210028-1.305832-8.6058932-.92698-1.1355561.137032-2.4333345-.660977-3.8852242-1.120436-.356889-1.072072-.1135556-2.168326.8111116-3.562826 1.1331393-1.645372 2.0951877-3.400864 2.8713347-5.23945.7462226-1.845899.6002225-4.030346 1.0463339-6.021337 1.1517783-5.191086.8111115-10.680418 3.0335571-15.669986.2328014-.617595.2889505-1.287196.1622223-1.934566-.5110003-3.329066.6570003-6.504979.9976671-9.729256.1703334-1.612138.6813337-3.224277.632667-4.925083s.632667-3.03082.9733338-4.465623c1.054445-4.53817 1.0706672-9.318161 2.9930015-13.654813.0729361-.248695.1084685-.506741.1054445-.765766.2676668-3.224277.494778-6.496918.8111115-9.737316.1703334-1.612138.6570004-3.224277.7462226-4.908962.0324445-1.04789-.4380002-2.023233-.7218892-3.208155zm56.52727 90.775723c.43814-.437506.746461-.599545.811371-.810197.550487-1.815793.960089-3.67123 1.225171-5.549846.098483-2.738942.344957-5.470578.738348-8.182986.616642-3.167869.275866-6.481573.811371-9.779074.730234-4.65863 0-9.454994.811371-14.227052.811372-4.650529-.292094-9.471199.811372-14.235155.705893-3.005829 0-6.22231.811371-9.382077.811371-2.989625.657211-6.22231.924963-9.349669-.019762-.389097.029684-.778612.146047-1.150479 1.363104-2.778974.478709-5.582255.494937-9.333465-.693211 1.023369-1.449234 2.002882-2.263727 2.932912-.72212.680565-1.679538 1.118071-2.434114 1.790534-.754575.672463-3.4321 3.054442-4.211017 3.524356-.981759.583341-2.499023 1.020847-2.77489 1.847248-.494936 1.490762-2.223157 1.353028-2.612615 2.503507-.543619 1.620394-2.669412 1.620394-3.099439 3.094952-.494936 1.709514-2.125793 2.535915-3.245485 2.908605-1.882382.648158-1.841813 1.912064-2.1744754 3.240787l-2.3448631.4132v1.52317c-1.3955587 1.539373-2.2556123 3.151665-3.594375 3.783618-1.4452425.641694-2.6657323 1.699614-3.5051242 3.038237-.8600536 1.515068-2.5963883 1.928268-3.4726693 3.483846.5760736.956032 1.1683747 1.920166 1.7525621 2.892402 1.3549901 2.26855 2.7586625 4.520897 4.0568566 6.821855.3510939.800676.6228471 1.63375.8113714 2.487304.1874043.851237.4592014 1.681732.8113713 2.479202.3732308.656259 1.1764884 1.069459 1.5659467 1.717616 1.2332844 2.041696 2.3124083 4.172513 3.5456927 6.214209 2.1582482 3.564865 4.5355662 7.016302 6.4909702 10.678391.754576 1.409742 2.588275 2.365774 2.247499 3.905148zm-32.7925682-2.9027c3.1742353-.646459 6.1766692 1.38071 9.4163526.742231 4.2541297 1.683987 8.7291466 1.676006 13.2123456 1.596197.90866-.020545 1.808295.179667 2.617926.582611 1.44804.694346 3.231502.718289 4.908611.981661.130896 0 .327241-.343182.490861-.526745-.335422-.917813-.670844-1.851587-1.235334-3.41586-1.030808-.750212-1.93072-2.394294-2.928805-4.062319-1.419491-2.502621-2.987457-4.92231-4.695904-7.246732-2.22531-3.064789-4.2816599-6.243064-6.1603074-9.521311-3.1251492-5.059942-5.669446-10.471047-8.6800609-15.610799-1.3689855-2.276724-2.8543488-4.484918-4.4504742-6.616234-2.1679699 1.540329-3.6323723 3.407879-5.5467307 4.868399-1.379882 1.18123-2.6780511 2.450324-3.8859839 3.798947-2.6506501 2.689591-5.0149645 5.658516-7.4938131 8.507726-1.5053075-.159619-1.4234973 1.596196-2.7324603 2.075055-1.1289806.383087-1.6771088 2.186789-2.6833741 3.152488-1.1944288 1.14128-3.0842441 1.819664-3.7959927 3.144507-.8181019 1.596196-3.2724075 1.699949-3.2724075 3.790966-3.6241913 3.248259-3.8778029 3.583461-5.4240155 7.302598-.0736291.167601.1554394.446935.2536116.686364l1.1944288-.65444c1.5260638.609316 3.09212 1.11857 4.6877237 1.524367 1.317144.247411 2.7242792-.055866 4.0905094.07981 1.3662301.135677 2.7651843.606555 4.1641385.742232 2.0779788.207505 4.0168802 1.364747 6.1930312.798098 3.161408 1.364715 6.6291592 1.914343 10.070834 1.596196zm1.6460962-47.0437c-1.7054868-2.918957-3.4910433-5.529801-4.8041881-8.359568-1.2490889-2.635169-2.826464-5.027092-4.2917413-7.508205-1.601396-2.691927-3.4430015-5.318988-4.4678949-8.237945-1.0969563-3.121662-2.9225478-5.797373-4.3557972-8.692005-.5044398-1.013527-1.5613611-1.621643-1.4652774-3.089229-.1150059-.510876-.4849291-.923952-.975815-1.08965-.490886-.165697-1.0315762-.059996-1.426279.278828 0 1.548669.5524816 3.527073-.1040908 4.929794-1.9376891 4.127081-2.0497869 8.627139-2.8745058 12.9326-.824719 4.305462-1.4732844 8.505516-2.5382127 12.721787-.3807761 1.345002-.6486285 2.720183-.800698 4.110864-.1761536 2.205435-.0880768 4.362219-.6725864 6.591978-.4862347 1.45036-.8085711 2.951854-.9608376 4.475734-.0560488 1.6784.0560489 3.283826-.6966073 4.970335-.6005235 1.345963.0720629 3.243285-.4724118 4.662222-.6725863 1.735158.1361187 3.559506-.5284607 5.027093-.5565683 1.452556-.7969142 3.009664-.7046142 4.564924 0 .535142.1601396 1.248665-.1120977 1.556777-1.2570959 1.443262-.5364677 2.927065-.5925166 5.100066 2.0978288-2.58652 3.6912179-4.662223 5.4047116-6.62441 1.233075-1.418938 2.9065338-2.505438 3.8673714-4.054107 1.0409074-1.710833 2.7463942-2.505438 4.0034901-3.867618 6.5016678-6.908198 13.0834055-13.654231 19.5690594-20.392157zm1.5662633-1.061807c1.6328911-1.641414 3.0126841-2.921717 4.2618458-4.316919 1.2491616-1.395202 2.2288963-2.938132 3.4943869-4.251263 1.1511882-1.181818 3.2657822-1.953283 3.6250182-3.282828.5388541-2.150253 3.6740048-1.42803 3.4453998-3.840909 1.534918-1.222854 2.498324-2.979167 4.457793-3.906566 1.632891-.763257 2.751422-2.57702 4.082228-3.931187 1.330806-1.354166 3.551538-1.378788 3.698498-3.709596 1.926812-.303661 2.514652-2.700126 4.50678-2.897096.285756-2.142045 2.669777-2.224116 3.861787-4.103535-1.804345 0-3.453565-.287248-4.94766.082071-1.371629.33649-2.367692-1.214647-3.886281-.164142s-2.906546-.75505-4.49045-.771464c-1.583905-.016415-3.167809.533459-4.514944-.705808-1.453273 2.018939-2.726928-.640152-4.2781748-.172349-1.4159972.345475-2.9104993.112308-4.1557079-.648359-1.3063128-.697601-3.2167954.656566-4.5231083-.878156l-.6858143.631944c-1.6900422-.238005-3.2004665-.55808-4.7272197-.631944-2.1717451-.098485-4.3516547.090278-6.5315643-.05745-2.1799096-.147727-4.0822278-.549873-6.1396705-.902777-.3020849-.049243-.5388541-.426768-.6694854-.53346l-2.5228167 1.28851c-1.139597-.892793-2.717708-.958754-3.9271031-.164141 1.9268115 3.282828 3.0453419 6.828283 5.1681003 9.520202 2.2370608 2.839646 2.8983817 6.237373 4.7027264 9.159091 1.8043446 2.921717 3.3719201 6.229166 5.0946202 9.331439s3.5352092 6.245581 5.6008164 9.864899z" fill="#000"/><path d="m193.976149 126.623507c.098565 1.502416-.109044 3.00924-.610124 4.428252-.979408 2.556932-1.188134 5.420374-1.726006 8.146694-.561955 2.863441-.802794 5.831742-1.806286 8.525797-.297732 1.104548-.501836 2.232445-.610123 3.371602-.207 1.111014-.475007 2.209672-.802794 3.290941-.226889.564561-.509264 1.104972-.842933 1.613207-.82896-.269092-1.680852-.4608-2.544856-.572688-2.271906-.072595-4.640147-.403302-6.783606.112924-1.445029.338774-2.015013-1.87132-3.612572-.580754-.634207.516226-2.263878-.266179-3.452013-.34684-1.188134-.08066-2.408381 0-3.604543 0-1.340666 0-2.769638.30651-4.013969-.056462-4.672259-1.36316-9.505077-.04033-14.105085-.854999-6.197567-1.105047-12.443301.056462-18.528478-.846934-4.872957-.717877-9.761971 0-14.506481-.806603-4.471561-.766273-8.991289 0-13.302291-.806604-4.3110024-.806603-8.6300324-.451698-12.9330064-.62915-2.8579455-.120991-5.5553323-1.209905-8.501585-.903396-2.9407938.18188-5.8899367.18188-8.8307305 0-.4335085 0-.8670171-.443632-1.1560228-.604952-.6261791.225848-1.3486934.758207-1.7661461.580754-3.0425881-1.290565-6.2136231-.50816-9.3124066-.766273-1.5012242-.129057-2.9783646-.443632-4.6240916-.693679v-6.993251c1.8544534-1.56481.2408381-3.912026 1.4048889-5.888204 1.019548-1.726131.6181512-4.266932.9794083-6.452827.4575924-2.750517 1.01152-5.476837 1.6055874-8.19509.2661955-.618749.6293838-1.190625 1.0757435-1.693867 2.2959899.403302 4.7043709-.653349 6.8959976.806603.4947777.160477 1.0362667.070302 1.4530566-.241981.9874362-.717877 1.8464254-.806603 2.7776661.048397.2013958.151108.4471205.230567.6984305.225849 2.8418896.112924 5.7480027-.411368 8.4935571.806603 1.645727-1.145377 3.2673702.330707 4.9612649.056462 1.7282198-.201776 3.4738831-.201776 5.202103 0 1.902621.153255 3.7811582.613019 5.6918071.750141 1.910649.137123 3.741019 0 5.619556.064529.297033 0 .578011.500094.802793.677546 2.10332-1.403489 4.39931-.443632 6.558825-.653348 1.027576 1.274433 2.44852.677546 3.700879.725943 2.271906.088726 4.648175-.411368 6.799662.112924 4.816762 1.169575 9.697748.653349 14.530565.604953 1.276442 0 2.488661 2.15363 3.765103.16132 1.01152 1.274434 2.408381.669481 3.668767.742075 1.461084.080661 2.954281-.12099 4.407337.056463 1.453057.177452 2.978365 1.572876 3.957773.613018 1.164051-1.145377 2.536828 1.44382 3.211175-.564622 1.188134 1.13731 2.986392.137122 3.9658.806603 1.420945 1.008254 2.777666.621085 4.158472.677547 2.408381.096792 4.816762 0 7.225143 0 1.541364 0 3.114839-.185519 4.479588.806603 1.388833-1.169575 2.737527.290377 4.158472.048396 1.465525-.133234 2.939263-.149417 4.407337-.048396 1.605587 0 3.331594-.379103 4.816762.088727 2.143459.766273 4.286918-.846934 6.502629.250047zm-4.318378 3.586729c-6.576778-.054834-13.121198-1.39434-19.770782-.916505-.99501.070501-2.111364.383836-2.985032-.634503-.226506-.266334-1.027368-.203667-1.528918-.101833-.8494.172334-1.666441.72067-2.499661.705003-.970743 0-1.917216-.62667-2.896048-.69717-2.596735-.180168-5.19347.188001-7.782116-.736337-1.446329-.358112-2.962458-.358112-4.408787 0-1.480382.258501-2.750436-.556169-4.263176-.282001-1.270054.227168-2.67763-.462169-4.044759-.532669-4.85371-.250668-9.796406.477835-14.633937-.783337-1.132533-.289835-2.426856-.039167-3.632194-.039167h-3.624104c-1.083995 0-2.159901.054833-3.235807 0-1.075906-.054834-2.426855.493502-3.308613-.783337-.99501 1.519674-1.949573-.148834-2.968853-.117501-3.389507.109667-6.770926.258501-10.2008814-.548336-2.8555998-.681503-5.937706-.133167-8.9631856-.783337-2.6938095-.587502-5.6626625-.047-8.4616356-.148834s-5.5494092.587503-8.1785024-.783337l-.8736679.783337c-3.2358071-1.410006-6.6657626-.485669-9.7478689-.783337-.4449235 2.06801-.8089518 3.752185-1.1648905 5.483359-.3559388 1.731175-.2507751 3.548517-.8979365 5.123024-.7523252 1.864343-.4206549 3.752185-.8089518 5.561693-.3882968 1.809509-1.2376962 3.274349-.4611025 4.88019 1.9010367.329001 3.656462.783337 5.4280664.900837 2.0142899.156668 4.0447589.039167 6.0671383.039167 2.6857199 0 5.6222148-.634503 8.0086225.195834 2.5805562.900838 4.9750534.336835 7.4261773.540503 2.6776304.219334 5.3876188 0 8.0895177.086167.4506719.018456.885002.168662 1.2457858.430835 2.062827-.141 3.2762547-.289834 4.4815928-.282001.453013 0 .8979365.548336 1.3509493.564003 2.02238.0705 4.044759-.070501 6.059049.062667 2.01429.133167 3.818252.564002 5.735468.736337 3.656462.336834 7.280566-.274168 11.017923.658003 2.782794.69717 5.921527.391668 8.849933.0705 2.782794-.305501 5.395708 1.386506 8.283666.180167 1.059727-.438668 2.68572.571836 4.044759.642337 2.554659.203732 5.122292.203732 7.676952 0 2.709988-.305502 5.128754.877337 7.757847.885171 3.130644 0 6.309824-.540503 9.39193.681503.67952.274168 1.674531-.227168 2.798974-.415169.416912.236843.879366.388779 1.359039.446502 2.960763.062667 5.929616 0 8.898469.054834.886917.083154 1.765888.23243 2.629093.446502l1.617904-.783337c.33976-2.616346.113253-5.358025 1.148711-7.535702.808952-1.778175-.226506-3.916685 1.448024-5.295358-.16988-2.444012 1.585546-4.668689.525819-7.175367z" fill="#000"/><path d="m130.987219 226.33414 1.302936-1.33414c2.494646 2.083132 5.79171-.124832 8.437306 1.505784 2.168912-.897229 4.226598.374496 6.411399.280872 6.061831-.265268 12.147496-.109228 18.233161-.085822 1.509499 0 3.042832-.265268 4.472884.709981.389292.265268 1.350604-.27307 2.208636-.483723l1.946459.944041-1.787565 3.659133c-.254231.897229.730916 2.520043-.444905 3.900996 0 0 .413126 3.261232.413126 3.245628-.548186 1.053269-1.096373 2.090934-1.588946 3.073984l.675302.717784-2.526425 11.531342c-1.120207-.241862-2.383419-.507129-3.6943-.780199-.993092-.23406-1.978239-.546139-2.979275-.780199-1.366494-.296476-2.748877.304277-4.194819-.405704-1.072538-.514931-2.661485 0-3.765803-.460317-1.300314-.456993-2.67074-.691849-4.051813-.694377-1.358929-.18678-2.706296-.447244-4.035924-.780199-1.215544-.249664-2.38342-.58515-3.638688-.7802-1.390328-.195049-2.82038-.179445-4.202763-.405703-1.04076-.163842-1.986183.444713-3.177893-.257466-1.088428-.624159-2.836269-.132634-4.139205-.132634l-2.860104-1.973903c.166839-.296476.595855-.686575.611744-1.100081.079448-1.677428-.071502-3.378262.063558-5.05569.135061-1.677428.572021-3.120796.730916-4.74361.045903-.861045.302043-1.698612.746804-2.442024.519209-1.10797.805628-2.307364.842142-3.526499.063812-1.114883.06116-2.232476-.007945-3.347055zm35.819079 24.66586c.613686-3.116357 1.170849-6.027586 1.760311-8.938815.242244-1.207095.807481-2.41419.734808-3.605506.038359-1.246502.349487-2.470523.912455-3.589727.786128-1.925802.988053-4.032108.581386-6.067034-4.65917.465481-9.30219-.686387-13.888687.788951l-1.445392-.891514c-.45219.402365-.742883.662718-.759033.686387-4.4573-1.380664-9.076096.457591-13.170028-1.222874l-1.211223.788951c-2.422445-1.278101-4.360402-1.325438-8.220165.228796-1.017427 5.214966-2.075228 10.61928-3.10073 15.865805l8.527008 1.822477.734808-.520708c1.453468.260354 2.559718.433923 3.649818.662719 1.069152.355574 2.173274.601473 3.294526.733724 2.201607-.085537 4.402729.180957 6.516378.788951 1.067291.364568 2.167767.628751 3.286451.788951 1.256535.134339 2.500899.361149 3.722491.678498 2.559718.757393 5.313231.717946 8.074818 1.001968z" fill="#000"/><path d="m158.659082 178.780069c-1.617149-1.209622-3.274727-1.017182-4.762504-.831615-1.487778.185567-2.999812-.687286-4.65739-.19244-1.485217.391854-3.039182.561613-4.592704.501718-1.570742-.096568-3.132098-.282552-4.673562-.556701l-1.972922-2.013746c4.467697.576521 9.028385.342287 13.38191-.687285l1.892065 1.532646c.95349-.34653 2.022924-.385627 3.007898-.109966.808575.226805 1.883979-.474226 2.87044-.570446 1.19669-.116839 2.425724.109965 3.622414-.061856 1.940718-.169765 3.89896.117955 5.660023.831615 1.989094.687285 3.606243.501718 5.554908.158076 2.175066-.391753 4.479503-.254296 7.010342-.364261-.388116.804123-.695374 1.42268-.978375 2.013745l-6.153253.570447c-.655843-.191756-1.333259-.325342-2.021437-.398625-1.204776-.103093-2.425724 0-3.638586-.034365-1.043061 0-2.344866.178694-3.072584-.268041-1.188604-.721649-2.328695-.281787-3.460699-.38488-1.132005-.103092-2.150809-.302405-3.015984.86598z" fill="#000"/><path d="m161.168003 187.526983c2.12537-.181506 3.577037-2.094881 6.087379-.680647 1.267201.756274 3.37653.128566 5.108907.128566h4.258759l.376952.355449-2.301815 1.913375c-2.686788-.393263-5.886872.816776-9.006754-.816777-1.21908 1.172226-2.598565 1.111724-3.857746 0l-3.103841 1.573051-6.825243-2.147819c-.707374.247129-1.430647.451733-2.165471.612582-1.251004.121398-2.491708.323546-3.713381.605019-1.956944.60502-4.162516-.400825-6.119459-1.225164-.360912-.151255-.505277-.756275-.90629-1.421796.802026-.090753 1.339384-.325198 1.748417-.181506 2.869397 1.100541 6.081215 1.100541 8.950612 0 1.02295-.321755 2.129013-.321755 3.151963 0 2.526382.794088 5.092866.680647 7.66737.756275.29675.015125.585479.476452.649641.529392z" fill="#000"/><path d="m147.572173 203.84765 1.352267-1.401945 5.612298 1.888169c1.415843-.598862 2.978137-.717998 4.463262-.340357-1.492965 2.431118-4.12715 1.855754-6.057843 3.006483l-3.556539-2.528363-3.759771 1.807131h-3.486191l-1.930693-1.871961-3.572173 1.620746c-1.235018-1.799028-2.41532.810372-3.845753.28363s-2.782699-.923825-3.791037-2.528363l1.563314-1.78282.29703 1.482982c.156331.097245.359562.324149.578426.332253 2.50912.097245 4.986973.081037 7.300678-1.272285.644039-.336617 1.403902-.336617 2.047941 0 2.118291 1.78282 4.533612 1.191248 6.784784 1.3047z" fill="#000"/><path d="m131.111031 212.726384 3.258472.472313 5.389329-2.198697 1.318313 2.239414 10.032444-.960912 1.890411 2.100977c-1.923576.716612-3.125811 2.337133-5.190339.659609-.98917-.501663-2.170362-.474041-3.134102.07329-1.301731 1.091205-2.644917.276873-4.145638.887622l-1.251983-1.856678c-3.233598 0-6.019466 1.693812-9.277938.496743.447729-.781759.854001-1.482085 1.111031-1.913681z" fill="#000"/><path d="m89.1435069 138.761396c-3.397656 1.532439-7.122184 2.274604-10.8728678 2.166572l-4.3638845-3.151378-7.9663407.976927-1.9404139-3.033202 2.0632249-2.599887c.2210598 1.355093.3438708 2.064153.4830567 2.915025h5.3873095l6.2387992-7.035453c2.5299067.449071 2.1369115 2.142938 2.1123493 4.372538l-4.0937003 3.939223c2.2760974.354531 4.0527633 2.048397 7.0247897.653911 2.2351603-1.055711 4.437571-1.528418 5.6083693-3.986494.7450535-1.575689 2.0959745-2.828362 3.1521492-4.199212l3.0620878 1.906584c.2374346 3.041081-1.9977257 4.230726-4.1428247 5.577941 2.9310894 2.07991 6.1978622.953292 9.4482604 1.331457l5.493746-6.302757h2.710029c.401183.732695.81874 1.575689 1.408233 2.607766-.920005.580329-1.785688 1.236724-2.587219 1.961733-.768791.967242-1.455993 1.992078-2.055037 3.064716 3.381396.378165 6.181487.220596 9.00614-1.252673 1.113487-.575127 2.628156-1.418121 2.636343-2.056275 0-2.655037 2.218786-3.214406 3.618831-4.096792l2.407096 1.709623c-.458494 1.205402-.81874 2.119302-1.293609 3.427124-.515806.417558-2.317034.330895-1.956789 2.505346 2.26791-.35453 4.642256.606641 6.951103-.716939l.859677.787845c2.636343-1.016319 5.092563-2.836241 8.457585-2.363534l-1.768479 2.954418h-4.298385c-2.005913 2.095667-4.576757 2.016882-6.795542 1.536297-1.547419-.338773-3.422334-.063028-4.511258-.787845-1.981351-1.299944-3.520582-.433314-5.117125.165448-1.593437.580752-3.291583.848631-4.994314.787844-.598903.089702-1.184415.248411-1.743917.472707l-4.003639-2.741699c-1.465544 1.812042-4.2328857-.488464-5.7966792 1.575689-2.4971571-1.559933-6.1733-.236354-7.8271549-3.072594z" fill="#000"/><path d="m164 239.253691-5.281233 2.746309-7.024878-3.414765-.838291 1.554362c-3.881288.104698-3.881288.104698-6.463224-1.393288-1.249053.499329-2.724445 1.610738-3.512439 1.28859-1.299351-.555704-2.162791-.966443-3.403461.273826-.838291-1.924832-2.70768-1.739597-4.476474-1.610738v-2.416108c1.955337.099073 3.85659.651746 5.541103 1.610738l5.792591-1.610738c1.676582.112752 2.934018 2.182551 4.945917 1.610738 1.592752-.451006 3.110059-1.183892 4.920768-1.892617.645484 1.377181 1.198756 2.528859 2.791509 3.004027 1.592752.475168 2.632233.805369 4.074094-.201342.595186-.4349 1.819091-.072484 2.749594-.072484z" fill="#000"/></g></g></svg>