<svg height="74" viewBox="0 0 301 74" width="301" xmlns="http://www.w3.org/2000/svg"><g fill="none"><path d="m56.1094453 73.6956522-8.7256372-8.7256372c-.922039-.922039-1.6641679-2.0014993-2.1589205-3.1934033-2.6311845-6.4542729-.0449776-13.2458771 6.0269865-16.3268366.3823088-.2023988.7871064-.3598201 1.191904-.4947526 4.7676162-1.5517241 9.5802099-.3373313 12.886057 2.9685157l8.2758621 8.2758621-4.5652174 4.5652174-8.6806597-8.6806597c-.2248876-.2248875-.4722639-.4272863-.7646177-.5622189-2.5637181-1.3043478-5.3523238-.8320839-7.1514243.9895053-1.8215892 1.8215892-2.2938531 4.5877061-.9670165 7.173913.1349326.2698651.3373314.5397302.5622189.7646177l8.6581709 8.6581709z" fill="#9f7aea"/><path d="m.08995502 56.1544228 8.72563718-8.7031484c.92203898-.922039 2.0014993-1.664168 3.1934033-2.1589206 6.4542729-2.6311844 13.2458771-.0449775 16.3268366 6.0269865.2023988.3823089.3598201.7871065.4947526 1.1919041 1.5517241 4.7676162.3373313 9.5802099-2.9685157 12.8860569l-8.2758621 8.2758621-4.5877062-4.5877061 8.6806597-8.6806597c.2248876-.2248876.4272864-.4722639.5622189-.7646177 1.3043478-2.5637181.832084-5.3523238-.9895052-7.1514243-1.8215892-1.8215892-4.5877062-2.2938531-7.1739131-.9670165-.269865.1349326-.5397301.3373314-.7646177.5622189l-8.65817089 8.6581709z" fill="#553c9a"/><path d="m56.6041979 29.5277361c-4.6776612 0-8.9505247-2.5637181-11.2218891-7.0389805-.2023988-.4047976-.3823088-.8095952-.5172413-1.2368815-1.5292354-4.7451275-.3148426-9.5577212 2.9685157-12.86356825l8.2758621-8.27586207 4.6101949 4.58770615-8.6581709 8.65817087c-.2248876.2248876-.4272864.4722639-.5622189.7646177-1.3268366 2.5862069-.8545727 5.3523239.9670165 7.1739131 1.7991004 1.7991004 4.5652174 2.293853 7.1514243.9895052.2923538-.1349325.5397301-.3373313.7646176-.5622189l8.658171-8.7031484 4.5877061 4.5877062-8.2758621 8.275862c-2.3163418 2.3388306-5.4422788 3.6431784-8.7481259 3.6431784z" fill="#553c9a"/><circle cx="36.836582" cy="36.904048" fill="#44337a" r="9.94003"/><path d="m17.5862069.13493253 8.7256372 8.72563719c.922039.92203898 1.6641679 2.00149928 2.1589205 3.19340328 2.6311844 6.4542729.0449775 13.2458771-6.0269865 16.3268366-.3823088.2023988-.7871064.3598201-1.191904.4947526-4.7676162 1.5517242-9.5802099.3373314-12.88605701-2.9685157l-8.27586207-8.2758621 4.58770615-4.5877061 8.68065963 8.6806596c.2248876.2248876.4722639.4272864.7646177.5622189 2.5637182 1.3043478 5.3523239.832084 7.1514243-.9895052 1.8215892-1.8215892 2.2938531-4.5877062.9670165-7.1739131-.1349325-.269865-.3373313-.5397301-.5622189-.7646177l-8.6806597-8.63568212z" fill="#9f7aea"/><g fill="#553c9a" transform="translate(147.526237 18.44078)"><path d="m27.2563718 33.6431784-.0449775-17.8785607-8.7706147 14.7301349h-3.1034483l-8.72563715-14.3478261v17.4962519h-6.47676162v-29.79760119h5.71214393l11.15442284 18.50824589 10.9745127-18.50824589h5.6671664l.089955 29.79760119z"/><path d="m59.82009 24.0629685h-17.3163419c.6296852 2.856072 3.0584708 4.5877062 6.5442279 4.5877062 2.4287856 0 4.1604198-.7196402 5.7346327-2.2038981l3.5307346 3.8230885c-2.1364318 2.4287856-5.3298351 3.7106446-9.4452773 3.7106446-7.916042 0-13.065967-4.9700149-13.065967-11.7841079 0-6.8590705 5.23988-11.7841079 12.2113943-11.7841079 6.7241379 0 11.9190404 4.5202398 11.9190404 11.8740629 0 .5172414-.089955 1.2368816-.1124437 1.7766117zm-17.4062969-3.868066h11.2668666c-.4722639-2.9010494-2.6311844-4.7676161-5.6221889-4.7676161-3.0134933 0-5.1949026 1.8215892-5.6446777 4.7676161z"/><path d="m78.3508246 32.5412294c-1.3718141.9895052-3.3508246 1.4392803-5.3973014 1.4392803-5.3973013 0-8.5457271-2.7661169-8.5457271-8.2083958v-9.4002998h-3.5307346v-5.1049475h3.5307346v-5.57721143h6.6341829v5.57721143h5.7121439v5.1049475h-5.7121439v9.3103448c0 1.9565218 1.0569715 3.0134933 2.856072 3.0134933.9895052 0 1.9565217-.2923538 2.6761619-.8545727z"/><path d="m95.2848576 10.4122939v6.1394302c-.5622189-.0449775-.9895053-.089955-1.4842579-.089955-3.6656672 0-6.0944528 2.0014993-6.0944528 6.3868066v10.8170915h-6.6341829v-22.916042h6.3418291v3.0134932c1.6191904-2.203898 4.3403298-3.3508245 7.8710645-3.3508245z"/><path d="m97.6461769 3.84557721c0-2.09145427 1.6641679-3.71064468 4.1379311-3.71064468 2.473763 0 4.137931 1.52923539 4.137931 3.57571215 0 2.20389805-1.664168 3.82308845-4.137931 3.82308845-2.4737632 0-4.1379311-1.59670165-4.1379311-3.68815592zm.8095952 6.90404799h6.6341829v22.8935532h-6.6341829z"/><path d="m107.203898 22.1964018c0-6.904048 5.329835-11.7841079 12.773613-11.7841079 4.812594 0 8.590705 2.0914542 10.254873 5.8245877l-5.149925 2.7661169c-1.236882-2.1814093-3.058471-3.1484258-5.149925-3.1484258-3.373314 0-6.004498 2.3388306-6.004498 6.3418291s2.631184 6.3418291 6.004498 6.3418291c2.091454 0 3.913043-.9445278 5.149925-3.1484258l5.149925 2.8110945c-1.664168 3.6656671-5.442279 5.7796101-10.254873 5.7796101-7.466267 0-12.773613-4.8800599-12.773613-11.7841079z"/><path d="m131.491754 31.5067466 2.203898-4.7676162c2.046477 1.3268366 5.149925 2.2038981 7.96102 2.2038981 3.05847 0 4.205397-.8095952 4.205397-2.0914543 0-3.7556222-13.830585.089955-13.830585-9.0629685 0-4.3403298 3.913044-7.3988006 10.592204-7.3988006 3.148426 0 6.634183.7196402 8.815592 2.0014992l-2.203898 4.7226387c-2.248875-1.281859-4.52024-1.7091454-6.589205-1.7091454-2.968516 0-4.250375.9445277-4.250375 2.1364318 0 3.9130435 13.830585.1349325 13.830585 9.1529235 0 4.2503748-3.958021 7.2863568-10.817092 7.2863568-3.868066 0-7.781109-1.0569715-9.917541-2.4737631z"/></g><g fill="#44337a"><path d="m101.446777 46.5067466c4.002998 0 6.634183-2.6086956 6.634183-6.9040479v-17.3388306h6.724137v17.3388306c0 7.8710644-5.149925 12.7736131-13.380809 12.7736131-8.2533735 0-13.538231-4.9025487-13.538231-12.7736131v-17.3388306h6.7241379v17.3388306c.0224888 4.2953523 2.8335832 6.9040479 6.8365821 6.9040479z"/><path d="m124.970015 22.2638681 6.229385 9.107946 6.251874-9.107946h7.96102l-9.917541 14.257871 10.772114 15.5397302h-8.050975l-7.016492-9.9175413-6.904048 9.9175413h-7.871064l10.682159-15.2473763-9.962519-14.5502249z"/></g></g></svg>