<svg xmlns="http://www.w3.org/2000/svg" viewBox="0 0 1005.68 327.2"><defs><style>.cls-1{fill:#9f7aea;}.cls-2{fill:#553c9a;}.cls-3{fill:#44337a;}</style></defs><g id="Layer_2" data-name="Layer 2"><g id="Layer_1-2" data-name="Layer 1"><path class="cls-1" d="M249.2,327.2l-38.78-38.79a43.27,43.27,0,0,1-9.57-14.23c-11.65-28.71-.23-58.93,26.85-72.61a36.9,36.9,0,0,1,5.33-2.2c21.15-6.87,42.64-1.5,57.31,13.17L327.1,249.3l-20.44,20.44-38.57-38.57a13.89,13.89,0,0,0-3.4-2.55c-11.45-5.83-23.77-3.67-31.8,4.36s-10.22,20.44-4.31,31.89a13.65,13.65,0,0,0,2.54,3.36l38.52,38.53Z"/><path class="cls-2" d="M.08,249.28l38.79-38.79a43.27,43.27,0,0,1,14.23-9.57c28.71-11.65,58.93-.23,72.61,26.85a36.9,36.9,0,0,1,2.2,5.33c6.87,21.16,1.5,42.64-13.17,57.31L78,327.17,57.54,306.73l38.57-38.57a13.89,13.89,0,0,0,2.55-3.4c5.83-11.44,3.67-23.77-4.36-31.8s-20.44-10.22-31.89-4.31a13.65,13.65,0,0,0-3.36,2.54L20.52,269.71Z"/><path class="cls-2" d="M251.39,130.79c-20.79,0-39.82-11.44-49.9-31.35a37.89,37.89,0,0,1-2.27-5.52c-6.79-21.11-1.41-42.53,13.23-57.16L249.2,0l20.44,20.44L231.12,59a13.56,13.56,0,0,0-2.53,3.35c-5.92,11.45-3.76,23.84,4.29,31.89s20.35,10.2,31.8,4.37a13.83,13.83,0,0,0,3.4-2.55l38.58-38.57L327.1,77.89l-36.76,36.76A54.7,54.7,0,0,1,251.39,130.79Z"/><circle class="cls-3" cx="163.5" cy="163.6" r="44.2"/><path class="cls-1" d="M77.89.11l38.79,38.78a43.27,43.27,0,0,1,9.57,14.23c11.65,28.71.22,58.93-26.85,72.62a39.31,39.31,0,0,1-5.33,2.2c-21.16,6.86-42.64,1.49-57.31-13.18L0,78,20.44,57.56,59,96.13a13.64,13.64,0,0,0,3.4,2.55c11.44,5.84,23.77,3.68,31.8-4.36s10.22-20.44,4.31-31.89A13.59,13.59,0,0,0,96,59.08L57.46,20.55Z"/><path class="cls-3" d="M450.78,206.32c17.81,0,29.55-11.55,29.55-30.68V98.56h29.92v77.08c0,35-22.91,56.82-59.47,56.82-36.74,0-60.22-21.78-60.22-56.82V98.56h29.92v77.08C420.48,194.77,433,206.32,450.78,206.32Z"/><path class="cls-3" d="M555.38,98.56,583,139.09l27.84-40.53h35.42L602.16,162l47.92,69.12h-35.8L583,187l-30.68,44.13h-35l47.54-67.8L520.53,98.56Z"/><path class="cls-2" d="M788.72,164.85c0,38.25-30.68,67.61-71.21,67.61s-71.21-29.17-71.21-67.61c0-38.64,30.68-67.24,71.21-67.24S788.72,126.4,788.72,164.85Zm-111.74,0a41.22,41.22,0,0,0,40.91,41.47c22.16,0,40.15-18.18,40.15-41.47s-18-41.1-40.15-41.1A40.78,40.78,0,0,0,677,164.85Z"/><path class="cls-2" d="M914.87,180.75c0,30.88-18.75,51.52-47.35,51.52-14.2,0-25.38-5.68-32.76-15.91v51.51H805.59V129.24h29.17v15C842,134,853.13,128.29,867,128.29,895.55,128.29,914.87,149.32,914.87,180.75Zm-29.54-.94c0-16.29-10.23-28-25.19-28s-25.38,11.55-25.38,28c0,16.85,10.42,28.22,25.38,28.22S885.33,196.47,885.33,179.81Z"/><path class="cls-2" d="M963.82,149.32c-6.81,0-11.74,2.27-11.74,7.57,0,15.34,53.79,7.58,53.6,43.56,0,20.84-18.37,31.82-41.48,31.82-16.48,0-32.57-4.92-44.13-14.2l9.47-19.7c10.61,8.14,24.24,12.69,35.42,12.69,7.39,0,12.88-2.46,12.88-8,0-16.28-52.84-7.57-52.84-43.37,0-21,18-31.82,40.15-31.82a76,76,0,0,1,39.77,11.37l-10,19.88C983.71,152.91,972.35,149.32,963.82,149.32Z"/></g></g></svg>