<svg xmlns="http://www.w3.org/2000/svg" viewBox="0 0 500 500.15"><defs><style>.cls-1{fill:#9f7aea;}.cls-2{fill:#553c9a;}.cls-3{fill:#44337a;}</style></defs><g id="Layer_2" data-name="Layer 2"><g id="Layer_1-2" data-name="Layer 1"><path class="cls-1" d="M380.93,500.15l-59.29-59.29A66.06,66.06,0,0,1,307,419.11c-17.81-43.89-.35-90.07,41-111a57.43,57.43,0,0,1,8.16-3.37c32.33-10.5,65.18-2.29,87.6,20.14L500,381.08l-31.24,31.24-59-58.95a20.74,20.74,0,0,0-5.18-3.9c-17.5-8.92-36.35-5.62-48.62,6.66s-15.62,31.25-6.58,48.75a20.79,20.79,0,0,0,3.87,5.13l58.89,58.9Z"/><path class="cls-2" d="M.13,381l59.29-59.29a66,66,0,0,1,21.75-14.62c43.88-17.81,90.07-.35,111,41a56.23,56.23,0,0,1,3.36,8.16c10.5,32.33,2.29,65.18-20.13,87.6L119.2,500.11,88,468.86l59-59a20.85,20.85,0,0,0,3.9-5.19c8.92-17.5,5.61-36.34-6.67-48.61s-31.24-15.62-48.74-6.58a20.61,20.61,0,0,0-5.13,3.87l-58.9,58.89Z"/><path class="cls-2" d="M384.27,199.92c-31.77,0-60.87-17.48-76.28-47.92a57.85,57.85,0,0,1-3.46-8.43c-10.39-32.28-2.16-65,20.21-87.38L380.93,0l31.24,31.24L353.29,90.13a21.28,21.28,0,0,0-3.88,5.13c-9,17.51-5.73,36.44,6.58,48.75s31.1,15.59,48.6,6.68a20.73,20.73,0,0,0,5.19-3.9l59-59L500,119.07l-56.2,56.19A83.62,83.62,0,0,1,384.27,199.92Z"/><circle class="cls-3" cx="249.92" cy="250.08" r="67.56"/><path class="cls-1" d="M119.07.17l59.29,59.28A66.11,66.11,0,0,1,193,81.21c17.81,43.88.35,90.07-41,111a58.57,58.57,0,0,1-8.16,3.36c-32.33,10.5-65.18,2.29-87.6-20.14L0,119.23,31.24,88l59,59a20.7,20.7,0,0,0,5.18,3.89c17.5,8.92,36.35,5.62,48.62-6.66s15.62-31.24,6.58-48.75a21,21,0,0,0-3.87-5.13L87.83,31.41Z"/></g></g></svg>