<svg height="76" viewBox="0 0 149 76" width="149" xmlns="http://www.w3.org/2000/svg"><g fill="none" fill-rule="evenodd" transform="translate(-2 -1)"><path d="m18.3908546 5.84568093h41.0716743c4.4575937 0 6.0740249.46412806 7.7036545 1.33566352 1.6296296.87153547 2.9085725 2.15047834 3.780108 3.78010795.8715354 1.6296296 1.3356635 3.2460608 1.3356635 7.7036545v41.0716744c0 4.4575936-.4641281 6.0740248-1.3356635 7.7036545-.8715355 1.6296296-2.1504784 2.9085725-3.780108 3.7801079-1.6296296.8715355-3.2460608 1.3356636-7.7036545 1.3356636h-41.0716743c-4.4575937 0-6.0740249-.4641281-7.7036545-1.3356636-1.62962968-.8715354-2.90857255-2.1504783-3.78010801-3.7801079-.87153546-1.6296297-1.33566352-3.2460609-1.33566352-7.7036545v-41.0716744c0-4.4575937.46412806-6.0740249 1.33566352-7.7036545.87153546-1.62962961 2.15047833-2.90857248 3.78010801-3.78010795 1.6296296-.87153546 3.2460608-1.33566352 7.7036545-1.33566352z" fill="#263549" transform="matrix(.98480775 -.17364818 .17364818 .98480775 -6.215789 7.3551)"/><path d="m23.9622831 1.17293233h41.2182909c4.4575937 0 6.0740249.46412806 7.7036545 1.33566352s2.9085725 2.15047833 3.780108 3.78010796c.8715354 1.62962963 1.3356635 3.24606082 1.3356635 7.70365449v41.2182909c0 4.4575937-.4641281 6.0740249-1.3356635 7.7036545-.8715355 1.6296296-2.1504784 2.9085725-3.780108 3.780108-1.6296296.8715354-3.2460608 1.3356635-7.7036545 1.3356635h-41.2182909c-4.4575937 0-6.0740248-.4641281-7.7036545-1.3356635-1.6296296-.8715355-2.9085725-2.1504784-3.7801079-3.780108-.8715355-1.6296296-1.3356636-3.2460608-1.3356636-7.7036545v-41.2182909c0-4.45759367.4641281-6.07402486 1.3356636-7.70365449.8715354-1.62962963 2.1504783-2.9085725 3.7801079-3.78010796 1.6296297-.87153546 3.2460608-1.33566352 7.7036545-1.33566352z" fill="#00b3fe"/><g fill-rule="nonzero"><path d="m94.5800295 46.6240602c2.9009179 0 5.4269285-.6170113 7.5780335-1.8510339 2.151104-1.2340225 3.798236-2.8895677 4.941394-4.9666353 1.143158-2.0770677 1.714737-4.3496241 1.714737-6.8176692s-.571579-4.7406015-1.714737-6.8176692c-1.143158-2.0770676-2.79029-3.7326128-4.941394-4.9666353-2.151105-1.2340226-4.6771156-1.8510338-7.5780335-1.8510338s-5.426929.6170112-7.5780334 1.8510338c-2.1511043 1.2340225-3.7982357 2.8895677-4.941394 4.9666353-1.1431583 2.0770677-1.7147374 4.3496241-1.7147374 6.8176692s.5715791 4.7406015 1.7147374 6.8176692c1.1431583 2.0770676 2.7902897 3.7326128 4.941394 4.9666353 2.1511044 1.2340226 4.6771155 1.8510339 7.5780334 1.8510339zm0-6.8176692c-1.966724 0-3.4970811-.6536654-4.5910713-1.9609963-1.0939902-1.3073308-1.6409853-2.9262218-1.6409853-4.8566729s.5469951-3.5493421 1.6409853-4.8566729c1.0939902-1.3073309 2.6243473-1.9609963 4.5910713-1.9609963 2.0158921 0 3.5585412.6597745 4.6279474 1.9793233 1.0694061 1.3195489 1.6041091 2.968985 1.6041091 4.9483083 0 1.906015-.546995 3.5004699-1.6409852 4.7833647-1.0939902 1.2828947-2.6243473 1.9243421-4.5910713 1.9243421zm23.2401215 12.9755639v-9.6766917c.417929.9041353 1.137013 1.6677631 2.157251 2.2908834s2.21871.9346805 3.595417.9346805c1.597963 0 3.029984-.4031955 4.296063-1.2095865 1.266078-.806391 2.24944-1.9365601 2.950086-3.3905075.700645-1.4539474 1.050968-3.1217105 1.050968-5.0032895 0-1.906015-.350323-3.5921053-1.050968-5.0582707-.700646-1.4661654-1.66557-2.5963346-2.894772-3.3905075-1.229203-.7941729-2.642786-1.1912594-4.240749-1.1912594-1.401291 0-2.624347.3054511-3.669169.9163534s-1.776198 1.3806391-2.194127 2.3092105v-2.712406h-7.22771v25.181391zm3.134467-12.1691729c-1.007946 0-1.831512-.3604324-2.470697-1.081297-.639186-.7208647-.958778-1.6555452-.958778-2.8040414s.319592-2.0770677.958778-2.7857143c.639185-.7086466 1.462751-1.0629699 2.470697-1.0629699s1.831511.3543233 2.470697 1.0629699c.639185.7086466.958778 1.6372181.958778 2.7857143 0 1.1240602-.319593 2.0526316-.958778 2.7857143-.639186.7330827-1.462751 1.0996241-2.470697 1.0996241zm20.916929 5.8280075c2.704245 0 4.855349-.5864662 6.453313-1.7593985 1.597963-1.1729324 2.396945-2.7612782 2.396945-4.7650376 0-1.3928572-.430221-2.5108083-1.290663-3.3538534s-2.12652-1.4722744-3.798236-1.887688l-4.314501-1.099624c-1.03253-.268797-1.548795-.7330827-1.548795-1.3928572 0-.3421052.147505-.6109022.442513-.806391.295009-.1954887.676062-.293233 1.143159-.293233.614601 0 1.09399.1343985 1.438166.4031955.344177.2687969.516266.6597744.516266 1.1729323h7.117082c0-1.8327068-.774398-3.243891-2.323193-4.2335526-1.548795-.9896617-3.798235-1.4844925-6.748321-1.4844925-2.655078 0-4.750868.555921-6.287371 1.6677631s-2.304755 2.6207707-2.304755 4.5267857c0 1.4172933.448659 2.5963346 1.345977 3.5371241s2.181834 1.5944549 3.85355 1.9609962l4.351376.9896617c.835858.1954887 1.253787.5986842 1.253787 1.2095865 0 .3909774-.15365.7025376-.460951.9346804-.307301.2321429-.706791.3482143-1.198472.3482143-.688354 0-1.241495-.1588346-1.659424-.4765038-.417929-.3176691-.626893-.7330827-.626893-1.2462406h-7.190835c0 1.1973685.374907 2.2542294 1.124721 3.1705827.749813.9163534 1.831511 1.625 3.245094 2.1259399 1.413583.5009398 3.103737.7514098 5.070461.7514098z" fill="#263549"/><path d="m32.4379158 46.9172932c2.2946349 0 4.2870196-.3854037 5.9771539-1.1562111 1.6901344-.7708074 2.9978296-1.8780783 3.9230856-3.3218129.925256-1.4437345 1.3878841-3.1566398 1.3878841-5.138716v-16.7742374h-7.6981302v16.2970709c0 1.1011534-.3269238 1.9820762-.9807714 2.6427683-.6538476.660692-1.5235883.9910381-2.609222.9910381-1.0856338 0-1.9553744-.3242286-2.609222-.9726856s-.9807714-1.5354973-.9807714-2.6611208v-16.2970709h-7.7351404v16.7742374c0 1.9820762.462628 3.6949815 1.387884 5.138716.925256 1.4437346 2.2391196 2.5510055 3.9415907 3.3218129s3.7010241 1.1562111 5.9956591 1.1562111zm20.4748879-.6973971 4.2191675-7.4144332 4.2191675 7.4144332h8.438335l-8.2162736-12.8467902 8.2162736-12.8467901h-8.438335l-4.2191675 7.4144332-4.2191675-7.4144332h-8.438335l8.2162735 12.8467901-8.2162735 12.8467902z" fill="#fff"/></g></g></svg>